<?xml version="1.0" standalone="no"?>
<!DOCTYPE svg PUBLIC "-//W3C//DTD SVG 1.1//EN" "http://www.w3.org/Graphics/SVG/1.1/DTD/svg11.dtd" >
<svg xmlns="http://www.w3.org/2000/svg" xmlns:xlink="http://www.w3.org/1999/xlink" version="1.1">
<metadata>
Created by FontForge 20170731 at Wed Jul  6 11:10:17 2022
 By Aleksey,,,
(C)2004 House Industries/Brand Design Co., Inc. All Rights Reserved.
</metadata>
<defs>
<font id="NeutrafaceText-Light" horiz-adv-x="1024" >
  <font-face 
    font-family="Neutraface Text Light"
    font-weight="300"
    font-stretch="normal"
    units-per-em="2048"
    panose-1="2 0 6 0 5 0 0 2 0 4"
    ascent="1597"
    descent="-451"
    x-height="836"
    cap-height="1393"
    bbox="-102 -526 2267 1987"
    underline-thickness="40"
    underline-position="-312"
    unicode-range="U+000D-FB04"
  />
<missing-glyph horiz-adv-x="499" 
 />
    <glyph glyph-name="ff" unicode="ff" horiz-adv-x="1077" 
d="M207 0v768h-133v68h133v389q0 122 55 180.5t141 58.5q70 0 112 -25t75 -73l-60 -45q-19 26 -31 39t-36 23t-57 10q-57 0 -88 -38t-31 -132v-387h413v430q0 122 55.5 180.5t141.5 58.5q70 0 111.5 -25t74.5 -73l-59 -45q-28 38 -52.5 55t-72.5 17q-57 0 -88 -38t-31 -132
v-428h224v-68h-224v-768h-80v768h-413v-768h-80z" />
    <glyph glyph-name="fi" unicode="fi" horiz-adv-x="952" 
d="M739 1128q-27 0 -47 19t-20 49q0 29 20 48.5t47 19.5t47.5 -19.5t20.5 -48.5q0 -30 -20.5 -49t-47.5 -19zM207 0v768h-133v68h133v430q0 122 55 180.5t141 58.5q70 0 112 -25t75 -73l-60 -45q-19 26 -31 39t-36 23t-57 10q-57 0 -88 -38t-31 -132v-428h493v-836h-80v768
h-413v-768h-80z" />
    <glyph glyph-name="fl" unicode="fl" horiz-adv-x="964" 
d="M207 0v766h-133v70h133v366q0 145 85.5 224t205.5 79q118 0 200 -76t82 -227v-1202h-80v1196q0 116 -54 177t-148 61q-98 0 -154.5 -60t-56.5 -178v-360h223v-70h-223v-766h-80z" />
    <glyph glyph-name="ffi" unicode="ffi" horiz-adv-x="1445" 
d="M1233 1128q-27 0 -47.5 19t-20.5 49q0 29 20.5 48.5t47.5 19.5t47 -19.5t20 -48.5q0 -30 -20 -49t-47 -19zM207 0v768h-133v68h133v389q0 122 55 180.5t141 58.5q70 0 112 -25t75 -73l-60 -45q-19 26 -31 39t-36 23t-57 10q-57 0 -88 -38t-31 -132v-387h413v430
q0 122 55.5 180.5t141.5 58.5q70 0 111.5 -25t74.5 -73l-59 -45q-28 38 -52.5 55t-72.5 17q-57 0 -88 -38t-31 -132v-428h494v-836h-80v768h-414v-768h-80v768h-413v-768h-80z" />
    <glyph glyph-name="ffl" unicode="ffl" horiz-adv-x="1458" 
d="M207 0v768h-133v68h133v389q0 122 55 180.5t141 58.5q70 0 112 -25t75 -73l-60 -45q-19 26 -31 39t-36 23t-57 10q-57 0 -88 -38t-31 -132v-387h413v366q0 145 85.5 224t205.5 79q118 0 200.5 -76t82.5 -227v-1202h-80v1196q0 116 -54.5 177t-148.5 61q-98 0 -154.5 -60
t-56.5 -178v-360h224v-68h-224v-768h-80v768h-413v-768h-80z" />
    <glyph glyph-name="fj" unicode="fj" horiz-adv-x="952" 
d="M739 1128q-27 0 -47 19t-20 49q0 29 20 48.5t47 19.5t47.5 -19.5t20.5 -48.5q0 -30 -20.5 -49t-47.5 -19zM594 -455q-107 0 -170 74l49 51q51 -55 117 -55q110 0 110 158v995h-413v-768h-80v768h-133v68h133v430q0 122 55 180.5t141 58.5q70 0 112 -25t75 -73l-60 -45
q-19 26 -31 39t-36 23t-57 10q-57 0 -88 -38t-31 -132v-428h493v-1065q0 -110 -52.5 -168t-133.5 -58z" />
    <glyph glyph-name="ft" unicode="ft" horiz-adv-x="1136" 
d="M893 -16q-86 0 -139.5 58t-53.5 179v547h-413v-768h-80v768h-133v68h133v430q0 122 54.5 180.5t139.5 58.5q124 0 185 -102l-62 -41q-25 37 -50.5 54.5t-70.5 17.5q-116 0 -116 -170v-428h413v436h80v-436h242v-68h-242v-545q0 -168 113 -168q35 0 61.5 10t39 20.5
t32.5 31.5l51 -49q-35 -41 -77 -62.5t-107 -21.5z" />
    <glyph glyph-name="fb" unicode="fb" horiz-adv-x="1654" 
d="M1135 -16q-119 0 -216.5 63t-142.5 162l4 -209h-80v1196q0 116 -54 177t-148 61q-98 0 -154.5 -60t-56.5 -178v-360h223v-70h-223v-766h-80v766h-133v70h133v366q0 145 85.5 224t205.5 79q118 0 200 -76t82 -227v-565q48 98 140 157.5t215 59.5q179 0 296 -124t117 -310
t-117 -311t-296 -125zM1124 55q153 0 246.5 103.5t93.5 261.5t-93.5 260t-246.5 102q-156 0 -253 -102.5t-97 -259.5q0 -158 97 -261.5t253 -103.5z" />
    <glyph glyph-name="fh" unicode="fh" horiz-adv-x="1570" 
d="M207 0v766h-133v70h133v366q0 145 85.5 224t205.5 79q118 0 200 -76t82 -227v-545q42 91 126 144t192 53q141 0 226 -89t85 -243v-522h-80v508q0 131 -61 201.5t-181 70.5q-137 0 -222 -84.5t-85 -228.5v-467h-80v1196q0 116 -54 177t-148 61q-98 0 -154.5 -60
t-56.5 -178v-360h223v-70h-223v-766h-80z" />
    <glyph glyph-name="fk" unicode="fk" horiz-adv-x="1447" 
d="M780 260v-260h-80v1196q0 116 -54 177t-148 61q-98 0 -154.5 -60t-56.5 -178v-360h223v-70h-223v-766h-80v766h-133v70h133v366q0 145 85.5 224t205.5 79q118 0 200 -76t82 -227v-764q0 -30 -6 -90l463 488h94l-336 -355l396 -481h-99l-352 428z" />
    <glyph glyph-name="fff" unicode="fff" horiz-adv-x="1574" 
d="M1194 768h-414v-768h-80v768h-413v-768h-80v768h-133v68h133v389q0 122 55 180.5t141 58.5q70 0 112 -25t75 -73l-60 -45q-19 26 -31 39t-36 23t-57 10q-57 0 -88 -38t-31 -132v-387h413v409q0 122 55.5 181t141.5 59q69 0 111 -25t75 -74l-59 -45q-28 38 -52.5 55
t-72.5 17q-57 0 -88 -38t-31 -132v-407h414v430q0 122 55.5 180.5t141.5 58.5q70 0 111.5 -25t74.5 -73l-59 -45q-28 38 -52.5 55t-72.5 17q-57 0 -88 -38t-31 -132v-428h223v-68h-223v-768h-80v768z" />
    <glyph glyph-name="ffj" unicode="ffj" horiz-adv-x="1445" 
d="M1233 1128q-27 0 -47.5 19t-20.5 49q0 29 20.5 48.5t47.5 19.5t47 -19.5t20 -48.5q0 -30 -20 -49t-47 -19zM1087 -455q-106 0 -169 74l49 51q51 -55 116 -55q111 0 111 158v995h-414v-768h-80v768h-413v-768h-80v768h-133v68h133v389q0 122 55 180.5t141 58.5
q70 0 112 -25t75 -73l-60 -45q-19 26 -31 39t-36 23t-57 10q-57 0 -88 -38t-31 -132v-387h413v430q0 122 55.5 180.5t141.5 58.5q70 0 111.5 -25t74.5 -73l-59 -45q-28 38 -52.5 55t-72.5 17q-57 0 -88 -38t-31 -132v-428h494v-1065q0 -110 -53 -168t-134 -58z" />
    <glyph glyph-name="fft" unicode="fft" horiz-adv-x="1630" 
d="M1386 -16q-86 0 -139 58t-53 179v547h-414v-768h-80v768h-413v-768h-80v768h-133v68h133v389q0 122 55 180.5t141 58.5q70 0 112 -25t75 -73l-60 -45q-19 26 -31 39t-36 23t-57 10q-57 0 -88 -38t-31 -132v-387h413v430q0 121 55 180t140 59q123 0 184 -102l-61 -41
q-25 37 -50.5 54.5t-70.5 17.5q-117 0 -117 -170v-428h414v436h80v-436h242v-68h-242v-545q0 -168 112 -168q35 0 61.5 9.5t39.5 20.5t33 32l51 -49q-35 -40 -77.5 -62t-107.5 -22z" />
    <glyph glyph-name="ffb" unicode="ffb" horiz-adv-x="2148" 
d="M780 836h224v-68h-224v-768h-80v768h-413v-768h-80v768h-133v68h133v389q0 122 55 180.5t141 58.5q70 0 112 -25t75 -73l-60 -45q-19 26 -31 39t-36 23t-57 10q-57 0 -88 -38t-31 -132v-387h413v366q0 145 85.5 224t205.5 79q118 0 200.5 -76t82.5 -227v-565
q48 98 139.5 157.5t214.5 59.5q179 0 296.5 -124.5t117.5 -309.5q0 -186 -117.5 -311t-296.5 -125q-119 0 -216 63t-142 162l4 -209h-80v1196q0 116 -54.5 177t-148.5 61q-98 0 -154.5 -60t-56.5 -178v-360zM1618 55q153 0 246.5 103.5t93.5 261.5t-93.5 260t-246.5 102
q-156 0 -253 -102.5t-97 -259.5q0 -158 97 -261.5t253 -103.5z" />
    <glyph glyph-name="ffh" unicode="ffh" horiz-adv-x="2064" 
d="M700 836v366q0 145 85.5 224t205.5 79q118 0 200.5 -76t82.5 -227v-545q42 91 125.5 144t191.5 53q141 0 226.5 -89t85.5 -243v-522h-80v508q0 131 -61 201.5t-181 70.5q-137 0 -222 -84.5t-85 -228.5v-467h-80v1196q0 116 -54.5 177t-148.5 61q-98 0 -154.5 -60
t-56.5 -178v-360h224v-68h-224v-768h-80v768h-413v-768h-80v768h-133v68h133v389q0 122 55 180.5t141 58.5q70 0 112 -25t75 -73l-60 -45q-19 26 -31 39t-36 23t-57 10q-57 0 -88 -38t-31 -132v-387h413z" />
    <glyph glyph-name="ffk" unicode="ffk" horiz-adv-x="1943" 
d="M700 836v366q0 145 85.5 224t205.5 79q118 0 200.5 -76t82.5 -227v-764q0 -30 -6 -90l463 488h94l-336 -355l395 -481h-98l-352 428l-160 -168v-260h-80v1196q0 116 -54.5 177t-148.5 61q-98 0 -154.5 -60t-56.5 -178v-360h224v-68h-224v-768h-80v768h-413v-768h-80v768
h-133v68h133v389q0 122 55 180.5t141 58.5q70 0 112 -25t75 -73l-60 -45q-19 26 -31 39t-36 23t-57 10q-57 0 -88 -38t-31 -132v-387h413z" />
    <glyph glyph-name="fiacute" unicode="f&#xed;" horiz-adv-x="952" 
d="M705 1018l153 399h94l-180 -399h-67zM207 0v768h-133v68h133v430q0 122 55 180.5t141 58.5q70 0 112 -25t75 -73l-60 -45q-19 26 -31 39t-36 23t-57 10q-57 0 -88 -38t-31 -132v-428h493v-836h-80v768h-413v-768h-80z" />
    <glyph glyph-name="ficircumflex" unicode="f&#xee;" horiz-adv-x="952" 
d="M498 1012l231 372h19l231 -372h-72l-168 243l-170 -243h-71zM207 0v768h-133v68h133v430q0 122 55 180.5t141 58.5q70 0 112 -25t75 -73l-60 -45q-19 26 -31 39t-36 23t-57 10q-57 0 -88 -38t-31 -132v-428h493v-836h-80v768h-413v-768h-80z" />
    <glyph glyph-name="fidieresis" unicode="f&#xef;" horiz-adv-x="952" 
d="M895 1067q-27 0 -46.5 19.5t-19.5 46.5t19.5 46t46.5 19t46.5 -19t19.5 -46t-19.5 -46.5t-46.5 -19.5zM584 1067q-27 0 -46.5 19.5t-19.5 46.5t19.5 46t46.5 19t46 -19t19 -46t-19.5 -46.5t-45.5 -19.5zM207 0v768h-133v68h133v430q0 122 55 180.5t141 58.5q70 0 112 -25
t75 -73l-60 -45q-19 26 -31 39t-36 23t-57 10q-57 0 -88 -38t-31 -132v-428h493v-836h-80v768h-413v-768h-80z" />
    <glyph glyph-name="ffiacute" unicode="ff&#xed;" horiz-adv-x="1445" 
d="M1198 1018l154 399h94l-180 -399h-68zM207 0v768h-133v68h133v389q0 122 55 180.5t141 58.5q70 0 112 -25t75 -73l-60 -45q-19 26 -31 39t-36 23t-57 10q-57 0 -88 -38t-31 -132v-387h413v430q0 122 55.5 180.5t141.5 58.5q70 0 111.5 -25t74.5 -73l-59 -45
q-28 38 -52.5 55t-72.5 17q-57 0 -88 -38t-31 -132v-428h494v-836h-80v768h-414v-768h-80v768h-413v-768h-80z" />
    <glyph glyph-name="fficircumflex" unicode="ff&#xee;" horiz-adv-x="1445" 
d="M991 1012l232 372h18l232 -372h-72l-168 243l-170 -243h-72zM207 0v768h-133v68h133v389q0 122 55 180.5t141 58.5q70 0 112 -25t75 -73l-60 -45q-19 26 -31 39t-36 23t-57 10q-57 0 -88 -38t-31 -132v-387h413v430q0 122 55.5 180.5t141.5 58.5q70 0 111.5 -25t74.5 -73
l-59 -45q-28 38 -52.5 55t-72.5 17q-57 0 -88 -38t-31 -132v-428h494v-836h-80v768h-414v-768h-80v768h-413v-768h-80z" />
    <glyph glyph-name="ffidieresis" unicode="ff&#xef;" horiz-adv-x="1445" 
d="M1389 1067q-27 0 -46.5 19.5t-19.5 46.5t19.5 46t46.5 19t46 -19t19 -46t-19 -46.5t-46 -19.5zM1077 1067q-27 0 -46 19.5t-19 46.5t19 46t46 19t46.5 -19t19.5 -46t-19.5 -46.5t-46.5 -19.5zM207 0v768h-133v68h133v389q0 122 55 180.5t141 58.5q70 0 112 -25t75 -73
l-60 -45q-19 26 -31 39t-36 23t-57 10q-57 0 -88 -38t-31 -132v-387h413v430q0 122 55.5 180.5t141.5 58.5q70 0 111.5 -25t74.5 -73l-59 -45q-28 38 -52.5 55t-72.5 17q-57 0 -88 -38t-31 -132v-428h494v-836h-80v768h-414v-768h-80v768h-413v-768h-80z" />
    <glyph glyph-name="tt" unicode="tt" horiz-adv-x="1220" 
d="M397 -16q-86 0 -139 58t-53 179v547h-131v68h131v436h80v-436h499v436h80v-436h242v-68h-242v-545q0 -168 113 -168q35 0 61.5 10t39 20.5t32.5 31.5l51 -49q-35 -41 -77 -62.5t-107 -21.5q-86 0 -139.5 58t-53.5 179v547h-499v-545q0 -168 112 -168q35 0 61.5 10
t39 20.5t32.5 31.5l52 -49q-35 -40 -77.5 -62t-107.5 -22z" />
    <glyph glyph-name="fffi" unicode="fffi" horiz-adv-x="1939" 
d="M1726 1128q-27 0 -47 19t-20 49q0 29 20 48.5t47 19.5t47.5 -19.5t20.5 -48.5q0 -30 -20.5 -49t-47.5 -19zM700 768h-413v-768h-80v768h-133v68h133v389q0 122 55 180.5t141 58.5q70 0 112 -25t75 -73l-60 -45q-19 26 -31 39t-36 23t-57 10q-57 0 -88 -38t-31 -132v-387
h413v409q0 122 55.5 181t141.5 59q69 0 111 -25t75 -74l-59 -45q-28 38 -52.5 55t-72.5 17q-57 0 -88 -38t-31 -132v-407h414v430q0 122 55.5 180.5t141.5 58.5q70 0 111.5 -25t74.5 -73l-59 -45q-28 38 -52.5 55t-72.5 17q-57 0 -88 -38t-31 -132v-428h493v-836h-79v768
h-414v-768h-80v768h-414v-768h-80v768z" />
    <glyph glyph-name="fffl" unicode="fffl" horiz-adv-x="1951" 
d="M700 768h-413v-768h-80v768h-133v68h133v389q0 122 55 180.5t141 58.5q70 0 112 -25t75 -73l-60 -45q-19 26 -31 39t-36 23t-57 10q-57 0 -88 -38t-31 -132v-387h413v409q0 122 55.5 181t141.5 59q69 0 111 -25t75 -74l-59 -45q-28 38 -52.5 55t-72.5 17q-57 0 -88 -38
t-31 -132v-407h414v366q0 145 85.5 224t205.5 79q118 0 200 -76t82 -227v-1202h-79v1196q0 116 -54.5 177t-148.5 61q-98 0 -154.5 -60t-56.5 -178v-360h223v-68h-223v-768h-80v768h-414v-768h-80v768z" />
    <glyph glyph-name=".notdef" horiz-adv-x="499" 
 />
    <glyph glyph-name=".null" horiz-adv-x="0" 
 />
    <glyph glyph-name="nonmarkingreturn" horiz-adv-x="682" 
 />
    <glyph glyph-name="CR" unicode="&#xd;" horiz-adv-x="499" 
 />
    <glyph glyph-name="space" unicode=" " horiz-adv-x="499" 
 />
    <glyph glyph-name="exclam" unicode="!" horiz-adv-x="458" 
d="M199 348l-15 1045h90l-14 -1045h-61zM229 -14q-30 0 -53.5 22.5t-23.5 54.5q0 33 23.5 56.5t53.5 23.5q31 0 54.5 -23.5t23.5 -56.5q0 -32 -23.5 -54.5t-54.5 -22.5z" />
    <glyph glyph-name="quotedbl" unicode="&#x22;" horiz-adv-x="460" 
d="M301 997l-10 396h84l-10 -396h-64zM96 997l-10 396h84l-10 -396h-64z" />
    <glyph glyph-name="numbersign" unicode="#" horiz-adv-x="882" 
d="M147 393l58 228h-148v69h164l64 254h-164v70h180l59 235h74l-59 -235h227l60 235h73l-59 -235h149v-70h-166l-63 -254h164v-69h-182l-56 -228h-76l58 228h-228l-55 -228h-74zM295 690h227l64 254h-228z" />
    <glyph glyph-name="dollar" unicode="$" horiz-adv-x="827" 
d="M375 -14q-116 11 -205.5 72.5t-128.5 144.5l68 33q37 -73 106 -122t160 -59v449l-25 8q-129 43 -192.5 104.5t-63.5 167.5q0 104 80 171t201 75v219h69v-221q95 -10 165.5 -60t103.5 -118l-64 -35q-71 127 -205 143v-399l39 -12q149 -51 214 -117t65 -176
q0 -117 -86 -190.5t-232 -79.5v-230h-69v232zM375 961q-91 -6 -146 -51.5t-55 -125.5q0 -79 44.5 -120.5t150.5 -77.5l6 -2v377zM444 53q110 6 174 59.5t64 141.5t-48 133.5t-169 85.5l-21 6v-426z" />
    <glyph glyph-name="percent" unicode="%" horiz-adv-x="1480" 
d="M354 449q-119 0 -206 82.5t-87 207.5q0 123 87.5 207t205.5 84q117 0 204 -84t87 -207q0 -124 -87 -207t-204 -83zM385 0l631 1014h82l-631 -1014h-82zM1128 -16q-118 0 -204 82.5t-86 207.5q0 124 86 207.5t204 83.5t204.5 -83.5t86.5 -207.5q0 -125 -86.5 -207.5
t-204.5 -82.5zM354 516q91 0 153 62.5t62 160.5t-62 160t-153 62t-154 -62t-63 -160t63 -160.5t154 -62.5zM1128 51q91 0 153 62.5t62 160.5q0 97 -62 159.5t-153 62.5t-153 -62.5t-62 -159.5q0 -98 62 -160.5t153 -62.5z" />
    <glyph glyph-name="ampersand" unicode="&#x26;" horiz-adv-x="1300" 
d="M588 805l352 -424q68 164 68 379h77q0 -254 -90 -445l262 -315h-104l-201 242q-80 -125 -199 -191.5t-264 -66.5q-177 0 -286 99t-109 267q0 37 5 70t17 63.5t23.5 56t33.5 51.5t38 44.5t46.5 42t48.5 37.5t54 36.5t54 33.5t57 34l-45 55q-111 135 -111 269
q0 115 74 190.5t193 75.5q115 0 189.5 -77t74.5 -189q0 -100 -68.5 -181.5t-189.5 -156.5zM541 862q106 65 164.5 130.5t58.5 150.5t-51 137.5t-131 52.5q-84 0 -134.5 -51t-50.5 -139q0 -108 88 -213zM901 303l-383 461q-67 -38 -105 -62t-89 -65t-78 -78.5t-46.5 -92
t-19.5 -116.5q0 -134 84.5 -212.5t224.5 -78.5q131 0 237 63t175 181z" />
    <glyph glyph-name="quotesingle" unicode="'" horiz-adv-x="256" 
d="M96 997l-10 396h84l-10 -396h-64z" />
    <glyph glyph-name="parenleft" unicode="(" horiz-adv-x="534" 
d="M422 -279q-338 358 -338 875q0 516 338 874l53 -47q-307 -350 -307 -827t307 -827z" />
    <glyph glyph-name="parenright" unicode=")" horiz-adv-x="534" 
d="M113 -279l-54 48q306 349 306 827t-306 827l54 47q338 -362 338 -874q0 -513 -338 -875z" />
    <glyph glyph-name="asterisk" unicode="*" horiz-adv-x="776" 
d="M350 782l17 269l-217 -140l-37 66l243 113l-243 112l37 66l217 -140l-17 265h76l-16 -265l217 140l37 -66l-244 -112l242 -113l-35 -66l-217 140l16 -269h-76z" />
    <glyph glyph-name="plus" unicode="+" horiz-adv-x="727" 
d="M324 195v270h-244v74h244v270h77v-270h246v-74h-246v-270h-77z" />
    <glyph glyph-name="comma" unicode="," horiz-adv-x="368" 
d="M82 -227l80 219q-26 6 -43 27t-17 49q0 33 25.5 57.5t56.5 24.5q33 0 57.5 -24.5t24.5 -57.5q0 -23 -8 -39l-125 -256h-51z" />
    <glyph glyph-name="hyphen" unicode="-" horiz-adv-x="569" 
d="M104 426v74h359v-74h-359z" />
    <glyph glyph-name="hyphen" unicode="&#xad;" horiz-adv-x="569" 
d="M104 426v74h359v-74h-359z" />
    <glyph glyph-name="period" unicode="." horiz-adv-x="368" 
d="M184 -14q-31 0 -56.5 24.5t-25.5 57.5q0 34 25 58t57 24q33 0 57.5 -23.5t24.5 -58.5q0 -33 -24.5 -57.5t-57.5 -24.5z" />
    <glyph glyph-name="slash" unicode="/" horiz-adv-x="901" 
d="M59 -262l637 1741h84l-637 -1741h-84z" />
    <glyph glyph-name="zero" unicode="0" horiz-adv-x="1239" 
d="M618 -16q-142 0 -263 68t-193 189t-72 267q0 148 72 268.5t192.5 187t263.5 66.5q144 0 265 -66.5t193.5 -187t72.5 -268.5q0 -146 -72 -267t-194 -189t-265 -68zM618 57q188 0 317.5 130t129.5 321q0 193 -129 320.5t-318 127.5t-316.5 -127t-127.5 -321
q0 -192 128 -321.5t316 -129.5z" />
    <glyph glyph-name="one" unicode="1" horiz-adv-x="536" 
d="M287 0v942h-240v72h322v-1014h-82z" />
    <glyph glyph-name="two" unicode="2" horiz-adv-x="954" 
d="M68 0v14l419 357q120 102 180 186t60 174q0 111 -64.5 168t-170.5 57q-215 0 -291 -231l-72 20q35 132 132.5 208.5t230.5 76.5q141 0 229 -79t88 -220q0 -104 -67 -200.5t-199 -206.5l-230 -193q-17 -15 -40 -30.5t-37 -24.5l-15 -8q62 6 101 6h520v-74h-774z" />
    <glyph glyph-name="three" unicode="3" horiz-adv-x="980" 
d="M475 -211q-143 0 -257 67.5t-167 188.5l70 35q52 -104 142 -160.5t212 -56.5q142 0 238 89.5t96 246.5q0 154 -87.5 236.5t-248.5 82.5q-78 0 -162 -35l-12 17l356 389q11 13 25.5 27.5l23.5 23.5l9 8q-47 -6 -86 -6h-473v72h700v-8l-334 -367q-11 -13 -27.5 -26
t-26.5 -20l-11 -7q195 12 316.5 -95.5t121.5 -291.5q0 -126 -59 -221t-153 -142t-206 -47z" />
    <glyph glyph-name="four" unicode="4" horiz-adv-x="1036" 
d="M811 139h158v-76h-158v-256h-82v256h-690v15l756 960h16v-899zM729 139v617l6 98q-32 -51 -59 -86l-440 -559q-12 -16 -29.5 -35t-28.5 -30l-12 -11q55 6 94 6h469z" />
    <glyph glyph-name="five" unicode="5" horiz-adv-x="972" 
d="M465 -211q-133 0 -233.5 54.5t-153.5 146.5l63 41q104 -168 324 -168q151 0 244.5 93.5t93.5 246.5q0 155 -86.5 244.5t-247.5 89.5q-101 0 -167 -30.5t-126 -82.5l-14 4v586h659v-72h-585v-397q102 65 239 65q183 0 297.5 -113t114.5 -294q0 -182 -121 -298t-301 -116z
" />
    <glyph glyph-name="six" unicode="6" horiz-adv-x="1017" 
d="M510 -16q-181 0 -299.5 113.5t-118.5 291.5q0 72 30 142.5t87 158.5l371 559h90l-295 -446q-11 -16 -31.5 -41.5t-35.5 -42.5l-15 -17q102 95 227 95q175 0 290.5 -115.5t115.5 -292.5q0 -171 -117.5 -288t-298.5 -117zM508 57q147 0 241.5 93t94.5 239q0 154 -89.5 244
t-244.5 90q-149 0 -242.5 -97t-93.5 -237q0 -148 91 -240t243 -92z" />
    <glyph glyph-name="seven" unicode="7" horiz-adv-x="888" 
d="M172 -193l547 1135h-647v72h757v-15l-573 -1192h-84z" />
    <glyph glyph-name="eight" unicode="8" horiz-adv-x="1046" 
d="M522 -16q-195 0 -315.5 104.5t-120.5 269.5q0 128 80.5 218.5t212.5 123.5q-89 32 -141 100.5t-52 164.5q0 130 97.5 215.5t238.5 85.5q143 0 241.5 -85.5t98.5 -215.5q0 -96 -52.5 -164.5t-141.5 -100.5q132 -33 212.5 -123.5t80.5 -218.5q0 -166 -120.5 -270
t-318.5 -104zM522 735q117 0 187.5 63.5t70.5 166.5q0 100 -72 164.5t-186 64.5q-115 0 -185.5 -64t-70.5 -165q0 -104 69 -167t187 -63zM522 59q160 0 257.5 82t97.5 217q0 136 -98 220t-257 84q-158 0 -255 -83.5t-97 -220.5q0 -136 96 -217.5t256 -81.5z" />
    <glyph glyph-name="nine" unicode="9" horiz-adv-x="1034" 
d="M406 -193l266 406q12 18 31 40.5t32 36.5l13 13q-42 -43 -109.5 -69.5t-130.5 -26.5q-180 0 -298 116.5t-118 294.5q0 171 122 291.5t304 120.5q183 0 303.5 -117t120.5 -295q0 -76 -30 -146t-89 -161l-327 -504h-90zM516 279q152 0 248 98t96 241q0 148 -95 243t-247 95
q-151 0 -247.5 -94t-96.5 -244q0 -155 93 -247t249 -92z" />
    <glyph glyph-name="colon" unicode=":" horiz-adv-x="389" 
d="M195 438q-31 0 -56.5 24.5t-25.5 57.5q0 34 25 59t57 25q33 0 57 -24.5t24 -59.5q0 -34 -24 -58t-57 -24zM195 -14q-31 0 -56.5 24.5t-25.5 57.5q0 34 25 59t57 25q33 0 57 -24.5t24 -59.5q0 -34 -24 -58t-57 -24z" />
    <glyph glyph-name="semicolon" unicode=";" horiz-adv-x="389" 
d="M195 438q-31 0 -56.5 24.5t-25.5 57.5q0 34 25 59t57 25q33 0 57 -24.5t24 -59.5q0 -34 -24 -58t-57 -24zM92 -227l80 219q-26 6 -42.5 27t-16.5 49q0 33 25.5 57.5t56.5 24.5q33 0 57 -24t24 -58q0 -23 -8 -39l-125 -256h-51z" />
    <glyph glyph-name="semicolon" unicode="&#x37e;" horiz-adv-x="389" 
d="M195 438q-31 0 -56.5 24.5t-25.5 57.5q0 34 25 59t57 25q33 0 57 -24.5t24 -59.5q0 -34 -24 -58t-57 -24zM92 -227l80 219q-26 6 -42.5 27t-16.5 49q0 33 25.5 57.5t56.5 24.5q33 0 57 -24t24 -58q0 -23 -8 -39l-125 -256h-51z" />
    <glyph glyph-name="less" unicode="&#x3c;" horiz-adv-x="727" 
d="M614 215l-528 274v21l528 270v-80l-401 -200l401 -203v-82z" />
    <glyph glyph-name="equal" unicode="=" horiz-adv-x="727" 
d="M92 580v73h543v-73h-543zM92 348v74h543v-74h-543z" />
    <glyph glyph-name="greater" unicode="&#x3e;" horiz-adv-x="727" 
d="M113 215v80l401 201l-401 202v82l528 -274v-21z" />
    <glyph glyph-name="question" unicode="?" horiz-adv-x="919" 
d="M356 340v379h56q139 0 227 89t88 220q0 146 -81.5 225.5t-215.5 79.5q-113 0 -186.5 -48.5t-124.5 -158.5l-70 35q47 120 147.5 184t233.5 64q168 0 274.5 -101.5t106.5 -279.5q0 -160 -108 -266.5t-269 -112.5v-309h-78zM393 -14q-30 0 -54 23t-24 54q0 33 24 56.5
t54 23.5q31 0 54.5 -23.5t23.5 -56.5q0 -32 -23.5 -54.5t-54.5 -22.5z" />
    <glyph glyph-name="at" unicode="@" horiz-adv-x="1777" 
d="M891 -422q-160 0 -303.5 59.5t-248.5 163.5t-166.5 254.5t-61.5 323.5q0 167 62 316.5t166.5 255.5t248.5 167.5t303 61.5q163 0 307.5 -59.5t247 -160.5t162 -240t59.5 -294q0 -221 -81.5 -329.5t-207.5 -108.5q-94 0 -151 54t-64 153q-90 -211 -303 -211
q-153 0 -255.5 109.5t-102.5 273.5q0 167 103 279t255 112q102 0 178.5 -54.5t118.5 -146.5l-4 182h80v-481q0 -100 33.5 -151.5t111.5 -51.5q94 0 152.5 91.5t58.5 279.5q0 136 -49 259.5t-137 218t-221 150.5t-291 56q-152 0 -283.5 -58.5t-222.5 -157.5t-143 -233
t-52 -282q0 -203 87.5 -369.5t248.5 -264t365 -97.5q194 0 342 92l37 -62q-160 -100 -379 -100zM866 53q122 0 205.5 92t83.5 222q0 133 -83.5 227t-205.5 94q-123 0 -202.5 -93.5t-79.5 -227.5q0 -131 79.5 -222.5t202.5 -91.5z" />
    <glyph glyph-name="A" unicode="A" horiz-adv-x="1333" 
d="M90 0l563 1409h25l565 -1409h-86l-106 270h-770l-107 -270h-84zM309 344h711l-313 795q-9 22 -19 53.5t-16 52.5l-6 21q-21 -78 -41 -127z" />
    <glyph glyph-name="B" unicode="B" horiz-adv-x="1245" 
d="M211 0v1393h442q186 0 279.5 -93t93.5 -241q0 -108 -42.5 -182.5t-129.5 -104.5q131 -31 210 -132t79 -241q0 -86 -25.5 -157t-76 -126t-134 -85.5t-192.5 -30.5h-504zM295 799h387q260 0 260 260q0 119 -70 189.5t-227 70.5h-350v-520zM295 74h410q95 0 164.5 24.5
t110.5 69.5t60 102.5t19 128.5q0 148 -89 237t-268 89h-407v-651z" />
    <glyph glyph-name="C" unicode="C" horiz-adv-x="1497" 
d="M829 -16q-196 0 -358 88.5t-258 252.5t-96 371q0 156 56 290t152.5 226t227 144.5t276.5 52.5q182 0 323.5 -68t229.5 -196l-63 -47q-78 112 -203 173.5t-287 61.5q-177 0 -320 -82.5t-224.5 -228.5t-81.5 -326t81.5 -326t224.5 -228.5t320 -82.5q161 0 291.5 64.5
t214.5 183.5l64 -45q-92 -134 -240.5 -206t-329.5 -72z" />
    <glyph glyph-name="D" unicode="D" horiz-adv-x="1386" 
d="M211 0v1393h297q358 0 560 -187t202 -510t-201 -509.5t-561 -186.5h-297zM295 76h203q169 0 300.5 45.5t215 128t126 195.5t42.5 251t-42.5 251t-126 196t-215 128.5t-300.5 45.5h-203v-1241z" />
    <glyph glyph-name="E" unicode="E" horiz-adv-x="1173" 
d="M211 0v1393h813v-74h-729v-746h653v-73h-653v-426h758v-74h-842z" />
    <glyph glyph-name="F" unicode="F" horiz-adv-x="1138" 
d="M211 0v1393h811v-74h-727v-746h659v-75h-659v-498h-84z" />
    <glyph glyph-name="G" unicode="G" horiz-adv-x="1525" 
d="M834 -16q-198 0 -361 88.5t-259.5 252.5t-96.5 371q0 156 56.5 290t153.5 226t229 144.5t280 52.5q146 0 269.5 -43.5t205.5 -130.5l-56 -57q-149 155 -419 155q-134 0 -251.5 -48.5t-201 -132.5t-132 -202.5t-48.5 -253.5t48.5 -253.5t132 -202.5t200.5 -132.5
t250 -48.5q300 0 475 164v324h-449v74h531v-431q-202 -206 -557 -206z" />
    <glyph glyph-name="H" unicode="H" horiz-adv-x="1400" 
d="M211 0v1393h84v-820h811v820h84v-1393h-84v498h-811v-498h-84z" />
    <glyph glyph-name="I" unicode="I" horiz-adv-x="522" 
d="M219 0v1393h84v-1393h-84z" />
    <glyph glyph-name="J" unicode="J" horiz-adv-x="974" 
d="M414 -16q-220 0 -328 184l68 45q90 -154 258 -154q121 0 192.5 73.5t71.5 215.5v1045h84v-1049q0 -173 -96 -266.5t-250 -93.5z" />
    <glyph glyph-name="K" unicode="K" horiz-adv-x="1202" 
d="M287 492q72 122 84 139l602 762h94l-541 -693l594 -700h-104l-543 641l-178 -219v0v0v0v0v-1v0v0v-1v0v0v-1v0v-1v0v-1v0v-1v0v-1v-1v-1v0v-1v-1v-1v-1v-1v-1v-1v-1v-1v-1v-1v-1v-1v-1v-1v-1v-1v-1v-1v-1v-1v-1v-1v-1v-1v-1v-1v-1v-1v-1v-1v-1v-1v-1v-1v-1v-1v-1v-1v-1
v-1v-1v-1v-1v-1v-1v-1v-1v-1v-1v-1v-1v-1v-1v-1v-1v-1v-1v-1v-1v-1v-1v-1v-1v-1v-1v-1v-1v-1v-1v-1v-1v-1v-1v-2v-1v-1v-1v-1v-1v-1v-1v-1v-2v-1v-1v-1v-1v-1v-2v-1v-1v-1v-1v-1v-2v-1v-1v-1v-1v-2v-1v-1v-1v-2v-1v-1v-1v-2v-1v-1v-1v-2v-1v-1v-1v-2v-1v-1v-2v-1v-1v-2v-1
v-1v-2v-1v-1v-2v-1v-1v-2v-1v-1v-2v-1v-1v-2v-1v-1v-2v-1v-2v-1v-1v-2v-1v-2v-1v-2v-1v-1v-2v-1v-2v-1v-2v-1v-1v-2v-1v-2v-1v-2v-1v-2v-1v-2v-1v-2v-1v-2v-1v-2v-1v-2v-1v-2v-1v-2v-1v-2v-1v-2v-1v-2v-2v-1v-2v-1v-2v-1v-2v-1v-2v-2v-1v-2v-1v-2v-2v-1v-2v-1v-2v-2v-1v-2
v-1v-2v-2v-1v-2v-2v-1v-2v-2v-1v-2v-2v-1v-2v-2v-1v-2v-2v-1v-2v-2v-1v-2v-2v-1v-2v-2v-2v-1v-2v-2v-1v-2v-2v-2v-1v-2v-2v-2v-1v-2v-2v-2v-1v-2v-2v-2v-1v-2v-2v-2v-2v-1v-2v-2v-2v-2v-1v-2v-2v-2v-2v-1v-2v-2v-2v-2v-2v-1v-2v-2v-2v-2v-2v-2v-1v-2v-2v-2v-2v-2v-2v-1v-9
h-84v1393h84v-744q0 -33 -8 -157z" />
    <glyph glyph-name="L" unicode="L" horiz-adv-x="1048" 
d="M211 0v1393h84v-1319h670v-74h-754z" />
    <glyph glyph-name="M" unicode="M" horiz-adv-x="1720" 
d="M211 0v1409h20l629 -827l629 827h20v-1409h-79v1106l4 121q-39 -68 -76 -115l-490 -643h-22l-484 643q-16 20 -34.5 49t-29.5 47l-11 19q4 -72 4 -121v-1106h-80z" />
    <glyph glyph-name="N" unicode="N" horiz-adv-x="1472" 
d="M1237 -16l-891 1155l-63 92q6 -64 6 -105v-1126h-78v1409h25l890 -1155l64 -92q-6 63 -6 104v1127h78v-1409h-25z" />
    <glyph glyph-name="O" unicode="O" horiz-adv-x="1658" 
d="M829 -16q-196 0 -358 88.5t-258 252.5t-96 371q0 156 56 290t152.5 226t227 144.5t276.5 52.5t277 -52.5t227 -144.5t152.5 -226t56.5 -290t-56.5 -290t-152.5 -226t-227 -144t-277 -52zM829 59q132 0 248.5 48.5t199.5 132.5t131 202.5t48 253.5t-48 253.5t-131 202.5
t-199.5 132.5t-248.5 48.5q-177 0 -320 -82.5t-224.5 -228.5t-81.5 -326t81.5 -326t224.5 -228.5t320 -82.5z" />
    <glyph glyph-name="P" unicode="P" horiz-adv-x="1179" 
d="M211 0v1393h285q273 0 412 -141t139 -378q0 -112 -33.5 -204.5t-100 -163t-173 -109.5t-244.5 -39h-201v-358h-84zM295 432h192q127 0 221 34t148 95.5t79.5 139t25.5 173.5q0 97 -25.5 175t-79.5 140t-148 96t-221 34h-192v-887z" />
    <glyph glyph-name="Q" unicode="Q" horiz-adv-x="1658" 
d="M1329 176l217 -227l-59 -53l-219 229q-190 -141 -439 -141q-196 0 -358 88.5t-258 252.5t-96 371q0 156 56 290t152.5 226t227 144.5t276.5 52.5t277 -52.5t227 -144.5t152.5 -226t56.5 -290q0 -158 -56 -291t-157 -229zM1212 184l-229 240l59 53l230 -241q88 88 136 206
t48 254q0 135 -48 253.5t-131 202.5t-199.5 132.5t-248.5 48.5q-177 0 -320 -82.5t-224.5 -228.5t-81.5 -326t81.5 -326t224.5 -228.5t320 -82.5q221 0 383 125z" />
    <glyph glyph-name="R" unicode="R" horiz-adv-x="1204" 
d="M748 424l309 -424h-101l-290 397q-76 -18 -174 -18h-197v-379h-84v1393h281q138 0 245.5 -39.5t174 -109t101 -160.5t34.5 -199q0 -159 -75.5 -281t-223.5 -180zM295 453h188q127 0 222 34.5t149.5 96t80.5 136.5t26 165t-26 165t-80.5 137t-149.5 97t-222 35h-188v-866z
" />
    <glyph glyph-name="S" unicode="S" horiz-adv-x="1079" 
d="M543 -16q-331 0 -467 278l71 35q27 -51 59 -90t78 -75t111.5 -55.5t145.5 -19.5q141 0 236 77.5t95 205.5q0 118 -66.5 194t-217.5 146l-129 59q-153 71 -222 151.5t-69 207.5q0 141 98.5 226t243.5 85q228 0 356 -201l-65 -43q-49 79 -117 124.5t-174 45.5
q-122 0 -191 -64t-69 -171q0 -101 54.5 -163t187.5 -124l129 -59q173 -78 253 -175t80 -239q0 -161 -114.5 -258.5t-296.5 -97.5z" />
    <glyph glyph-name="T" unicode="T" horiz-adv-x="1103" 
d="M510 0v1319h-442v74h968v-74h-442v-1319h-84z" />
    <glyph glyph-name="U" unicode="U" horiz-adv-x="1333" 
d="M666 -16q-208 0 -338.5 125.5t-130.5 353.5v930h84v-924q0 -197 104.5 -304.5t280.5 -107.5q175 0 281 108t106 304v924h84v-930q0 -227 -132 -353t-339 -126z" />
    <glyph glyph-name="V" unicode="V" horiz-adv-x="1333" 
d="M655 -16l-565 1409h90l451 -1137q8 -20 17.5 -52t15.5 -54l6 -21q21 82 39 127l450 1137h84l-563 -1409h-25z" />
    <glyph glyph-name="W" unicode="W" horiz-adv-x="1945" 
d="M520 -16l-436 1409h90l340 -1121l23 -102q12 63 26 102l400 1137h24l399 -1137q6 -17 12.5 -42.5t9.5 -42.5l3 -17q13 63 25 102l340 1121h86l-437 -1409h-22l-406 1155q-6 19 -11.5 45t-7.5 42l-3 17q-11 -61 -25 -104l-407 -1155h-23z" />
    <glyph glyph-name="X" unicode="X" horiz-adv-x="1275" 
d="M104 0l488 754l-412 639h96l340 -527l23 -51q17 35 27 51l340 527h90l-412 -637l490 -756h-97l-415 645l-25 51q-15 -35 -25 -51l-417 -645h-91z" />
    <glyph glyph-name="Y" unicode="Y" horiz-adv-x="1316" 
d="M616 0v434l-526 959h94l445 -807q8 -15 16.5 -36t12.5 -34l4 -14q18 51 36 84l443 807h88l-527 -961v-432h-86z" />
    <glyph glyph-name="Z" unicode="Z" horiz-adv-x="1187" 
d="M92 0v20l846 1299h-737v74h862v-21l-844 -1298h866v-74h-993z" />
    <glyph glyph-name="bracketleft" unicode="[" horiz-adv-x="593" 
d="M170 -262v1741h344v-72h-262v-1597h262v-72h-344z" />
    <glyph glyph-name="backslash" unicode="\" horiz-adv-x="901" 
d="M758 -262l-637 1741h84l637 -1741h-84z" />
    <glyph glyph-name="bracketright" unicode="]" horiz-adv-x="593" 
d="M80 -262v72h262v1597h-262v72h346v-1741h-346z" />
    <glyph glyph-name="asciicircum" unicode="^" horiz-adv-x="833" 
d="M154 965l254 444h18l254 -444h-70l-192 309l-195 -309h-69z" />
    <glyph glyph-name="underscore" unicode="_" horiz-adv-x="499" 
d="M-4 -262v69h508v-69h-508z" />
    <glyph glyph-name="grave" unicode="`" 
d="M483 1018l-180 399h94l154 -399h-68z" />
    <glyph glyph-name="a" unicode="a" horiz-adv-x="948" 
d="M705 483v41q0 260 -224 260q-178 0 -272 -143l-57 41q53 82 138.5 127t192.5 45q135 0 218 -82.5t83 -239.5v-532h-79l4 129q-96 -145 -289 -145q-146 0 -231 66.5t-85 189.5q0 118 88.5 180.5t217.5 62.5h295zM705 418h-285q-104 0 -170 -43t-66 -133q0 -187 244 -187
q110 0 193.5 59t83.5 152v152z" />
    <glyph glyph-name="b" unicode="b" horiz-adv-x="1128" 
d="M608 -16q-119 0 -216 63t-142 162l4 -209h-80v1479h80v-842q48 98 139.5 157.5t214.5 59.5q179 0 296.5 -124.5t117.5 -309.5q0 -186 -117.5 -311t-296.5 -125zM598 55q153 0 246.5 103.5t93.5 261.5t-93.5 260t-246.5 102q-156 0 -253 -102.5t-97 -259.5
q0 -158 97 -261.5t253 -103.5z" />
    <glyph glyph-name="c" unicode="c" horiz-adv-x="950" 
d="M530 -16q-179 0 -301.5 126.5t-122.5 307.5t122.5 308.5t301.5 127.5q203 0 318 -141l-57 -47q-92 116 -261 116q-152 0 -246 -103.5t-94 -260.5q0 -156 94.5 -259.5t245.5 -103.5q180 0 277 125l57 -47q-121 -149 -334 -149z" />
    <glyph glyph-name="d" unicode="d" horiz-adv-x="1128" 
d="M520 -16q-179 0 -296.5 125t-117.5 311q0 185 117.5 309.5t296.5 124.5q123 0 214.5 -59.5t139.5 -157.5v842h80v-1479h-80l5 209q-45 -99 -142.5 -162t-216.5 -63zM530 55q156 0 253.5 104t97.5 261t-97.5 259.5t-253.5 102.5q-153 0 -246.5 -102t-93.5 -260
t93.5 -261.5t246.5 -103.5z" />
    <glyph glyph-name="e" unicode="e" horiz-adv-x="1036" 
d="M188 401q5 -155 100.5 -250.5t254.5 -95.5q188 0 293 131l53 -47q-125 -155 -346 -155q-194 0 -315.5 125t-121.5 309q0 181 121.5 308.5t298.5 127.5q187 0 300 -129.5t110 -323.5h-748zM190 467h664q-10 137 -94.5 227t-233.5 90q-140 0 -230.5 -88.5t-105.5 -228.5z
" />
    <glyph glyph-name="f" unicode="f" horiz-adv-x="583" 
d="M207 0v768h-133v68h133v430q0 122 54.5 180.5t139.5 58.5q124 0 185 -102l-62 -41q-25 37 -50.5 54.5t-70.5 17.5q-116 0 -116 -170v-428h223v-68h-223v-768h-80z" />
    <glyph glyph-name="g" unicode="g" horiz-adv-x="946" 
d="M586 836h297v-68h-189q90 -81 90 -205q0 -128 -87.5 -210.5t-225.5 -82.5q-98 0 -166 39q-48 -7 -73 -34.5t-25 -65.5q0 -90 121 -100l217 -21q183 -17 266.5 -77t83.5 -177q0 -135 -122 -213t-314 -78q-191 0 -304.5 73t-113.5 202q0 170 217 233q-60 17 -91.5 56.5
t-31.5 93.5q0 52 31.5 92t83.5 55q-98 82 -98 215q0 127 90.5 209t228.5 82q63 0 115 -18zM471 338q108 0 172 61.5t64 163.5t-64 162.5t-172 60.5q-112 0 -176 -60.5t-64 -162.5t64.5 -163.5t175.5 -61.5zM358 29q-235 -47 -235 -209q0 -100 86 -153.5t250 -53.5
q158 0 257 58t99 163q0 88 -60.5 129t-219.5 53z" />
    <glyph glyph-name="h" unicode="h" horiz-adv-x="1042" 
d="M172 0v1479h80v-822q42 91 125.5 144t191.5 53q141 0 226.5 -89t85.5 -243v-522h-80v508q0 131 -61 201.5t-181 70.5q-137 0 -222 -84.5t-85 -228.5v-467h-80z" />
    <glyph glyph-name="i" unicode="i" horiz-adv-x="425" 
d="M213 1128q-27 0 -47.5 19t-20.5 49q0 29 20.5 48.5t47.5 19.5t47.5 -19.5t20.5 -48.5q0 -30 -20.5 -49t-47.5 -19zM174 0v836h80v-836h-80z" />
    <glyph glyph-name="j" unicode="j" horiz-adv-x="425" 
d="M213 1128q-27 0 -47.5 19t-20.5 49q0 29 20.5 48.5t47.5 19.5t47.5 -19.5t20.5 -48.5q0 -30 -20.5 -49t-47.5 -19zM68 -455q-107 0 -170 74l49 51q51 -55 116 -55q111 0 111 158v1063h80v-1065q0 -110 -52.5 -168t-133.5 -58z" />
    <glyph glyph-name="k" unicode="k" horiz-adv-x="919" 
d="M252 260v-260h-80v1479h80v-1041q0 -30 -6 -90l463 488h94l-336 -355l395 -481h-98l-352 428z" />
    <glyph glyph-name="l" unicode="l" horiz-adv-x="448" 
d="M184 0v1479h80v-1479h-80z" />
    <glyph glyph-name="m" unicode="m" horiz-adv-x="1519" 
d="M172 0v836h80l-2 -170q39 89 110 138.5t164 49.5q103 0 170 -52t90 -138q45 92 122.5 141t170.5 49q128 0 203.5 -79.5t75.5 -215.5v-559h-80v545q0 235 -207 235q-116 0 -190 -81t-74 -220v-479h-80v545q0 235 -209 235q-116 0 -190 -81t-74 -220v-479h-80z" />
    <glyph glyph-name="n" unicode="n" horiz-adv-x="1042" 
d="M172 0v836h80l-2 -187q42 96 126 150.5t193 54.5q141 0 226.5 -89t85.5 -243v-522h-80v508q0 131 -61 201.5t-181 70.5q-137 0 -222 -84.5t-85 -228.5v-467h-80z" />
    <glyph glyph-name="o" unicode="o" horiz-adv-x="1081" 
d="M543 -16q-182 0 -309.5 127.5t-127.5 308.5q0 180 127 307t310 127q182 0 307 -126.5t125 -307.5t-125 -308.5t-307 -127.5zM543 55q155 0 252.5 104t97.5 261t-97.5 259.5t-252.5 102.5q-156 0 -255.5 -103t-99.5 -259q0 -157 100 -261t255 -104z" />
    <glyph glyph-name="p" unicode="p" horiz-adv-x="1128" 
d="M174 -434v1270h80l-4 -205q48 101 141.5 162t216.5 61q179 0 296.5 -124.5t117.5 -309.5q0 -186 -117.5 -311t-296.5 -125q-118 0 -213 61.5t-141 157.5v-637h-80zM598 55q153 0 246.5 103.5t93.5 261.5t-93.5 260t-246.5 102q-156 0 -253 -102.5t-97 -259.5
q0 -158 97 -261.5t253 -103.5z" />
    <glyph glyph-name="q" unicode="q" horiz-adv-x="1128" 
d="M874 -434v637q-46 -96 -141 -157.5t-213 -61.5q-179 0 -296.5 125t-117.5 311q0 185 117.5 309.5t296.5 124.5q123 0 216.5 -61t142.5 -162l-5 205h80v-1270h-80zM530 55q156 0 253.5 104t97.5 261t-97.5 259.5t-253.5 102.5q-153 0 -246.5 -102t-93.5 -260t93.5 -261.5
t246.5 -103.5z" />
    <glyph glyph-name="r" unicode="r" horiz-adv-x="696" 
d="M172 0v836h80l-2 -168q35 89 99 136.5t145 47.5q94 0 151 -43l-39 -66q-49 35 -123 35q-96 0 -163.5 -79.5t-67.5 -223.5v-475h-80z" />
    <glyph glyph-name="s" unicode="s" horiz-adv-x="829" 
d="M432 -16q-125 0 -211.5 59t-124.5 150l70 30q77 -168 266 -168q95 0 152 44t57 116q0 79 -50 115t-181 76q-62 18 -101.5 34.5t-79 43.5t-58.5 67t-19 94q0 91 71.5 150t177.5 59q180 0 267 -158l-62 -37q-71 125 -205 125q-79 0 -126.5 -37.5t-47.5 -97.5
q0 -70 43.5 -104t171.5 -72q66 -19 109.5 -37.5t85.5 -48t63 -72t21 -98.5q0 -103 -76.5 -168t-212.5 -65z" />
    <glyph glyph-name="t" unicode="t" horiz-adv-x="641" 
d="M397 -16q-86 0 -139 58t-53 179v547h-131v68h131v436h80v-436h241v-68h-241v-545q0 -168 112 -168q35 0 61.5 10t39 20.5t32.5 31.5l52 -49q-35 -40 -77.5 -62t-107.5 -22z" />
    <glyph glyph-name="u" unicode="u" horiz-adv-x="1042" 
d="M475 -18q-141 0 -226 87.5t-85 239.5v527h80v-514q0 -129 60 -198t179 -69q137 0 222.5 85.5t85.5 228.5v467h79v-836h-79l2 184q-42 -95 -125.5 -148.5t-192.5 -53.5z" />
    <glyph glyph-name="v" unicode="v" horiz-adv-x="917" 
d="M451 -16l-385 852h86l276 -627q8 -18 17 -45t15 -44l5 -18q17 66 35 107l270 627h82l-377 -852h-24z" />
    <glyph glyph-name="w" unicode="w" horiz-adv-x="1392" 
d="M389 -16l-323 852h86l221 -603l30 -102q15 59 33 102l250 611h19l253 -608q8 -19 17 -45t13 -42l5 -16q13 60 29 103l221 600h82l-324 -852h-20l-254 622q-7 17 -15 41t-12 39l-4 16q-12 -57 -28 -96l-258 -622h-21z" />
    <glyph glyph-name="x" unicode="x" horiz-adv-x="921" 
d="M78 0l336 446l-289 390h96l201 -273q9 -12 19 -28.5t16 -27.5l6 -11q17 40 37 67l205 273h88l-287 -383l338 -453h-96l-248 338l-41 68q-23 -43 -41 -68l-252 -338h-88z" />
    <glyph glyph-name="y" unicode="y" horiz-adv-x="919" 
d="M225 -434l211 495l-370 775h86l292 -619q8 -18 16 -42.5t12 -40.5l5 -15q13 57 31 98l264 619h82l-547 -1270h-82z" />
    <glyph glyph-name="z" unicode="z" horiz-adv-x="831" 
d="M74 0v20l561 746h-504v70h627v-23l-561 -743h561v-70h-684z" />
    <glyph glyph-name="braceleft" unicode="{" horiz-adv-x="706" 
d="M537 -262q-52 0 -92.5 12.5t-77.5 43t-57.5 91t-20.5 148.5v323q0 82 -30 114t-91 32h-117v71h117q61 0 91 32t30 114v465q0 88 20.5 148.5t57.5 91t77.5 43t92.5 12.5h90v-72h-88q-82 0 -125 -49t-43 -174v-471q0 -145 -107 -174q107 -25 107 -177v-329q0 -125 43 -174
t125 -49h88v-72h-90z" />
    <glyph glyph-name="bar" unicode="|" horiz-adv-x="446" 
d="M184 -262v1741h78v-1741h-78z" />
    <glyph glyph-name="braceright" unicode="}" horiz-adv-x="704" 
d="M80 -262v72h88q82 0 124 48.5t42 174.5v329q0 150 108 175q-108 25 -108 178v469q0 126 -42 174.5t-124 48.5h-88v72h90q40 0 73 -7t66.5 -27t56 -51.5t36.5 -85t14 -124.5v-463q0 -82 31 -115t92 -33h114v-71h-114q-61 0 -92 -32t-31 -112v-325q0 -71 -14 -124.5
t-36.5 -85t-56 -51.5t-66.5 -27t-73 -7h-90z" />
    <glyph glyph-name="asciitilde" unicode="~" horiz-adv-x="790" 
d="M190 477l-69 6q4 94 44.5 146.5t108.5 52.5q41 0 71.5 -18t74.5 -60q42 -40 58.5 -50.5t41.5 -10.5q35 0 54.5 32t25.5 101l70 -6q-5 -95 -43.5 -146t-108.5 -51q-40 0 -70 18.5t-75 61.5q-40 38 -57.5 48.5t-43.5 10.5q-70 0 -82 -135z" />
    <glyph glyph-name="nbspace" unicode="&#xa0;" horiz-adv-x="372" 
 />
    <glyph glyph-name="exclamdown" unicode="&#xa1;" horiz-adv-x="458" 
d="M229 1407q30 0 54 -23t24 -55q0 -33 -24 -56.5t-54 -23.5q-31 0 -54 23.5t-23 56.5q0 32 23 55t54 23zM260 1044l14 -1044h-90l15 1044h61z" />
    <glyph glyph-name="cent" unicode="&#xa2;" horiz-adv-x="950" 
d="M483 -14q-163 19 -270 142t-107 290q0 168 107.5 291.5t269.5 140.5v221h70v-217q188 -9 295 -141l-57 -47q-85 108 -238 116v-727q165 8 254 125l57 -47q-113 -140 -311 -149v-222h-70v224zM483 778q-132 -15 -212.5 -115.5t-80.5 -244.5q0 -142 80.5 -243t212.5 -118
v721z" />
    <glyph glyph-name="sterling" unicode="&#xa3;" horiz-adv-x="1081" 
d="M383 614h342v-67h-315q75 -203 77 -342q99 -81 142 -105q74 -43 143 -43q65 0 111 24t86 69l51 -52q-46 -53 -104 -83.5t-144 -30.5q-83 0 -152 37.5t-147 103.5q-27 -63 -86.5 -102t-134.5 -39q-84 0 -135 47.5t-51 120.5t51 119t135 46q76 0 164 -57q-11 106 -86 287
h-193v67h166q-78 194 -78 316q0 143 102.5 239.5t258.5 96.5q132 0 223 -62t135 -157l-65 -33q-49 91 -115.5 134.5t-177.5 43.5q-128 0 -202.5 -70.5t-74.5 -193.5q0 -74 19 -145.5t55 -168.5zM414 174q-98 80 -162 80q-53 0 -84 -27.5t-31 -74.5t31.5 -76t83.5 -29
q60 0 106 36t56 91z" />
    <glyph glyph-name="yen" unicode="&#xa5;" horiz-adv-x="1128" 
d="M522 0v252h-393v67h389l-102 173h-287v67h246l-275 455h93l329 -551q12 -20 23 -46.5t17 -42.5l5 -16q18 60 45 105l328 551h88l-276 -455h247v-67h-286l-105 -173h391v-67h-393v-252h-84z" />
    <glyph glyph-name="brokenbar" unicode="&#xa6;" horiz-adv-x="368" 
d="M184 403q-31 0 -56.5 24.5t-25.5 57.5q0 34 25 58t57 24q33 0 57.5 -23.5t24.5 -58.5q0 -33 -24.5 -57.5t-57.5 -24.5z" />
    <glyph glyph-name="section" unicode="&#xa7;" horiz-adv-x="985" 
d="M225 858q-30 62 -30 133q0 121 86 198t219 77q116 0 193.5 -56t117.5 -149l-70 -31q-36 78 -92 121t-149 43q-101 0 -162.5 -53t-61.5 -148q0 -81 41 -132t138 -91l196 -80q142 -57 203 -126.5t61 -164.5q0 -67 -42.5 -119t-114.5 -81q45 -61 45 -142q0 -119 -83 -193.5
t-231 -74.5q-126 0 -221.5 60t-144.5 161l70 33q41 -85 116 -133.5t180 -48.5q106 0 169 54t63 142q0 76 -49.5 123.5t-159.5 91.5l-178 70q-140 55 -202 123t-62 172q0 72 40 129t115 92zM715 248q121 44 121 147q0 75 -44 122t-167 97l-197 80q-111 46 -170 115
q-106 -50 -106 -168q0 -82 44.5 -129.5t161.5 -93.5l179 -70q114 -44 178 -100z" />
    <glyph glyph-name="dieresis" unicode="&#xa8;" 
d="M668 1067q-27 0 -46.5 19.5t-19.5 46.5t19.5 46t46.5 19t46 -19t19 -46t-19.5 -46.5t-45.5 -19.5zM356 1067q-26 0 -45.5 19.5t-19.5 46.5t19 46t46 19t46.5 -19t19.5 -46t-19.5 -46.5t-46.5 -19.5z" />
    <glyph glyph-name="copyright" unicode="&#xa9;" horiz-adv-x="1228" 
d="M614 -16q-142 0 -262 67.5t-191 188t-71 266.5q0 148 71 269t191 188t262 67t262.5 -67t191.5 -188t71 -269q0 -146 -71 -266.5t-191.5 -188t-262.5 -67.5zM614 47q194 0 325.5 131t131.5 328q0 198 -131.5 329.5t-325.5 131.5t-325 -131t-131 -330q0 -197 131 -328
t325 -131zM618 199q-123 0 -208.5 89t-85.5 218q0 130 85.5 219.5t208.5 89.5q74 0 127 -25t99 -77l-56 -51q-63 81 -167 81q-93 0 -154 -67.5t-61 -169.5q0 -100 60 -168t152 -68q105 0 179 88l55 -51q-94 -108 -234 -108z" />
    <glyph glyph-name="ordfeminine" unicode="&#xaa;" horiz-adv-x="798" 
d="M604 725v10q0 129 -48 178.5t-142 49.5q-138 0 -228 -119l-51 39q41 67 114.5 107t164.5 40q124 0 196 -69t72 -218v-436h-78v96q-36 -52 -99.5 -82t-144.5 -30q-122 0 -197 57t-75 164q0 104 80 158.5t199 54.5h237zM604 659h-227q-209 0 -209 -147q0 -154 205 -154
q96 0 163.5 47.5t67.5 137.5v116z" />
    <glyph glyph-name="guillemotleft" unicode="&#xab;" horiz-adv-x="710" 
d="M535 82l-191 315v17l191 315h92l-195 -323l195 -324h-92zM274 82l-190 315v17l190 315h93l-195 -323l195 -324h-93z" />
    <glyph glyph-name="logicalnot" unicode="&#xac;" horiz-adv-x="368" 
d="M184 403q-31 0 -56.5 24.5t-25.5 57.5q0 34 25 58t57 24q33 0 57.5 -23.5t24.5 -58.5q0 -33 -24.5 -57.5t-57.5 -24.5z" />
    <glyph glyph-name="registered" unicode="&#xae;" horiz-adv-x="1062" 
d="M528 553q-120 0 -221 56.5t-161 157t-60 222.5q0 123 60 224t161 157.5t221 56.5q122 0 225 -56.5t163.5 -157.5t60.5 -224q0 -122 -60.5 -222.5t-163.5 -157t-225 -56.5zM528 612q165 0 272 105.5t107 271.5q0 168 -107 273.5t-272 105.5q-162 0 -266 -105.5
t-104 -273.5q0 -167 104 -272t266 -105zM618 887l107 -146h-80l-92 127q-28 -4 -45 -4h-64v-123h-67v504h131q108 0 162.5 -54.5t54.5 -139.5q0 -55 -27.5 -98t-79.5 -66zM444 920h60q82 0 116.5 34t34.5 97q0 139 -151 139h-60v-270z" />
    <glyph glyph-name="macron" unicode="&#xaf;" 
d="M313 1044v70h398v-70h-398z" />
    <glyph glyph-name="macron" unicode="&#x2c9;" 
d="M313 1044v70h398v-70h-398z" />
    <glyph glyph-name="degree" unicode="&#xb0;" horiz-adv-x="659" 
d="M330 602q-91 0 -154 62t-63 151q0 91 63 153t154 62q90 0 153.5 -62.5t63.5 -152.5q0 -89 -63.5 -151t-153.5 -62zM330 664q65 0 105 42.5t40 108.5q0 67 -40 110.5t-105 43.5t-106.5 -43.5t-41.5 -110.5q0 -65 41.5 -108t106.5 -43z" />
    <glyph glyph-name="twosuperior" unicode="&#xb2;" horiz-adv-x="368" 
d="M184 403q-31 0 -56.5 24.5t-25.5 57.5q0 34 25 58t57 24q33 0 57.5 -23.5t24.5 -58.5q0 -33 -24.5 -57.5t-57.5 -24.5z" />
    <glyph glyph-name="threesuperior" unicode="&#xb3;" horiz-adv-x="368" 
d="M184 403q-31 0 -56.5 24.5t-25.5 57.5q0 34 25 58t57 24q33 0 57.5 -23.5t24.5 -58.5q0 -33 -24.5 -57.5t-57.5 -24.5z" />
    <glyph glyph-name="acute" unicode="&#xb4;" 
d="M473 1018l154 399h94l-180 -399h-68z" />
    <glyph glyph-name="mu" unicode="&#xb5;" horiz-adv-x="368" 
d="M184 403q-31 0 -56.5 24.5t-25.5 57.5q0 34 25 58t57 24q33 0 57.5 -23.5t24.5 -58.5q0 -33 -24.5 -57.5t-57.5 -24.5z" />
    <glyph glyph-name="mu" unicode="&#x3bc;" horiz-adv-x="368" 
d="M184 403q-31 0 -56.5 24.5t-25.5 57.5q0 34 25 58t57 24q33 0 57.5 -23.5t24.5 -58.5q0 -33 -24.5 -57.5t-57.5 -24.5z" />
    <glyph glyph-name="paragraph" unicode="&#xb6;" horiz-adv-x="1200" 
d="M647 0v680h-164q-161 0 -260.5 102.5t-99.5 253.5t99.5 254t260.5 103h506v-1393h-82v1319h-176v-1319h-84zM483 754h164v565h-164q-129 0 -200.5 -79t-71.5 -204t71.5 -203.5t200.5 -78.5z" />
    <glyph glyph-name="periodcentered" unicode="&#xb7;" horiz-adv-x="368" 
d="M184 403q-31 0 -56.5 24.5t-25.5 57.5q0 34 25 58t57 24q33 0 57.5 -23.5t24.5 -58.5q0 -33 -24.5 -57.5t-57.5 -24.5z" />
    <glyph glyph-name="periodcentered" unicode="&#x2219;" horiz-adv-x="368" 
d="M184 403q-31 0 -56.5 24.5t-25.5 57.5q0 34 25 58t57 24q33 0 57.5 -23.5t24.5 -58.5q0 -33 -24.5 -57.5t-57.5 -24.5z" />
    <glyph glyph-name="cedilla" unicode="&#xb8;" 
d="M522 -467q-69 0 -118.5 33.5t-73.5 85.5l61 37q20 -42 49 -65t80 -23q45 0 76 28t31 78q0 48 -32 80.5t-95 32.5h-31v180h74v-121q67 -8 115.5 -55.5t48.5 -118.5q0 -80 -54.5 -126t-130.5 -46z" />
    <glyph glyph-name="onesuperior" unicode="&#xb9;" horiz-adv-x="368" 
d="M184 403q-31 0 -56.5 24.5t-25.5 57.5q0 34 25 58t57 24q33 0 57.5 -23.5t24.5 -58.5q0 -33 -24.5 -57.5t-57.5 -24.5z" />
    <glyph glyph-name="ordmasculine" unicode="&#xba;" horiz-adv-x="905" 
d="M453 293q-152 0 -258.5 106t-106.5 263q0 156 106.5 262t258.5 106t258 -106t106 -262q0 -157 -106 -263t-258 -106zM453 360q125 0 204.5 85.5t79.5 216.5t-79.5 216t-204.5 85t-205 -85t-80 -216t80 -216.5t205 -85.5z" />
    <glyph glyph-name="guillemotright" unicode="&#xbb;" horiz-adv-x="710" 
d="M344 82l195 324l-195 323h92l191 -315v-17l-191 -315h-92zM84 82l195 324l-195 323h92l191 -315v-17l-191 -315h-92z" />
    <glyph glyph-name="onequarter" unicode="&#xbc;" horiz-adv-x="368" 
d="M184 403q-31 0 -56.5 24.5t-25.5 57.5q0 34 25 58t57 24q33 0 57.5 -23.5t24.5 -58.5q0 -33 -24.5 -57.5t-57.5 -24.5z" />
    <glyph glyph-name="onehalf" unicode="&#xbd;" horiz-adv-x="368" 
d="M184 403q-31 0 -56.5 24.5t-25.5 57.5q0 34 25 58t57 24q33 0 57.5 -23.5t24.5 -58.5q0 -33 -24.5 -57.5t-57.5 -24.5z" />
    <glyph glyph-name="threequarters" unicode="&#xbe;" horiz-adv-x="368" 
d="M184 403q-31 0 -56.5 24.5t-25.5 57.5q0 34 25 58t57 24q33 0 57.5 -23.5t24.5 -58.5q0 -33 -24.5 -57.5t-57.5 -24.5z" />
    <glyph glyph-name="questiondown" unicode="&#xbf;" horiz-adv-x="919" 
d="M526 1407q30 0 54 -23t24 -55q0 -33 -24 -56.5t-54 -23.5q-31 0 -54 23.5t-23 56.5q0 32 23 55t54 23zM563 1053v-379h-55q-139 0 -227 -89t-88 -220q0 -146 81 -226t215 -80q113 0 187 48.5t125 158.5l69 -35q-46 -119 -147 -183t-234 -64q-168 0 -274 101.5t-106 279.5
q0 160 107.5 266t268.5 112v310h78z" />
    <glyph glyph-name="Agrave" unicode="&#xc0;" horiz-adv-x="1333" 
d="M90 0l563 1409h25l565 -1409h-86l-106 270h-770l-107 -270h-84zM309 344h711l-313 795q-9 22 -19 53.5t-16 52.5l-6 21q-21 -78 -41 -127zM630 1546l-180 399h94l154 -399h-68z" />
    <glyph glyph-name="Aacute" unicode="&#xc1;" horiz-adv-x="1333" 
d="M90 0l563 1409h25l565 -1409h-86l-106 270h-770l-107 -270h-84zM309 344h711l-313 795q-9 22 -19 53.5t-16 52.5l-6 21q-21 -78 -41 -127zM635 1546l154 399h94l-180 -399h-68z" />
    <glyph glyph-name="Acircumflex" unicode="&#xc2;" horiz-adv-x="1333" 
d="M90 0l563 1409h25l565 -1409h-86l-106 270h-770l-107 -270h-84zM309 344h711l-313 795q-9 22 -19 53.5t-16 52.5l-6 21q-21 -78 -41 -127zM424 1540l232 372h18l232 -372h-72l-168 243l-170 -243h-72z" />
    <glyph glyph-name="Atilde" unicode="&#xc3;" horiz-adv-x="1333" 
d="M90 0l563 1409h25l565 -1409h-86l-106 270h-770l-107 -270h-84zM309 344h711l-313 795q-9 22 -19 53.5t-16 52.5l-6 21q-21 -78 -41 -127zM461 1529l-69 7q4 94 44.5 146t108.5 52q41 0 71.5 -18t74.5 -60q42 -40 58.5 -50.5t41.5 -10.5q35 0 54.5 32t25.5 101l69 -6
q-5 -95 -43 -146t-108 -51q-41 0 -71 18.5t-75 61.5q-41 39 -57.5 49.5t-42.5 10.5q-70 0 -82 -136z" />
    <glyph glyph-name="Adieresis" unicode="&#xc4;" horiz-adv-x="1333" 
d="M821 1595q-27 0 -46 19.5t-19 46.5t19 46t46 19t46.5 -19t19.5 -46t-19.5 -46.5t-46.5 -19.5zM510 1595q-27 0 -46.5 19.5t-19.5 46.5t19.5 46t46.5 19t46 -19t19 -46t-19.5 -46.5t-45.5 -19.5zM90 0l563 1409h25l565 -1409h-86l-106 270h-770l-107 -270h-84zM309 344
h711l-313 795q-9 22 -19 53.5t-16 52.5l-6 21q-21 -78 -41 -127z" />
    <glyph glyph-name="Aring" unicode="&#xc5;" horiz-adv-x="1333" 
d="M666 1491q-80 0 -136.5 55t-56.5 133t56.5 133.5t136.5 55.5q79 0 135.5 -55.5t56.5 -133.5t-56 -133t-136 -55zM90 0l563 1409h25l565 -1409h-86l-106 270h-770l-107 -270h-84zM666 1554q53 0 85.5 34t32.5 91t-32.5 91t-85.5 34t-86 -34t-33 -91t33 -91t86 -34z
M309 344h711l-313 795q-9 22 -19 53.5t-16 52.5l-6 21q-21 -78 -41 -127z" />
    <glyph glyph-name="AE" unicode="&#xc6;" horiz-adv-x="1916" 
d="M66 0l917 1393h784v-74h-729v-746h654v-73h-654v-426h758v-74h-842v270h-618l-178 -270h-92zM385 344h569v741q0 31 3 71.5t5 65.5l3 25q-41 -82 -82 -143z" />
    <glyph glyph-name="Ccedilla" unicode="&#xc7;" horiz-adv-x="1497" 
d="M739 -12q-131 15 -245 73.5t-197.5 149t-131.5 216t-48 269.5q0 156 56 290t152.5 226t227 144.5t276.5 52.5q182 0 323.5 -68t229.5 -196l-63 -47q-78 112 -203 173.5t-287 61.5q-177 0 -320 -82.5t-224.5 -228.5t-81.5 -326t81.5 -326t224.5 -228.5t320 -82.5
q161 0 291.5 64.5t214.5 183.5l64 -45q-92 -134 -240.5 -206t-329.5 -72h-16v-105q67 -8 115.5 -55.5t48.5 -118.5q0 -81 -54 -126.5t-130 -45.5q-69 0 -119 34t-74 85l62 37q20 -42 49 -65t80 -23q45 0 75.5 28t30.5 78q0 48 -32 80.5t-95 32.5h-31v168z" />
    <glyph glyph-name="Egrave" unicode="&#xc8;" horiz-adv-x="1173" 
d="M211 0v1393h813v-74h-729v-746h653v-73h-653v-426h758v-74h-842zM598 1546l-180 399h94l154 -399h-68z" />
    <glyph glyph-name="Eacute" unicode="&#xc9;" horiz-adv-x="1173" 
d="M211 0v1393h813v-74h-729v-746h653v-73h-653v-426h758v-74h-842zM573 1546l154 399h94l-180 -399h-68z" />
    <glyph glyph-name="Ecircumflex" unicode="&#xca;" horiz-adv-x="1173" 
d="M211 0v1393h813v-74h-729v-746h653v-73h-653v-426h758v-74h-842zM387 1540l232 372h18l232 -372h-72l-168 243l-170 -243h-72z" />
    <glyph glyph-name="Edieresis" unicode="&#xcb;" horiz-adv-x="1173" 
d="M211 0v1393h813v-74h-729v-746h653v-73h-653v-426h758v-74h-842zM783 1595q-27 0 -46.5 19.5t-19.5 46.5t19.5 46t46.5 19t46 -19t19 -46t-19.5 -46.5t-45.5 -19.5zM471 1595q-26 0 -45.5 19.5t-19.5 46.5t19 46t46 19t46.5 -19t19.5 -46t-19.5 -46.5t-46.5 -19.5z" />
    <glyph glyph-name="Igrave" unicode="&#xcc;" horiz-adv-x="522" 
d="M219 0v1393h84v-1393h-84zM223 1546l-180 399h94l154 -399h-68z" />
    <glyph glyph-name="Iacute" unicode="&#xcd;" horiz-adv-x="522" 
d="M219 0v1393h84v-1393h-84zM229 1546l154 399h94l-180 -399h-68z" />
    <glyph glyph-name="Icircumflex" unicode="&#xce;" horiz-adv-x="522" 
d="M219 0v1393h84v-1393h-84zM18 1540l232 372h18l232 -372h-72l-168 243l-170 -243h-72z" />
    <glyph glyph-name="Idieresis" unicode="&#xcf;" horiz-adv-x="522" 
d="M219 0v1393h84v-1393h-84zM416 1595q-27 0 -46.5 19.5t-19.5 46.5t19.5 46t46.5 19t46 -19t19 -46t-19.5 -46.5t-45.5 -19.5zM104 1595q-26 0 -45.5 19.5t-19.5 46.5t19 46t46 19t46.5 -19t19.5 -46t-19.5 -46.5t-46.5 -19.5z" />
    <glyph glyph-name="Eth" unicode="&#xd0;" horiz-adv-x="1386" 
d="M211 0v500h-180v73h180v820h321q171 0 310 -51t233 -143t144.5 -220.5t50.5 -282.5t-50.5 -282.5t-144 -220t-232.5 -142.5t-311 -51h-321zM295 76h227q162 0 288.5 45.5t207 128t122.5 195.5t42 251t-42 251t-122.5 196t-207 128.5t-288.5 45.5h-227v-744h405v-73h-405
v-424z" />
    <glyph glyph-name="Ntilde" unicode="&#xd1;" horiz-adv-x="1472" 
d="M1237 -16l-891 1155l-63 92q6 -64 6 -105v-1126h-78v1409h25l890 -1155l64 -92q-6 63 -6 104v1127h78v-1409h-25zM530 1529l-69 7q4 94 44.5 146t108.5 52q41 0 71.5 -18t74.5 -60q42 -40 58.5 -50.5t41.5 -10.5q35 0 54.5 32t25.5 101l69 -6q-5 -95 -43 -146t-108 -51
q-41 0 -71 18.5t-75 61.5q-41 39 -57.5 49.5t-42.5 10.5q-70 0 -82 -136z" />
    <glyph glyph-name="Ograve" unicode="&#xd2;" horiz-adv-x="1658" 
d="M829 -16q-196 0 -358 88.5t-258 252.5t-96 371q0 156 56 290t152.5 226t227 144.5t276.5 52.5t277 -52.5t227 -144.5t152.5 -226t56.5 -290t-56.5 -290t-152.5 -226t-227 -144t-277 -52zM829 59q132 0 248.5 48.5t199.5 132.5t131 202.5t48 253.5t-48 253.5t-131 202.5
t-199.5 132.5t-248.5 48.5q-177 0 -320 -82.5t-224.5 -228.5t-81.5 -326t81.5 -326t224.5 -228.5t320 -82.5zM800 1546l-180 399h94l154 -399h-68z" />
    <glyph glyph-name="Oacute" unicode="&#xd3;" horiz-adv-x="1658" 
d="M829 -16q-196 0 -358 88.5t-258 252.5t-96 371q0 156 56 290t152.5 226t227 144.5t276.5 52.5t277 -52.5t227 -144.5t152.5 -226t56.5 -290t-56.5 -290t-152.5 -226t-227 -144t-277 -52zM829 59q132 0 248.5 48.5t199.5 132.5t131 202.5t48 253.5t-48 253.5t-131 202.5
t-199.5 132.5t-248.5 48.5q-177 0 -320 -82.5t-224.5 -228.5t-81.5 -326t81.5 -326t224.5 -228.5t320 -82.5zM790 1546l154 399h94l-180 -399h-68z" />
    <glyph glyph-name="Ocircumflex" unicode="&#xd4;" horiz-adv-x="1658" 
d="M829 -16q-196 0 -358 88.5t-258 252.5t-96 371q0 156 56 290t152.5 226t227 144.5t276.5 52.5t277 -52.5t227 -144.5t152.5 -226t56.5 -290t-56.5 -290t-152.5 -226t-227 -144t-277 -52zM829 59q132 0 248.5 48.5t199.5 132.5t131 202.5t48 253.5t-48 253.5t-131 202.5
t-199.5 132.5t-248.5 48.5q-177 0 -320 -82.5t-224.5 -228.5t-81.5 -326t81.5 -326t224.5 -228.5t320 -82.5zM587 1540l232 372h18l232 -372h-72l-168 243l-170 -243h-72z" />
    <glyph glyph-name="Otilde" unicode="&#xd5;" horiz-adv-x="1658" 
d="M829 -16q-196 0 -358 88.5t-258 252.5t-96 371q0 156 56 290t152.5 226t227 144.5t276.5 52.5t277 -52.5t227 -144.5t152.5 -226t56.5 -290t-56.5 -290t-152.5 -226t-227 -144t-277 -52zM829 59q132 0 248.5 48.5t199.5 132.5t131 202.5t48 253.5t-48 253.5t-131 202.5
t-199.5 132.5t-248.5 48.5q-177 0 -320 -82.5t-224.5 -228.5t-81.5 -326t81.5 -326t224.5 -228.5t320 -82.5zM624 1529l-69 7q4 94 44.5 146t108.5 52q41 0 71.5 -18t74.5 -60q42 -40 58.5 -50.5t41.5 -10.5q35 0 54.5 32t25.5 101l69 -6q-5 -95 -43 -146t-108 -51
q-41 0 -71 18.5t-75 61.5q-41 39 -57.5 49.5t-42.5 10.5q-70 0 -82 -136z" />
    <glyph glyph-name="Odieresis" unicode="&#xd6;" horiz-adv-x="1658" 
d="M985 1595q-27 0 -46 19.5t-19 46.5t19 46t46 19t46.5 -19t19.5 -46t-19.5 -46.5t-46.5 -19.5zM674 1595q-27 0 -46.5 19.5t-19.5 46.5t19.5 46t46.5 19t46 -19t19 -46t-19.5 -46.5t-45.5 -19.5zM829 -16q-196 0 -358 88.5t-258 252.5t-96 371q0 156 56 290t152.5 226
t227 144.5t276.5 52.5t277 -52.5t227 -144.5t152.5 -226t56.5 -290t-56.5 -290t-152.5 -226t-227 -144t-277 -52zM829 59q132 0 248.5 48.5t199.5 132.5t131 202.5t48 253.5t-48 253.5t-131 202.5t-199.5 132.5t-248.5 48.5q-177 0 -320 -82.5t-224.5 -228.5t-81.5 -326
t81.5 -326t224.5 -228.5t320 -82.5z" />
    <glyph glyph-name="multiply" unicode="&#xd7;" horiz-adv-x="368" 
d="M184 403q-31 0 -56.5 24.5t-25.5 57.5q0 34 25 58t57 24q33 0 57.5 -23.5t24.5 -58.5q0 -33 -24.5 -57.5t-57.5 -24.5z" />
    <glyph glyph-name="Oslash" unicode="&#xd8;" horiz-adv-x="1658" 
d="M172 -20l-51 49l180 182q-184 200 -184 485q0 151 56.5 284.5t152 227t226.5 147.5t277 54q278 0 478 -178l178 180l51 -49l-178 -180q184 -200 184 -486q0 -151 -56.5 -284.5t-152.5 -226.5t-227 -147t-277 -54q-137 0 -259.5 46.5t-217.5 131.5zM356 268l895 908
q-175 157 -422 157q-177 0 -320 -82.5t-224.5 -228.5t-81.5 -326q0 -251 153 -428zM829 59q132 0 248.5 48.5t199.5 132.5t131 202.5t48 253.5q0 251 -153 428l-897 -907q179 -158 423 -158z" />
    <glyph glyph-name="Ugrave" unicode="&#xd9;" horiz-adv-x="1333" 
d="M666 -16q-208 0 -338.5 125.5t-130.5 353.5v930h84v-924q0 -197 104.5 -304.5t280.5 -107.5q175 0 281 108t106 304v924h84v-930q0 -227 -132 -353t-339 -126zM637 1546l-180 399h94l154 -399h-68z" />
    <glyph glyph-name="Uacute" unicode="&#xda;" horiz-adv-x="1333" 
d="M666 -16q-208 0 -338.5 125.5t-130.5 353.5v930h84v-924q0 -197 104.5 -304.5t280.5 -107.5q175 0 281 108t106 304v924h84v-930q0 -227 -132 -353t-339 -126zM627 1546l154 399h94l-180 -399h-68z" />
    <glyph glyph-name="Ucircumflex" unicode="&#xdb;" horiz-adv-x="1333" 
d="M666 -16q-208 0 -338.5 125.5t-130.5 353.5v930h84v-924q0 -197 104.5 -304.5t280.5 -107.5q175 0 281 108t106 304v924h84v-930q0 -227 -132 -353t-339 -126zM424 1540l232 372h18l232 -372h-72l-168 243l-170 -243h-72z" />
    <glyph glyph-name="Udieresis" unicode="&#xdc;" horiz-adv-x="1333" 
d="M821 1595q-27 0 -46 19.5t-19 46.5t19 46t46 19t46.5 -19t19.5 -46t-19.5 -46.5t-46.5 -19.5zM510 1595q-27 0 -46.5 19.5t-19.5 46.5t19.5 46t46.5 19t46 -19t19 -46t-19.5 -46.5t-45.5 -19.5zM666 -16q-208 0 -338.5 125.5t-130.5 353.5v930h84v-924
q0 -197 104.5 -304.5t280.5 -107.5q175 0 281 108t106 304v924h84v-930q0 -227 -132 -353t-339 -126z" />
    <glyph glyph-name="Yacute" unicode="&#xdd;" horiz-adv-x="1316" 
d="M616 0v434l-526 959h94l445 -807q8 -15 16.5 -36t12.5 -34l4 -14q18 51 36 84l443 807h88l-527 -961v-432h-86zM618 1546l154 399h94l-180 -399h-68z" />
    <glyph glyph-name="Thorn" unicode="&#xde;" horiz-adv-x="1179" 
d="M211 0v1393h84v-168h217q134 0 238 -40t168 -111t96.5 -164t32.5 -203t-32.5 -203t-96.5 -163.5t-168 -110.5t-238 -40h-217v-190h-84zM295 264h209q124 0 214.5 34t142.5 96t76 139.5t24 173.5q0 97 -24 174.5t-76 139.5t-142.5 96t-214.5 34h-209v-887z" />
    <glyph glyph-name="germandbls" unicode="&#xdf;" horiz-adv-x="1064" 
d="M539 -8q-79 0 -142 26l23 68q58 -23 119 -23q162 0 248.5 100t86.5 263q0 166 -105.5 264.5t-297.5 95.5v74q126 12 197 94.5t71 208.5q0 134 -69.5 202.5t-171.5 68.5q-49 0 -91.5 -15t-78 -48t-56 -91.5t-20.5 -138.5v-1141h-80v1147q0 93 27.5 164t75 112t104 61.5
t119.5 20.5q60 0 115.5 -21t101 -61t73 -107t27.5 -151q0 -114 -53.5 -201t-161.5 -128q162 -25 260 -135t98 -275q0 -191 -111.5 -312.5t-307.5 -121.5z" />
    <glyph glyph-name="agrave" unicode="&#xe0;" horiz-adv-x="948" 
d="M705 483v41q0 260 -224 260q-178 0 -272 -143l-57 41q53 82 138.5 127t192.5 45q135 0 218 -82.5t83 -239.5v-532h-79l4 129q-96 -145 -289 -145q-146 0 -231 66.5t-85 189.5q0 118 88.5 180.5t217.5 62.5h295zM705 418h-285q-104 0 -170 -43t-66 -133q0 -187 244 -187
q110 0 193.5 59t83.5 152v152zM444 1018l-180 399h94l154 -399h-68z" />
    <glyph glyph-name="aacute" unicode="&#xe1;" horiz-adv-x="948" 
d="M705 483v41q0 260 -224 260q-178 0 -272 -143l-57 41q53 82 138.5 127t192.5 45q135 0 218 -82.5t83 -239.5v-532h-79l4 129q-96 -145 -289 -145q-146 0 -231 66.5t-85 189.5q0 118 88.5 180.5t217.5 62.5h295zM705 418h-285q-104 0 -170 -43t-66 -133q0 -187 244 -187
q110 0 193.5 59t83.5 152v152zM434 1018l154 399h94l-180 -399h-68z" />
    <glyph glyph-name="acircumflex" unicode="&#xe2;" horiz-adv-x="948" 
d="M705 483v41q0 260 -224 260q-178 0 -272 -143l-57 41q53 82 138.5 127t192.5 45q135 0 218 -82.5t83 -239.5v-532h-79l4 129q-96 -145 -289 -145q-146 0 -231 66.5t-85 189.5q0 118 88.5 180.5t217.5 62.5h295zM705 418h-285q-104 0 -170 -43t-66 -133q0 -187 244 -187
q110 0 193.5 59t83.5 152v152zM239 1012l232 372h18l232 -372h-72l-168 243l-170 -243h-72z" />
    <glyph glyph-name="atilde" unicode="&#xe3;" horiz-adv-x="948" 
d="M705 483v41q0 260 -224 260q-178 0 -272 -143l-57 41q53 82 138.5 127t192.5 45q135 0 218 -82.5t83 -239.5v-532h-79l4 129q-96 -145 -289 -145q-146 0 -231 66.5t-85 189.5q0 118 88.5 180.5t217.5 62.5h295zM705 418h-285q-104 0 -170 -43t-66 -133q0 -187 244 -187
q110 0 193.5 59t83.5 152v152zM264 1001l-69 7q4 94 44.5 146t108.5 52q41 0 71.5 -18t74.5 -60q42 -40 58.5 -50.5t41.5 -10.5q35 0 54.5 32t25.5 101l69 -6q-5 -95 -43 -146t-108 -51q-41 0 -71 18.5t-75 61.5q-41 39 -57.5 49.5t-42.5 10.5q-70 0 -82 -136z" />
    <glyph glyph-name="adieresis" unicode="&#xe4;" horiz-adv-x="948" 
d="M705 483v41q0 260 -224 260q-178 0 -272 -143l-57 41q53 82 138.5 127t192.5 45q135 0 218 -82.5t83 -239.5v-532h-79l4 129q-96 -145 -289 -145q-146 0 -231 66.5t-85 189.5q0 118 88.5 180.5t217.5 62.5h295zM705 418h-285q-104 0 -170 -43t-66 -133q0 -187 244 -187
q110 0 193.5 59t83.5 152v152zM635 1067q-27 0 -46.5 19.5t-19.5 46.5t19.5 46t46.5 19t46 -19t19 -46t-19.5 -46.5t-45.5 -19.5zM323 1067q-26 0 -45.5 19.5t-19.5 46.5t19 46t46 19t46.5 -19t19.5 -46t-19.5 -46.5t-46.5 -19.5z" />
    <glyph glyph-name="aring" unicode="&#xe5;" horiz-adv-x="948" 
d="M705 483v41q0 260 -224 260q-178 0 -272 -143l-57 41q53 82 138.5 127t192.5 45q135 0 218 -82.5t83 -239.5v-532h-79l4 129q-96 -145 -289 -145q-146 0 -231 66.5t-85 189.5q0 118 88.5 180.5t217.5 62.5h295zM705 418h-285q-104 0 -170 -43t-66 -133q0 -187 244 -187
q110 0 193.5 59t83.5 152v152zM473 999q-80 0 -136.5 55.5t-56.5 133.5t56.5 133t136.5 55t136.5 -55t56.5 -133t-56.5 -133.5t-136.5 -55.5zM473 1063q53 0 86 34t33 91t-33 91t-86 34t-86 -34t-33 -91t33 -91t86 -34z" />
    <glyph glyph-name="ae" unicode="&#xe6;" horiz-adv-x="1630" 
d="M705 475v49q0 260 -224 260q-178 0 -272 -143l-57 41q53 82 138.5 127t192.5 45q112 0 186.5 -59t92.5 -174q51 106 145.5 169.5t212.5 63.5q124 0 219 -60t144 -160.5t47 -223.5h-748q5 -152 100.5 -253.5t254.5 -101.5q188 0 293 131l53 -47q-125 -155 -346 -155
q-130 0 -227 62.5t-148 168.5q-16 -75 -72 -129t-126 -78t-144 -24q-141 0 -228.5 65.5t-87.5 186.5q0 78 45.5 134t113 80.5t147.5 24.5h295zM786 475h662q-10 132 -94.5 220.5t-233.5 88.5q-136 0 -227.5 -88.5t-106.5 -220.5zM705 410h-285q-104 0 -170 -42t-66 -130
q0 -94 60.5 -138.5t183.5 -44.5q110 0 193.5 59t83.5 152v144z" />
    <glyph glyph-name="ccedilla" unicode="&#xe7;" horiz-adv-x="950" 
d="M453 -10q-151 29 -249 149t-98 279q0 181 122.5 308.5t301.5 127.5q203 0 318 -141l-57 -47q-92 116 -261 116q-152 0 -246 -103.5t-94 -260.5q0 -156 94.5 -259.5t245.5 -103.5q180 0 277 125l57 -47q-121 -149 -334 -149h-4v-105q67 -8 115.5 -55.5t48.5 -118.5
q0 -81 -54 -126.5t-130 -45.5q-69 0 -119 34t-74 85l62 37q20 -42 49 -65t80 -23q45 0 75.5 28t30.5 78q0 48 -32 80.5t-95 32.5h-30v170z" />
    <glyph glyph-name="egrave" unicode="&#xe8;" horiz-adv-x="1036" 
d="M188 401q5 -155 100.5 -250.5t254.5 -95.5q188 0 293 131l53 -47q-125 -155 -346 -155q-194 0 -315.5 125t-121.5 309q0 181 121.5 308.5t298.5 127.5q187 0 300 -129.5t110 -323.5h-748zM190 467h664q-10 137 -94.5 227t-233.5 90q-140 0 -230.5 -88.5t-105.5 -228.5z
M489 1018l-180 399h94l154 -399h-68z" />
    <glyph glyph-name="eacute" unicode="&#xe9;" horiz-adv-x="1036" 
d="M188 401q5 -155 100.5 -250.5t254.5 -95.5q188 0 293 131l53 -47q-125 -155 -346 -155q-194 0 -315.5 125t-121.5 309q0 181 121.5 308.5t298.5 127.5q187 0 300 -129.5t110 -323.5h-748zM190 467h664q-10 137 -94.5 227t-233.5 90q-140 0 -230.5 -88.5t-105.5 -228.5z
M479 1018l154 399h94l-180 -399h-68z" />
    <glyph glyph-name="ecircumflex" unicode="&#xea;" horiz-adv-x="1036" 
d="M188 401q5 -155 100.5 -250.5t254.5 -95.5q188 0 293 131l53 -47q-125 -155 -346 -155q-194 0 -315.5 125t-121.5 309q0 181 121.5 308.5t298.5 127.5q187 0 300 -129.5t110 -323.5h-748zM190 467h664q-10 137 -94.5 227t-233.5 90q-140 0 -230.5 -88.5t-105.5 -228.5z
M276 1012l232 372h18l232 -372h-72l-168 243l-170 -243h-72z" />
    <glyph glyph-name="edieresis" unicode="&#xeb;" horiz-adv-x="1036" 
d="M188 401q5 -155 100.5 -250.5t254.5 -95.5q188 0 293 131l53 -47q-125 -155 -346 -155q-194 0 -315.5 125t-121.5 309q0 181 121.5 308.5t298.5 127.5q187 0 300 -129.5t110 -323.5h-748zM190 467h664q-10 137 -94.5 227t-233.5 90q-140 0 -230.5 -88.5t-105.5 -228.5z
M674 1067q-27 0 -46.5 19.5t-19.5 46.5t19.5 46t46.5 19t46 -19t19 -46t-19.5 -46.5t-45.5 -19.5zM362 1067q-26 0 -45.5 19.5t-19.5 46.5t19 46t46 19t46.5 -19t19.5 -46t-19.5 -46.5t-46.5 -19.5z" />
    <glyph glyph-name="igrave" unicode="&#xec;" horiz-adv-x="425" 
d="M174 0v836h80v-836h-80zM180 1018l-180 399h94l154 -399h-68z" />
    <glyph glyph-name="iacute" unicode="&#xed;" horiz-adv-x="425" 
d="M174 0v836h80v-836h-80zM178 1018l154 399h94l-180 -399h-68z" />
    <glyph glyph-name="icircumflex" unicode="&#xee;" horiz-adv-x="425" 
d="M174 0v836h80v-836h-80zM-29 1012l232 372h18l232 -372h-72l-168 243l-170 -243h-72z" />
    <glyph glyph-name="idieresis" unicode="&#xef;" horiz-adv-x="425" 
d="M174 0v836h80v-836h-80zM369 1067q-27 0 -46.5 19.5t-19.5 46.5t19.5 46t46.5 19t46 -19t19 -46t-19.5 -46.5t-45.5 -19.5zM57 1067q-26 0 -45.5 19.5t-19.5 46.5t19 46t46 19t46.5 -19t19.5 -46t-19.5 -46.5t-46.5 -19.5z" />
    <glyph glyph-name="eth" unicode="&#xf0;" horiz-adv-x="1081" 
d="M578 1225l-150 -146l-47 47l151 150q-91 104 -186 186l49 49q99 -79 191 -182l149 148l49 -50l-153 -151q151 -183 247.5 -399t96.5 -445q0 -119 -56.5 -222t-156.5 -164.5t-219 -61.5q-182 0 -309.5 127.5t-127.5 308.5q0 180 127 307t310 127q204 0 321 -172
q-65 271 -286 543zM543 55q155 0 252.5 107t97.5 270q0 151 -97.5 250.5t-252.5 99.5q-156 0 -255.5 -103t-99.5 -259q0 -157 100 -261t255 -104z" />
    <glyph glyph-name="ntilde" unicode="&#xf1;" horiz-adv-x="1042" 
d="M172 0v836h80l-2 -187q42 96 126 150.5t193 54.5q141 0 226.5 -89t85.5 -243v-522h-80v508q0 131 -61 201.5t-181 70.5q-137 0 -222 -84.5t-85 -228.5v-467h-80zM307 1001l-69 7q4 94 44.5 146t108.5 52q41 0 71.5 -18t74.5 -60q42 -40 58.5 -50.5t41.5 -10.5
q35 0 54.5 32t25.5 101l69 -6q-5 -95 -43 -146t-108 -51q-41 0 -71 18.5t-75 61.5q-41 39 -57.5 49.5t-42.5 10.5q-70 0 -82 -136z" />
    <glyph glyph-name="ograve" unicode="&#xf2;" horiz-adv-x="1081" 
d="M543 -16q-182 0 -309.5 127.5t-127.5 308.5q0 180 127 307t310 127q182 0 307 -126.5t125 -307.5t-125 -308.5t-307 -127.5zM543 55q155 0 252.5 104t97.5 261t-97.5 259.5t-252.5 102.5q-156 0 -255.5 -103t-99.5 -259q0 -157 100 -261t255 -104zM512 1018l-180 399h94
l154 -399h-68z" />
    <glyph glyph-name="oacute" unicode="&#xf3;" horiz-adv-x="1081" 
d="M543 -16q-182 0 -309.5 127.5t-127.5 308.5q0 180 127 307t310 127q182 0 307 -126.5t125 -307.5t-125 -308.5t-307 -127.5zM543 55q155 0 252.5 104t97.5 261t-97.5 259.5t-252.5 102.5q-156 0 -255.5 -103t-99.5 -259q0 -157 100 -261t255 -104zM502 1018l154 399h94
l-180 -399h-68z" />
    <glyph glyph-name="ocircumflex" unicode="&#xf4;" horiz-adv-x="1081" 
d="M543 -16q-182 0 -309.5 127.5t-127.5 308.5q0 180 127 307t310 127q182 0 307 -126.5t125 -307.5t-125 -308.5t-307 -127.5zM543 55q155 0 252.5 104t97.5 261t-97.5 259.5t-252.5 102.5q-156 0 -255.5 -103t-99.5 -259q0 -157 100 -261t255 -104zM299 1012l232 372h18
l232 -372h-72l-168 243l-170 -243h-72z" />
    <glyph glyph-name="otilde" unicode="&#xf5;" horiz-adv-x="1081" 
d="M543 -16q-182 0 -309.5 127.5t-127.5 308.5q0 180 127 307t310 127q182 0 307 -126.5t125 -307.5t-125 -308.5t-307 -127.5zM543 55q155 0 252.5 104t97.5 261t-97.5 259.5t-252.5 102.5q-156 0 -255.5 -103t-99.5 -259q0 -157 100 -261t255 -104zM336 1001l-69 7
q4 94 44.5 146t108.5 52q41 0 71.5 -18t74.5 -60q42 -40 58.5 -50.5t41.5 -10.5q35 0 54.5 32t25.5 101l69 -6q-5 -95 -43 -146t-108 -51q-41 0 -71 18.5t-75 61.5q-41 39 -57.5 49.5t-42.5 10.5q-70 0 -82 -136z" />
    <glyph glyph-name="odieresis" unicode="&#xf6;" horiz-adv-x="1081" 
d="M543 -16q-182 0 -309.5 127.5t-127.5 308.5q0 180 127 307t310 127q182 0 307 -126.5t125 -307.5t-125 -308.5t-307 -127.5zM543 55q155 0 252.5 104t97.5 261t-97.5 259.5t-252.5 102.5q-156 0 -255.5 -103t-99.5 -259q0 -157 100 -261t255 -104zM697 1067
q-27 0 -46.5 19.5t-19.5 46.5t19.5 46t46.5 19t46 -19t19 -46t-19.5 -46.5t-45.5 -19.5zM385 1067q-26 0 -45.5 19.5t-19.5 46.5t19 46t46 19t46.5 -19t19.5 -46t-19.5 -46.5t-46.5 -19.5z" />
    <glyph glyph-name="divide" unicode="&#xf7;" horiz-adv-x="368" 
d="M184 403q-31 0 -56.5 24.5t-25.5 57.5q0 34 25 58t57 24q33 0 57.5 -23.5t24.5 -58.5q0 -33 -24.5 -57.5t-57.5 -24.5z" />
    <glyph glyph-name="oslash" unicode="&#xf8;" horiz-adv-x="1081" 
d="M877 698q98 -122 98 -278q0 -181 -125 -308.5t-307 -127.5q-165 0 -289 108l-121 -117l-47 48l121 116q-101 126 -101 281q0 180 127 307t310 127q166 0 288 -109l117 115l45 -49zM260 190l518 504q-94 88 -235 88q-156 0 -255.5 -103t-99.5 -259q0 -129 72 -230z
M823 645l-518 -504q99 -86 238 -86q155 0 252.5 104t97.5 261q0 133 -70 225z" />
    <glyph glyph-name="ugrave" unicode="&#xf9;" horiz-adv-x="1042" 
d="M475 -18q-141 0 -226 87.5t-85 239.5v527h80v-514q0 -129 60 -198t179 -69q137 0 222.5 85.5t85.5 228.5v467h79v-836h-79l2 184q-42 -95 -125.5 -148.5t-192.5 -53.5zM491 1018l-180 399h94l154 -399h-68z" />
    <glyph glyph-name="uacute" unicode="&#xfa;" horiz-adv-x="1042" 
d="M475 -18q-141 0 -226 87.5t-85 239.5v527h80v-514q0 -129 60 -198t179 -69q137 0 222.5 85.5t85.5 228.5v467h79v-836h-79l2 184q-42 -95 -125.5 -148.5t-192.5 -53.5zM481 1018l154 399h94l-180 -399h-68z" />
    <glyph glyph-name="ucircumflex" unicode="&#xfb;" horiz-adv-x="1042" 
d="M475 -18q-141 0 -226 87.5t-85 239.5v527h80v-514q0 -129 60 -198t179 -69q137 0 222.5 85.5t85.5 228.5v467h79v-836h-79l2 184q-42 -95 -125.5 -148.5t-192.5 -53.5zM278 1012l232 372h18l232 -372h-72l-168 243l-170 -243h-72z" />
    <glyph glyph-name="udieresis" unicode="&#xfc;" horiz-adv-x="1042" 
d="M475 -18q-141 0 -226 87.5t-85 239.5v527h80v-514q0 -129 60 -198t179 -69q137 0 222.5 85.5t85.5 228.5v467h79v-836h-79l2 184q-42 -95 -125.5 -148.5t-192.5 -53.5zM676 1067q-27 0 -46.5 19.5t-19.5 46.5t19.5 46t46.5 19t46 -19t19 -46t-19.5 -46.5t-45.5 -19.5z
M364 1067q-26 0 -45.5 19.5t-19.5 46.5t19 46t46 19t46.5 -19t19.5 -46t-19.5 -46.5t-46.5 -19.5z" />
    <glyph glyph-name="yacute" unicode="&#xfd;" horiz-adv-x="919" 
d="M225 -434l211 495l-370 775h86l292 -619q8 -18 16 -42.5t12 -40.5l5 -15q13 57 31 98l264 619h82l-547 -1270h-82zM420 1018l154 399h94l-180 -399h-68z" />
    <glyph glyph-name="thorn" unicode="&#xfe;" horiz-adv-x="1128" 
d="M174 -434v1913h80v-842q48 98 139.5 157.5t214.5 59.5q179 0 296.5 -124.5t117.5 -309.5q0 -186 -117.5 -311t-296.5 -125q-118 0 -213 61.5t-141 157.5v-637h-80zM598 55q153 0 246.5 103.5t93.5 261.5t-93.5 260t-246.5 102q-156 0 -253 -102.5t-97 -259.5
q0 -158 97 -261.5t253 -103.5z" />
    <glyph glyph-name="ydieresis" unicode="&#xff;" horiz-adv-x="919" 
d="M225 -434l211 495l-370 775h86l292 -619q8 -18 16 -42.5t12 -40.5l5 -15q13 57 31 98l264 619h82l-547 -1270h-82zM615 1067q-27 0 -46.5 19.5t-19.5 46.5t19.5 46t46.5 19t46 -19t19 -46t-19.5 -46.5t-45.5 -19.5zM303 1067q-26 0 -45.5 19.5t-19.5 46.5t19 46t46 19
t46.5 -19t19.5 -46t-19.5 -46.5t-46.5 -19.5z" />
    <glyph glyph-name="Amacron" unicode="&#x100;" horiz-adv-x="1333" 
d="M467 1573v69h397v-69h-397zM90 0l563 1409h25l565 -1409h-86l-106 270h-770l-107 -270h-84zM309 344h711l-313 795q-9 22 -19 53.5t-16 52.5l-6 21q-21 -78 -41 -127z" />
    <glyph glyph-name="amacron" unicode="&#x101;" horiz-adv-x="948" 
d="M283 1044v70h397v-70h-397zM705 483v41q0 260 -224 260q-178 0 -272 -143l-57 41q53 82 138.5 127t192.5 45q135 0 218 -82.5t83 -239.5v-532h-79l4 129q-96 -145 -289 -145q-146 0 -231 66.5t-85 189.5q0 118 88.5 180.5t217.5 62.5h295zM705 418h-285q-104 0 -170 -43
t-66 -133q0 -187 244 -187q110 0 193.5 59t83.5 152v152z" />
    <glyph glyph-name="Abreve" unicode="&#x102;" horiz-adv-x="1333" 
d="M666 1520q-100 0 -161 59t-79 156l72 14q20 -75 57.5 -116.5t110.5 -41.5t110.5 41.5t57.5 116.5l71 -14q-18 -98 -78.5 -156.5t-160.5 -58.5zM90 0l563 1409h25l565 -1409h-86l-106 270h-770l-107 -270h-84zM309 344h711l-313 795q-9 22 -19 53.5t-16 52.5l-6 21
q-21 -78 -41 -127z" />
    <glyph glyph-name="abreve" unicode="&#x103;" horiz-adv-x="948" 
d="M467 991q-100 0 -161 59t-79 156l72 15q20 -75 57.5 -116.5t110.5 -41.5t110.5 41.5t57.5 116.5l72 -15q-18 -97 -79 -156t-161 -59zM705 483v41q0 260 -224 260q-178 0 -272 -143l-57 41q53 82 138.5 127t192.5 45q135 0 218 -82.5t83 -239.5v-532h-79l4 129
q-96 -145 -289 -145q-146 0 -231 66.5t-85 189.5q0 118 88.5 180.5t217.5 62.5h295zM705 418h-285q-104 0 -170 -43t-66 -133q0 -187 244 -187q110 0 193.5 59t83.5 152v152z" />
    <glyph glyph-name="Aogonek" unicode="&#x104;" horiz-adv-x="1333" 
d="M1243 0l-67 -104q-55 -87 -66 -119q-12 -34 -12 -72q0 -49 29 -75.5t71 -26.5q69 0 119 84l61 -37q-56 -117 -184 -117q-73 0 -124.5 44t-51.5 124q0 98 86 213l57 78l-110 278h-770l-107 -270h-84l563 1409h25zM309 344h711l-313 795q-9 22 -19 53.5t-16 52.5l-6 21
q-21 -78 -41 -127z" />
    <glyph glyph-name="aogonek" unicode="&#x105;" horiz-adv-x="948" 
d="M784 0l-67 -104q-55 -87 -66 -119q-12 -34 -12 -72q0 -49 29 -75.5t71 -26.5q69 0 119 84l62 -37q-56 -117 -185 -117q-73 0 -124.5 44t-51.5 124q0 98 86 213l60 82l4 133q-96 -145 -289 -145q-146 0 -231 66.5t-85 189.5q0 118 88.5 180.5t217.5 62.5h295v41
q0 260 -224 260q-178 0 -272 -143l-57 41q53 82 138.5 127t192.5 45q135 0 218 -82.5t83 -239.5v-532zM705 418h-285q-104 0 -170 -43t-66 -133q0 -187 244 -187q110 0 193.5 59t83.5 152v152z" />
    <glyph glyph-name="Cacute" unicode="&#x106;" horiz-adv-x="1497" 
d="M766 1546l154 400h94l-180 -400h-68zM829 -16q-196 0 -358 88.5t-258 252.5t-96 371q0 156 56 290t152.5 226t227 144.5t276.5 52.5q182 0 323.5 -68t229.5 -196l-63 -47q-78 112 -203 173.5t-287 61.5q-177 0 -320 -82.5t-224.5 -228.5t-81.5 -326t81.5 -326
t224.5 -228.5t320 -82.5q161 0 291.5 64.5t214.5 183.5l64 -45q-92 -134 -240.5 -206t-329.5 -72z" />
    <glyph glyph-name="cacute" unicode="&#x107;" horiz-adv-x="950" 
d="M475 1018l154 399h94l-180 -399h-68zM530 -16q-179 0 -301.5 126.5t-122.5 307.5t122.5 308.5t301.5 127.5q203 0 318 -141l-57 -47q-92 116 -261 116q-152 0 -246 -103.5t-94 -260.5q0 -156 94.5 -259.5t245.5 -103.5q180 0 277 125l57 -47q-121 -149 -334 -149z" />
    <glyph glyph-name="Ccircumflex" unicode="&#x108;" horiz-adv-x="1497" 
d="M578 1540l231 373h18l232 -373h-72l-168 244l-170 -244h-71zM829 -16q-196 0 -358 88.5t-258 252.5t-96 371q0 156 56 290t152.5 226t227 144.5t276.5 52.5q182 0 323.5 -68t229.5 -196l-63 -47q-78 112 -203 173.5t-287 61.5q-177 0 -320 -82.5t-224.5 -228.5
t-81.5 -326t81.5 -326t224.5 -228.5t320 -82.5q161 0 291.5 64.5t214.5 183.5l64 -45q-92 -134 -240.5 -206t-329.5 -72z" />
    <glyph glyph-name="ccircumflex" unicode="&#x109;" horiz-adv-x="950" 
d="M279 1012l231 372h18l232 -372h-72l-168 243l-170 -243h-71zM530 -16q-179 0 -301.5 126.5t-122.5 307.5t122.5 308.5t301.5 127.5q203 0 318 -141l-57 -47q-92 116 -261 116q-152 0 -246 -103.5t-94 -260.5q0 -156 94.5 -259.5t245.5 -103.5q180 0 277 125l57 -47
q-121 -149 -334 -149z" />
    <glyph glyph-name="Ccaron" unicode="&#x10c;" horiz-adv-x="1497" 
d="M805 1534l-232 373h72l168 -244l170 244h72l-232 -373h-18zM829 -16q-196 0 -358 88.5t-258 252.5t-96 371q0 156 56 290t152.5 226t227 144.5t276.5 52.5q182 0 323.5 -68t229.5 -196l-63 -47q-78 112 -203 173.5t-287 61.5q-177 0 -320 -82.5t-224.5 -228.5t-81.5 -326
t81.5 -326t224.5 -228.5t320 -82.5q161 0 291.5 64.5t214.5 183.5l64 -45q-92 -134 -240.5 -206t-329.5 -72z" />
    <glyph glyph-name="ccaron" unicode="&#x10d;" horiz-adv-x="950" 
d="M508 1006l-232 372h72l168 -243l170 243h72l-232 -372h-18zM530 -16q-179 0 -301.5 126.5t-122.5 307.5t122.5 308.5t301.5 127.5q203 0 318 -141l-57 -47q-92 116 -261 116q-152 0 -246 -103.5t-94 -260.5q0 -156 94.5 -259.5t245.5 -103.5q180 0 277 125l57 -47
q-121 -149 -334 -149z" />
    <glyph glyph-name="Dcaron" unicode="&#x10e;" horiz-adv-x="1386" 
d="M616 1534l-231 373h72l168 -244l170 244h71l-231 -373h-19zM211 0v1393h297q358 0 560 -187t202 -510t-201 -509.5t-561 -186.5h-297zM295 76h203q169 0 300.5 45.5t215 128t126 195.5t42.5 251t-42.5 251t-126 196t-215 128.5t-300.5 45.5h-203v-1241z" />
    <glyph glyph-name="dcaron" unicode="&#x10f;" horiz-adv-x="1259" 
d="M1120 1047l66 204q-22 5 -39 26t-17 48q0 33 24.5 57.5t55.5 24.5t55.5 -24.5t24.5 -57.5q0 -16 -10 -39l-109 -239h-51zM520 -16q-179 0 -296.5 125t-117.5 311q0 185 117.5 309.5t296.5 124.5q123 0 214.5 -59.5t139.5 -157.5v842h80v-1479h-80l5 209
q-45 -99 -142.5 -162t-216.5 -63zM530 55q156 0 253.5 104t97.5 261t-97.5 259.5t-253.5 102.5q-153 0 -246.5 -102t-93.5 -260t93.5 -261.5t246.5 -103.5z" />
    <glyph glyph-name="Dcroat" unicode="&#x110;" horiz-adv-x="1386" 
d="M211 0v500h-180v73h180v820h321q171 0 310 -51t233 -143t144.5 -220.5t50.5 -282.5t-50.5 -282.5t-144 -220t-232.5 -142.5t-311 -51h-321zM295 76h227q162 0 288.5 45.5t207 128t122.5 195.5t42 251t-42 251t-122.5 196t-207 128.5t-288.5 45.5h-227v-744h405v-73h-405
v-424z" />
    <glyph glyph-name="dcroat" unicode="&#x111;" horiz-adv-x="1128" 
d="M874 1120h-313v68h313v291h80v-291h170v-68h-170v-1120h-80l5 209q-45 -99 -142.5 -162t-216.5 -63q-179 0 -296.5 125t-117.5 311q0 185 117.5 309.5t296.5 124.5q123 0 214.5 -59.5t139.5 -157.5v483zM530 55q156 0 253.5 104t97.5 261t-97.5 259.5t-253.5 102.5
q-153 0 -246.5 -102t-93.5 -260t93.5 -261.5t246.5 -103.5z" />
    <glyph glyph-name="Emacron" unicode="&#x112;" horiz-adv-x="1173" 
d="M418 1573v69h397v-69h-397zM211 0v1393h813v-74h-729v-746h653v-73h-653v-426h758v-74h-842z" />
    <glyph glyph-name="emacron" unicode="&#x113;" horiz-adv-x="1036" 
d="M330 1044v70h397v-70h-397zM188 401q5 -155 100.5 -250.5t254.5 -95.5q188 0 293 131l53 -47q-125 -155 -346 -155q-194 0 -315.5 125t-121.5 309q0 181 121.5 308.5t298.5 127.5q187 0 300 -129.5t110 -323.5h-748zM190 467h664q-10 137 -94.5 227t-233.5 90
q-140 0 -230.5 -88.5t-105.5 -228.5z" />
    <glyph glyph-name="Edotaccent" unicode="&#x116;" horiz-adv-x="1173" 
d="M614 1593q-27 0 -47 19t-20 49q0 29 20 48.5t47 19.5t47.5 -19.5t20.5 -48.5q0 -30 -20.5 -49t-47.5 -19zM211 0v1393h813v-74h-729v-746h653v-73h-653v-426h758v-74h-842z" />
    <glyph glyph-name="edotaccent" unicode="&#x117;" horiz-adv-x="1036" 
d="M532 1065q-27 0 -47 19t-20 49q0 29 20 48t47 19t47.5 -19.5t20.5 -47.5q0 -30 -20.5 -49t-47.5 -19zM188 401q5 -155 100.5 -250.5t254.5 -95.5q188 0 293 131l53 -47q-125 -155 -346 -155q-194 0 -315.5 125t-121.5 309q0 181 121.5 308.5t298.5 127.5
q187 0 300 -129.5t110 -323.5h-748zM190 467h664q-10 137 -94.5 227t-233.5 90q-140 0 -230.5 -88.5t-105.5 -228.5z" />
    <glyph glyph-name="Eogonek" unicode="&#x118;" horiz-adv-x="1173" 
d="M868 0h-657v1393h813v-74h-729v-746h653v-73h-653v-426h758v-74h-107l-67 -104q-55 -87 -66 -119q-12 -34 -12 -72q0 -49 29 -75.5t71 -26.5q69 0 119 84l61 -37q-56 -117 -184 -117q-73 0 -124.5 44t-51.5 124q0 98 86 213z" />
    <glyph glyph-name="eogonek" unicode="&#x119;" horiz-adv-x="1036" 
d="M565 -16l-57 -88q-55 -87 -66 -119q-12 -34 -12 -72q0 -49 29 -75.5t71 -26.5q69 0 119 84l62 -37q-56 -117 -185 -117q-73 0 -124.5 44t-51.5 124q0 98 86 213l51 72q-171 20 -276 141.5t-105 290.5q0 181 121.5 308.5t298.5 127.5q187 0 300 -129.5t110 -323.5h-748
q5 -155 100.5 -250.5t254.5 -95.5q188 0 293 131l53 -47q-116 -146 -324 -155zM190 467h664q-10 137 -94.5 227t-233.5 90q-140 0 -230.5 -88.5t-105.5 -228.5z" />
    <glyph glyph-name="Ecaron" unicode="&#x11a;" horiz-adv-x="1173" 
d="M608 1534l-231 373h72l167 -244l170 244h72l-231 -373h-19zM211 0v1393h813v-74h-729v-746h653v-73h-653v-426h758v-74h-842z" />
    <glyph glyph-name="ecaron" unicode="&#x11b;" horiz-adv-x="1036" 
d="M514 1006l-231 372h71l168 -243l170 243h72l-232 -372h-18zM188 401q5 -155 100.5 -250.5t254.5 -95.5q188 0 293 131l53 -47q-125 -155 -346 -155q-194 0 -315.5 125t-121.5 309q0 181 121.5 308.5t298.5 127.5q187 0 300 -129.5t110 -323.5h-748zM190 467h664
q-10 137 -94.5 227t-233.5 90q-140 0 -230.5 -88.5t-105.5 -228.5z" />
    <glyph glyph-name="Gcircumflex" unicode="&#x11c;" horiz-adv-x="1525" 
d="M571 1540l232 373h18l232 -373h-72l-168 244l-170 -244h-72zM834 -16q-198 0 -361 88.5t-259.5 252.5t-96.5 371q0 156 56.5 290t153.5 226t229 144.5t280 52.5q146 0 269.5 -43.5t205.5 -130.5l-56 -57q-149 155 -419 155q-134 0 -251.5 -48.5t-201 -132.5t-132 -202.5
t-48.5 -253.5t48.5 -253.5t132 -202.5t200.5 -132.5t250 -48.5q300 0 475 164v324h-449v74h531v-431q-202 -206 -557 -206z" />
    <glyph glyph-name="gcircumflex" unicode="&#x11d;" horiz-adv-x="946" 
d="M242 1012l231 372h19l231 -372h-72l-168 243l-170 -243h-71zM586 836h297v-68h-189q90 -81 90 -205q0 -128 -87.5 -210.5t-225.5 -82.5q-98 0 -166 39q-48 -7 -73 -34.5t-25 -65.5q0 -90 121 -100l217 -21q183 -17 266.5 -77t83.5 -177q0 -135 -122 -213t-314 -78
q-191 0 -304.5 73t-113.5 202q0 170 217 233q-60 17 -91.5 56.5t-31.5 93.5q0 52 31.5 92t83.5 55q-98 82 -98 215q0 127 90.5 209t228.5 82q63 0 115 -18zM471 338q108 0 172 61.5t64 163.5t-64 162.5t-172 60.5q-112 0 -176 -60.5t-64 -162.5t64.5 -163.5t175.5 -61.5z
M358 29q-235 -47 -235 -209q0 -100 86 -153.5t250 -53.5q158 0 257 58t99 163q0 88 -60.5 129t-219.5 53z" />
    <glyph glyph-name="Gbreve" unicode="&#x11e;" horiz-adv-x="1525" 
d="M807 1520q-100 0 -161 59t-79 156l72 14q20 -75 57.5 -116.5t110.5 -41.5t110.5 41.5t57.5 116.5l72 -14q-18 -97 -79 -156t-161 -59zM834 -16q-198 0 -361 88.5t-259.5 252.5t-96.5 371q0 156 56.5 290t153.5 226t229 144.5t280 52.5q146 0 269.5 -43.5t205.5 -130.5
l-56 -57q-149 155 -419 155q-134 0 -251.5 -48.5t-201 -132.5t-132 -202.5t-48.5 -253.5t48.5 -253.5t132 -202.5t200.5 -132.5t250 -48.5q300 0 475 164v324h-449v74h531v-431q-202 -206 -557 -206z" />
    <glyph glyph-name="gbreve" unicode="&#x11f;" horiz-adv-x="946" 
d="M492 991q-100 0 -161 59t-79 156l72 15q20 -75 57.5 -116.5t110.5 -41.5t110 41.5t57 116.5l72 -15q-18 -98 -78.5 -156.5t-160.5 -58.5zM586 836h297v-68h-189q90 -81 90 -205q0 -128 -87.5 -210.5t-225.5 -82.5q-98 0 -166 39q-48 -7 -73 -34.5t-25 -65.5
q0 -90 121 -100l217 -21q183 -17 266.5 -77t83.5 -177q0 -135 -122 -213t-314 -78q-191 0 -304.5 73t-113.5 202q0 170 217 233q-60 17 -91.5 56.5t-31.5 93.5q0 52 31.5 92t83.5 55q-98 82 -98 215q0 127 90.5 209t228.5 82q63 0 115 -18zM471 338q108 0 172 61.5t64 163.5
t-64 162.5t-172 60.5q-112 0 -176 -60.5t-64 -162.5t64.5 -163.5t175.5 -61.5zM358 29q-235 -47 -235 -209q0 -100 86 -153.5t250 -53.5q158 0 257 58t99 163q0 88 -60.5 129t-219.5 53z" />
    <glyph glyph-name="Gcommaaccent" unicode="&#x122;" horiz-adv-x="1525" 
d="M834 -16q-198 0 -361 88.5t-259.5 252.5t-96.5 371q0 156 56.5 290t153.5 226t229 144.5t280 52.5q146 0 269.5 -43.5t205.5 -130.5l-56 -57q-149 155 -419 155q-134 0 -251.5 -48.5t-201 -132.5t-132 -202.5t-48.5 -253.5t48.5 -253.5t132 -202.5t200.5 -132.5
t250 -48.5q300 0 475 164v324h-449v74h531v-431q-202 -206 -557 -206zM743 -498l66 205q-22 5 -38.5 26t-16.5 48q0 33 24.5 57.5t55.5 24.5t55 -24.5t24 -57.5q0 -16 -10 -39l-108 -240h-52z" />
    <glyph glyph-name="gcommaaccent" unicode="&#x123;" horiz-adv-x="946" 
d="M467 1032q-31 0 -55.5 24.5t-24.5 57.5q0 16 10 39l109 240h51l-65 -205q22 -5 38.5 -26t16.5 -48q0 -33 -24.5 -57.5t-55.5 -24.5zM586 836h297v-68h-189q90 -81 90 -205q0 -128 -87.5 -210.5t-225.5 -82.5q-98 0 -166 39q-48 -7 -73 -34.5t-25 -65.5q0 -90 121 -100
l217 -21q183 -17 266.5 -77t83.5 -177q0 -135 -122 -213t-314 -78q-191 0 -304.5 73t-113.5 202q0 170 217 233q-60 17 -91.5 56.5t-31.5 93.5q0 52 31.5 92t83.5 55q-98 82 -98 215q0 127 90.5 209t228.5 82q63 0 115 -18zM471 338q108 0 172 61.5t64 163.5t-64 162.5
t-172 60.5q-112 0 -176 -60.5t-64 -162.5t64.5 -163.5t175.5 -61.5zM358 29q-235 -47 -235 -209q0 -100 86 -153.5t250 -53.5q158 0 257 58t99 163q0 88 -60.5 129t-219.5 53z" />
    <glyph glyph-name="Hcircumflex" unicode="&#x124;" horiz-adv-x="1400" 
d="M459 1540l231 373h19l231 -373h-72l-168 244l-170 -244h-71zM211 0v1393h84v-820h811v820h84v-1393h-84v498h-811v-498h-84z" />
    <glyph glyph-name="hcircumflex" unicode="&#x125;" horiz-adv-x="1042" 
d="M266 1540l232 373h18l232 -373h-72l-168 244l-170 -244h-72zM172 0v1479h80v-822q42 91 125.5 144t191.5 53q141 0 226.5 -89t85.5 -243v-522h-80v508q0 131 -61 201.5t-181 70.5q-137 0 -222 -84.5t-85 -228.5v-467h-80z" />
    <glyph glyph-name="Imacron" unicode="&#x12a;" horiz-adv-x="522" 
d="M61 1573v69h398v-69h-398zM219 0v1393h84v-1393h-84z" />
    <glyph glyph-name="imacron" unicode="&#x12b;" horiz-adv-x="425" 
d="M14 1044v70h398v-70h-398zM174 0v836h80v-836h-80z" />
    <glyph glyph-name="Iogonek" unicode="&#x12e;" horiz-adv-x="522" 
d="M219 -8v1401h84v-1393l-67 -104q-55 -87 -66 -119q-12 -34 -12 -72q0 -49 29 -75.5t71 -26.5q69 0 119 84l61 -37q-56 -117 -184 -117q-73 0 -124.5 44t-51.5 124q0 98 86 213z" />
    <glyph glyph-name="iogonek" unicode="&#x12f;" horiz-adv-x="425" 
d="M213 1128q-27 0 -47.5 19t-20.5 49q0 29 20.5 48.5t47.5 19.5t47.5 -19.5t20.5 -48.5q0 -30 -20.5 -49t-47.5 -19zM174 -2v838h80v-836l-68 -104q-32 -52 -43.5 -71.5t-22.5 -52.5t-11 -67q0 -49 29 -75.5t71 -26.5q69 0 119 84l61 -37q-56 -117 -184 -117
q-73 0 -124.5 44t-51.5 124q0 98 86 213z" />
    <glyph glyph-name="Idotaccent" unicode="&#x130;" horiz-adv-x="522" 
d="M260 1593q-27 0 -47 19t-20 49q0 29 20 48.5t47 19.5t47.5 -19.5t20.5 -48.5q0 -30 -20.5 -49t-47.5 -19zM219 0v1393h84v-1393h-84z" />
    <glyph glyph-name="dotlessi" unicode="&#x131;" horiz-adv-x="425" 
d="M174 0v836h80v-836h-80z" />
    <glyph glyph-name="Jcircumflex" unicode="&#x134;" horiz-adv-x="974" 
d="M467 1540l231 373h19l231 -373h-71l-168 244l-170 -244h-72zM414 -16q-220 0 -328 184l68 45q90 -154 258 -154q121 0 192.5 73.5t71.5 215.5v1045h84v-1049q0 -173 -96 -266.5t-250 -93.5z" />
    <glyph glyph-name="jcircumflex" unicode="&#x135;" horiz-adv-x="425" 
d="M-27 1012l232 372h18l232 -372h-72l-168 243l-170 -243h-72zM68 -455q-107 0 -170 74l49 51q51 -55 116 -55q111 0 111 158v1063h80v-1065q0 -110 -52.5 -168t-133.5 -58z" />
    <glyph glyph-name="Kcommaaccent" unicode="&#x136;" horiz-adv-x="1202" 
d="M287 492q72 122 84 139l602 762h94l-541 -693l594 -700h-104l-543 641l-178 -219v0v0v0v0v-1v0v0v-1v0v0v-1v0v-1v0v-1v0v-1v0v-1v-1v-1v0v-1v-1v-1v-1v-1v-1v-1v-1v-1v-1v-1v-1v-1v-1v-1v-1v-1v-1v-1v-1v-1v-1v-1v-1v-1v-1v-1v-1v-1v-1v-1v-1v-1v-1v-1v-1v-1v-1v-1v-1
v-1v-1v-1v-1v-1v-1v-1v-1v-1v-1v-1v-1v-1v-1v-1v-1v-1v-1v-1v-1v-1v-1v-1v-1v-1v-1v-1v-1v-1v-1v-1v-1v-1v-1v-2v-1v-1v-1v-1v-1v-1v-1v-1v-2v-1v-1v-1v-1v-1v-2v-1v-1v-1v-1v-1v-2v-1v-1v-1v-1v-2v-1v-1v-1v-2v-1v-1v-1v-2v-1v-1v-1v-2v-1v-1v-1v-2v-1v-1v-2v-1v-1v-2v-1
v-1v-2v-1v-1v-2v-1v-1v-2v-1v-1v-2v-1v-1v-2v-1v-1v-2v-1v-2v-1v-1v-2v-1v-2v-1v-2v-1v-1v-2v-1v-2v-1v-2v-1v-1v-2v-1v-2v-1v-2v-1v-2v-1v-2v-1v-2v-1v-2v-1v-2v-1v-2v-1v-2v-1v-2v-1v-2v-1v-2v-1v-2v-2v-1v-2v-1v-2v-1v-2v-1v-2v-2v-1v-2v-1v-2v-2v-1v-2v-1v-2v-2v-1v-2
v-1v-2v-2v-1v-2v-2v-1v-2v-2v-1v-2v-2v-1v-2v-2v-1v-2v-2v-1v-2v-2v-1v-2v-2v-1v-2v-2v-2v-1v-2v-2v-1v-2v-2v-2v-1v-2v-2v-2v-1v-2v-2v-2v-1v-2v-2v-2v-1v-2v-2v-2v-2v-1v-2v-2v-2v-2v-1v-2v-2v-2v-2v-1v-2v-2v-2v-2v-2v-1v-2v-2v-2v-2v-2v-2v-1v-2v-2v-2v-2v-2v-2v-1v-9
h-84v1393h84v-744q0 -33 -8 -157zM535 -498l65 205q-22 5 -38.5 26t-16.5 48q0 33 24.5 57.5t55.5 24.5t55.5 -24.5t24.5 -57.5q0 -13 -11 -39l-108 -240h-51z" />
    <glyph glyph-name="kcommaaccent" unicode="&#x137;" horiz-adv-x="919" 
d="M252 260v-260h-80v1479h80v-1041q0 -30 -6 -90l463 488h94l-336 -355l395 -481h-98l-352 428zM391 -498l66 205q-22 5 -39 26t-17 48q0 33 24.5 57.5t55.5 24.5t55.5 -24.5t24.5 -57.5q0 -16 -10 -39l-109 -240h-51z" />
    <glyph glyph-name="Lacute" unicode="&#x139;" horiz-adv-x="1048" 
d="M223 1546l154 400h94l-180 -400h-68zM211 0v1393h84v-1319h670v-74h-754z" />
    <glyph glyph-name="lacute" unicode="&#x13a;" horiz-adv-x="448" 
d="M190 1587l154 400h94l-180 -400h-68zM184 0v1479h80v-1479h-80z" />
    <glyph glyph-name="Lcommaaccent" unicode="&#x13b;" horiz-adv-x="1048" 
d="M211 0v1393h84v-1319h670v-74h-754zM477 -498l66 205q-22 5 -39 26t-17 48q0 33 24.5 57.5t55.5 24.5t55.5 -24.5t24.5 -57.5q0 -16 -10 -39l-109 -240h-51z" />
    <glyph glyph-name="lcommaaccent" unicode="&#x13c;" horiz-adv-x="448" 
d="M184 0v1479h80v-1479h-80zM143 -498l66 205q-22 5 -38.5 26t-16.5 48q0 33 24 57.5t55 24.5t55.5 -24.5t24.5 -57.5q0 -16 -10 -39l-108 -240h-52z" />
    <glyph glyph-name="Lcaron" unicode="&#x13d;" horiz-adv-x="1048" 
d="M618 1047l66 204q-22 5 -38.5 26t-16.5 48q0 33 24.5 57.5t55.5 24.5t55 -24.5t24 -57.5q0 -16 -10 -39l-108 -239h-52zM211 0v1393h84v-1319h670v-74h-754z" />
    <glyph glyph-name="lcaron" unicode="&#x13e;" horiz-adv-x="579" 
d="M440 1047l66 204q-22 5 -38.5 26t-16.5 48q0 33 24 57.5t55 24.5t55.5 -24.5t24.5 -57.5q0 -16 -10 -39l-108 -239h-52zM184 0v1479h80v-1479h-80z" />
    <glyph glyph-name="Lslash" unicode="&#x141;" horiz-adv-x="1048" 
d="M211 0v428l-156 -63v79l156 64v885h84v-852l426 174v-78l-426 -176v-387h670v-74h-754z" />
    <glyph glyph-name="lslash" unicode="&#x142;" horiz-adv-x="530" 
d="M225 0v547l-190 -117v82l190 119v848h80v-799l197 123v-84l-197 -123v-596h-80z" />
    <glyph glyph-name="Nacute" unicode="&#x143;" horiz-adv-x="1472" 
d="M702 1546l154 400h94l-180 -400h-68zM1237 -16l-891 1155l-63 92q6 -64 6 -105v-1126h-78v1409h25l890 -1155l64 -92q-6 63 -6 104v1127h78v-1409h-25z" />
    <glyph glyph-name="nacute" unicode="&#x144;" horiz-adv-x="1042" 
d="M481 1018l154 399h94l-180 -399h-68zM172 0v836h80l-2 -187q42 96 126 150.5t193 54.5q141 0 226.5 -89t85.5 -243v-522h-80v508q0 131 -61 201.5t-181 70.5q-137 0 -222 -84.5t-85 -228.5v-467h-80z" />
    <glyph glyph-name="Ncommaaccent" unicode="&#x145;" horiz-adv-x="1472" 
d="M1237 -16l-891 1155l-63 92q6 -64 6 -105v-1126h-78v1409h25l890 -1155l64 -92q-6 63 -6 104v1127h78v-1409h-25zM649 -498l66 205q-22 5 -39 26t-17 48q0 33 24.5 57.5t55.5 24.5t55.5 -24.5t24.5 -57.5q0 -16 -10 -39l-109 -240h-51z" />
    <glyph glyph-name="ncommaaccent" unicode="&#x146;" horiz-adv-x="1042" 
d="M172 0v836h80l-2 -187q42 96 126 150.5t193 54.5q141 0 226.5 -89t85.5 -243v-522h-80v508q0 131 -61 201.5t-181 70.5q-137 0 -222 -84.5t-85 -228.5v-467h-80zM432 -498l66 205q-22 5 -39 26t-17 48q0 33 24.5 57.5t55.5 24.5t55.5 -24.5t24.5 -57.5q0 -16 -10 -39
l-109 -240h-51z" />
    <glyph glyph-name="Ncaron" unicode="&#x147;" horiz-adv-x="1472" 
d="M754 1534l-232 373h72l168 -244l170 244h72l-232 -373h-18zM1237 -16l-891 1155l-63 92q6 -64 6 -105v-1126h-78v1409h25l890 -1155l64 -92q-6 63 -6 104v1127h78v-1409h-25z" />
    <glyph glyph-name="ncaron" unicode="&#x148;" horiz-adv-x="1042" 
d="M518 1006l-231 372h71l168 -243l170 243h72l-231 -372h-19zM172 0v836h80l-2 -187q42 96 126 150.5t193 54.5q141 0 226.5 -89t85.5 -243v-522h-80v508q0 131 -61 201.5t-181 70.5q-137 0 -222 -84.5t-85 -228.5v-467h-80z" />
    <glyph glyph-name="Omacron" unicode="&#x14c;" horiz-adv-x="1658" 
d="M631 1573v69h397v-69h-397zM829 -16q-196 0 -358 88.5t-258 252.5t-96 371q0 156 56 290t152.5 226t227 144.5t276.5 52.5t277 -52.5t227 -144.5t152.5 -226t56.5 -290t-56.5 -290t-152.5 -226t-227 -144t-277 -52zM829 59q132 0 248.5 48.5t199.5 132.5t131 202.5
t48 253.5t-48 253.5t-131 202.5t-199.5 132.5t-248.5 48.5q-177 0 -320 -82.5t-224.5 -228.5t-81.5 -326t81.5 -326t224.5 -228.5t320 -82.5z" />
    <glyph glyph-name="omacron" unicode="&#x14d;" horiz-adv-x="1081" 
d="M342 1044v70h397v-70h-397zM543 -16q-182 0 -309.5 127.5t-127.5 308.5q0 180 127 307t310 127q182 0 307 -126.5t125 -307.5t-125 -308.5t-307 -127.5zM543 55q155 0 252.5 104t97.5 261t-97.5 259.5t-252.5 102.5q-156 0 -255.5 -103t-99.5 -259q0 -157 100 -261
t255 -104z" />
    <glyph glyph-name="Ohungarumlaut" unicode="&#x150;" horiz-adv-x="1658" 
d="M932 1546l153 400h95l-181 -400h-67zM692 1546l154 400h94l-180 -400h-68zM829 -16q-196 0 -358 88.5t-258 252.5t-96 371q0 156 56 290t152.5 226t227 144.5t276.5 52.5t277 -52.5t227 -144.5t152.5 -226t56.5 -290t-56.5 -290t-152.5 -226t-227 -144t-277 -52zM829 59
q132 0 248.5 48.5t199.5 132.5t131 202.5t48 253.5t-48 253.5t-131 202.5t-199.5 132.5t-248.5 48.5q-177 0 -320 -82.5t-224.5 -228.5t-81.5 -326t81.5 -326t224.5 -228.5t320 -82.5z" />
    <glyph glyph-name="ohungarumlaut" unicode="&#x151;" horiz-adv-x="1081" 
d="M643 1018l154 399h94l-180 -399h-68zM403 1018l154 399h94l-180 -399h-68zM543 -16q-182 0 -309.5 127.5t-127.5 308.5q0 180 127 307t310 127q182 0 307 -126.5t125 -307.5t-125 -308.5t-307 -127.5zM543 55q155 0 252.5 104t97.5 261t-97.5 259.5t-252.5 102.5
q-156 0 -255.5 -103t-99.5 -259q0 -157 100 -261t255 -104z" />
    <glyph glyph-name="OE" unicode="&#x152;" horiz-adv-x="2013" 
d="M852 0q-343 0 -539 191t-196 505q0 315 195.5 506t539.5 191h1012v-74h-729v-746h653v-73h-653v-426h757v-74h-1040zM862 76h189v1241h-189q-162 0 -288 -45.5t-207 -128.5t-122.5 -196t-41.5 -251t41.5 -251t122.5 -195.5t207 -128t288 -45.5z" />
    <glyph glyph-name="oe" unicode="&#x153;" horiz-adv-x="1816" 
d="M969 401q5 -155 100 -250.5t254 -95.5q188 0 293 131l53 -47q-125 -155 -346 -155q-148 0 -250 75t-143 201q-44 -124 -147 -200t-240 -76q-182 0 -309.5 127.5t-127.5 308.5q0 180 127 307t310 127q138 0 241.5 -76.5t145.5 -202.5q42 125 143 202t234 77
q187 0 299.5 -129t109.5 -324h-747zM971 467h663q-10 138 -94 227.5t-233 89.5q-140 0 -230.5 -88.5t-105.5 -228.5zM543 55q155 0 252.5 104t97.5 261t-97.5 259.5t-252.5 102.5q-156 0 -255.5 -103t-99.5 -259q0 -157 100 -261t255 -104z" />
    <glyph glyph-name="Racute" unicode="&#x154;" horiz-adv-x="1204" 
d="M543 1546l153 400h95l-181 -400h-67zM748 424l309 -424h-101l-290 397q-76 -18 -174 -18h-197v-379h-84v1393h281q138 0 245.5 -39.5t174 -109t101 -160.5t34.5 -199q0 -159 -75.5 -281t-223.5 -180zM295 453h188q127 0 222 34.5t149.5 96t80.5 136.5t26 165t-26 165
t-80.5 137t-149.5 97t-222 35h-188v-866z" />
    <glyph glyph-name="racute" unicode="&#x155;" horiz-adv-x="696" 
d="M365 1018l153 399h94l-180 -399h-67zM172 0v836h80l-2 -168q35 89 99 136.5t145 47.5q94 0 151 -43l-39 -66q-49 35 -123 35q-96 0 -163.5 -79.5t-67.5 -223.5v-475h-80z" />
    <glyph glyph-name="Rcommaaccent" unicode="&#x156;" horiz-adv-x="1204" 
d="M748 424l309 -424h-101l-290 397q-76 -18 -174 -18h-197v-379h-84v1393h281q138 0 245.5 -39.5t174 -109t101 -160.5t34.5 -199q0 -159 -75.5 -281t-223.5 -180zM498 -498l65 205q-22 5 -38.5 26t-16.5 48q0 33 24.5 57.5t55.5 24.5t55.5 -24.5t24.5 -57.5q0 -13 -11 -39
l-108 -240h-51zM295 453h188q127 0 222 34.5t149.5 96t80.5 136.5t26 165t-26 165t-80.5 137t-149.5 97t-222 35h-188v-866z" />
    <glyph glyph-name="rcommaaccent" unicode="&#x157;" horiz-adv-x="696" 
d="M172 0v836h80l-2 -168q35 89 99 136.5t145 47.5q94 0 151 -43l-39 -66q-49 35 -123 35q-96 0 -163.5 -79.5t-67.5 -223.5v-475h-80zM123 -498l65 205q-22 5 -38.5 26t-16.5 48q0 33 24.5 57.5t55.5 24.5t55.5 -24.5t24.5 -57.5q0 -16 -10 -39l-109 -240h-51z" />
    <glyph glyph-name="Rcaron" unicode="&#x158;" horiz-adv-x="1204" 
d="M567 1534l-231 373h72l167 -244l170 244h72l-231 -373h-19zM748 424l309 -424h-101l-290 397q-76 -18 -174 -18h-197v-379h-84v1393h281q138 0 245.5 -39.5t174 -109t101 -160.5t34.5 -199q0 -159 -75.5 -281t-223.5 -180zM295 453h188q127 0 222 34.5t149.5 96
t80.5 136.5t26 165t-26 165t-80.5 137t-149.5 97t-222 35h-188v-866z" />
    <glyph glyph-name="rcaron" unicode="&#x159;" horiz-adv-x="696" 
d="M399 1006l-231 372h72l168 -243l170 243h71l-231 -372h-19zM172 0v836h80l-2 -168q35 89 99 136.5t145 47.5q94 0 151 -43l-39 -66q-49 35 -123 35q-96 0 -163.5 -79.5t-67.5 -223.5v-475h-80z" />
    <glyph glyph-name="Sacute" unicode="&#x15a;" horiz-adv-x="1079" 
d="M483 1546l154 400h94l-180 -400h-68zM543 -16q-331 0 -467 278l71 35q27 -51 59 -90t78 -75t111.5 -55.5t145.5 -19.5q141 0 236 77.5t95 205.5q0 118 -66.5 194t-217.5 146l-129 59q-153 71 -222 151.5t-69 207.5q0 141 98.5 226t243.5 85q228 0 356 -201l-65 -43
q-49 79 -117 124.5t-174 45.5q-122 0 -191 -64t-69 -171q0 -101 54.5 -163t187.5 -124l129 -59q173 -78 253 -175t80 -239q0 -161 -114.5 -258.5t-296.5 -97.5z" />
    <glyph glyph-name="sacute" unicode="&#x15b;" horiz-adv-x="829" 
d="M365 1018l153 399h94l-180 -399h-67zM432 -16q-125 0 -211.5 59t-124.5 150l70 30q77 -168 266 -168q95 0 152 44t57 116q0 79 -50 115t-181 76q-62 18 -101.5 34.5t-79 43.5t-58.5 67t-19 94q0 91 71.5 150t177.5 59q180 0 267 -158l-62 -37q-71 125 -205 125
q-79 0 -126.5 -37.5t-47.5 -97.5q0 -70 43.5 -104t171.5 -72q66 -19 109.5 -37.5t85.5 -48t63 -72t21 -98.5q0 -103 -76.5 -168t-212.5 -65z" />
    <glyph glyph-name="Scircumflex" unicode="&#x15c;" horiz-adv-x="1079" 
d="M285 1540l231 373h19l231 -373h-72l-168 244l-170 -244h-71zM543 -16q-331 0 -467 278l71 35q27 -51 59 -90t78 -75t111.5 -55.5t145.5 -19.5q141 0 236 77.5t95 205.5q0 118 -66.5 194t-217.5 146l-129 59q-153 71 -222 151.5t-69 207.5q0 141 98.5 226t243.5 85
q228 0 356 -201l-65 -43q-49 79 -117 124.5t-174 45.5q-122 0 -191 -64t-69 -171q0 -101 54.5 -163t187.5 -124l129 -59q173 -78 253 -175t80 -239q0 -161 -114.5 -258.5t-296.5 -97.5z" />
    <glyph glyph-name="scircumflex" unicode="&#x15d;" horiz-adv-x="829" 
d="M176 1012l232 372h18l231 -372h-71l-168 243l-170 -243h-72zM432 -16q-125 0 -211.5 59t-124.5 150l70 30q77 -168 266 -168q95 0 152 44t57 116q0 79 -50 115t-181 76q-62 18 -101.5 34.5t-79 43.5t-58.5 67t-19 94q0 91 71.5 150t177.5 59q180 0 267 -158l-62 -37
q-71 125 -205 125q-79 0 -126.5 -37.5t-47.5 -97.5q0 -70 43.5 -104t171.5 -72q66 -19 109.5 -37.5t85.5 -48t63 -72t21 -98.5q0 -103 -76.5 -168t-212.5 -65z" />
    <glyph glyph-name="Scaron" unicode="&#x160;" horiz-adv-x="1079" 
d="M543 -16q-331 0 -467 278l71 35q27 -51 59 -90t78 -75t111.5 -55.5t145.5 -19.5q141 0 236 77.5t95 205.5q0 118 -66.5 194t-217.5 146l-129 59q-153 71 -222 151.5t-69 207.5q0 141 98.5 226t243.5 85q228 0 356 -201l-65 -43q-49 79 -117 124.5t-174 45.5
q-122 0 -191 -64t-69 -171q0 -101 54.5 -163t187.5 -124l129 -59q173 -78 253 -175t80 -239q0 -161 -114.5 -258.5t-296.5 -97.5zM500 1534l-232 372h72l168 -243l170 243h72l-232 -372h-18z" />
    <glyph glyph-name="scaron" unicode="&#x161;" horiz-adv-x="829" 
d="M432 -16q-125 0 -211.5 59t-124.5 150l70 30q77 -168 266 -168q95 0 152 44t57 116q0 79 -50 115t-181 76q-62 18 -101.5 34.5t-79 43.5t-58.5 67t-19 94q0 91 71.5 150t177.5 59q180 0 267 -158l-62 -37q-71 125 -205 125q-79 0 -126.5 -37.5t-47.5 -97.5
q0 -70 43.5 -104t171.5 -72q66 -19 109.5 -37.5t85.5 -48t63 -72t21 -98.5q0 -103 -76.5 -168t-212.5 -65zM393 1006l-232 372h72l168 -243l170 243h72l-232 -372h-18z" />
    <glyph glyph-name="Tcommaaccent" unicode="&#x162;" horiz-adv-x="1103" 
d="M510 0v1319h-442v74h968v-74h-442v-1319h-84zM471 -498l66 205q-22 5 -39 26t-17 48q0 33 24.5 57.5t55.5 24.5t55.5 -24.5t24.5 -57.5q0 -16 -10 -39l-109 -240h-51z" />
    <glyph glyph-name="Tcommaaccent" unicode="&#x21a;" horiz-adv-x="1103" 
d="M510 0v1319h-442v74h968v-74h-442v-1319h-84zM471 -498l66 205q-22 5 -39 26t-17 48q0 33 24.5 57.5t55.5 24.5t55.5 -24.5t24.5 -57.5q0 -16 -10 -39l-109 -240h-51z" />
    <glyph glyph-name="tcommaaccent" unicode="&#x163;" horiz-adv-x="641" 
d="M397 -16q-86 0 -139 58t-53 179v547h-131v68h131v436h80v-436h241v-68h-241v-545q0 -168 112 -168q35 0 61.5 10t39 20.5t32.5 31.5l52 -49q-35 -40 -77.5 -62t-107.5 -22zM268 -498l66 205q-22 5 -38.5 26t-16.5 48q0 33 24 57.5t55 24.5t55.5 -24.5t24.5 -57.5
q0 -16 -10 -39l-109 -240h-51z" />
    <glyph glyph-name="tcommaaccent" unicode="&#x21b;" horiz-adv-x="641" 
d="M397 -16q-86 0 -139 58t-53 179v547h-131v68h131v436h80v-436h241v-68h-241v-545q0 -168 112 -168q35 0 61.5 10t39 20.5t32.5 31.5l52 -49q-35 -40 -77.5 -62t-107.5 -22zM268 -498l66 205q-22 5 -38.5 26t-16.5 48q0 33 24 57.5t55 24.5t55.5 -24.5t24.5 -57.5
q0 -16 -10 -39l-109 -240h-51z" />
    <glyph glyph-name="Tcaron" unicode="&#x164;" horiz-adv-x="1103" 
d="M543 1534l-232 373h72l168 -244l170 244h72l-232 -373h-18zM510 0v1319h-442v74h968v-74h-442v-1319h-84z" />
    <glyph glyph-name="tcaron" unicode="&#x165;" horiz-adv-x="690" 
d="M551 1047l65 204q-22 5 -38.5 26t-16.5 48q0 33 24.5 57.5t55.5 24.5t55.5 -24.5t24.5 -57.5q0 -16 -10 -39l-109 -239h-51zM397 -16q-86 0 -139 58t-53 179v547h-131v68h131v436h80v-436h241v-68h-241v-545q0 -168 112 -168q35 0 61.5 10t39 20.5t32.5 31.5l52 -49
q-35 -40 -77.5 -62t-107.5 -22z" />
    <glyph glyph-name="Umacron" unicode="&#x16a;" horiz-adv-x="1333" 
d="M467 1573v69h397v-69h-397zM666 -16q-208 0 -338.5 125.5t-130.5 353.5v930h84v-924q0 -197 104.5 -304.5t280.5 -107.5q175 0 281 108t106 304v924h84v-930q0 -227 -132 -353t-339 -126z" />
    <glyph glyph-name="umacron" unicode="&#x16b;" horiz-adv-x="1042" 
d="M322 1044v70h397v-70h-397zM475 -18q-141 0 -226 87.5t-85 239.5v527h80v-514q0 -129 60 -198t179 -69q137 0 222.5 85.5t85.5 228.5v467h79v-836h-79l2 184q-42 -95 -125.5 -148.5t-192.5 -53.5z" />
    <glyph glyph-name="Ubreve" unicode="&#x16c;" horiz-adv-x="1333" 
d="M666 1520q-100 0 -161 59t-79 156l72 14q20 -75 57.5 -116.5t110.5 -41.5t110.5 41.5t57.5 116.5l71 -14q-18 -98 -78.5 -156.5t-160.5 -58.5zM666 -16q-208 0 -338.5 125.5t-130.5 353.5v930h84v-924q0 -197 104.5 -304.5t280.5 -107.5q175 0 281 108t106 304v924h84
v-930q0 -227 -132 -353t-339 -126z" />
    <glyph glyph-name="ubreve" unicode="&#x16d;" horiz-adv-x="1042" 
d="M522 991q-100 0 -160.5 58.5t-78.5 156.5l71 15q20 -75 57.5 -116.5t110.5 -41.5t110.5 41.5t57.5 116.5l72 -15q-18 -97 -79 -156t-161 -59zM475 -18q-141 0 -226 87.5t-85 239.5v527h80v-514q0 -129 60 -198t179 -69q137 0 222.5 85.5t85.5 228.5v467h79v-836h-79
l2 184q-42 -95 -125.5 -148.5t-192.5 -53.5z" />
    <glyph glyph-name="Uring" unicode="&#x16e;" horiz-adv-x="1333" 
d="M666 1528q-80 0 -136.5 55t-56.5 133t56.5 133.5t136.5 55.5q79 0 135.5 -55.5t56.5 -133.5t-56 -133t-136 -55zM666 -16q-208 0 -338.5 125.5t-130.5 353.5v930h84v-924q0 -197 104.5 -304.5t280.5 -107.5q175 0 281 108t106 304v924h84v-930q0 -227 -132 -353
t-339 -126zM666 1591q53 0 85.5 34t32.5 91t-32.5 91t-85.5 34t-86 -34t-33 -91t33 -91t86 -34z" />
    <glyph glyph-name="uring" unicode="&#x16f;" horiz-adv-x="1042" 
d="M520 999q-79 0 -135.5 55.5t-56.5 133.5t56 133t136 55t136.5 -55t56.5 -133t-56.5 -133.5t-136.5 -55.5zM475 -18q-141 0 -226 87.5t-85 239.5v527h80v-514q0 -129 60 -198t179 -69q137 0 222.5 85.5t85.5 228.5v467h79v-836h-79l2 184q-42 -95 -125.5 -148.5
t-192.5 -53.5zM520 1063q53 0 86 34t33 91t-33 91t-86 34t-86 -34t-33 -91t33 -91t86 -34z" />
    <glyph glyph-name="Uhungarumlaut" unicode="&#x170;" horiz-adv-x="1333" 
d="M754 1546l153 400h94l-180 -400h-67zM514 1546l154 400h94l-180 -400h-68zM666 -16q-208 0 -338.5 125.5t-130.5 353.5v930h84v-924q0 -197 104.5 -304.5t280.5 -107.5q175 0 281 108t106 304v924h84v-930q0 -227 -132 -353t-339 -126z" />
    <glyph glyph-name="uhungarumlaut" unicode="&#x171;" horiz-adv-x="1042" 
d="M612 1018l154 399h94l-180 -399h-68zM373 1018l153 399h95l-181 -399h-67zM475 -18q-141 0 -226 87.5t-85 239.5v527h80v-514q0 -129 60 -198t179 -69q137 0 222.5 85.5t85.5 228.5v467h79v-836h-79l2 184q-42 -95 -125.5 -148.5t-192.5 -53.5z" />
    <glyph glyph-name="Uogonek" unicode="&#x172;" horiz-adv-x="1333" 
d="M623 -14q-192 12 -309 136t-117 341v930h84v-924q0 -197 104.5 -304.5t280.5 -107.5q175 0 281 108t106 304v924h84v-930q0 -218 -121.5 -343t-315.5 -134l-57 -90q-55 -87 -66 -119q-12 -34 -12 -72q0 -49 29.5 -75.5t71.5 -26.5q40 0 67 22t51 62l62 -37
q-56 -117 -184 -117q-73 0 -125 44t-52 124q0 98 86 213z" />
    <glyph glyph-name="uogonek" unicode="&#x173;" horiz-adv-x="1042" 
d="M791 -2l2 186q-42 -95 -125.5 -148.5t-192.5 -53.5q-141 0 -226 87.5t-85 239.5v527h80v-514q0 -129 60 -198t179 -69q137 0 222.5 85.5t85.5 228.5v467h79v-836l-67 -104q-55 -87 -66 -119q-12 -34 -12 -72q0 -49 29 -75.5t71 -26.5q69 0 119 84l62 -37
q-56 -117 -185 -117q-73 0 -124.5 44t-51.5 124q0 98 86 213z" />
    <glyph glyph-name="Ydieresis" unicode="&#x178;" horiz-adv-x="1316" 
d="M813 1595q-27 0 -46 19.5t-19 46.5t19 46t46 19t46.5 -19t19.5 -46t-19.5 -46.5t-46.5 -19.5zM502 1595q-27 0 -46.5 19.5t-19.5 46.5t19.5 46t46.5 19t46 -19t19 -46t-19.5 -46.5t-45.5 -19.5zM616 0v434l-526 959h94l445 -807q8 -15 16.5 -36t12.5 -34l4 -14
q18 51 36 84l443 807h88l-527 -961v-432h-86z" />
    <glyph glyph-name="Zacute" unicode="&#x179;" horiz-adv-x="1187" 
d="M582 1546l153 400h94l-180 -400h-67zM92 0v20l846 1299h-737v74h862v-21l-844 -1298h866v-74h-993z" />
    <glyph glyph-name="zacute" unicode="&#x17a;" horiz-adv-x="831" 
d="M406 1018l153 399h94l-180 -399h-67zM74 0v20l561 746h-504v70h627v-23l-561 -743h561v-70h-684z" />
    <glyph glyph-name="Zdotaccent" unicode="&#x17b;" horiz-adv-x="1187" 
d="M623 1593q-27 0 -47.5 19t-20.5 49q0 29 20.5 48.5t47.5 19.5t47 -19.5t20 -48.5q0 -30 -20 -49t-47 -19zM92 0v20l846 1299h-737v74h862v-21l-844 -1298h866v-74h-993z" />
    <glyph glyph-name="zdotaccent" unicode="&#x17c;" horiz-adv-x="831" 
d="M442 1065q-27 0 -47 19t-20 49q0 29 20 48t47 19t47.5 -19.5t20.5 -47.5q0 -30 -20.5 -49t-47.5 -19zM74 0v20l561 746h-504v70h627v-23l-561 -743h561v-70h-684z" />
    <glyph glyph-name="Zcaron" unicode="&#x17d;" horiz-adv-x="1187" 
d="M92 0v20l846 1299h-737v74h862v-21l-844 -1298h866v-74h-993zM615 1534l-232 372h72l168 -243l170 243h72l-232 -372h-18z" />
    <glyph glyph-name="zcaron" unicode="&#x17e;" horiz-adv-x="831" 
d="M74 0v20l561 746h-504v70h627v-23l-561 -743h561v-70h-684zM449 1006l-232 372h72l168 -243l170 243h72l-232 -372h-18z" />
    <glyph glyph-name="florin" unicode="&#x192;" horiz-adv-x="684" 
d="M131 -434l98 870h-147v68h154l59 520q13 123 69.5 182.5t141.5 59.5q124 0 186 -105l-57 -43q-27 39 -54 57.5t-73 18.5q-58 0 -91.5 -38.5t-43.5 -133.5l-60 -518h183v-68h-189l-98 -870h-78z" />
    <glyph glyph-name="Scommaaccent" unicode="&#x218;" horiz-adv-x="1079" 
d="M543 -16q-331 0 -467 278l71 35q27 -51 59 -90t78 -75t111.5 -55.5t145.5 -19.5q141 0 236 77.5t95 205.5q0 118 -66.5 194t-217.5 146l-129 59q-153 71 -222 151.5t-69 207.5q0 141 98.5 226t243.5 85q228 0 356 -201l-65 -43q-49 79 -117 124.5t-174 45.5
q-122 0 -191 -64t-69 -171q0 -101 54.5 -163t187.5 -124l129 -59q173 -78 253 -175t80 -239q0 -161 -114.5 -258.5t-296.5 -97.5zM459 -498l65 205q-22 5 -38.5 26t-16.5 48q0 33 24.5 57.5t55.5 24.5t55.5 -24.5t24.5 -57.5q0 -13 -11 -39l-108 -240h-51z" />
    <glyph glyph-name="scommaaccent" unicode="&#x219;" horiz-adv-x="829" 
d="M432 -16q-125 0 -211.5 59t-124.5 150l70 30q77 -168 266 -168q95 0 152 44t57 116q0 79 -50 115t-181 76q-62 18 -101.5 34.5t-79 43.5t-58.5 67t-19 94q0 91 71.5 150t177.5 59q180 0 267 -158l-62 -37q-71 125 -205 125q-79 0 -126.5 -37.5t-47.5 -97.5
q0 -70 43.5 -104t171.5 -72q66 -19 109.5 -37.5t85.5 -48t63 -72t21 -98.5q0 -103 -76.5 -168t-212.5 -65zM334 -498l65 205q-22 5 -38.5 26t-16.5 48q0 33 24.5 57.5t55.5 24.5t55.5 -24.5t24.5 -57.5q0 -16 -10 -39l-109 -240h-51z" />
    <glyph glyph-name="circumflex" unicode="&#x2c6;" 
d="M270 1012l232 372h18l232 -372h-72l-168 243l-170 -243h-72z" />
    <glyph glyph-name="caron" unicode="&#x2c7;" 
d="M504 1006l-232 372h72l168 -243l170 243h72l-232 -372h-18z" />
    <glyph glyph-name="breve" unicode="&#x2d8;" 
d="M512 991q-100 0 -161 59t-79 156l72 15q20 -75 57.5 -116.5t110.5 -41.5t110.5 41.5t57.5 116.5l72 -15q-18 -97 -79 -156t-161 -59z" />
    <glyph glyph-name="dotaccent" unicode="&#x2d9;" 
d="M512 1065q-27 0 -47.5 19t-20.5 49q0 28 20.5 47.5t47.5 19.5t47.5 -19.5t20.5 -47.5q0 -30 -20.5 -49t-47.5 -19z" />
    <glyph glyph-name="ring" unicode="&#x2da;" 
d="M512 999q-80 0 -136.5 55.5t-56.5 133.5t56.5 133t136.5 55t136.5 -55t56.5 -133t-56.5 -133.5t-136.5 -55.5zM512 1063q53 0 86 34t33 91t-33 91t-86 34t-86 -34t-33 -91t33 -91t86 -34z" />
    <glyph glyph-name="ogonek" unicode="&#x2db;" 
d="M481 -467q-73 0 -124.5 44t-51.5 124q0 98 86 213l62 86h77l-67 -104q-55 -87 -66 -119q-12 -34 -12 -72q0 -49 29 -75.5t71 -26.5q69 0 119 84l62 -37q-56 -117 -185 -117z" />
    <glyph glyph-name="tilde" unicode="&#x2dc;" 
d="M307 1001l-69 7q4 94 44.5 146t108.5 52q41 0 71.5 -18t74.5 -60q42 -40 58.5 -50.5t41.5 -10.5q35 0 54.5 32t25.5 101l69 -6q-5 -95 -43 -146t-108 -51q-41 0 -71 18.5t-75 61.5q-41 39 -57.5 49.5t-42.5 10.5q-70 0 -82 -136z" />
    <glyph glyph-name="hungarumlaut" unicode="&#x2dd;" 
d="M590 1018l153 399h95l-181 -399h-67zM350 1018l154 399h94l-180 -399h-68z" />
    <glyph glyph-name="Delta" unicode="&#x394;" horiz-adv-x="368" 
d="M184 403q-31 0 -56.5 24.5t-25.5 57.5q0 34 25 58t57 24q33 0 57.5 -23.5t24.5 -58.5q0 -33 -24.5 -57.5t-57.5 -24.5z" />
    <glyph glyph-name="Delta" unicode="&#x2206;" horiz-adv-x="368" 
d="M184 403q-31 0 -56.5 24.5t-25.5 57.5q0 34 25 58t57 24q33 0 57.5 -23.5t24.5 -58.5q0 -33 -24.5 -57.5t-57.5 -24.5z" />
    <glyph glyph-name="Omega" unicode="&#x3a9;" horiz-adv-x="368" 
d="M184 403q-31 0 -56.5 24.5t-25.5 57.5q0 34 25 58t57 24q33 0 57.5 -23.5t24.5 -58.5q0 -33 -24.5 -57.5t-57.5 -24.5z" />
    <glyph glyph-name="Omega" unicode="&#x2126;" horiz-adv-x="368" 
d="M184 403q-31 0 -56.5 24.5t-25.5 57.5q0 34 25 58t57 24q33 0 57.5 -23.5t24.5 -58.5q0 -33 -24.5 -57.5t-57.5 -24.5z" />
    <glyph glyph-name="pi" unicode="&#x3c0;" horiz-adv-x="368" 
d="M184 403q-31 0 -56.5 24.5t-25.5 57.5q0 34 25 58t57 24q33 0 57.5 -23.5t24.5 -58.5q0 -33 -24.5 -57.5t-57.5 -24.5z" />
    <glyph glyph-name="endash" unicode="&#x2013;" horiz-adv-x="796" 
d="M78 330v69h639v-69h-639z" />
    <glyph glyph-name="emdash" unicode="&#x2014;" horiz-adv-x="1243" 
d="M78 330v69h1087v-69h-1087z" />
    <glyph glyph-name="quoteleft" unicode="&#x2018;" horiz-adv-x="364" 
d="M182 1032q-31 0 -55.5 24.5t-24.5 57.5q0 13 11 39l108 240h51l-65 -205q22 -5 38.5 -26t16.5 -48q0 -33 -24.5 -57.5t-55.5 -24.5z" />
    <glyph glyph-name="quoteright" unicode="&#x2019;" horiz-adv-x="364" 
d="M92 1047l66 204q-22 5 -39 26t-17 48q0 33 24.5 57.5t55.5 24.5t55.5 -24.5t24.5 -57.5q0 -16 -10 -39l-109 -239h-51z" />
    <glyph glyph-name="quotesinglbase" unicode="&#x201a;" horiz-adv-x="364" 
d="M92 -211l66 205q-22 5 -39 26t-17 48q0 33 24.5 57.5t55.5 24.5t55.5 -24.5t24.5 -57.5q0 -16 -10 -39l-109 -240h-51z" />
    <glyph glyph-name="quotedblleft" unicode="&#x201c;" horiz-adv-x="632" 
d="M451 1032q-31 0 -55.5 24.5t-24.5 57.5q0 16 10 39l108 240h52l-66 -205q22 -5 38.5 -26t16.5 -48q0 -33 -24 -57.5t-55 -24.5zM182 1032q-31 0 -55.5 24.5t-24.5 57.5q0 13 11 39l108 240h51l-65 -205q22 -5 38.5 -26t16.5 -48q0 -33 -24.5 -57.5t-55.5 -24.5z" />
    <glyph glyph-name="quotedblright" unicode="&#x201d;" horiz-adv-x="632" 
d="M360 1047l66 204q-22 5 -38.5 26t-16.5 48q0 33 24.5 57.5t55.5 24.5t55 -24.5t24 -57.5q0 -16 -10 -39l-108 -239h-52zM92 1047l66 204q-22 5 -39 26t-17 48q0 33 24.5 57.5t55.5 24.5t55.5 -24.5t24.5 -57.5q0 -16 -10 -39l-109 -239h-51z" />
    <glyph glyph-name="quotedblbase" unicode="&#x201e;" horiz-adv-x="632" 
d="M360 -211l66 205q-22 5 -38.5 26t-16.5 48q0 33 24.5 57.5t55.5 24.5t55 -24.5t24 -57.5q0 -16 -10 -39l-108 -240h-52zM92 -211l66 205q-22 5 -39 26t-17 48q0 33 24.5 57.5t55.5 24.5t55.5 -24.5t24.5 -57.5q0 -16 -10 -39l-109 -240h-51z" />
    <glyph glyph-name="dagger" unicode="&#x2020;" horiz-adv-x="665" 
d="M295 612v492h-197v67h197v222h76v-222h196v-67h-196v-492h-76z" />
    <glyph glyph-name="daggerdbl" unicode="&#x2021;" horiz-adv-x="665" 
d="M295 612v222h-197v67h197v203h-197v67h197v222h76v-222h196v-67h-196v-203h196v-67h-196v-222h-76z" />
    <glyph glyph-name="bullet" unicode="&#x2022;" horiz-adv-x="571" 
d="M287 342q-74 0 -128.5 53t-54.5 127q0 76 54.5 128t128.5 52q73 0 126.5 -52.5t53.5 -127.5q0 -74 -53.5 -127t-126.5 -53z" />
    <glyph glyph-name="ellipsis" unicode="&#x2026;" horiz-adv-x="1142" 
d="M958 -14q-31 0 -56 24.5t-25 57.5q0 34 24.5 58t56.5 24q33 0 57.5 -23.5t24.5 -58.5q0 -33 -24.5 -57.5t-57.5 -24.5zM571 -14q-31 0 -56.5 24.5t-25.5 57.5q0 34 25 58t57 24q33 0 57.5 -23.5t24.5 -58.5q0 -33 -24.5 -57.5t-57.5 -24.5zM184 -14q-31 0 -56.5 24.5
t-25.5 57.5q0 34 25 58t57 24q33 0 57.5 -23.5t24.5 -58.5q0 -33 -24.5 -57.5t-57.5 -24.5z" />
    <glyph glyph-name="perthousand" unicode="&#x2030;" horiz-adv-x="2164" 
d="M354 449q-119 0 -206 82.5t-87 207.5q0 123 87.5 207t205.5 84q117 0 204 -84t87 -207q0 -124 -87 -207t-204 -83zM385 0l631 1014h82l-631 -1014h-82zM1812 -16q-118 0 -204 82.5t-86 207.5q0 124 86 207.5t204 83.5t204.5 -83.5t86.5 -207.5q0 -125 -86.5 -207.5
t-204.5 -82.5zM1128 -16q-118 0 -204 82.5t-86 207.5q0 124 86 207.5t204 83.5t204.5 -83.5t86.5 -207.5q0 -125 -86.5 -207.5t-204.5 -82.5zM354 516q91 0 153 62.5t62 160.5t-62 160t-153 62t-154 -62t-63 -160t63 -160.5t154 -62.5zM1812 51q91 0 153.5 62.5t62.5 160.5
q0 97 -62.5 159.5t-153.5 62.5t-153 -62.5t-62 -159.5q0 -98 62 -160.5t153 -62.5zM1128 51q91 0 153 62.5t62 160.5q0 97 -62 159.5t-153 62.5t-153 -62.5t-62 -159.5q0 -98 62 -160.5t153 -62.5z" />
    <glyph glyph-name="guilsinglleft" unicode="&#x2039;" horiz-adv-x="450" 
d="M274 82l-190 315v17l190 315h93l-195 -323l195 -324h-93z" />
    <glyph glyph-name="guilsinglright" unicode="&#x203a;" horiz-adv-x="450" 
d="M84 82l195 324l-195 323h92l191 -315v-17l-191 -315h-92z" />
    <glyph glyph-name="fraction" unicode="&#x2044;" horiz-adv-x="841" 
d="M-61 0l878 1393h86l-878 -1393h-86z" />
    <glyph glyph-name="fraction" unicode="&#x2215;" horiz-adv-x="841" 
d="M-61 0l878 1393h86l-878 -1393h-86z" />
    <glyph glyph-name="Euro" unicode="&#x20ac;" horiz-adv-x="1294" 
d="M260 588h-164v67h178q46 168 183.5 271.5t312.5 103.5q259 0 399 -196l-61 -48q-60 84 -140 127t-198 43q-149 0 -258.5 -81.5t-151.5 -219.5h531v-67h-545q-6 -41 -6 -82q0 -45 6 -86h545v-68h-529q43 -134 153 -214.5t255 -80.5q124 0 205.5 43.5t140.5 132.5l66 -43
q-130 -206 -412 -206q-175 0 -312 101.5t-184 266.5h-178v68h164q-6 43 -6 86q0 42 6 82z" />
    <glyph glyph-name="trademark" unicode="&#x2122;" horiz-adv-x="1499" 
d="M715 791v612h16l291 -342l291 342h16v-612h-76v444l-221 -266h-20l-221 266v-444h-76zM303 791v534h-192v68h458v-68h-190v-534h-76z" />
    <glyph glyph-name="partialdiff" unicode="&#x2202;" horiz-adv-x="368" 
d="M184 403q-31 0 -56.5 24.5t-25.5 57.5q0 34 25 58t57 24q33 0 57.5 -23.5t24.5 -58.5q0 -33 -24.5 -57.5t-57.5 -24.5z" />
    <glyph glyph-name="product" unicode="&#x220f;" horiz-adv-x="368" 
d="M184 403q-31 0 -56.5 24.5t-25.5 57.5q0 34 25 58t57 24q33 0 57.5 -23.5t24.5 -58.5q0 -33 -24.5 -57.5t-57.5 -24.5z" />
    <glyph glyph-name="summation" unicode="&#x2211;" horiz-adv-x="1171" 
d="M113 0v20l526 576l-537 776v21h922v-74h-717l-76 2q27 -33 54 -70l450 -651v-16l-403 -437l-78 -77q54 4 113 4h686v-74h-940z" />
    <glyph glyph-name="minus" unicode="&#x2212;" horiz-adv-x="368" 
d="M184 403q-31 0 -56.5 24.5t-25.5 57.5q0 34 25 58t57 24q33 0 57.5 -23.5t24.5 -58.5q0 -33 -24.5 -57.5t-57.5 -24.5z" />
    <glyph glyph-name="radical" unicode="&#x221a;" horiz-adv-x="368" 
d="M184 403q-31 0 -56.5 24.5t-25.5 57.5q0 34 25 58t57 24q33 0 57.5 -23.5t24.5 -58.5q0 -33 -24.5 -57.5t-57.5 -24.5z" />
    <glyph glyph-name="integral" unicode="&#x222b;" horiz-adv-x="368" 
d="M184 403q-31 0 -56.5 24.5t-25.5 57.5q0 34 25 58t57 24q33 0 57.5 -23.5t24.5 -58.5q0 -33 -24.5 -57.5t-57.5 -24.5z" />
    <glyph glyph-name="approxequal" unicode="&#x2248;" horiz-adv-x="368" 
d="M184 403q-31 0 -56.5 24.5t-25.5 57.5q0 34 25 58t57 24q33 0 57.5 -23.5t24.5 -58.5q0 -33 -24.5 -57.5t-57.5 -24.5z" />
    <glyph glyph-name="lessequal" unicode="&#x2264;" horiz-adv-x="368" 
d="M184 403q-31 0 -56.5 24.5t-25.5 57.5q0 34 25 58t57 24q33 0 57.5 -23.5t24.5 -58.5q0 -33 -24.5 -57.5t-57.5 -24.5z" />
    <glyph glyph-name="greaterequal" unicode="&#x2265;" horiz-adv-x="368" 
d="M184 403q-31 0 -56.5 24.5t-25.5 57.5q0 34 25 58t57 24q33 0 57.5 -23.5t24.5 -58.5q0 -33 -24.5 -57.5t-57.5 -24.5z" />
    <glyph glyph-name="lozenge" unicode="&#x25ca;" horiz-adv-x="368" 
d="M184 403q-31 0 -56.5 24.5t-25.5 57.5q0 34 25 58t57 24q33 0 57.5 -23.5t24.5 -58.5q0 -33 -24.5 -57.5t-57.5 -24.5z" />
    <glyph glyph-name="Lslashsmall" unicode="&#xf6f9;" horiz-adv-x="825" 
d="M256 338v-266h485v-72h-567v305l-113 -45v76l113 45v635h82v-602l303 118v-73z" />
    <glyph glyph-name="OEsmall" unicode="&#xf6fa;" horiz-adv-x="1525" 
d="M657 0q-254 0 -401 139t-147 367q0 229 146.5 368.5t401.5 139.5h732v-72h-523v-512h469v-72h-469v-286h545v-72h-754zM666 72h118v870h-118q-234 0 -353.5 -118t-119.5 -318q0 -198 119.5 -316t353.5 -118z" />
    <glyph glyph-name="Scaronsmall" unicode="&#xf6fd;" horiz-adv-x="839" 
d="M426 -16q-127 0 -218.5 60.5t-133.5 150.5l69 34q85 -174 281 -174q104 0 169.5 53t65.5 140q0 85 -47.5 137.5t-158.5 101.5l-101 45q-103 45 -156 108t-53 157q0 106 75 169.5t185 63.5q176 0 273 -143l-62 -45q-38 57 -87.5 88t-123.5 31q-83 0 -132.5 -42.5
t-49.5 -119.5q0 -69 37 -113t127 -84l100 -45q130 -58 192 -129.5t62 -179.5q0 -119 -87.5 -191.5t-225.5 -72.5zM412 1145l-232 373h72l168 -244l170 244h72l-232 -373h-18z" />
    <glyph glyph-name="Zcaronsmall" unicode="&#xf6ff;" horiz-adv-x="921" 
d="M92 0v14l598 928h-528v72h653v-17l-600 -925h598v-72h-721zM453 1145l-232 373h72l168 -244l170 244h71l-231 -373h-18z" />
    <glyph glyph-name="Asmall" unicode="&#xf761;" 
d="M86 0l416 1026h18l418 -1026h-86l-74 184h-536l-74 -184h-82zM270 256h480l-199 502q-7 18 -17 51.5t-16 57.5l-6 24q-25 -92 -41 -133z" />
    <glyph glyph-name="Bsmall" unicode="&#xf762;" horiz-adv-x="968" 
d="M172 0v1014h342q136 0 205 -68.5t69 -179.5q0 -158 -129 -205q98 -22 155.5 -93t57.5 -173q0 -130 -80.5 -212.5t-236.5 -82.5h-383zM254 590h274q181 0 181 176t-203 176h-252v-352zM254 72h293q241 0 241 223q0 104 -59.5 164.5t-183.5 60.5h-291v-448z" />
    <glyph glyph-name="Csmall" unicode="&#xf763;" horiz-adv-x="1142" 
d="M618 -16q-103 0 -196 39t-162 107.5t-110 166.5t-41 211q0 149 70 269.5t187.5 186.5t258.5 66q138 0 234 -48.5t167 -147.5l-59 -46q-125 170 -342 170q-186 0 -309 -129t-123 -321q0 -193 121.5 -323t303.5 -130q234 0 365 178l61 -45q-142 -204 -426 -204z" />
    <glyph glyph-name="Dsmall" unicode="&#xf764;" horiz-adv-x="1060" 
d="M172 0v1014h231q255 0 402 -139t147 -367q0 -229 -147 -368.5t-402 -139.5h-231zM254 72h141q234 0 353.5 118t119.5 318q0 198 -119.5 316t-353.5 118h-141v-870z" />
    <glyph glyph-name="Esmall" unicode="&#xf765;" horiz-adv-x="909" 
d="M172 0v1014h602v-72h-520v-512h467v-72h-467v-286h541v-72h-623z" />
    <glyph glyph-name="Fsmall" unicode="&#xf766;" horiz-adv-x="880" 
d="M172 0v1014h598v-72h-516v-512h471v-72h-471v-358h-82z" />
    <glyph glyph-name="Gsmall" unicode="&#xf767;" horiz-adv-x="1159" 
d="M635 -16q-145 0 -265.5 67t-190.5 187.5t-70 269.5q0 147 70 267.5t188.5 187.5t259.5 67q228 0 358 -139l-55 -53q-111 120 -303 120q-189 0 -311.5 -129t-122.5 -321q0 -194 124.5 -323.5t317.5 -129.5q200 0 323 107v231h-309v72h387v-336q-162 -145 -401 -145z" />
    <glyph glyph-name="Hsmall" unicode="&#xf768;" horiz-adv-x="1077" 
d="M172 0v1014h82v-584h569v584h82v-1014h-82v358h-569v-358h-82z" />
    <glyph glyph-name="Ismall" unicode="&#xf769;" horiz-adv-x="438" 
d="M178 0v1014h82v-1014h-82z" />
    <glyph glyph-name="Jsmall" unicode="&#xf76a;" horiz-adv-x="763" 
d="M332 -16q-172 0 -254 153l65 41q69 -121 185 -121q86 0 134 49.5t48 151.5v756h82v-760q0 -129 -72.5 -199.5t-187.5 -70.5z" />
    <glyph glyph-name="Ksmall" unicode="&#xf76b;" horiz-adv-x="958" 
d="M242 336q6 9 29.5 47.5t42.5 67.5t32 45l404 518h94l-377 -479l438 -535h-104l-387 473l-160 -192v-281h-82v1014h82v-504q0 -69 -12 -174z" />
    <glyph glyph-name="Lsmall" unicode="&#xf76c;" horiz-adv-x="823" 
d="M172 0v1014h82v-942h485v-72h-567z" />
    <glyph glyph-name="Msmall" unicode="&#xf76d;" horiz-adv-x="1302" 
d="M170 0v1026h16l465 -604l463 604h16v-1026h-79v690q0 30 2.5 72t4.5 69l3 27q-47 -90 -88 -143l-316 -406h-14l-311 406q-16 22 -39 57.5t-38 60.5l-15 25q10 -100 10 -168v-690h-80z" />
    <glyph glyph-name="Nsmall" unicode="&#xf76e;" horiz-adv-x="1122" 
d="M932 -12l-602 743q-15 18 -37.5 52t-37.5 59l-15 24q10 -83 10 -151v-715h-78v1026h18l598 -737q17 -21 40.5 -54.5t37.5 -56.5l15 -24q-9 79 -9 145v717h78v-1028h-18z" />
    <glyph glyph-name="Osmall" unicode="&#xf76f;" horiz-adv-x="1267" 
d="M635 -16q-143 0 -263.5 66t-193 187t-72.5 271t72.5 270.5t193 186t263.5 65.5q107 0 203.5 -39t168 -106.5t113 -165.5t41.5 -211t-41.5 -211t-112.5 -166.5t-168 -107.5t-204 -39zM635 55q192 0 317 130t125 323t-125 321.5t-317 128.5q-193 0 -319 -128.5t-126 -321.5
t126.5 -323t318.5 -130z" />
    <glyph glyph-name="Psmall" unicode="&#xf770;" horiz-adv-x="948" 
d="M172 0v1014h252q198 0 302.5 -105t104.5 -274t-104.5 -274t-302.5 -105h-170v-256h-82zM254 328h164q173 0 252.5 83.5t79.5 223.5q0 142 -79 224.5t-253 82.5h-164v-614z" />
    <glyph glyph-name="Qsmall" unicode="&#xf771;" horiz-adv-x="1267" 
d="M1102 -84l-158 166q-141 -98 -309 -98q-143 0 -263.5 66t-193 187t-72.5 271t72.5 270.5t193 186t263.5 65.5q107 0 203.5 -39t168 -106.5t113 -165.5t41.5 -211q0 -110 -42.5 -207.5t-117.5 -169.5l158 -164zM635 55q145 0 260 78l-168 176l57 51l170 -178
q123 126 123 326q0 193 -125 321.5t-317 128.5q-193 0 -319 -128.5t-126 -321.5t126.5 -323t318.5 -130z" />
    <glyph glyph-name="Rsmall" unicode="&#xf772;" horiz-adv-x="944" 
d="M612 309l226 -309h-95l-208 285q-57 -13 -115 -13h-166v-272h-82v1014h248q197 0 302 -104.5t105 -266.5q0 -116 -54.5 -203.5t-160.5 -130.5zM254 344h160q172 0 251.5 82.5t79.5 216.5t-79.5 216.5t-251.5 82.5h-160v-598z" />
    <glyph glyph-name="Ssmall" unicode="&#xf773;" horiz-adv-x="839" 
d="M426 -16q-127 0 -218.5 60.5t-133.5 150.5l69 34q85 -174 281 -174q104 0 169.5 53t65.5 140q0 85 -47.5 137.5t-158.5 101.5l-101 45q-103 45 -156 108t-53 157q0 106 75 169.5t185 63.5q176 0 273 -143l-62 -45q-38 57 -87.5 88t-123.5 31q-83 0 -132.5 -42.5
t-49.5 -119.5q0 -69 37 -113t127 -84l100 -45q130 -58 192 -129.5t62 -179.5q0 -119 -87.5 -191.5t-225.5 -72.5z" />
    <glyph glyph-name="Tsmall" unicode="&#xf774;" horiz-adv-x="888" 
d="M403 0v942h-327v72h737v-72h-328v-942h-82z" />
    <glyph glyph-name="Usmall" unicode="&#xf775;" horiz-adv-x="1032" 
d="M516 -16q-159 0 -255.5 93t-96.5 265v672h82v-666q0 -148 71.5 -220.5t198.5 -72.5q126 0 198 73t72 220v666h82v-672q0 -172 -96.5 -265t-255.5 -93z" />
    <glyph glyph-name="Vsmall" unicode="&#xf776;" 
d="M504 -12l-418 1026h88l295 -738l47 -151q25 106 43 151l295 738h84l-414 -1026h-20z" />
    <glyph glyph-name="Wsmall" unicode="&#xf777;" horiz-adv-x="1470" 
d="M410 -12l-326 1026h88l223 -715q6 -22 13.5 -56.5t11.5 -58.5l4 -24q19 90 37 139l268 727h16l267 -727q9 -24 18 -59t14 -58l5 -22q14 86 30 139l224 715h83l-323 -1026h-19l-276 753q-8 22 -15.5 50t-11.5 45l-4 18q-12 -66 -30 -113l-281 -753h-16z" />
    <glyph glyph-name="Xsmall" unicode="&#xf778;" horiz-adv-x="991" 
d="M96 0l350 551l-294 463h92l202 -318q13 -20 25.5 -45t18.5 -40l6 -15q20 55 49 100l198 318h93l-295 -463l354 -551h-92l-258 406q-11 17 -24.5 41.5t-20.5 40.5l-8 16q-25 -61 -48 -98l-256 -406h-92z" />
    <glyph glyph-name="Ysmall" unicode="&#xf779;" horiz-adv-x="1017" 
d="M471 0v311l-385 703h90l281 -514q13 -24 26.5 -56.5t20.5 -53.5l8 -21q30 80 57 131l277 514h88l-381 -699v-315h-82z" />
    <glyph glyph-name="Zsmall" unicode="&#xf77a;" horiz-adv-x="921" 
d="M92 0v14l598 928h-528v72h653v-17l-600 -925h598v-72h-721z" />
    <glyph glyph-name="Agravesmall" unicode="&#xf7e0;" 
d="M86 0l416 1026h18l418 -1026h-86l-74 184h-536l-74 -184h-82zM270 256h480l-199 502q-7 18 -17 51.5t-16 57.5l-6 24q-25 -92 -41 -133zM483 1157l-180 399h94l154 -399h-68z" />
    <glyph glyph-name="Aacutesmall" unicode="&#xf7e1;" 
d="M86 0l416 1026h18l418 -1026h-86l-74 184h-536l-74 -184h-82zM270 256h480l-199 502q-7 18 -17 51.5t-16 57.5l-6 24q-25 -92 -41 -133zM473 1157l154 399h94l-180 -399h-68z" />
    <glyph glyph-name="Acircumflexsmall" unicode="&#xf7e2;" 
d="M86 0l416 1026h18l418 -1026h-86l-74 184h-536l-74 -184h-82zM270 256h480l-199 502q-7 18 -17 51.5t-16 57.5l-6 24q-25 -92 -41 -133zM270 1151l232 373h18l232 -373h-72l-168 244l-170 -244h-72z" />
    <glyph glyph-name="Atildesmall" unicode="&#xf7e3;" 
d="M86 0l416 1026h18l418 -1026h-86l-74 184h-536l-74 -184h-82zM270 256h480l-199 502q-7 18 -17 51.5t-16 57.5l-6 24q-25 -92 -41 -133zM307 1141l-69 6q4 94 44.5 146.5t108.5 52.5q41 0 71.5 -18t74.5 -60q42 -41 58.5 -51.5t41.5 -10.5q35 0 54.5 32t25.5 101l69 -6
q-5 -95 -43 -145.5t-108 -50.5q-41 0 -71 18.5t-75 61.5q-40 39 -57 49t-43 10q-70 0 -82 -135z" />
    <glyph glyph-name="Adieresissmall" unicode="&#xf7e4;" 
d="M86 0l416 1026h18l418 -1026h-86l-74 184h-536l-74 -184h-82zM270 256h480l-199 502q-7 18 -17 51.5t-16 57.5l-6 24q-25 -92 -41 -133zM668 1206q-27 0 -46.5 19.5t-19.5 46.5t19.5 46t46.5 19t46 -19t19 -46q0 -28 -19.5 -47t-45.5 -19zM356 1206q-26 0 -45.5 19
t-19.5 47q0 27 19 46t46 19t46.5 -19t19.5 -46t-19.5 -46.5t-46.5 -19.5z" />
    <glyph glyph-name="Aringsmall" unicode="&#xf7e5;" 
d="M86 0l416 1026h18l418 -1026h-86l-74 184h-536l-74 -184h-82zM270 256h480l-199 502q-7 18 -17 51.5t-16 57.5l-6 24q-25 -92 -41 -133zM512 1139q-80 0 -136.5 55t-56.5 133t56.5 133.5t136.5 55.5t136.5 -55.5t56.5 -133.5t-56.5 -133t-136.5 -55zM512 1202q53 0 86 34
t33 91t-33 91t-86 34t-86 -34t-33 -91t33 -91t86 -34z" />
    <glyph glyph-name="AEsmall" unicode="&#xf7e6;" horiz-adv-x="1460" 
d="M70 0l671 1014h586v-72h-524v-512h467v-72h-467v-286h543v-72h-625v184h-445l-122 -184h-84zM322 256h399v467q0 35 3 79.5t6 71.5l3 27q-47 -97 -88 -158z" />
    <glyph glyph-name="Ccedillasmall" unicode="&#xf7e7;" horiz-adv-x="1142" 
d="M526 -8q-181 33 -299 174.5t-118 341.5q0 149 70 269.5t187.5 186.5t258.5 66q138 0 234 -48.5t167 -147.5l-59 -46q-125 170 -342 170q-186 0 -309 -129t-123 -321q0 -193 121.5 -323t303.5 -130q234 0 365 178l61 -45q-142 -204 -426 -204h-18v-105q67 -8 115.5 -55.5
t48.5 -118.5q0 -81 -54 -126.5t-130 -45.5q-69 0 -119 34t-74 85l62 37q20 -42 49 -65t80 -23q45 0 75.5 28t30.5 78q0 48 -32 80.5t-95 32.5h-31v172z" />
    <glyph glyph-name="Egravesmall" unicode="&#xf7e8;" horiz-adv-x="909" 
d="M172 0v1014h602v-72h-520v-512h467v-72h-467v-286h541v-72h-623zM453 1157l-181 399h95l153 -399h-67z" />
    <glyph glyph-name="Eacutesmall" unicode="&#xf7e9;" horiz-adv-x="909" 
d="M172 0v1014h602v-72h-520v-512h467v-72h-467v-286h541v-72h-623zM444 1157l154 399h94l-180 -399h-68z" />
    <glyph glyph-name="Ecircumflexsmall" unicode="&#xf7ea;" horiz-adv-x="909" 
d="M172 0v1014h602v-72h-520v-512h467v-72h-467v-286h541v-72h-623zM238 1151l231 373h18l232 -373h-72l-168 244l-170 -244h-71z" />
    <glyph glyph-name="Edieresissmall" unicode="&#xf7eb;" horiz-adv-x="909" 
d="M172 0v1014h602v-72h-520v-512h467v-72h-467v-286h541v-72h-623zM635 1206q-27 0 -46.5 19.5t-19.5 46.5t19.5 46t46.5 19t46 -19t19 -46q0 -28 -19 -47t-46 -19zM324 1206q-27 0 -46.5 19.5t-19.5 46.5t19.5 46t46.5 19t46 -19t19 -46q0 -28 -19.5 -47t-45.5 -19z" />
    <glyph glyph-name="Igravesmall" unicode="&#xf7ec;" horiz-adv-x="438" 
d="M178 0v1014h82v-1014h-82zM184 1157l-180 399h94l154 -399h-68z" />
    <glyph glyph-name="Iacutesmall" unicode="&#xf7ed;" horiz-adv-x="438" 
d="M178 0v1014h82v-1014h-82zM174 1157l154 399h94l-180 -399h-68z" />
    <glyph glyph-name="Icircumflexsmall" unicode="&#xf7ee;" horiz-adv-x="438" 
d="M178 0v1014h82v-1014h-82zM-29 1151l232 373h18l232 -373h-72l-168 244l-170 -244h-72z" />
    <glyph glyph-name="Idieresissmall" unicode="&#xf7ef;" horiz-adv-x="438" 
d="M178 0v1014h82v-1014h-82zM369 1206q-27 0 -46.5 19.5t-19.5 46.5t19.5 46t46.5 19t46 -19t19 -46q0 -28 -19 -47t-46 -19zM57 1206q-27 0 -46 19t-19 47q0 27 19 46t46 19t46.5 -19t19.5 -46t-19.5 -46.5t-46.5 -19.5z" />
    <glyph glyph-name="Ethsmall" unicode="&#xf7f0;" horiz-adv-x="1060" 
d="M172 0v365h-125v69h125v582h246q246 0 391 -140.5t145 -367.5q0 -229 -144 -368.5t-392 -139.5h-246zM254 72h156q224 0 341 118.5t117 317.5q0 197 -117.5 315.5t-340.5 118.5h-156v-508h285v-69h-285v-293z" />
    <glyph glyph-name="Ntildesmall" unicode="&#xf7f1;" horiz-adv-x="1122" 
d="M932 -12l-602 743q-15 18 -37.5 52t-37.5 59l-15 24q10 -83 10 -151v-715h-78v1026h18l598 -737q17 -21 40.5 -54.5t37.5 -56.5l15 -24q-9 79 -9 145v717h78v-1028h-18zM354 1141l-69 6q4 94 44.5 146.5t108.5 52.5q41 0 71.5 -18t74.5 -60q42 -41 58.5 -51.5t41.5 -10.5
q35 0 54.5 32t25.5 101l70 -6q-5 -95 -43.5 -145.5t-108.5 -50.5q-40 0 -70 18.5t-75 61.5q-40 38 -57.5 48.5t-43.5 10.5q-70 0 -82 -135z" />
    <glyph glyph-name="Ogravesmall" unicode="&#xf7f2;" horiz-adv-x="1267" 
d="M635 -16q-143 0 -263.5 66t-193 187t-72.5 271t72.5 270.5t193 186t263.5 65.5q107 0 203.5 -39t168 -106.5t113 -165.5t41.5 -211t-41.5 -211t-112.5 -166.5t-168 -107.5t-204 -39zM635 55q192 0 317 130t125 323t-125 321.5t-317 128.5q-193 0 -319 -128.5t-126 -321.5
t126.5 -323t318.5 -130zM604 1157l-180 399h94l154 -399h-68z" />
    <glyph glyph-name="Oacutesmall" unicode="&#xf7f3;" horiz-adv-x="1267" 
d="M635 -16q-143 0 -263.5 66t-193 187t-72.5 271t72.5 270.5t193 186t263.5 65.5q107 0 203.5 -39t168 -106.5t113 -165.5t41.5 -211t-41.5 -211t-112.5 -166.5t-168 -107.5t-204 -39zM635 55q192 0 317 130t125 323t-125 321.5t-317 128.5q-193 0 -319 -128.5t-126 -321.5
t126.5 -323t318.5 -130zM594 1157l154 399h94l-180 -399h-68z" />
    <glyph glyph-name="Ocircumflexsmall" unicode="&#xf7f4;" horiz-adv-x="1267" 
d="M635 -16q-143 0 -263.5 66t-193 187t-72.5 271t72.5 270.5t193 186t263.5 65.5q107 0 203.5 -39t168 -106.5t113 -165.5t41.5 -211t-41.5 -211t-112.5 -166.5t-168 -107.5t-204 -39zM635 55q192 0 317 130t125 323t-125 321.5t-317 128.5q-193 0 -319 -128.5t-126 -321.5
t126.5 -323t318.5 -130zM391 1151l232 373h18l231 -373h-71l-168 244l-170 -244h-72z" />
    <glyph glyph-name="Otildesmall" unicode="&#xf7f5;" horiz-adv-x="1267" 
d="M635 -16q-143 0 -263.5 66t-193 187t-72.5 271t72.5 270.5t193 186t263.5 65.5q107 0 203.5 -39t168 -106.5t113 -165.5t41.5 -211t-41.5 -211t-112.5 -166.5t-168 -107.5t-204 -39zM635 55q192 0 317 130t125 323t-125 321.5t-317 128.5q-193 0 -319 -128.5t-126 -321.5
t126.5 -323t318.5 -130zM428 1141l-70 6q4 94 45 146.5t109 52.5q41 0 71 -18t74 -60q42 -40 59 -51t42 -11q35 0 54.5 32t25.5 101l69 -6q-5 -95 -43 -145.5t-108 -50.5q-41 0 -71 18.5t-75 61.5q-40 39 -57 49t-43 10q-70 0 -82 -135z" />
    <glyph glyph-name="Odieresissmall" unicode="&#xf7f6;" horiz-adv-x="1267" 
d="M635 -16q-143 0 -263.5 66t-193 187t-72.5 271t72.5 270.5t193 186t263.5 65.5q107 0 203.5 -39t168 -106.5t113 -165.5t41.5 -211t-41.5 -211t-112.5 -166.5t-168 -107.5t-204 -39zM635 55q192 0 317 130t125 323t-125 321.5t-317 128.5q-193 0 -319 -128.5t-126 -321.5
t126.5 -323t318.5 -130zM788 1206q-26 0 -45.5 19t-19.5 47q0 27 19 46t46 19t46.5 -19t19.5 -46t-19.5 -46.5t-46.5 -19.5zM477 1206q-27 0 -46 19t-19 47q0 27 19 46t46 19t46.5 -19t19.5 -46t-19.5 -46.5t-46.5 -19.5z" />
    <glyph glyph-name="Oslashsmall" unicode="&#xf7f8;" horiz-adv-x="1267" 
d="M1032 856q129 -142 129 -348q0 -113 -41.5 -211t-112.5 -166.5t-168 -107.5t-204 -39q-202 0 -348 127l-125 -125l-49 49l123 123q-130 146 -130 350q0 150 72.5 270.5t193 186t263.5 65.5q204 0 348 -125l123 123l49 -49zM289 211l641 641q-115 106 -295 106
q-193 0 -319 -128.5t-126 -321.5q0 -170 99 -297zM979 803l-641 -641q120 -107 297 -107q192 0 317 130t125 323q0 174 -98 295z" />
    <glyph glyph-name="Ugravesmall" unicode="&#xf7f9;" horiz-adv-x="1032" 
d="M516 -16q-159 0 -255.5 93t-96.5 265v672h82v-666q0 -148 71.5 -220.5t198.5 -72.5q126 0 198 73t72 220v666h82v-672q0 -172 -96.5 -265t-255.5 -93zM487 1157l-180 399h94l154 -399h-68z" />
    <glyph glyph-name="Uacutesmall" unicode="&#xf7fa;" horiz-adv-x="1032" 
d="M516 -16q-159 0 -255.5 93t-96.5 265v672h82v-666q0 -148 71.5 -220.5t198.5 -72.5q126 0 198 73t72 220v666h82v-672q0 -172 -96.5 -265t-255.5 -93zM477 1157l154 399h94l-180 -399h-68z" />
    <glyph glyph-name="Ucircumflexsmall" unicode="&#xf7fb;" horiz-adv-x="1032" 
d="M516 -16q-159 0 -255.5 93t-96.5 265v672h82v-666q0 -148 71.5 -220.5t198.5 -72.5q126 0 198 73t72 220v666h82v-672q0 -172 -96.5 -265t-255.5 -93zM274 1151l232 373h18l232 -373h-72l-168 244l-170 -244h-72z" />
    <glyph glyph-name="Udieresissmall" unicode="&#xf7fc;" horiz-adv-x="1032" 
d="M516 -16q-159 0 -255.5 93t-96.5 265v672h82v-666q0 -148 71.5 -220.5t198.5 -72.5q126 0 198 73t72 220v666h82v-672q0 -172 -96.5 -265t-255.5 -93zM672 1206q-27 0 -46.5 19.5t-19.5 46.5t19.5 46t46.5 19t46 -19t19 -46q0 -28 -19.5 -47t-45.5 -19zM360 1206
q-26 0 -45.5 19t-19.5 47q0 27 19 46t46 19t46.5 -19t19.5 -46t-19.5 -46.5t-46.5 -19.5z" />
    <glyph glyph-name="Yacutesmall" unicode="&#xf7fd;" horiz-adv-x="1017" 
d="M471 0v311l-385 703h90l281 -514q13 -24 26.5 -56.5t20.5 -53.5l8 -21q30 80 57 131l277 514h88l-381 -699v-315h-82zM469 1157l154 399h94l-180 -399h-68z" />
    <glyph glyph-name="Thornsmall" unicode="&#xf7fe;" horiz-adv-x="948" 
d="M172 0v1016h82v-123h182q194 0 294.5 -104.5t100.5 -274.5q0 -168 -101 -272.5t-294 -104.5h-182v-137h-82zM254 207h176q167 0 243.5 83.5t76.5 223.5q0 142 -76 225.5t-244 83.5h-176v-616z" />
    <glyph glyph-name="Ydieresissmall" unicode="&#xf7ff;" horiz-adv-x="1017" 
d="M471 0v311l-385 703h90l281 -514q13 -24 26.5 -56.5t20.5 -53.5l8 -21q30 80 57 131l277 514h88l-381 -699v-315h-82zM664 1206q-27 0 -46.5 19.5t-19.5 46.5t19.5 46t46.5 19t46 -19t19 -46q0 -28 -19.5 -47t-45.5 -19zM352 1206q-26 0 -45.5 19t-19.5 47q0 27 19 46
t46 19t46.5 -19t19.5 -46t-19.5 -46.5t-46.5 -19.5z" />
    <glyph glyph-name="Q.alt1" horiz-adv-x="1658" 
d="M846 -10q24 -14 53 -35q43 -30 68 -45t67.5 -36t86 -30.5t93.5 -9.5q134 0 224 94l59 -55q-108 -117 -283 -117q-55 0 -107.5 12.5t-102 37.5t-79.5 43.5t-75 50.5q-64 44 -105 69t-107.5 48.5t-129.5 23.5q-164 0 -264 -156l-58 45q96 145 250 170q-148 93 -233.5 247.5
t-85.5 348.5q0 156 56 290t152.5 226t227 144.5t276.5 52.5t277 -52.5t227 -144.5t152.5 -226t56.5 -290q0 -203 -93.5 -364t-252 -249.5t-350.5 -92.5zM829 61q132 0 248.5 48t199.5 132t131 202t48 253t-48 253.5t-131 202.5t-199.5 132.5t-248.5 48.5q-177 0 -320 -82.5
t-224.5 -228.5t-81.5 -326t81.5 -325.5t224.5 -227.5t320 -82z" />
    <glyph glyph-name="apple" horiz-adv-x="368" 
d="M184 403q-31 0 -56.5 24.5t-25.5 57.5q0 34 25 58t57 24q33 0 57.5 -23.5t24.5 -58.5q0 -33 -24.5 -57.5t-57.5 -24.5z" />
    <glyph glyph-name="G.alt" horiz-adv-x="1542" 
d="M805 -16q-146 0 -277 53t-228 145t-153.5 226t-56.5 288t56.5 288t152.5 226.5t227 145.5t277 53q182 0 330.5 -70t234.5 -206l-63 -48q-79 123 -207.5 185.5t-294.5 62.5q-132 0 -248.5 -48.5t-199.5 -132.5t-131 -202.5t-48 -253.5t48.5 -253.5t131.5 -202.5
t200 -132.5t249 -48.5t240.5 39t180 106t114 151.5t55.5 181.5h-566v75h658q-14 -284 -199 -456t-483 -172z" />
    <glyph glyph-name="M.alt" horiz-adv-x="1695" 
d="M131 0l172 1411h16l474 -903q14 -24 27.5 -55.5t20.5 -50.5l7 -19q24 70 55 125l475 903h15l172 -1411h-84l-127 1042q-4 32 -6.5 77.5t-3.5 75.5l-1 30q-30 -90 -67 -164l-424 -807h-14l-420 809q-16 30 -33 71t-26 67l-9 26q-2 -111 -10 -183l-127 -1044h-82z" />
    <glyph glyph-name="Q.alt" horiz-adv-x="1658" 
d="M868 -16v-320h-77v320q-140 7 -263.5 62t-214.5 146.5t-143.5 222.5t-52.5 281q0 156 56 290t152.5 226t227 144.5t276.5 52.5t277 -52.5t227 -144.5t152.5 -226t56.5 -290q0 -150 -52.5 -281t-143.5 -222.5t-214.5 -146.5t-263.5 -62zM791 59v316h77v-316
q254 14 421 194t167 443q0 135 -48 253.5t-131 202.5t-199.5 132.5t-248.5 48.5q-177 0 -320 -82.5t-224.5 -228.5t-81.5 -326q0 -263 167 -443t421 -194z" />
    <glyph glyph-name="a.alt" horiz-adv-x="1124" 
d="M516 -16q-176 0 -293 125.5t-117 310.5t117 309.5t293 124.5q123 0 215.5 -61.5t140.5 -163.5l-2 207h80v-836h-80l2 207q-48 -99 -142.5 -161t-213.5 -62zM528 55q153 0 249.5 102.5t96.5 258.5q0 157 -96.5 261.5t-249.5 104.5t-245.5 -102t-92.5 -260t92.5 -261.5
t245.5 -103.5z" />
    <glyph glyph-name="g.alt" horiz-adv-x="1128" 
d="M549 -457q-144 0 -250.5 67t-163.5 177l66 37q116 -209 346 -209q161 0 244 85t83 269v234q-46 -96 -141 -157.5t-213 -61.5q-179 0 -296.5 125t-117.5 311q0 185 117.5 309.5t296.5 124.5q123 0 216.5 -61t142.5 -162l-5 205h80v-875q0 -209 -106.5 -313.5
t-298.5 -104.5zM530 55q156 0 253.5 104t97.5 261t-97.5 259.5t-253.5 102.5q-153 0 -246.5 -102t-93.5 -260t93.5 -261.5t246.5 -103.5z" />
    <glyph glyph-name="u.alt" horiz-adv-x="1028" 
d="M514 -16q-161 0 -255.5 100.5t-94.5 282.5v469h80v-463q0 -316 270 -316t270 316v463h80v-469q0 -182 -94.5 -282.5t-255.5 -100.5z" />
    <glyph glyph-name="aacute.alt" horiz-adv-x="1124" 
d="M516 -16q-176 0 -293 125.5t-117 310.5t117 309.5t293 124.5q123 0 215.5 -61.5t140.5 -163.5l-2 207h80v-836h-80l2 207q-48 -99 -142.5 -161t-213.5 -62zM528 55q153 0 249.5 102.5t96.5 258.5q0 157 -96.5 261.5t-249.5 104.5t-245.5 -102t-92.5 -260t92.5 -261.5
t245.5 -103.5zM475 1018l154 399h94l-180 -399h-68z" />
    <glyph glyph-name="agrave.alt" horiz-adv-x="1124" 
d="M516 -16q-176 0 -293 125.5t-117 310.5t117 309.5t293 124.5q123 0 215.5 -61.5t140.5 -163.5l-2 207h80v-836h-80l2 207q-48 -99 -142.5 -161t-213.5 -62zM528 55q153 0 249.5 102.5t96.5 258.5q0 157 -96.5 261.5t-249.5 104.5t-245.5 -102t-92.5 -260t92.5 -261.5
t245.5 -103.5zM471 1018l-180 399h94l154 -399h-68z" />
    <glyph glyph-name="acircumflex.alt" horiz-adv-x="1124" 
d="M516 -16q-176 0 -293 125.5t-117 310.5t117 309.5t293 124.5q123 0 215.5 -61.5t140.5 -163.5l-2 207h80v-836h-80l2 207q-48 -99 -142.5 -161t-213.5 -62zM528 55q153 0 249.5 102.5t96.5 258.5q0 157 -96.5 261.5t-249.5 104.5t-245.5 -102t-92.5 -260t92.5 -261.5
t245.5 -103.5zM293 1012l231 372h19l231 -372h-72l-167 243l-170 -243h-72z" />
    <glyph glyph-name="adieresis.alt" horiz-adv-x="1124" 
d="M516 -16q-176 0 -293 125.5t-117 310.5t117 309.5t293 124.5q123 0 215.5 -61.5t140.5 -163.5l-2 207h80v-836h-80l2 207q-48 -99 -142.5 -161t-213.5 -62zM528 55q153 0 249.5 102.5t96.5 258.5q0 157 -96.5 261.5t-249.5 104.5t-245.5 -102t-92.5 -260t92.5 -261.5
t245.5 -103.5zM676 1067q-27 0 -46.5 19.5t-19.5 46.5t19.5 46t46.5 19t46 -19t19 -46t-19.5 -46.5t-45.5 -19.5zM365 1067q-27 0 -46.5 19.5t-19.5 46.5t19.5 46t46.5 19t46 -19t19 -46t-19 -46.5t-46 -19.5z" />
    <glyph glyph-name="atilde.alt" horiz-adv-x="1124" 
d="M516 -16q-176 0 -293 125.5t-117 310.5t117 309.5t293 124.5q123 0 215.5 -61.5t140.5 -163.5l-2 207h80v-836h-80l2 207q-48 -99 -142.5 -161t-213.5 -62zM528 55q153 0 249.5 102.5t96.5 258.5q0 157 -96.5 261.5t-249.5 104.5t-245.5 -102t-92.5 -260t92.5 -261.5
t245.5 -103.5zM322 1001l-70 7q4 93 45 145.5t109 52.5q41 0 71 -18t74 -60q42 -40 58.5 -50.5t41.5 -10.5q35 0 54.5 32t25.5 101l70 -6q-5 -95 -43.5 -146t-108.5 -51q-40 0 -70 18.5t-75 61.5q-41 39 -58 49.5t-43 10.5q-69 0 -81 -136z" />
    <glyph glyph-name="aring.alt" horiz-adv-x="1124" 
d="M516 -16q-176 0 -293 125.5t-117 310.5t117 309.5t293 124.5q123 0 215.5 -61.5t140.5 -163.5l-2 207h80v-836h-80l2 207q-48 -99 -142.5 -161t-213.5 -62zM528 55q153 0 249.5 102.5t96.5 258.5q0 157 -96.5 261.5t-249.5 104.5t-245.5 -102t-92.5 -260t92.5 -261.5
t245.5 -103.5zM522 999q-79 0 -135.5 55.5t-56.5 133.5t56 133t136 55t136.5 -55t56.5 -133t-56.5 -133.5t-136.5 -55.5zM522 1063q53 0 86 34t33 91t-33 91t-86 34t-86 -34t-33 -91t33 -91t86 -34z" />
    <glyph glyph-name="uacute.alt" horiz-adv-x="1028" 
d="M514 -16q-161 0 -255.5 100.5t-94.5 282.5v469h80v-463q0 -316 270 -316t270 316v463h80v-469q0 -182 -94.5 -282.5t-255.5 -100.5zM477 1018l154 399h94l-180 -399h-68z" />
    <glyph glyph-name="ugrave.alt" horiz-adv-x="1028" 
d="M514 -16q-161 0 -255.5 100.5t-94.5 282.5v469h80v-463q0 -316 270 -316t270 316v463h80v-469q0 -182 -94.5 -282.5t-255.5 -100.5zM487 1018l-180 399h94l154 -399h-68z" />
    <glyph glyph-name="ucircumflex.alt" horiz-adv-x="1028" 
d="M514 -16q-161 0 -255.5 100.5t-94.5 282.5v469h80v-463q0 -316 270 -316t270 316v463h80v-469q0 -182 -94.5 -282.5t-255.5 -100.5zM274 1012l232 372h18l232 -372h-72l-168 243l-170 -243h-72z" />
    <glyph glyph-name="udieresis.alt" horiz-adv-x="1028" 
d="M514 -16q-161 0 -255.5 100.5t-94.5 282.5v469h80v-463q0 -316 270 -316t270 316v463h80v-469q0 -182 -94.5 -282.5t-255.5 -100.5zM672 1067q-27 0 -46.5 19.5t-19.5 46.5t19.5 46t46.5 19t46 -19t19 -46t-19.5 -46.5t-45.5 -19.5zM360 1067q-26 0 -45.5 19.5
t-19.5 46.5t19 46t46 19t46.5 -19t19.5 -46t-19.5 -46.5t-46.5 -19.5z" />
    <glyph glyph-name="zerolining" horiz-adv-x="1495" 
d="M748 -16q-184 0 -330.5 89t-230 251.5t-83.5 371.5t83.5 372t230 252t330.5 89q183 0 329.5 -89t230 -252.5t83.5 -371.5t-83.5 -371t-230 -252t-329.5 -89zM748 59q167 0 294 83t194 227.5t67 326.5t-67 326.5t-194 227.5t-294 83q-168 0 -295.5 -83t-195 -227.5
t-67.5 -326.5t67.5 -326.5t195 -227.5t295.5 -83z" />
    <glyph glyph-name="onelining" horiz-adv-x="608" 
d="M295 0v1319h-215v74h299v-1393h-84z" />
    <glyph glyph-name="twolining" horiz-adv-x="1062" 
d="M76 0v8l571 610q100 107 153.5 206t53.5 214q0 133 -79 214t-216 81q-130 0 -222 -76.5t-120 -222.5l-78 15q26 159 138 259.5t282 100.5t274.5 -102.5t104.5 -268.5q0 -126 -65 -240t-177 -235l-372 -397q-20 -22 -47 -47t-45 -39l-17 -14q76 8 133 8h604v-74h-876z" />
    <glyph glyph-name="threelining" horiz-adv-x="1105" 
d="M520 -16q-158 0 -281 72t-184 186l68 39q59 -104 159 -163t236 -59q191 0 301.5 111.5t110.5 286.5q0 172 -111 278.5t-301 106.5q-87 0 -158 -27l-6 10l385 428q14 16 34 35t33 30l13 11q-64 -10 -117 -10h-536v74h788v-9l-362 -403q-17 -19 -37 -37.5t-31 -27.5l-12 -9
q113 4 207.5 -29t159 -94t100 -145.5t35.5 -181.5q0 -205 -137 -339t-357 -134z" />
    <glyph glyph-name="fourlining" horiz-adv-x="1155" 
d="M846 0v285h-797v8l873 1134h8v-1069h143v-73h-143v-285h-84zM172 350q88 8 145 8h529v727l6 152q-45 -78 -86 -131l-494 -645q-16 -21 -41 -48.5t-42 -44.5z" />
    <glyph glyph-name="fivelining" horiz-adv-x="1091" 
d="M516 -16q-150 0 -271.5 63.5t-187.5 177.5l70 43q57 -95 159 -152t230 -57q178 0 287.5 114.5t109.5 291.5q0 175 -107 291t-284 116q-190 0 -325 -129l-9 7v643h723v-74h-647v-442q110 69 262 69q208 0 340.5 -137t132.5 -344q0 -214 -135.5 -347.5t-347.5 -133.5z" />
    <glyph glyph-name="sixlining" horiz-adv-x="1134" 
d="M567 -16q-201 0 -332 132.5t-131 325.5q0 158 107 308l457 643h92l-342 -478l-84 -104q120 92 244 92q195 0 323.5 -134t128.5 -327t-131 -325.5t-332 -132.5zM567 59q169 0 274 111.5t105 271.5q0 105 -44.5 192.5t-132.5 141t-202 53.5q-169 0 -274 -111.5t-105 -275.5
q0 -160 105 -271.5t274 -111.5z" />
    <glyph glyph-name="sevenlining" horiz-adv-x="1101" 
d="M240 0l673 1319h-835v74h956v-9l-706 -1384h-88z" />
    <glyph glyph-name="eightlining" horiz-adv-x="1138" 
d="M569 -16q-210 0 -348.5 117.5t-138.5 299.5q0 147 91.5 246.5t246.5 132.5q-104 35 -164.5 112.5t-60.5 188.5q0 140 106 234t268 94q164 0 271.5 -94t107.5 -234q0 -111 -61.5 -189.5t-165.5 -111.5q154 -35 245 -134t91 -245q0 -183 -137.5 -300t-350.5 -117zM569 813
q135 0 216 74t81 192q0 111 -81.5 184.5t-215.5 73.5q-132 0 -212.5 -73.5t-80.5 -184.5q0 -118 79.5 -192t213.5 -74zM569 59q181 0 291.5 95.5t110.5 246.5q0 152 -110 247t-292 95q-179 0 -290 -95.5t-111 -246.5t111 -246.5t290 -95.5z" />
    <glyph glyph-name="ninelining" horiz-adv-x="1134" 
d="M410 0l325 479l68 86q-119 -92 -248 -92q-131 0 -237.5 63.5t-165 170.5t-58.5 235q0 196 133.5 331.5t337.5 135.5q206 0 339.5 -135t133.5 -332q0 -83 -27.5 -157t-82.5 -156l-426 -629h-92zM565 547q174 0 281.5 114t107.5 281q0 164 -106 277.5t-283 113.5
q-116 0 -205.5 -54t-135.5 -142.5t-46 -194.5q0 -107 44.5 -196t134 -144t208.5 -55z" />
    <glyph glyph-name="minuslining" horiz-adv-x="368" 
d="M184 403q-31 0 -56.5 24.5t-25.5 57.5q0 34 25 58t57 24q33 0 57.5 -23.5t24.5 -58.5q0 -33 -24.5 -57.5t-57.5 -24.5z" />
    <glyph glyph-name="multiplylining" horiz-adv-x="368" 
d="M184 403q-31 0 -56.5 24.5t-25.5 57.5q0 34 25 58t57 24q33 0 57.5 -23.5t24.5 -58.5q0 -33 -24.5 -57.5t-57.5 -24.5z" />
    <glyph glyph-name="spacelining" horiz-adv-x="499" 
 />
    <glyph glyph-name="numbersignlining" horiz-adv-x="882" 
d="M147 537l58 227h-148v70h164l64 253h-164v70h180l59 236h74l-59 -236h227l60 236h73l-59 -236h149v-70h-166l-63 -253h164v-70h-182l-56 -227h-76l58 227h-228l-55 -227h-74zM295 834h227l64 253h-228z" />
    <glyph glyph-name="dollarlining" horiz-adv-x="1079" 
d="M489 -14q-288 20 -413 276l71 35q56 -108 133.5 -169t208.5 -71v668l-30 14q-157 72 -230 155.5t-73 215.5q0 134 97 215t236 84v174h76v-178q186 -25 293 -195l-65 -43q-89 143 -228 164v-555l56 -24q176 -81 254.5 -176.5t78.5 -239.5q0 -156 -104 -251t-285 -101v-222
h-76v224zM489 1337q-116 -2 -184.5 -61.5t-68.5 -163.5q0 -106 56 -170.5t197 -130.5v526zM565 55q146 6 227.5 81t81.5 200q0 120 -66 196.5t-220 147.5l-23 10v-635z" />
    <glyph glyph-name="percentlining" horiz-adv-x="1529" 
d="M395 754q-132 0 -229.5 94t-97.5 233q0 140 97.5 234t229.5 94t230 -94.5t98 -233.5t-98 -233t-230 -94zM283 0l878 1393h86l-878 -1393h-86zM1135 -16q-132 0 -230 94t-98 233t98 233.5t230 94.5t228.5 -94t96.5 -234t-96.5 -233.5t-228.5 -93.5zM395 825
q103 0 175.5 72t72.5 184t-72.5 184t-175.5 72q-105 0 -176.5 -72t-71.5 -184t71.5 -184t176.5 -72zM1135 55q103 0 175 72t72 184q0 113 -71.5 184.5t-175.5 71.5q-105 0 -177.5 -71.5t-72.5 -184.5q0 -112 72.5 -184t177.5 -72z" />
    <glyph glyph-name="parenleftlining" horiz-adv-x="534" 
d="M422 -279q-338 358 -338 875q0 516 338 874l53 -47q-307 -350 -307 -827t307 -827z" />
    <glyph glyph-name="parenrightlining" horiz-adv-x="534" 
d="M113 -279l-54 48q306 349 306 827t-306 827l54 47q338 -362 338 -874q0 -513 -338 -875z" />
    <glyph glyph-name="pluslining" horiz-adv-x="808" 
d="M365 317v312h-285v73h285v312h77v-312h287v-73h-287v-312h-77z" />
    <glyph glyph-name="commalining" horiz-adv-x="368" 
d="M82 -227l80 219q-26 6 -43 27t-17 49q0 33 25.5 57.5t56.5 24.5q33 0 57.5 -24.5t24.5 -57.5q0 -23 -8 -39l-125 -256h-51z" />
    <glyph glyph-name="periodlining" horiz-adv-x="368" 
d="M184 -14q-31 0 -56.5 24.5t-25.5 57.5q0 34 25 58t57 24q33 0 57.5 -23.5t24.5 -58.5q0 -33 -24.5 -57.5t-57.5 -24.5z" />
    <glyph glyph-name="colonlining" horiz-adv-x="389" 
d="M195 438q-31 0 -56.5 24.5t-25.5 57.5q0 34 25 59t57 25q33 0 57 -24.5t24 -59.5q0 -34 -24 -58t-57 -24zM195 -14q-31 0 -56.5 24.5t-25.5 57.5q0 34 25 59t57 25q33 0 57 -24.5t24 -59.5q0 -34 -24 -58t-57 -24z" />
    <glyph glyph-name="semicolonlining" horiz-adv-x="389" 
d="M195 438q-31 0 -56.5 24.5t-25.5 57.5q0 34 25 59t57 25q33 0 57 -24.5t24 -59.5q0 -34 -24 -58t-57 -24zM92 -227l80 219q-26 6 -42.5 27t-16.5 49q0 33 25.5 57.5t56.5 24.5q33 0 57 -24t24 -58q0 -23 -8 -39l-125 -256h-51z" />
    <glyph glyph-name="lesslining" horiz-adv-x="794" 
d="M682 332l-596 321v21l596 315v-82l-465 -245l465 -248v-82z" />
    <glyph glyph-name="equallining" horiz-adv-x="808" 
d="M92 745v74h625v-74h-625zM92 473v74h625v-74h-625z" />
    <glyph glyph-name="greaterlining" horiz-adv-x="794" 
d="M113 332v82l465 245l-465 248v82l596 -321v-21z" />
    <glyph glyph-name="bracketleftlining" horiz-adv-x="593" 
d="M170 -262v1741h344v-72h-262v-1597h262v-72h-344z" />
    <glyph glyph-name="bracketrightlining" horiz-adv-x="593" 
d="M80 -262v72h262v1597h-262v72h346v-1741h-346z" />
    <glyph glyph-name="braceleftlining" horiz-adv-x="706" 
d="M537 -262q-52 0 -92.5 12.5t-77.5 43t-57.5 91t-20.5 148.5v323q0 82 -30 114t-91 32h-117v71h117q61 0 91 32t30 114v465q0 88 20.5 148.5t57.5 91t77.5 43t92.5 12.5h90v-72h-88q-82 0 -125 -49t-43 -174v-471q0 -145 -107 -174q107 -25 107 -177v-329q0 -125 43 -174
t125 -49h88v-72h-90z" />
    <glyph glyph-name="bracerightlining" horiz-adv-x="704" 
d="M80 -262v72h88q82 0 124 48.5t42 174.5v329q0 150 108 175q-108 25 -108 178v469q0 126 -42 174.5t-124 48.5h-88v72h90q40 0 73 -7t66.5 -27t56 -51.5t36.5 -85t14 -124.5v-463q0 -82 31 -115t92 -33h114v-71h-114q-61 0 -92 -32t-31 -112v-325q0 -71 -14 -124.5
t-36.5 -85t-56 -51.5t-66.5 -27t-73 -7h-90z" />
    <glyph glyph-name="degreelining" horiz-adv-x="745" 
d="M375 895q-109 0 -185.5 74.5t-76.5 181.5q0 108 76.5 183t185.5 75t183.5 -74.5t74.5 -183.5q0 -107 -74.5 -181.5t-183.5 -74.5zM375 963q82 0 133 52.5t51 135.5t-51 136.5t-133 53.5q-84 0 -135.5 -53.5t-51.5 -136.5t51.5 -135.5t135.5 -52.5z" />
    <glyph glyph-name="centlining" horiz-adv-x="950" 
d="M483 -14q-163 19 -270 142t-107 290q0 168 107.5 291.5t269.5 140.5v221h70v-217q188 -9 295 -141l-57 -47q-85 108 -238 116v-727q165 8 254 125l57 -47q-113 -140 -311 -149v-222h-70v224zM483 778q-132 -15 -212.5 -115.5t-80.5 -244.5q0 -142 80.5 -243t212.5 -118
v721z" />
    <glyph glyph-name="sterlinglining" horiz-adv-x="1193" 
d="M365 569h-207v70h178q-44 108 -67 191.5t-23 177.5q0 172 115 286.5t298 114.5q279 0 394 -246l-72 -35q-49 103 -125 154t-197 51q-148 0 -237.5 -91.5t-89.5 -233.5q0 -65 14.5 -135.5t28.5 -113.5t43 -120h395v-70h-369q66 -181 66 -313q0 -25 -2 -37q99 -80 139 -104
q94 -56 191 -56q77 0 122.5 26.5t90.5 86.5l63 -45q-55 -74 -117.5 -108.5t-158.5 -34.5q-52 0 -100.5 13t-96.5 41t-77 48.5t-77 58.5q-31 -72 -94 -116.5t-139 -44.5q-82 0 -141.5 46.5t-59.5 127.5q0 82 57 128t142 46q91 0 182 -60q-5 128 -69 297zM428 190
q-100 72 -174 72q-56 0 -91.5 -27t-35.5 -75q0 -51 36 -79t93 -28q64 0 109.5 36t62.5 101z" />
    <glyph glyph-name="sectionlining" horiz-adv-x="1112" 
d="M543 -369q-128 0 -232 62.5t-159 159.5l69 41q103 -187 322 -187q140 0 208 65.5t68 178.5q0 93 -59.5 153t-175.5 111l-213 94q-154 67 -222.5 145.5t-68.5 196.5q0 82 44.5 148t125.5 108q-45 73 -45 174q0 144 103.5 236t256.5 92q127 0 221 -61t138 -156l-68 -37
q-41 80 -115 129t-176 49q-125 0 -199.5 -69.5t-74.5 -182.5q0 -109 54 -168t171 -110l221 -98q158 -70 226.5 -149t68.5 -187q0 -82 -49.5 -145t-136.5 -97q59 -78 59 -178q0 -140 -91.5 -229t-270.5 -89zM799 178q69 24 110 75t41 116q0 85 -55.5 144t-189.5 118l-222 98
q-128 56 -196 129q-59 -32 -92 -86.5t-33 -116.5q0 -95 54.5 -154t186.5 -118l213 -94q117 -50 183 -111z" />
    <glyph glyph-name="yenlining" horiz-adv-x="1212" 
d="M565 0v287h-436v67h436v68l-76 151h-360v68h326l-379 752h90l405 -807q9 -18 18 -43t14 -41l5 -15q17 58 37 99l406 807h86l-379 -752h327v-68h-360l-76 -149v-70h436v-67h-436v-287h-84z" />
    <glyph glyph-name="florinlining" horiz-adv-x="710" 
d="M131 -434l113 997h-148v68h156l59 536q27 242 213 242q121 0 181 -104l-58 -41q-22 36 -48 54.5t-73 18.5q-60 0 -93 -36.5t-44 -135.5l-59 -534h200v-68h-208l-113 -997h-78z" />
    <glyph glyph-name="dividelining" horiz-adv-x="368" 
d="M184 403q-31 0 -56.5 24.5t-25.5 57.5q0 34 25 58t57 24q33 0 57.5 -23.5t24.5 -58.5q0 -33 -24.5 -57.5t-57.5 -24.5z" />
    <glyph glyph-name="perthousandlining" horiz-adv-x="2310" 
d="M395 754q-132 0 -229.5 94t-97.5 233q0 140 97.5 234t229.5 94t230 -94.5t98 -233.5t-98 -233t-230 -94zM283 0l878 1393h86l-878 -1393h-86zM1917 -16q-132 0 -230 94t-98 233t98 233.5t230 94.5t229 -94t97 -234t-97 -233.5t-229 -93.5zM1135 -16q-132 0 -230 94
t-98 233t98 233.5t230 94.5t228.5 -94t96.5 -234t-96.5 -233.5t-228.5 -93.5zM395 825q103 0 175.5 72t72.5 184t-72.5 184t-175.5 72q-105 0 -176.5 -72t-71.5 -184t71.5 -184t176.5 -72zM1917 55q103 0 175.5 72t72.5 184q0 113 -72 184.5t-176 71.5q-105 0 -177.5 -71.5
t-72.5 -184.5q0 -112 72.5 -184t177.5 -72zM1135 55q103 0 175 72t72 184q0 113 -71.5 184.5t-175.5 71.5q-105 0 -177.5 -71.5t-72.5 -184.5q0 -112 72.5 -184t177.5 -72z" />
    <glyph glyph-name="fl.alt" horiz-adv-x="964" 
d="M207 0v768h-133v68h133v430q0 122 55 180.5t141 58.5q70 0 112 -25t75 -73l-60 -45q-19 26 -31 39t-36 23t-57 10q-57 0 -88 -38t-31 -132v-428h223v-68h-223v-768h-80zM700 0v1479h80v-1479h-80z" />
    <glyph glyph-name="ffl.alt" horiz-adv-x="1458" 
d="M207 0v766h-133v70h133v389q0 122 55 180.5t141 58.5q70 0 112 -25t75 -73l-60 -45q-19 26 -31 39t-36 23t-57 10q-57 0 -88 -38t-31 -132v-387h413v430q0 122 55.5 180.5t141.5 58.5q70 0 111.5 -25t74.5 -73l-59 -45q-28 38 -52.5 55t-72.5 17q-57 0 -88 -38t-31 -132
v-428h224v-70h-224v-766h-80v766h-413v-766h-80zM1194 0v1479h80v-1479h-80z" />
    <glyph glyph-name="Eurolining" horiz-adv-x="1511" 
d="M270 762h-192v69h201q38 257 207 417.5t405 160.5q322 0 477 -250l-61 -41q-73 110 -168 162.5t-248 52.5q-207 0 -348.5 -138.5t-177.5 -363.5h700v-69h-709q-2 -20 -2 -66q0 -73 13 -153h698v-70h-682q55 -190 191 -302t325 -112q91 0 166 22.5t129 63.5t90 82t70 95
l65 -39q-35 -62 -76.5 -111t-103 -94t-148 -69.5t-192.5 -24.5q-218 0 -380.5 133.5t-221.5 355.5h-219v70h203q-13 80 -13 153q0 46 2 66z" />
    <glyph glyph-name="at.up" horiz-adv-x="1777" 
d="M891 -193q-160 0 -303.5 59.5t-248.5 163.5t-166.5 254.5t-61.5 323.5q0 167 62 316.5t166.5 255.5t248.5 167.5t303 61.5q163 0 307.5 -59.5t247 -160.5t162 -240t59.5 -294q0 -222 -82 -332t-207 -110q-94 0 -151 54t-64 153q-90 -211 -303 -211q-153 0 -255.5 109.5
t-102.5 273.5q0 167 103 279t255 112q102 0 178.5 -54.5t118.5 -146.5l-4 183h80v-482q0 -100 33.5 -151t111.5 -51q94 0 152.5 93t58.5 281q0 136 -49 259.5t-137 218t-221 150.5t-291 56q-152 0 -283.5 -58.5t-222.5 -157.5t-143 -233t-52 -282q0 -203 87.5 -369.5
t248.5 -264t365 -97.5q194 0 342 92l37 -61q-162 -101 -379 -101zM866 279q122 0 205.5 91.5t83.5 221.5q0 133 -83.5 227t-205.5 94q-123 0 -202.5 -93.5t-79.5 -227.5q0 -131 79.5 -222t202.5 -91z" />
    <glyph glyph-name="fb.alt" horiz-adv-x="1654" 
d="M207 0v768h-133v68h133v430q0 122 55 180.5t141 58.5q70 0 112 -25t75 -73l-60 -45q-19 26 -31 39t-36 23t-57 10q-57 0 -88 -38t-31 -132v-428h223v-68h-223v-768h-80zM1135 -16q-119 0 -216.5 63t-142.5 162l4 -209h-80v1479h80v-842q48 98 140 157.5t215 59.5
q179 0 296 -124t117 -310t-117 -311t-296 -125zM1124 55q153 0 246.5 103.5t93.5 261.5t-93.5 260t-246.5 102q-156 0 -253 -102.5t-97 -259.5q0 -158 97 -261.5t253 -103.5z" />
    <glyph glyph-name="fh.alt" horiz-adv-x="1570" 
d="M207 0v768h-133v68h133v430q0 122 55 180.5t141 58.5q70 0 112 -25t75 -73l-60 -45q-19 26 -31 39t-36 23t-57 10q-57 0 -88 -38t-31 -132v-428h223v-68h-223v-768h-80zM700 0v1479h80v-822q42 91 126 144t192 53q141 0 226 -89t85 -243v-522h-80v508q0 131 -61 201.5
t-181 70.5q-137 0 -222 -84.5t-85 -228.5v-467h-80z" />
    <glyph glyph-name="fk.alt" horiz-adv-x="1447" 
d="M207 0v768h-133v68h133v430q0 122 55 180.5t141 58.5q70 0 112 -25t75 -73l-60 -45q-19 26 -31 39t-36 23t-57 10q-57 0 -88 -38t-31 -132v-428h223v-68h-223v-768h-80zM780 260v-260h-80v1479h80v-1041q0 -30 -6 -90l463 488h94l-336 -355l396 -481h-99l-352 428z" />
    <glyph glyph-name="ffb.alt" horiz-adv-x="2148" 
d="M207 0v766h-133v70h133v389q0 122 55 180.5t141 58.5q70 0 112 -25t75 -73l-60 -45q-19 26 -31 39t-36 23t-57 10q-57 0 -88 -38t-31 -132v-387h413v430q0 122 55.5 180.5t141.5 58.5q70 0 111.5 -25t74.5 -73l-59 -45q-28 38 -52.5 55t-72.5 17q-57 0 -88 -38t-31 -132
v-428h224v-70h-224v-766h-80v766h-413v-766h-80zM1628 -16q-119 0 -216 63t-142 162l4 -209h-80v1479h80v-842q48 98 139.5 157.5t214.5 59.5q179 0 296.5 -124.5t117.5 -309.5q0 -186 -117.5 -311t-296.5 -125zM1618 55q153 0 246.5 103.5t93.5 261.5t-93.5 260t-246.5 102
q-156 0 -253 -102.5t-97 -259.5q0 -158 97 -261.5t253 -103.5z" />
    <glyph glyph-name="ffh.alt" horiz-adv-x="2064" 
d="M207 0v766h-133v70h133v389q0 122 55 180.5t141 58.5q70 0 112 -25t75 -73l-60 -45q-19 26 -31 39t-36 23t-57 10q-57 0 -88 -38t-31 -132v-387h413v430q0 122 55.5 180.5t141.5 58.5q70 0 111.5 -25t74.5 -73l-59 -45q-28 38 -52.5 55t-72.5 17q-57 0 -88 -38t-31 -132
v-428h224v-70h-224v-766h-80v766h-413v-766h-80zM1194 0v1479h80v-822q42 91 125.5 144t191.5 53q141 0 226.5 -89t85.5 -243v-522h-80v508q0 131 -61 201.5t-181 70.5q-137 0 -222 -84.5t-85 -228.5v-467h-80z" />
    <glyph glyph-name="ffk.alt" horiz-adv-x="1941" 
d="M207 0v766h-133v70h133v389q0 122 55 180.5t141 58.5q70 0 112 -25t75 -73l-60 -45q-19 26 -31 39t-36 23t-57 10q-57 0 -88 -38t-31 -132v-387h413v430q0 122 55.5 180.5t141.5 58.5q70 0 111.5 -25t74.5 -73l-59 -45q-28 38 -52.5 55t-72.5 17q-57 0 -88 -38t-31 -132
v-428h224v-70h-224v-766h-80v766h-413v-766h-80zM1274 260v-260h-80v1479h80v-1041q0 -30 -6 -90l463 488h94l-336 -355l395 -481h-98l-352 428z" />
    <glyph glyph-name="fffl.alt" horiz-adv-x="1951" 
d="M700 768h-413v-768h-80v768h-133v68h133v389q0 122 55 180.5t141 58.5q70 0 112 -25t75 -73l-60 -45q-19 26 -31 39t-36 23t-57 10q-57 0 -88 -38t-31 -132v-387h413v409q0 122 55.5 181t141.5 59q69 0 111 -25t75 -74l-59 -45q-28 38 -52.5 55t-72.5 17q-57 0 -88 -38
t-31 -132v-407h414v430q0 122 55.5 180.5t141.5 58.5q70 0 111.5 -25t74.5 -73l-59 -45q-28 38 -52.5 55t-72.5 17q-57 0 -88 -38t-31 -132v-428h223v-68h-223v-768h-80v768h-414v-768h-80v768zM1688 0v1479h79v-1479h-79z" />
    <glyph glyph-name="space.up" horiz-adv-x="499" 
 />
    <glyph glyph-name="nbspace.up" horiz-adv-x="372" 
 />
    <glyph glyph-name="hyphen.up" horiz-adv-x="608" 
d="M104 500v73h400v-73h-400z" />
    <glyph glyph-name="guillemotleft.up" horiz-adv-x="710" 
d="M535 164l-191 315v17l191 315h92l-195 -324l195 -323h-92zM274 164l-190 315v17l190 315h93l-195 -324l195 -323h-93z" />
    <glyph glyph-name="guillemotright.up" horiz-adv-x="710" 
d="M344 164l195 323l-195 324h92l191 -315v-17l-191 -315h-92zM84 164l195 323l-195 324h92l191 -315v-17l-191 -315h-92z" />
    <glyph glyph-name="endash.up" horiz-adv-x="905" 
d="M92 504v69h721v-69h-721z" />
    <glyph glyph-name="emdash.up" horiz-adv-x="1394" 
d="M92 504v69h1211v-69h-1211z" />
    <glyph glyph-name="guilsinglleft.up" horiz-adv-x="450" 
d="M274 164l-190 315v17l190 315h93l-195 -324l195 -323h-93z" />
    <glyph glyph-name="guilsinglright.up" horiz-adv-x="450" 
d="M84 164l195 323l-195 324h92l191 -315v-17l-191 -315h-92z" />
    <glyph glyph-name="amacron.alt" horiz-adv-x="1124" 
d="M352 1044v70h398v-70h-398zM516 -16q-176 0 -293 125.5t-117 310.5t117 309.5t293 124.5q123 0 215.5 -61.5t140.5 -163.5l-2 207h80v-836h-80l2 207q-48 -99 -142.5 -161t-213.5 -62zM528 55q153 0 249.5 102.5t96.5 258.5q0 157 -96.5 261.5t-249.5 104.5t-245.5 -102
t-92.5 -260t92.5 -261.5t245.5 -103.5z" />
    <glyph glyph-name="aogonek.alt" horiz-adv-x="1124" 
d="M950 0l-67 -104q-55 -87 -66 -119q-12 -34 -12 -72q0 -49 29 -75.5t71 -26.5q69 0 119 84l61 -37q-56 -117 -184 -117q-73 0 -124.5 44t-51.5 124q0 98 86 213l59 84l2 209q-48 -99 -142.5 -161t-213.5 -62q-176 0 -293 125.5t-117 310.5t117 309.5t293 124.5
q123 0 215.5 -61.5t140.5 -163.5l-2 207h80v-836zM528 55q153 0 249.5 102.5t96.5 258.5q0 157 -96.5 261.5t-249.5 104.5t-245.5 -102t-92.5 -260t92.5 -261.5t245.5 -103.5z" />
    <glyph glyph-name="gcommaaccent.alt" horiz-adv-x="1128" 
d="M553 1032q-31 0 -55.5 24.5t-24.5 57.5q0 16 10 39l109 240h51l-65 -205q22 -5 38.5 -26t16.5 -48q0 -33 -24.5 -57.5t-55.5 -24.5zM549 -457q-144 0 -250.5 67t-163.5 177l66 37q116 -209 346 -209q161 0 244 85t83 269v234q-46 -96 -141 -157.5t-213 -61.5
q-179 0 -296.5 125t-117.5 311q0 185 117.5 309.5t296.5 124.5q123 0 216.5 -61t142.5 -162l-5 205h80v-875q0 -209 -106.5 -313.5t-298.5 -104.5zM530 55q156 0 253.5 104t97.5 261t-97.5 259.5t-253.5 102.5q-153 0 -246.5 -102t-93.5 -260t93.5 -261.5t246.5 -103.5z" />
    <glyph glyph-name="abreve.alt" horiz-adv-x="1124" 
d="M561 991q-100 0 -160.5 58.5t-78.5 156.5l71 15q20 -75 57.5 -116.5t110.5 -41.5t110.5 41.5t57.5 116.5l72 -15q-18 -97 -79 -156t-161 -59zM516 -16q-176 0 -293 125.5t-117 310.5t117 309.5t293 124.5q123 0 215.5 -61.5t140.5 -163.5l-2 207h80v-836h-80l2 207
q-48 -99 -142.5 -161t-213.5 -62zM528 55q153 0 249.5 102.5t96.5 258.5q0 157 -96.5 261.5t-249.5 104.5t-245.5 -102t-92.5 -260t92.5 -261.5t245.5 -103.5z" />
    <glyph glyph-name="umacron.alt" horiz-adv-x="1028" 
d="M315 1044v70h398v-70h-398zM514 -16q-161 0 -255.5 100.5t-94.5 282.5v469h80v-463q0 -316 270 -316t270 316v463h80v-469q0 -182 -94.5 -282.5t-255.5 -100.5z" />
    <glyph glyph-name="uring.alt" horiz-adv-x="1028" 
d="M514 999q-79 0 -135.5 55.5t-56.5 133.5t56 133t136 55t136.5 -55t56.5 -133t-56.5 -133.5t-136.5 -55.5zM514 -16q-161 0 -255.5 100.5t-94.5 282.5v469h80v-463q0 -316 270 -316t270 316v463h80v-469q0 -182 -94.5 -282.5t-255.5 -100.5zM514 1063q53 0 86 34t33 91
t-33 91t-86 34t-86 -34t-33 -91t33 -91t86 -34z" />
    <glyph glyph-name="uhungarumlaut.alt" horiz-adv-x="1028" 
d="M592 1018l153 399h95l-181 -399h-67zM352 1018l154 399h94l-180 -399h-68zM514 -16q-161 0 -255.5 100.5t-94.5 282.5v469h80v-463q0 -316 270 -316t270 316v463h80v-469q0 -182 -94.5 -282.5t-255.5 -100.5z" />
    <glyph glyph-name="uogonek.alt" horiz-adv-x="1028" 
d="M485 -16q-148 9 -234.5 109.5t-86.5 273.5v469h80v-463q0 -316 270 -316t270 316v463h80v-469q0 -166 -80 -266t-219 -115l-59 -90q-55 -87 -66 -119q-12 -34 -12 -72q0 -49 29 -75.5t71 -26.5q69 0 119 84l62 -37q-56 -117 -185 -117q-73 0 -124.5 44t-51.5 124
q0 98 86 213z" />
    <glyph glyph-name="Gcommaaccent.alt" horiz-adv-x="1542" 
d="M805 -16q-146 0 -277 53t-228 145t-153.5 226t-56.5 288t56.5 288t152.5 226.5t227 145.5t277 53q182 0 330.5 -70t234.5 -206l-63 -48q-79 123 -207.5 185.5t-294.5 62.5q-132 0 -248.5 -48.5t-199.5 -132.5t-131 -202.5t-48 -253.5t48.5 -253.5t131.5 -202.5
t200 -132.5t249 -48.5t240.5 39t180 106t114 151.5t55.5 181.5h-566v75h658q-14 -284 -199 -456t-483 -172zM715 -498l65 205q-22 5 -38.5 26t-16.5 48q0 33 24.5 57.5t55.5 24.5t55.5 -24.5t24.5 -57.5q0 -13 -11 -39l-108 -240h-51z" />
    <glyph glyph-name="Gbreve.alt" horiz-adv-x="1542" 
d="M795 1520q-100 0 -161 59t-79 156l72 14q20 -75 57.5 -116.5t110.5 -41.5t110.5 41.5t57.5 116.5l71 -14q-18 -98 -78.5 -156.5t-160.5 -58.5zM805 -16q-146 0 -277 53t-228 145t-153.5 226t-56.5 288t56.5 288t152.5 226.5t227 145.5t277 53q182 0 330.5 -70t234.5 -206
l-63 -48q-79 123 -207.5 185.5t-294.5 62.5q-132 0 -248.5 -48.5t-199.5 -132.5t-131 -202.5t-48 -253.5t48.5 -253.5t131.5 -202.5t200 -132.5t249 -48.5t240.5 39t180 106t114 151.5t55.5 181.5h-566v75h658q-14 -284 -199 -456t-483 -172z" />
    <glyph glyph-name="gbreve.alt" horiz-adv-x="1128" 
d="M569 991q-100 0 -160.5 58.5t-78.5 156.5l71 15q20 -75 57.5 -116.5t110.5 -41.5t110.5 41.5t57.5 116.5l72 -15q-18 -97 -79 -156t-161 -59zM549 -457q-144 0 -250.5 67t-163.5 177l66 37q116 -209 346 -209q161 0 244 85t83 269v234q-46 -96 -141 -157.5t-213 -61.5
q-179 0 -296.5 125t-117.5 311q0 185 117.5 309.5t296.5 124.5q123 0 216.5 -61t142.5 -162l-5 205h80v-875q0 -209 -106.5 -313.5t-298.5 -104.5zM530 55q156 0 253.5 104t97.5 261t-97.5 259.5t-253.5 102.5q-153 0 -246.5 -102t-93.5 -260t93.5 -261.5t246.5 -103.5z" />
    <glyph glyph-name="Gcircumflex.alt" horiz-adv-x="1542" 
d="M551 1540l231 373h19l231 -373h-71l-168 244l-170 -244h-72zM805 -16q-146 0 -277 53t-228 145t-153.5 226t-56.5 288t56.5 288t152.5 226.5t227 145.5t277 53q182 0 330.5 -70t234.5 -206l-63 -48q-79 123 -207.5 185.5t-294.5 62.5q-132 0 -248.5 -48.5t-199.5 -132.5
t-131 -202.5t-48 -253.5t48.5 -253.5t131.5 -202.5t200 -132.5t249 -48.5t240.5 39t180 106t114 151.5t55.5 181.5h-566v75h658q-14 -284 -199 -456t-483 -172z" />
    <glyph glyph-name="gcircumflex.alt" horiz-adv-x="1128" 
d="M332 1012l231 372h19l231 -372h-72l-168 243l-170 -243h-71zM567 -457q-144 0 -250 67t-163 177l65 37q116 -209 346 -209q162 0 245 85t83 269v234q-46 -96 -141 -157.5t-213 -61.5q-179 0 -296.5 125t-117.5 311q0 185 117.5 309.5t296.5 124.5q123 0 216 -61t142 -162
l-4 205h80v-875q0 -209 -106.5 -313.5t-299.5 -104.5zM549 55q156 0 253 103.5t97 261.5q0 157 -97 259.5t-253 102.5q-153 0 -246.5 -102t-93.5 -260t93.5 -261.5t246.5 -103.5z" />
    <glyph glyph-name="ubreve.alt" horiz-adv-x="1028" 
d="M514 991q-100 0 -161 59t-79 156l72 15q20 -75 57.5 -116.5t110.5 -41.5t110.5 41.5t57.5 116.5l72 -15q-18 -97 -79 -156t-161 -59zM514 -16q-161 0 -255.5 100.5t-94.5 282.5v469h80v-463q0 -316 270 -316t270 316v463h80v-469q0 -182 -94.5 -282.5t-255.5 -100.5z" />
    <glyph glyph-name="G.altsmall" horiz-adv-x="1212" 
d="M627 -16q-143 0 -261.5 66t-189 187t-70.5 271q0 112 41 210t111.5 166t165.5 107t201 39q266 0 411 -201l-61 -45q-120 172 -350 172q-189 0 -313 -128t-124 -320q0 -193 125 -323t314 -130q91 0 166 27.5t124.5 75t80 105.5t40.5 124h-364v72h450q-8 -209 -143.5 -342
t-353.5 -133z" />
    <glyph glyph-name="M.altsmall" horiz-adv-x="1314" 
d="M125 0l123 1028h16l346 -627q12 -21 24 -50t18 -47l5 -19q23 71 48 116l346 627h16l123 -1028h-80l-78 664q-4 36 -7 82t-4 74l-1 28q-31 -96 -72 -168l-282 -502h-17l-284 504q-19 34 -37 76t-26 67l-9 25q0 -96 -10 -180l-80 -670h-78z" />
    <glyph glyph-name="Q.altsmall" horiz-adv-x="1267" 
d="M672 -14v-228h-76v228q-206 14 -348 160.5t-142 361.5q0 150 72.5 270.5t193 186t263.5 65.5q107 0 203.5 -39t168 -106.5t113 -165.5t41.5 -211q0 -108 -38.5 -203t-104 -163t-155.5 -109t-191 -47zM596 55v228h76v-228q177 12 291 140.5t114 312.5q0 193 -125 321.5
t-317 128.5q-193 0 -319 -128.5t-126 -321.5q0 -184 114 -312t292 -141z" />
    <glyph glyph-name="minussmall" horiz-adv-x="368" 
d="M184 403q-31 0 -56.5 24.5t-25.5 57.5q0 34 25 58t57 24q33 0 57.5 -23.5t24.5 -58.5q0 -33 -24.5 -57.5t-57.5 -24.5z" />
    <glyph glyph-name="multiplysmall" horiz-adv-x="368" 
d="M184 403q-31 0 -56.5 24.5t-25.5 57.5q0 34 25 58t57 24q33 0 57.5 -23.5t24.5 -58.5q0 -33 -24.5 -57.5t-57.5 -24.5z" />
    <glyph glyph-name="spacesmall" horiz-adv-x="499" 
 />
    <glyph glyph-name="numbersignsmall" horiz-adv-x="882" 
d="M147 393l58 228h-148v69h164l64 254h-164v70h180l59 235h74l-59 -235h227l60 235h73l-59 -235h149v-70h-166l-63 -254h164v-69h-182l-56 -228h-76l58 228h-228l-55 -228h-74zM295 690h227l64 254h-228z" />
    <glyph glyph-name="dollarsmall" horiz-adv-x="827" 
d="M375 -14q-116 11 -205.5 72.5t-128.5 144.5l68 33q37 -73 106 -122t160 -59v449l-25 8q-129 43 -192.5 104.5t-63.5 167.5q0 104 80 171t201 75v219h69v-221q95 -10 165.5 -60t103.5 -118l-64 -35q-71 127 -205 143v-399l39 -12q149 -51 214 -117t65 -176
q0 -117 -86 -190.5t-232 -79.5v-230h-69v232zM375 961q-91 -6 -146 -51.5t-55 -125.5q0 -79 44.5 -120.5t150.5 -77.5l6 -2v377zM444 53q110 6 174 59.5t64 141.5t-48 133.5t-169 85.5l-21 6v-426z" />
    <glyph glyph-name="percentsmall" horiz-adv-x="1480" 
d="M354 449q-119 0 -206 82.5t-87 207.5q0 123 87.5 207t205.5 84q117 0 204 -84t87 -207q0 -124 -87 -207t-204 -83zM385 0l631 1014h82l-631 -1014h-82zM1128 -16q-118 0 -204 82.5t-86 207.5q0 124 86 207.5t204 83.5t204.5 -83.5t86.5 -207.5q0 -125 -86.5 -207.5
t-204.5 -82.5zM354 516q91 0 153 62.5t62 160.5t-62 160t-153 62t-154 -62t-63 -160t63 -160.5t154 -62.5zM1128 51q91 0 153 62.5t62 160.5q0 97 -62 159.5t-153 62.5t-153 -62.5t-62 -159.5q0 -98 62 -160.5t153 -62.5z" />
    <glyph glyph-name="parenleftsmall" horiz-adv-x="534" 
d="M422 -117q-70 72 -127.5 153.5t-106.5 183t-76.5 223.5t-27.5 253q0 130 27.5 252.5t77 224t107 183.5t126.5 153l53 -47q-66 -73 -117 -147.5t-96 -169t-69.5 -209t-24.5 -240.5q0 -127 24.5 -241.5t70 -209t96 -168.5t116.5 -147z" />
    <glyph glyph-name="parenrightsmall" horiz-adv-x="534" 
d="M113 -117l-54 47q66 73 117.5 147.5t96.5 169t69.5 209t24.5 240.5q0 127 -24.5 241.5t-70.5 209t-96.5 168.5t-116.5 147l54 47q70 -72 127.5 -153.5t106.5 -183t76.5 -223.5t27.5 -253q0 -130 -27.5 -252.5t-77 -224t-107 -183.5t-126.5 -153z" />
    <glyph glyph-name="plussmall" horiz-adv-x="727" 
d="M324 195v270h-244v74h244v270h77v-270h246v-74h-246v-270h-77z" />
    <glyph glyph-name="commasmall" horiz-adv-x="368" 
d="M82 -227l80 219q-26 6 -43 27t-17 49q0 33 25.5 57.5t56.5 24.5q33 0 57.5 -24.5t24.5 -57.5q0 -23 -8 -39l-125 -256h-51z" />
    <glyph glyph-name="periodsmall" horiz-adv-x="368" 
d="M184 -14q-31 0 -56.5 24.5t-25.5 57.5q0 34 25 58t57 24q33 0 57.5 -23.5t24.5 -58.5q0 -33 -24.5 -57.5t-57.5 -24.5z" />
    <glyph glyph-name="slashsmall" horiz-adv-x="901" 
d="M59 -262l637 1741h84l-637 -1741h-84z" />
    <glyph glyph-name="zerosmall" horiz-adv-x="1142" 
d="M571 -16q-204 0 -337.5 146.5t-133.5 377.5q0 230 133.5 376t337.5 146q203 0 337 -146t134 -376q0 -231 -134 -377.5t-337 -146.5zM571 55q177 0 282 127t105 326q0 196 -105 323t-282 127t-284 -127t-107 -323q0 -198 107 -325.5t284 -127.5z" />
    <glyph glyph-name="onesmall" horiz-adv-x="509" 
d="M262 0v942h-194v72h276v-1014h-82z" />
    <glyph glyph-name="twosmall" horiz-adv-x="858" 
d="M82 0v14l430 437q147 151 147 297q0 95 -52.5 152.5t-153.5 57.5q-95 0 -158 -56.5t-88 -156.5l-74 15q21 118 107.5 194t212.5 76q132 0 210 -78t78 -204q0 -168 -170 -342l-241 -246q-16 -16 -44 -40.5t-48 -40.5l-19 -16q76 9 133 9h404v-72h-674z" />
    <glyph glyph-name="threesmall" horiz-adv-x="858" 
d="M410 -16q-120 0 -213 55.5t-140 142.5l66 37q97 -164 285 -164q131 0 205.5 78t74.5 197t-78 191.5t-211 72.5q-61 0 -118 -21l-7 9l258 290q11 13 31.5 33t35.5 33l15 14q-71 -10 -116 -10h-355v72h590v-15l-250 -280q-14 -16 -30.5 -32t-26.5 -24l-10 -8
q157 1 254.5 -90.5t97.5 -234.5q0 -149 -100.5 -247.5t-257.5 -98.5z" />
    <glyph glyph-name="foursmall" horiz-adv-x="909" 
d="M637 0v199h-571v47l639 778h14v-756h106v-69h-106v-199h-82zM162 260q74 8 117 8h358v439l10 157q-43 -71 -98 -139l-313 -383z" />
    <glyph glyph-name="fivesmall" horiz-adv-x="858" 
d="M408 -16q-112 0 -203.5 55t-136.5 139l65 39q101 -162 275 -162q135 0 207.5 76.5t72.5 204.5q0 124 -75.5 200t-202.5 76q-154 0 -246 -86l-8 4v486h540v-72h-467v-309q79 47 187 47q155 0 253.5 -98.5t98.5 -247.5q0 -155 -96 -253.5t-264 -98.5z" />
    <glyph glyph-name="sixsmall" horiz-adv-x="909" 
d="M455 -16q-155 0 -255 97.5t-100 248.5q0 116 82 235l326 449h90l-197 -269q-16 -23 -44 -56t-48 -55l-20 -22q92 64 188 64q139 0 234.5 -99.5t95.5 -244.5q0 -147 -99.5 -247.5t-252.5 -100.5zM455 55q124 0 198 78t74 199q0 119 -74 197.5t-198 78.5q-123 0 -199 -79.5
t-76 -196.5q0 -121 75.5 -199t199.5 -78z" />
    <glyph glyph-name="sevensmall" horiz-adv-x="845" 
d="M186 0l473 944h-579v72h694v-8l-502 -1008h-86z" />
    <glyph glyph-name="eightsmall" horiz-adv-x="884" 
d="M442 -16q-156 0 -258 87.5t-102 219.5q0 110 65 181.5t175 98.5q-71 25 -114.5 80.5t-43.5 136.5q0 103 79 172.5t199 69.5t199.5 -69.5t79.5 -172.5q0 -81 -43.5 -136t-116.5 -81q111 -26 176.5 -97.5t65.5 -182.5q0 -132 -102.5 -219.5t-258.5 -87.5zM442 604
q92 0 145.5 49t53.5 133q0 76 -54.5 126.5t-144.5 50.5t-144 -50.5t-54 -126.5q0 -84 53 -133t145 -49zM442 55q125 0 202 66.5t77 171.5q0 110 -76.5 176t-202.5 66q-125 0 -201.5 -66t-76.5 -176q0 -106 77 -172t201 -66z" />
    <glyph glyph-name="ninesmall" horiz-adv-x="899" 
d="M317 0l220 309q13 18 33 41t34 37l14 14q-82 -65 -192 -65q-141 0 -236.5 100.5t-95.5 247.5t100.5 246.5t256.5 99.5t254 -97t98 -247q0 -125 -82 -244l-313 -442h-91zM451 403q123 0 197.5 81t74.5 200q0 116 -73.5 196.5t-198.5 80.5q-126 0 -201.5 -79.5
t-75.5 -197.5q0 -120 74.5 -200.5t202.5 -80.5z" />
    <glyph glyph-name="colonsmall" horiz-adv-x="389" 
d="M195 438q-31 0 -56.5 24.5t-25.5 57.5q0 34 25 59t57 25q33 0 57 -24.5t24 -59.5q0 -34 -24 -58t-57 -24zM195 -14q-31 0 -56.5 24.5t-25.5 57.5q0 34 25 59t57 25q33 0 57 -24.5t24 -59.5q0 -34 -24 -58t-57 -24z" />
    <glyph glyph-name="semicolonsmall" horiz-adv-x="389" 
d="M195 438q-31 0 -56.5 24.5t-25.5 57.5q0 34 25 59t57 25q33 0 57 -24.5t24 -59.5q0 -34 -24 -58t-57 -24zM92 -227l80 219q-26 6 -42.5 27t-16.5 49q0 33 25.5 57.5t56.5 24.5q33 0 57 -24t24 -58q0 -23 -8 -39l-125 -256h-51z" />
    <glyph glyph-name="lesssmall" horiz-adv-x="727" 
d="M614 215l-528 274v21l528 270v-80l-401 -200l401 -203v-82z" />
    <glyph glyph-name="equalsmall" horiz-adv-x="727" 
d="M92 580v73h543v-73h-543zM92 348v74h543v-74h-543z" />
    <glyph glyph-name="greatersmall" horiz-adv-x="727" 
d="M113 215v80l401 201l-401 202v82l528 -274v-21z" />
    <glyph glyph-name="bracketleftsmall" horiz-adv-x="593" 
d="M170 -106v1605h344v-72h-262v-1462h262v-71h-344z" />
    <glyph glyph-name="bracketrightsmall" horiz-adv-x="593" 
d="M80 -106v71h262v1462h-262v72h344v-1605h-344z" />
    <glyph glyph-name="Q.alt1small" horiz-adv-x="1267" 
d="M649 -16q3 -2 8.5 -6.5t8.5 -6.5q51 -39 75.5 -56t74.5 -33.5t110 -16.5q86 0 159 69l52 -55q-88 -88 -209 -88q-65 0 -127.5 22t-99 45.5t-85.5 61.5q-5 4 -23 18.5t-24 19l-22 16.5t-23.5 16t-22 13t-25 12.5t-24.5 8t-27.5 6t-27.5 1.5q-119 0 -194 -117l-56 41
q68 102 172 127q-99 71 -156 181t-57 245q0 150 72.5 270.5t193 186t263.5 65.5q107 0 203.5 -39t168 -106.5t113 -165.5t41.5 -211q0 -111 -40.5 -207.5t-109.5 -164.5t-163 -108.5t-199 -43.5zM635 55q192 0 317 130t125 323q0 192 -125 321t-317 129t-318.5 -129
t-126.5 -321q0 -193 126.5 -323t318.5 -130z" />
    <glyph glyph-name="braceleftsmall" horiz-adv-x="706" 
d="M537 -106q-52 0 -92.5 12.5t-77.5 42.5t-57.5 90.5t-20.5 148.5v168q0 82 -30 114t-91 32h-117v71h117q61 0 91 32t30 114v485q0 88 20.5 148.5t57.5 91t77.5 43t92.5 12.5h90v-72h-88q-82 0 -125 -49t-43 -174v-491q0 -145 -107 -174q107 -25 107 -177v-174
q0 -125 43 -174t125 -49h88v-71h-90z" />
    <glyph glyph-name="bracerightsmall" horiz-adv-x="706" 
d="M80 -106v71h88q82 0 125 49t43 174v174q0 146 106 175q-106 25 -106 176v491q0 125 -43 174t-125 49h-88v72h90q52 0 92.5 -12.5t77.5 -43t57.5 -91t20.5 -148.5v-485q0 -82 30 -114t91 -32h116v-71h-116q-61 0 -91 -32t-30 -114v-168q0 -88 -20.5 -148.5t-57.5 -90.5
t-77.5 -42.5t-92.5 -12.5h-90z" />
    <glyph glyph-name="degreesmall" horiz-adv-x="659" 
d="M330 602q-91 0 -154 62t-63 151q0 91 63 153t154 62q90 0 153.5 -62.5t63.5 -152.5q0 -89 -63.5 -151t-153.5 -62zM330 664q65 0 105 42.5t40 108.5q0 67 -40 110.5t-105 43.5t-106.5 -43.5t-41.5 -110.5q0 -65 41.5 -108t106.5 -43z" />
    <glyph glyph-name="centsmall" horiz-adv-x="716" 
d="M358 -217v203q-126 17 -208 113.5t-82 230.5q0 133 82.5 229t207.5 113v200h70v-198q139 -9 227 -103l-55 -47q-67 74 -172 82v-555q120 9 190 92l56 -47q-86 -103 -246 -112v-201h-70zM358 55v547q-93 -15 -150.5 -90.5t-57.5 -181.5q0 -108 57.5 -184t150.5 -91z" />
    <glyph glyph-name="sterlingsmall" horiz-adv-x="931" 
d="M291 438h-154v68h125q-55 137 -55 231q0 129 85 211t226 82q109 0 191 -53t120 -141l-67 -35q-34 73 -96 115t-148 42q-106 0 -166.5 -59.5t-60.5 -161.5q0 -96 53 -231h301v-68h-274q51 -140 51 -237q0 -21 -2 -33q39 -31 54 -42.5t49 -33t64.5 -29.5t65.5 -8
q102 0 162 82l57 -45q-82 -108 -219 -108q-48 0 -98 20t-79 40t-77 58q-26 -54 -76 -86t-110 -32q-68 0 -114 40t-46 105q0 64 45.5 101.5t112.5 37.5q69 0 137 -45q-4 82 -57 215zM342 150q-71 57 -129 57q-41 0 -66.5 -21.5t-25.5 -54.5q0 -37 26.5 -61.5t67.5 -24.5
q47 0 81 26.5t46 78.5z" />
    <glyph glyph-name="sectionsmall" horiz-adv-x="866" 
d="M205 647q-35 56 -35 135q0 108 74.5 178t187.5 70q99 0 164.5 -43.5t97.5 -114.5l-67 -34q-58 120 -195 120q-82 0 -132 -49t-50 -125q0 -72 39 -118t112 -78l168 -74q116 -51 165.5 -106t49.5 -134q0 -123 -131 -182q41 -56 41 -129q0 -103 -72 -169t-206 -66
q-101 0 -189 50t-129 134l68 35q38 -70 103 -109t145 -39q98 0 149 45t51 117q0 65 -41.5 108t-123.5 78l-156 66q-115 50 -163 104t-48 138q0 63 33 112.5t90 79.5zM608 141q44 18 70.5 51.5t26.5 75.5q0 60 -38.5 99.5t-129.5 78.5l-168 72q-81 33 -127 82
q-80 -49 -80 -135q0 -66 33.5 -105.5t121.5 -76.5l162 -68q75 -30 129 -74z" />
    <glyph glyph-name="yensmall" horiz-adv-x="950" 
d="M567 410l-51 -101v-51h315v-65h-315v-193h-80v193h-315v65h315v51l-51 101h-264v65h231l-272 539h88l274 -553q8 -16 16 -38t12 -36l5 -14q17 53 33 88l278 553h84l-270 -539h231v-65h-264z" />
    <glyph glyph-name="florinsmall" horiz-adv-x="684" 
d="M158 -193l75 672h-149v70h158l26 239q14 125 70.5 183.5t138.5 58.5q121 0 182 -100l-57 -43q-24 36 -50 53.5t-73 17.5q-56 0 -89 -37t-44 -135l-27 -237h179v-70h-187l-75 -672h-78z" />
    <glyph glyph-name="Eurosmall" horiz-adv-x="1161" 
d="M219 565h-135v66h143q34 180 156 289.5t297 109.5q123 0 215 -51t149 -139l-61 -39q-99 157 -303 157q-147 0 -244 -89t-127 -238h500v-66h-508q-2 -18 -2 -57q0 -58 8 -102h502v-66h-487q38 -131 130.5 -208t223.5 -77q223 0 340 176l65 -38q-134 -209 -405 -209
q-159 0 -277 97t-161 259h-154v66h141q-8 44 -8 102q0 39 2 57z" />
    <glyph glyph-name="perthousandsmall" horiz-adv-x="2164" 
d="M354 449q-119 0 -206 82.5t-87 207.5q0 123 87.5 207t205.5 84q117 0 204 -84t87 -207q0 -124 -87 -207t-204 -83zM385 0l631 1014h82l-631 -1014h-82zM1812 -16q-118 0 -204 82.5t-86 207.5q0 124 86 207.5t204 83.5t204.5 -83.5t86.5 -207.5q0 -125 -86.5 -207.5
t-204.5 -82.5zM1128 -16q-118 0 -204 82.5t-86 207.5q0 124 86 207.5t204 83.5t204.5 -83.5t86.5 -207.5q0 -125 -86.5 -207.5t-204.5 -82.5zM354 516q91 0 153 62.5t62 160.5t-62 160t-153 62t-154 -62t-63 -160t63 -160.5t154 -62.5zM1812 51q91 0 153.5 62.5t62.5 160.5
q0 97 -62.5 159.5t-153.5 62.5t-153 -62.5t-62 -159.5q0 -98 62 -160.5t153 -62.5zM1128 51q91 0 153 62.5t62 160.5q0 97 -62 159.5t-153 62.5t-153 -62.5t-62 -159.5q0 -98 62 -160.5t153 -62.5z" />
    <glyph glyph-name="dotlessi.001" horiz-adv-x="438" 
d="M178 0v1014h82v-1014h-82z" />
    <glyph glyph-name="Amacronsmall" 
d="M313 1184v69h398v-69h-398zM86 0l416 1026h18l418 -1026h-86l-74 184h-536l-74 -184h-82zM270 256h480l-199 502q-7 18 -17 51.5t-16 57.5l-6 24q-25 -92 -41 -133z" />
    <glyph glyph-name="Aogoneksmall" 
d="M938 0l-68 -104q-32 -52 -43.5 -71.5t-22.5 -52.5t-11 -67q0 -49 29 -75.5t71 -26.5q69 0 119 84l61 -37q-56 -117 -184 -117q-73 0 -124.5 44t-51.5 124q0 98 86 213l55 78l-76 192h-536l-74 -184h-82l416 1026h18zM270 256h480l-199 502q-7 18 -17 51.5t-16 57.5l-6 24
q-25 -92 -41 -133z" />
    <glyph glyph-name="Ccaronsmall" horiz-adv-x="1142" 
d="M604 1145l-231 373h71l168 -244l170 244h72l-231 -373h-19zM618 -16q-103 0 -196 39t-162 107.5t-110 166.5t-41 211q0 149 70 269.5t187.5 186.5t258.5 66q138 0 234 -48.5t167 -147.5l-59 -46q-125 170 -342 170q-186 0 -309 -129t-123 -321q0 -193 121.5 -323
t303.5 -130q234 0 365 178l61 -45q-142 -204 -426 -204z" />
    <glyph glyph-name="Cacutesmall" horiz-adv-x="1142" 
d="M582 1157l153 399h94l-180 -399h-67zM618 -16q-103 0 -196 39t-162 107.5t-110 166.5t-41 211q0 149 70 269.5t187.5 186.5t258.5 66q138 0 234 -48.5t167 -147.5l-59 -46q-125 170 -342 170q-186 0 -309 -129t-123 -321q0 -193 121.5 -323t303.5 -130q234 0 365 178
l61 -45q-142 -204 -426 -204z" />
    <glyph glyph-name="Zacutesmall" horiz-adv-x="921" 
d="M451 1157l153 399h94l-180 -399h-67zM92 0v14l598 928h-528v72h653v-17l-600 -925h598v-72h-721z" />
    <glyph glyph-name="Dcaronsmall" horiz-adv-x="1060" 
d="M477 1145l-231 373h71l168 -244l170 244h72l-231 -373h-19zM172 0v1014h231q255 0 402 -139t147 -367q0 -229 -147 -368.5t-402 -139.5h-231zM254 72h141q234 0 353.5 118t119.5 318q0 198 -119.5 316t-353.5 118h-141v-870z" />
    <glyph glyph-name="Emacronsmall" horiz-adv-x="909" 
d="M279 1184v69h397v-69h-397zM172 0v1014h602v-72h-520v-512h467v-72h-467v-286h541v-72h-623z" />
    <glyph glyph-name="Edotaccentsmall" horiz-adv-x="909" 
d="M485 1204q-27 0 -47 19t-20 49q0 29 20 48t47 19t47.5 -19.5t20.5 -47.5q0 -30 -20.5 -49t-47.5 -19zM172 0v1014h602v-72h-520v-512h467v-72h-467v-286h541v-72h-623z" />
    <glyph glyph-name="Ecaronsmall" horiz-adv-x="909" 
d="M477 1145l-231 373h71l168 -244l170 244h72l-231 -373h-19zM172 0v1014h602v-72h-520v-512h467v-72h-467v-286h541v-72h-623z" />
    <glyph glyph-name="Eogoneksmall" horiz-adv-x="909" 
d="M590 0h-418v1014h602v-72h-520v-512h467v-72h-467v-286h541v-72h-127l-68 -104q-55 -87 -66 -119q-12 -34 -12 -72q0 -49 29.5 -75.5t71.5 -26.5q40 0 67 22t51 62l62 -37q-56 -117 -185 -117q-73 0 -124.5 44t-51.5 124q0 98 86 213z" />
    <glyph glyph-name="Gcommaaccentsmall" horiz-adv-x="1159" 
d="M635 -16q-145 0 -265.5 67t-190.5 187.5t-70 269.5q0 147 70 267.5t188.5 187.5t259.5 67q228 0 358 -139l-55 -53q-111 120 -303 120q-189 0 -311.5 -129t-122.5 -321q0 -194 124.5 -323.5t317.5 -129.5q200 0 323 107v231h-309v72h387v-336q-162 -145 -401 -145z
M508 -498l65 205q-22 5 -38.5 26t-16.5 48q0 33 24.5 57.5t55.5 24.5t55.5 -24.5t24.5 -57.5q0 -16 -10 -39l-109 -240h-51z" />
    <glyph glyph-name="Iogoneksmall" horiz-adv-x="438" 
d="M178 -6v1020h82v-1014l-67 -104q-55 -87 -66 -119q-12 -34 -12 -72q0 -49 29 -75.5t71 -26.5q69 0 119 84l61 -37q-56 -117 -184 -117q-73 0 -124.5 44t-51.5 124q0 98 86 213z" />
    <glyph glyph-name="Imacronsmall" horiz-adv-x="438" 
d="M20 1184v69h398v-69h-398zM178 0v1014h82v-1014h-82z" />
    <glyph glyph-name="Lcommaaccentsmall" horiz-adv-x="823" 
d="M172 0v1014h82v-942h485v-72h-567zM358 -498l66 205q-22 5 -38.5 26t-16.5 48q0 33 24.5 57.5t55.5 24.5t55 -24.5t24 -57.5q0 -16 -10 -39l-108 -240h-52z" />
    <glyph glyph-name="Lcaronsmall" horiz-adv-x="823" 
d="M518 670l66 204q-22 5 -39 26t-17 48q0 33 24.5 57.5t55.5 24.5t55.5 -24.5t24.5 -57.5q0 -16 -10 -39l-109 -239h-51zM172 0v1014h82v-942h485v-72h-567z" />
    <glyph glyph-name="Lacutesmall" horiz-adv-x="823" 
d="M188 1157l154 399h94l-180 -399h-68zM172 0v1014h82v-942h485v-72h-567z" />
    <glyph glyph-name="Ncommaaccentsmall" horiz-adv-x="1122" 
d="M932 -12l-602 743q-15 18 -37.5 52t-37.5 59l-15 24q10 -83 10 -151v-715h-78v1026h18l598 -737q17 -21 40.5 -54.5t37.5 -56.5l15 -24q-9 79 -9 145v717h78v-1028h-18zM489 -498l66 205q-22 5 -38.5 26t-16.5 48q0 33 24.5 57.5t55.5 24.5t55 -24.5t24 -57.5
q0 -16 -10 -39l-108 -240h-52z" />
    <glyph glyph-name="Abrevesmall" 
d="M512 1130q-100 0 -161 59t-79 157l72 14q20 -75 57.5 -116.5t110.5 -41.5t110.5 41.5t57.5 116.5l72 -14q-18 -98 -79 -157t-161 -59zM86 0l416 1026h18l418 -1026h-86l-74 184h-536l-74 -184h-82zM270 256h480l-199 502q-7 18 -17 51.5t-16 57.5l-6 24q-25 -92 -41 -133
z" />
    <glyph glyph-name="Nacutesmall" horiz-adv-x="1122" 
d="M547 1157l153 399h95l-181 -399h-67zM932 -12l-602 743q-15 18 -37.5 52t-37.5 59l-15 24q10 -83 10 -151v-715h-78v1026h18l598 -737q17 -21 40.5 -54.5t37.5 -56.5l15 -24q-9 79 -9 145v717h78v-1028h-18z" />
    <glyph glyph-name="Ncaronsmall" horiz-adv-x="1122" 
d="M567 1145l-231 373h72l167 -244l170 244h72l-231 -373h-19zM932 -12l-602 743q-15 18 -37.5 52t-37.5 59l-15 24q10 -83 10 -151v-715h-78v1026h18l598 -737q17 -21 40.5 -54.5t37.5 -56.5l15 -24q-9 79 -9 145v717h78v-1028h-18z" />
    <glyph glyph-name="Ohungarumlautsmall" horiz-adv-x="1267" 
d="M733 1157l154 399h94l-180 -399h-68zM494 1157l153 399h94l-180 -399h-67zM635 -16q-143 0 -263.5 66t-193 187t-72.5 271t72.5 270.5t193 186t263.5 65.5q107 0 203.5 -39t168 -106.5t113 -165.5t41.5 -211t-41.5 -211t-112.5 -166.5t-168 -107.5t-204 -39zM635 55
q192 0 317 130t125 323t-125 321.5t-317 128.5q-193 0 -319 -128.5t-126 -321.5t126.5 -323t318.5 -130z" />
    <glyph glyph-name="Omacronsmall" horiz-adv-x="1267" 
d="M434 1184v69h397v-69h-397zM635 -16q-143 0 -263.5 66t-193 187t-72.5 271t72.5 270.5t193 186t263.5 65.5q107 0 203.5 -39t168 -106.5t113 -165.5t41.5 -211t-41.5 -211t-112.5 -166.5t-168 -107.5t-204 -39zM635 55q192 0 317 130t125 323t-125 321.5t-317 128.5
q-193 0 -319 -128.5t-126 -321.5t126.5 -323t318.5 -130z" />
    <glyph glyph-name="Racutesmall" horiz-adv-x="944" 
d="M424 1157l154 399h94l-180 -399h-68zM612 309l226 -309h-95l-208 285q-57 -13 -115 -13h-166v-272h-82v1014h248q197 0 302 -104.5t105 -266.5q0 -116 -54.5 -203.5t-160.5 -130.5zM254 344h160q172 0 251.5 82.5t79.5 216.5t-79.5 216.5t-251.5 82.5h-160v-598z" />
    <glyph glyph-name="Rcaronsmall" horiz-adv-x="944" 
d="M459 1145l-232 373h72l168 -244l170 244h72l-232 -373h-18zM612 309l226 -309h-95l-208 285q-57 -13 -115 -13h-166v-272h-82v1014h248q197 0 302 -104.5t105 -266.5q0 -116 -54.5 -203.5t-160.5 -130.5zM254 344h160q172 0 251.5 82.5t79.5 216.5t-79.5 216.5
t-251.5 82.5h-160v-598z" />
    <glyph glyph-name="Rcommaaccentsmall" horiz-adv-x="944" 
d="M612 309l226 -309h-95l-208 285q-57 -13 -115 -13h-166v-272h-82v1014h248q197 0 302 -104.5t105 -266.5q0 -116 -54.5 -203.5t-160.5 -130.5zM393 -498l66 205q-22 5 -39 26t-17 48q0 33 24.5 57.5t55.5 24.5t55.5 -24.5t24.5 -57.5q0 -16 -10 -39l-109 -240h-51z
M254 344h160q172 0 251.5 82.5t79.5 216.5t-79.5 216.5t-251.5 82.5h-160v-598z" />
    <glyph glyph-name="Sacutesmall" horiz-adv-x="839" 
d="M381 1157l154 399h94l-180 -399h-68zM426 -16q-127 0 -218.5 60.5t-133.5 150.5l69 34q85 -174 281 -174q104 0 169.5 53t65.5 140q0 85 -47.5 137.5t-158.5 101.5l-101 45q-103 45 -156 108t-53 157q0 106 75 169.5t185 63.5q176 0 273 -143l-62 -45q-38 57 -87.5 88
t-123.5 31q-83 0 -132.5 -42.5t-49.5 -119.5q0 -69 37 -113t127 -84l100 -45q130 -58 192 -129.5t62 -179.5q0 -119 -87.5 -191.5t-225.5 -72.5z" />
    <glyph glyph-name="Tcaronsmall" horiz-adv-x="888" 
d="M436 1145l-231 373h71l168 -244l170 244h72l-231 -373h-19zM403 0v942h-327v72h737v-72h-328v-942h-82z" />
    <glyph glyph-name="Umacronsmall" horiz-adv-x="1032" 
d="M317 1184v69h398v-69h-398zM516 -16q-159 0 -255.5 93t-96.5 265v672h82v-666q0 -148 71.5 -220.5t198.5 -72.5q126 0 198 73t72 220v666h82v-672q0 -172 -96.5 -265t-255.5 -93z" />
    <glyph glyph-name="Uringsmall" horiz-adv-x="1032" 
d="M516 1139q-80 0 -136 55t-56 133t56.5 133.5t135.5 55.5q80 0 136.5 -55.5t56.5 -133.5t-56.5 -133t-136.5 -55zM516 -16q-159 0 -255.5 93t-96.5 265v672h82v-666q0 -148 71.5 -220.5t198.5 -72.5q126 0 198 73t72 220v666h82v-672q0 -172 -96.5 -265t-255.5 -93z
M516 1202q53 0 86 34t33 91t-33 91t-86 34t-86 -34t-33 -91t33 -91t86 -34z" />
    <glyph glyph-name="Uhungarumlautsmall" horiz-adv-x="1032" 
d="M594 1157l154 399h94l-180 -399h-68zM354 1157l154 399h94l-180 -399h-68zM516 -16q-159 0 -255.5 93t-96.5 265v672h82v-666q0 -148 71.5 -220.5t198.5 -72.5q126 0 198 73t72 220v666h82v-672q0 -172 -96.5 -265t-255.5 -93z" />
    <glyph glyph-name="Uogoneksmall" horiz-adv-x="1032" 
d="M487 -16q-147 9 -235 102t-88 256v672h82v-666q0 -148 71.5 -220.5t198.5 -72.5q126 0 198 73t72 220v666h82v-672q0 -157 -81.5 -249t-219.5 -107l-59 -90q-55 -87 -66 -119q-12 -34 -12 -72q0 -49 29 -75.5t71 -26.5q69 0 119 84l62 -37q-56 -117 -185 -117
q-73 0 -124.5 44t-51.5 124q0 98 86 213z" />
    <glyph glyph-name="Kcommaaccentsmall" horiz-adv-x="958" 
d="M242 336q6 9 29.5 47.5t42.5 67.5t32 45l404 518h94l-377 -479l438 -535h-104l-387 473l-160 -192v-281h-82v1014h82v-504q0 -69 -12 -174zM408 -498l65 205q-22 5 -38.5 26t-16.5 48q0 33 24.5 57.5t55.5 24.5t55.5 -24.5t24.5 -57.5q0 -13 -11 -39l-108 -240h-51z" />
    <glyph glyph-name="Zdotaccentsmall" horiz-adv-x="921" 
d="M483 1204q-27 0 -47 19t-20 49q0 29 20 48t47 19t47.5 -19.5t20.5 -47.5q0 -30 -20.5 -49t-47.5 -19zM92 0v14l598 928h-528v72h653v-17l-600 -925h598v-72h-721z" />
    <glyph glyph-name="Idotaccentsmall" horiz-adv-x="438" 
d="M219 1204q-27 0 -47 19t-20 49q0 29 20 48t47 19t47.5 -19.5t20.5 -47.5q0 -30 -20.5 -49t-47.5 -19zM178 0v1014h82v-1014h-82z" />
    <glyph glyph-name="Gbrevesmall" horiz-adv-x="1159" 
d="M604 1130q-100 0 -160.5 59t-78.5 157l71 14q20 -75 57.5 -116.5t110.5 -41.5t110.5 41.5t57.5 116.5l72 -14q-18 -98 -79 -157t-161 -59zM635 -16q-145 0 -265.5 67t-190.5 187.5t-70 269.5q0 147 70 267.5t188.5 187.5t259.5 67q228 0 358 -139l-55 -53
q-111 120 -303 120q-189 0 -311.5 -129t-122.5 -321q0 -194 124.5 -323.5t317.5 -129.5q200 0 323 107v231h-309v72h387v-336q-162 -145 -401 -145z" />
    <glyph glyph-name="Dcroatsmall" horiz-adv-x="1060" 
d="M172 0v365h-125v69h125v582h246q246 0 391 -140.5t145 -367.5q0 -229 -144 -368.5t-392 -139.5h-246zM254 72h156q224 0 341 118.5t117 317.5q0 197 -117.5 315.5t-340.5 118.5h-156v-508h285v-69h-285v-293z" />
    <glyph glyph-name="Scommaaccentsmall" horiz-adv-x="839" 
d="M426 -16q-127 0 -218.5 60.5t-133.5 150.5l69 34q85 -174 281 -174q104 0 169.5 53t65.5 140q0 85 -47.5 137.5t-158.5 101.5l-101 45q-103 45 -156 108t-53 157q0 106 75 169.5t185 63.5q176 0 273 -143l-62 -45q-38 57 -87.5 88t-123.5 31q-83 0 -132.5 -42.5
t-49.5 -119.5q0 -69 37 -113t127 -84l100 -45q130 -58 192 -129.5t62 -179.5q0 -119 -87.5 -191.5t-225.5 -72.5zM330 -498l65 205q-22 5 -38.5 26t-16.5 48q0 33 24.5 57.5t55.5 24.5t55.5 -24.5t24.5 -57.5q0 -13 -11 -39l-108 -240h-51z" />
    <glyph glyph-name="Tcommaaccentsmall" horiz-adv-x="888" 
d="M403 0v942h-327v72h737v-72h-328v-942h-82zM358 -498l66 205q-22 5 -38.5 26t-16.5 48q0 33 24.5 57.5t55.5 24.5t55 -24.5t24 -57.5q0 -16 -10 -39l-108 -240h-52z" />
    <glyph glyph-name="Gcommaaccentsmall.alt" horiz-adv-x="1212" 
d="M627 -16q-143 0 -261.5 66t-189 187t-70.5 271q0 112 41 210t111.5 166t165.5 107t201 39q266 0 411 -201l-61 -45q-120 172 -350 172q-189 0 -313 -128t-124 -320q0 -193 125 -323t314 -130q91 0 166 27.5t124.5 75t80 105.5t40.5 124h-364v72h450q-8 -209 -143.5 -342
t-353.5 -133zM526 -498l66 205q-22 5 -38.5 26t-16.5 48q0 33 24 57.5t55 24.5t55.5 -24.5t24.5 -57.5q0 -16 -10 -39l-108 -240h-52z" />
    <glyph glyph-name="Gbrevesmall.alt" horiz-adv-x="1212" 
d="M614 1130q-100 0 -160.5 59t-78.5 157l71 14q20 -75 57.5 -116.5t110.5 -41.5t110.5 41.5t57.5 116.5l72 -14q-18 -98 -79 -157t-161 -59zM627 -16q-143 0 -261.5 66t-189 187t-70.5 271q0 112 41 210t111.5 166t165.5 107t201 39q266 0 411 -201l-61 -45
q-120 172 -350 172q-189 0 -313 -128t-124 -320q0 -193 125 -323t314 -130q91 0 166 27.5t124.5 75t80 105.5t40.5 124h-364v72h450q-8 -209 -143.5 -342t-353.5 -133z" />
    <glyph glyph-name="Ccircumflexsmall" horiz-adv-x="1142" 
d="M369 1151l231 373h18l232 -373h-72l-168 244l-170 -244h-71zM618 -16q-103 0 -196 39t-162 107.5t-110 166.5t-41 211q0 149 70 269.5t187.5 186.5t258.5 66q138 0 234 -48.5t167 -147.5l-59 -46q-125 170 -342 170q-186 0 -309 -129t-123 -321q0 -193 121.5 -323
t303.5 -130q234 0 365 178l61 -45q-142 -204 -426 -204z" />
    <glyph glyph-name="Gcircumflexsmall" horiz-adv-x="1159" 
d="M360 1151l232 373h18l232 -373h-72l-168 244l-170 -244h-72zM635 -16q-145 0 -265.5 67t-190.5 187.5t-70 269.5q0 147 70 267.5t188.5 187.5t259.5 67q228 0 358 -139l-55 -53q-111 120 -303 120q-189 0 -311.5 -129t-122.5 -321q0 -194 124.5 -323.5t317.5 -129.5
q200 0 323 107v231h-309v72h387v-336q-162 -145 -401 -145z" />
    <glyph glyph-name="Hcircumflexsmall" horiz-adv-x="1077" 
d="M297 1151l231 373h19l231 -373h-71l-168 244l-170 -244h-72zM172 0v1014h82v-584h569v584h82v-1014h-82v358h-569v-358h-82z" />
    <glyph glyph-name="Jcircumflexsmall" horiz-adv-x="763" 
d="M305 1151l232 373h18l231 -373h-71l-168 244l-170 -244h-72zM332 -16q-172 0 -254 153l65 41q69 -121 185 -121q86 0 134 49.5t48 151.5v756h82v-760q0 -129 -72.5 -199.5t-187.5 -70.5z" />
    <glyph glyph-name="Scircumflexsmall" horiz-adv-x="839" 
d="M172 1151l231 373h19l231 -373h-71l-168 244l-170 -244h-72zM426 -16q-127 0 -218.5 60.5t-133.5 150.5l69 34q85 -174 281 -174q104 0 169.5 53t65.5 140q0 85 -47.5 137.5t-158.5 101.5l-101 45q-103 45 -156 108t-53 157q0 106 75 169.5t185 63.5q176 0 273 -143
l-62 -45q-38 57 -87.5 88t-123.5 31q-83 0 -132.5 -42.5t-49.5 -119.5q0 -69 37 -113t127 -84l100 -45q130 -58 192 -129.5t62 -179.5q0 -119 -87.5 -191.5t-225.5 -72.5z" />
    <glyph glyph-name="Ubrevesmall" horiz-adv-x="1032" 
d="M516 1130q-100 0 -161 59t-79 157l72 14q20 -75 57.5 -116.5t110.5 -41.5t110.5 41.5t57.5 116.5l72 -14q-18 -98 -79 -157t-161 -59zM516 -16q-159 0 -255.5 93t-96.5 265v672h82v-666q0 -148 71.5 -220.5t198.5 -72.5q126 0 198 73t72 220v666h82v-672
q0 -172 -96.5 -265t-255.5 -93z" />
    <glyph glyph-name="Gcircumflexsmall.alt" horiz-adv-x="1212" 
d="M373 1151l231 373h19l231 -373h-72l-168 244l-170 -244h-71zM627 -16q-143 0 -261.5 66t-189 187t-70.5 271q0 112 41 210t111.5 166t165.5 107t201 39q266 0 411 -201l-61 -45q-120 172 -350 172q-189 0 -313 -128t-124 -320q0 -193 125 -323t314 -130q91 0 166 27.5
t124.5 75t80 105.5t40.5 124h-364v72h450q-8 -209 -143.5 -342t-353.5 -133z" />
    <glyph glyph-name="minustab" horiz-adv-x="1064" 
d="M188 465v74h689v-74h-689z" />
    <glyph glyph-name="multiplytab" horiz-adv-x="1064" 
d="M535 446l-265 -264l-53 54l264 264l-264 264l53 53l265 -264l264 264l53 -53l-264 -264l264 -264l-53 -54z" />
    <glyph glyph-name="spacetab" horiz-adv-x="409" 
 />
    <glyph glyph-name="numbersigntab" horiz-adv-x="1064" 
d="M365 944h-185v70h201l59 235h74l-59 -235h247l60 235h74l-60 -235h170v-70h-186l-64 -254h185v-69h-203l-55 -228h-76l57 228h-248l-55 -228h-74l56 228h-166v69h184zM686 944h-248l-63 -254h246z" />
    <glyph glyph-name="dollartab" horiz-adv-x="1064" 
d="M494 -12q-121 12 -213.5 71.5t-135.5 151.5l70 35q36 -81 109.5 -129.5t169.5 -59.5v447l-25 8q-138 41 -204 101.5t-66 172.5q0 107 85.5 171.5t209.5 72.5v219h69v-221q94 -10 170.5 -61.5t112.5 -122.5l-64 -35q-71 132 -219 149v-395l39 -12q151 -45 222 -114
t71 -181q0 -127 -87.5 -198t-244.5 -74v-230h-69v234zM494 961q-97 -6 -156 -49t-59 -126q0 -87 45.5 -126t162.5 -74l7 -2v377zM563 53q252 6 252 203q0 89 -53.5 136.5t-177.5 84.5l-21 6v-430z" />
    <glyph glyph-name="percenttab" horiz-adv-x="1536" 
d="M381 449q-119 0 -206 82.5t-87 207.5q0 123 87.5 207t205.5 84q117 0 204 -84t87 -207q0 -124 -87 -207t-204 -83zM412 0l630 1014h82l-630 -1014h-82zM1155 -16q-118 0 -204.5 82.5t-86.5 207.5q0 124 86.5 207.5t204.5 83.5t204.5 -83.5t86.5 -207.5
q0 -125 -86.5 -207.5t-204.5 -82.5zM381 516q91 0 153 62.5t62 160.5t-62 160t-153 62t-154 -62t-63 -160t63 -160.5t154 -62.5zM1155 51q91 0 153 62.5t62 160.5q0 97 -62 159.5t-153 62.5t-153 -62.5t-62 -159.5q0 -98 62 -160.5t153 -62.5z" />
    <glyph glyph-name="parenlefttab" horiz-adv-x="614" 
d="M461 -279q-338 358 -338 875q0 516 338 874l53 -47q-307 -350 -307 -827t307 -827z" />
    <glyph glyph-name="parenrighttab" horiz-adv-x="614" 
d="M152 -279l-54 48q305 347 305 827t-305 827l54 47q337 -361 337 -874q0 -514 -337 -875z" />
    <glyph glyph-name="plustab" horiz-adv-x="1064" 
d="M571 465v-332h-77v332h-306v74h306v331h77v-331h306v-74h-306z" />
    <glyph glyph-name="commatab" horiz-adv-x="409" 
d="M102 -227l80 219q-26 6 -42.5 27t-16.5 49q0 33 25.5 57.5t56.5 24.5q33 0 57.5 -24.5t24.5 -57.5q0 -23 -8 -39l-125 -256h-52z" />
    <glyph glyph-name="periodtab" horiz-adv-x="409" 
d="M205 -14q-31 0 -56.5 24.5t-25.5 57.5q0 34 25 58t57 24q33 0 57.5 -23.5t24.5 -58.5q0 -33 -24.5 -57.5t-57.5 -24.5z" />
    <glyph glyph-name="zerotab" horiz-adv-x="1064" 
d="M530 -16q-198 0 -318 146.5t-120 377.5q0 232 121.5 377t316.5 145q196 0 318.5 -145t122.5 -377q0 -231 -121 -377.5t-320 -146.5zM530 57q164 0 260.5 122.5t96.5 328.5q0 208 -96 328t-261 120t-259.5 -119.5t-94.5 -328.5q0 -206 95 -328.5t259 -122.5z" />
    <glyph glyph-name="onetab" horiz-adv-x="1064" 
d="M492 72v870h-279v72h360v-942h285v-72h-678v72h312z" />
    <glyph glyph-name="twotab" horiz-adv-x="1064" 
d="M117 0v14l420 357q120 102 179.5 186t59.5 174q0 111 -64.5 168t-170.5 57q-215 0 -291 -231l-72 20q35 132 132.5 208.5t230.5 76.5q141 0 229 -79t88 -220q0 -104 -67 -200.5t-199 -206.5l-230 -193q-17 -15 -40 -30.5t-38 -24.5l-14 -8q62 6 101 6h520v-74h-774z" />
    <glyph glyph-name="threetab" horiz-adv-x="1064" 
d="M516 -211q-143 0 -257 67.5t-167 188.5l70 35q52 -104 142 -160.5t212 -56.5q142 0 238 89.5t96 246.5q0 154 -87.5 236.5t-248.5 82.5q-78 0 -162 -35l-12 17l356 389q11 13 25.5 27.5l23.5 23.5l9 8q-47 -6 -86 -6h-473v72h700v-8l-334 -367q-11 -13 -27.5 -26
t-27.5 -20l-10 -7q195 12 316.5 -95.5t121.5 -291.5q0 -126 -59 -221t-153 -142t-206 -47z" />
    <glyph glyph-name="fourtab" horiz-adv-x="1064" 
d="M805 139h158v-76h-158v-256h-82v256h-655v15l720 960h17v-899zM723 139v604l6 111q-36 -61 -63 -98l-410 -545q-14 -18 -31 -37t-27 -29l-10 -10q56 4 95 4h440z" />
    <glyph glyph-name="fivetab" horiz-adv-x="1064" 
d="M510 -211q-133 0 -233.5 54.5t-153.5 146.5l63 41q104 -168 324 -168q151 0 244.5 93.5t93.5 246.5q0 155 -86.5 244.5t-247.5 89.5q-101 0 -167 -30.5t-126 -82.5l-14 4v586h659v-72h-585v-397q102 65 239 65q183 0 297.5 -113t114.5 -294q0 -182 -121 -298t-301 -116z
" />
    <glyph glyph-name="sixtab" horiz-adv-x="1064" 
d="M537 -16q-181 0 -299.5 113.5t-118.5 291.5q0 72 30 142.5t87 158.5l370 559h90l-295 -446q-11 -16 -31.5 -41.5t-35.5 -42.5l-15 -17q102 95 228 95q175 0 290 -115.5t115 -292.5q0 -171 -117 -288t-298 -117zM535 57q147 0 241 93t94 239q0 154 -89 244t-244 90
q-149 0 -242.5 -97t-93.5 -237q0 -148 91 -240t243 -92z" />
    <glyph glyph-name="seventab" horiz-adv-x="1064" 
d="M260 -193l553 1135h-680v72h791v-15l-580 -1192h-84z" />
    <glyph glyph-name="eighttab" horiz-adv-x="1064" 
d="M391 700q-86 32 -136 100.5t-50 164.5q0 128 95 214.5t230 86.5q137 0 233.5 -86.5t96.5 -214.5q0 -96 -51.5 -164.5t-138.5 -100.5q127 -33 202.5 -123.5t75.5 -218.5q0 -164 -118.5 -269t-299.5 -105q-178 0 -296.5 105.5t-118.5 268.5q0 128 75 218.5t201 123.5z
M530 735q112 0 180 63.5t68 166.5q0 101 -68.5 165t-179.5 64q-112 0 -178.5 -64t-66.5 -165q0 -104 66 -167t179 -63zM530 59q152 0 243 82t91 217q0 137 -91 220.5t-243 83.5q-151 0 -241 -83.5t-90 -220.5t89.5 -218t241.5 -81z" />
    <glyph glyph-name="ninetab" horiz-adv-x="1064" 
d="M395 -193l273 406q11 16 30.5 41t33.5 42l13 17q-101 -94 -227 -94q-172 0 -288.5 117.5t-116.5 290.5q0 168 119 285.5t298 117.5q175 0 295.5 -116t120.5 -287q0 -72 -30 -142.5t-87 -158.5l-348 -519h-86zM528 293q150 0 243 97t93 237q0 147 -90.5 238t-241.5 91
q-149 0 -243 -91.5t-94 -237.5q0 -154 89 -244t244 -90z" />
    <glyph glyph-name="colontab" horiz-adv-x="409" 
d="M205 438q-31 0 -56.5 24.5t-25.5 57.5q0 34 25 59t57 25q33 0 57.5 -24.5t24.5 -59.5q0 -33 -24.5 -57.5t-57.5 -24.5zM205 -14q-31 0 -56.5 24.5t-25.5 57.5q0 34 25 59t57 25q33 0 57.5 -24.5t24.5 -59.5q0 -33 -24.5 -57.5t-57.5 -24.5z" />
    <glyph glyph-name="semicolontab" horiz-adv-x="409" 
d="M205 438q-31 0 -56.5 24.5t-25.5 57.5q0 34 25 59t57 25q33 0 57.5 -24.5t24.5 -59.5q0 -33 -24.5 -57.5t-57.5 -24.5zM102 -227l80 219q-26 6 -42.5 27t-16.5 49q0 33 25.5 57.5t56.5 24.5q33 0 57.5 -24.5t24.5 -57.5q0 -23 -8 -39l-125 -256h-52z" />
    <glyph glyph-name="lesstab" horiz-adv-x="1064" 
d="M819 174l-631 315v21l631 311v-80l-497 -243l497 -246v-78z" />
    <glyph glyph-name="equaltab" horiz-adv-x="1064" 
d="M188 580v73h689v-73h-689zM188 348v74h689v-74h-689z" />
    <glyph glyph-name="greatertab" horiz-adv-x="1064" 
d="M246 174v80l497 244l-497 245v78l631 -315v-21z" />
    <glyph glyph-name="bracketlefttab" horiz-adv-x="614" 
d="M180 -262v1741h344v-72h-262v-1597h262v-72h-344z" />
    <glyph glyph-name="bracketrighttab" horiz-adv-x="614" 
d="M90 -262v72h262v1597h-262v72h348v-1741h-348z" />
    <glyph glyph-name="bracelefttab" horiz-adv-x="614" 
d="M455 -262q-52 0 -92.5 12.5t-77.5 43t-57.5 91t-20.5 148.5v323q0 82 -30 114t-91 32h-82v71h82q61 0 91 32t30 114v465q0 88 20.5 148.5t57.5 91t77.5 43t92.5 12.5h69v-72h-67q-82 0 -125 -49t-43 -174v-471q0 -145 -107 -174q107 -25 107 -177v-329q0 -125 43 -174
t125 -49h67v-72h-69z" />
    <glyph glyph-name="bracerighttab" horiz-adv-x="614" 
d="M88 -262v72h68q82 0 125 49t43 174v329q0 152 106 177q-50 13 -78 53t-28 121v471q0 125 -43 174t-125 49h-68v72h70q52 0 92.5 -12.5t77.5 -43t57.5 -91t20.5 -148.5v-465q0 -82 29.5 -114t90.5 -32h82v-71h-82q-61 0 -90.5 -32t-29.5 -114v-323q0 -88 -20.5 -148.5
t-57.5 -91t-77.5 -43t-92.5 -12.5h-70z" />
    <glyph glyph-name="degreetab" horiz-adv-x="716" 
d="M358 602q-91 0 -154 62t-63 151q0 91 63 153t154 62q90 0 153.5 -62.5t63.5 -152.5q0 -89 -63.5 -151t-153.5 -62zM358 664q65 0 105.5 43t40.5 108q0 67 -40.5 110.5t-105.5 43.5t-106 -43.5t-41 -110.5q0 -65 41 -108t106 -43z" />
    <glyph glyph-name="centtab" horiz-adv-x="1064" 
d="M541 -14q-163 19 -270 142t-107 290q0 168 107.5 291.5t269.5 140.5v221h69v-217q188 -9 295 -141l-57 -47q-85 108 -238 116v-727q165 8 254 125l58 -47q-113 -140 -312 -149v-222h-69v224zM541 778q-132 -15 -212.5 -115.5t-80.5 -244.5q0 -142 80.5 -243t212.5 -118
v721z" />
    <glyph glyph-name="sterlingtab" horiz-adv-x="1064" 
d="M322 547h-193v67h164q-37 96 -56.5 169t-19.5 147q0 144 99 240t253 96q129 0 217 -61.5t132 -157.5l-66 -33q-49 92 -112 135t-171 43q-125 0 -196.5 -70.5t-71.5 -193.5q0 -117 74 -314h342v-67h-316q78 -207 78 -344v-4q2 -2 25.5 -22t28 -23.5t26 -20.5t29.5 -21.5
t27 -17t31 -16.5t30 -10.5t34.5 -8.5t34.5 -2q70 0 111.5 22t85.5 71l51 -52q-50 -59 -104 -86.5t-144 -27.5q-80 0 -145.5 35.5t-138.5 99.5q-27 -60 -85.5 -97.5t-131.5 -37.5q-84 0 -135.5 47.5t-51.5 120.5t51.5 119t135.5 46q79 0 164 -61q-11 106 -86 291zM406 170
q-95 84 -162 84q-53 0 -84 -27.5t-31 -74.5t31.5 -76t83.5 -29q60 0 105 34.5t57 88.5z" />
    <glyph glyph-name="sectiontab" horiz-adv-x="1064" 
d="M528 -211q-126 0 -221.5 60t-144.5 161l69 33q41 -85 116.5 -133.5t180.5 -48.5q106 0 169 54t63 142q0 76 -49.5 123.5t-159.5 91.5l-178 70q-140 55 -202 123t-62 172q0 72 40 129t115 92q-31 64 -31 133q0 121 86.5 198t219.5 77q116 0 193.5 -56t117.5 -149l-70 -31
q-36 78 -92 121t-149 43q-101 0 -162.5 -53t-61.5 -148q0 -81 41 -132t138 -91l196 -80q142 -57 203 -126.5t61 -164.5q0 -67 -42.5 -119t-114.5 -81q45 -61 45 -142q0 -119 -83 -193.5t-231 -74.5zM754 248q120 44 120 147q0 75 -44 122t-166 97l-197 80q-111 46 -170 115
q-107 -51 -107 -168q0 -81 44.5 -129t162.5 -94l178 -70q115 -45 179 -100z" />
    <glyph glyph-name="yentab" horiz-adv-x="1064" 
d="M489 319l-98 173h-285v67h246l-260 455h92l310 -551q12 -21 22 -47t14 -42l5 -16q13 58 40 105l308 551h88l-260 -455h245v-67h-284l-99 -173h383v-67h-383v-252h-84v252h-383v67h383z" />
    <glyph glyph-name="florintab" horiz-adv-x="1064" 
d="M406 436h-209v68h215l53 467q17 147 87.5 221t172.5 74q160 0 231 -142l-61 -37q-29 53 -65 80t-103 27q-157 0 -182 -225l-53 -465h286v-68h-295l-96 -870h-80z" />
    <glyph glyph-name="dividetab" horiz-adv-x="1064" 
d="M530 727q-30 0 -53.5 23t-23.5 55q0 33 23.5 55.5t53.5 22.5q31 0 54.5 -22.5t23.5 -55.5q0 -32 -23.5 -55t-54.5 -23zM186 465v74h691v-74h-691zM530 121q-30 0 -53.5 23t-23.5 55q0 33 23.5 55t53.5 22q32 0 55 -22t23 -55q0 -32 -23.5 -55t-54.5 -23z" />
    <glyph glyph-name="Eurotab" horiz-adv-x="1064" 
d="M178 588v0v0v0h-1v0h-1v0h-1h-1h-1h-1h-1h-1h-1h-1h-1h-1h-1h-1h-1h-1h-1h-1h-1h-1h-1h-1h-1h-1h-1h-1h-1h-1h-1h-1h-2h-1h-1h-1h-1h-1h-2h-1h-1h-1h-2h-1h-1h-1h-2h-1h-1h-2h-1h-2h-1h-1h-2h-1h-2h-1h-2h-1h-1h-2h-1h-2h-1h-2h-2h-1h-2h-1h-2h-1h-2h-2h-1h-2h-1h-2h-2
h-1h-2h-2h-1h-2h-2h-2h-1h-2h-2h-1h-2h-2h-2h-2h-1h-2h-2h-2h-2h-9v67v0v0h1v0h1h1v0h1h1h1h1h1h1h1h1h1h1h1h1h1h1h1h1h1h1h1h1h1h1h1h1h1h1h1h1h1h2h1h1h1h1h1h2h1h1h1h2h1h1h1h2h1h1h2h1h2h1h1h2h1h2h1h1h2h1h2h1h2h1h2h1h2h1h2h2h1h2h1h2h2h1h2h1h2h2h1h2h2h2h1h2h2h1h2
h2h2h1h2h2h2h2h1h2h2h2h2h2h2h1h9q43 169 164.5 272t278.5 103q252 0 377 -199l-66 -40q-57 91 -124.5 128t-186.5 37q-125 0 -221 -82t-133 -219h471v-67h-484q-6 -41 -6 -82q0 -45 6 -86h484v-68h-469q38 -134 134.5 -214.5t217.5 -80.5q84 0 144.5 22t98 58t74.5 96
l68 -40q-123 -209 -385 -209q-152 0 -274 101.5t-166 266.5h-156v68h143q-6 43 -6 86q0 28 4 82z" />
    <glyph glyph-name="perthousandtab" horiz-adv-x="2252" 
d="M397 449q-119 0 -206 82.5t-87 207.5q0 123 87.5 207t205.5 84q117 0 204 -84t87 -207q0 -124 -87 -207t-204 -83zM428 0l631 1014h82l-631 -1014h-82zM1855 -16q-118 0 -204 82.5t-86 207.5q0 124 86 207.5t204 83.5t204.5 -83.5t86.5 -207.5q0 -125 -86.5 -207.5
t-204.5 -82.5zM1171 -16q-118 0 -204 82.5t-86 207.5q0 124 86 207.5t204 83.5t204.5 -83.5t86.5 -207.5q0 -125 -86.5 -207.5t-204.5 -82.5zM397 516q91 0 153 62.5t62 160.5t-62 160t-153 62t-154 -62t-63 -160t63 -160.5t154 -62.5zM1855 51q91 0 153.5 62.5t62.5 160.5
q0 97 -62.5 159.5t-153.5 62.5t-153 -62.5t-62 -159.5q0 -98 62 -160.5t153 -62.5zM1171 51q91 0 153 62.5t62 160.5q0 97 -62 159.5t-153 62.5t-153 -62.5t-62 -159.5q0 -98 62 -160.5t153 -62.5z" />
    <glyph glyph-name="minustablining" horiz-adv-x="1187" 
d="M227 629v73h731v-73h-731z" />
    <glyph glyph-name="multiplytablining" horiz-adv-x="1187" 
d="M594 612l-266 -266l-54 53l267 267l-267 266l54 53l266 -266l266 266l53 -53l-266 -266l266 -267l-53 -53z" />
    <glyph glyph-name="spacetablining" horiz-adv-x="409" 
 />
    <glyph glyph-name="numbersigntablining" horiz-adv-x="1187" 
d="M426 1087h-205v70h221l60 236h73l-59 -236h248l59 236h74l-59 -236h190v-70h-209l-67 -274h204v-70h-221l-57 -227h-76l57 227h-245l-58 -227h-73l57 227h-188v70h204zM748 1087h-250l-68 -274h248z" />
    <glyph glyph-name="dollartablining" horiz-adv-x="1187" 
d="M530 -14q-152 11 -255.5 86.5t-159.5 189.5l69 35q59 -107 139 -168.5t207 -71.5v672l-16 8q-166 80 -242.5 162t-76.5 211q0 132 96.5 212.5t238.5 86.5v174h80v-178q197 -21 308 -193l-66 -43q-42 70 -98 112t-144 52v-557l56 -26q186 -90 267 -181.5t81 -232.5
q0 -154 -109 -249.5t-295 -102.5v-222h-80v224zM530 1337q-117 -6 -186.5 -65.5t-69.5 -159.5q0 -101 59 -164.5t197 -132.5v522zM610 55q153 7 238.5 82t85.5 199q0 117 -69.5 191.5t-231.5 152.5l-23 10v-635z" />
    <glyph glyph-name="percenttablining" horiz-adv-x="1638" 
d="M436 754q-132 0 -229.5 94t-97.5 233q0 140 97.5 234t229.5 94t230 -94.5t98 -233.5t-98 -233t-230 -94zM338 0l879 1393h86l-879 -1393h-86zM1204 -16q-132 0 -229.5 94t-97.5 233q0 140 97.5 234t229.5 94t229 -94t97 -234t-97 -233.5t-229 -93.5zM436 825
q103 0 175.5 72t72.5 184t-72.5 184t-175.5 72q-105 0 -176.5 -72t-71.5 -184t71.5 -184t176.5 -72zM1204 55q103 0 175.5 72t72.5 184q0 113 -72 184.5t-176 71.5q-105 0 -177.5 -71.5t-72.5 -184.5q0 -112 72.5 -184t177.5 -72z" />
    <glyph glyph-name="parenlefttablining" horiz-adv-x="614" 
d="M461 -279q-338 358 -338 875q0 516 338 874l53 -47q-307 -350 -307 -827t307 -827z" />
    <glyph glyph-name="parenrighttablining" horiz-adv-x="614" 
d="M152 -279l-54 48q305 347 305 827t-305 827l54 47q337 -361 337 -874q0 -514 -337 -875z" />
    <glyph glyph-name="plustablining" horiz-adv-x="1187" 
d="M633 629v-353h-78v353h-328v73h328v353h78v-353h328v-73h-328z" />
    <glyph glyph-name="commatablining" horiz-adv-x="409" 
d="M102 -227l80 219q-26 6 -42.5 27t-16.5 49q0 33 25.5 57.5t56.5 24.5q33 0 57.5 -24.5t24.5 -57.5q0 -23 -8 -39l-125 -256h-52z" />
    <glyph glyph-name="periodtablining" horiz-adv-x="409" 
d="M205 -14q-31 0 -56.5 24.5t-25.5 57.5q0 34 25 58t57 24q33 0 57.5 -23.5t24.5 -58.5q0 -33 -24.5 -57.5t-57.5 -24.5z" />
    <glyph glyph-name="zerotablining" horiz-adv-x="1187" 
d="M594 -16q-151 0 -262 90.5t-168.5 251t-57.5 370.5t57.5 370.5t168.5 251.5t262 91t262 -91t168 -251.5t57 -370.5t-57 -370.5t-168 -251t-262 -90.5zM594 59q129 0 220.5 80.5t136 222.5t44.5 334t-44.5 334t-136 222.5t-220.5 80.5t-220.5 -80.5t-136 -222.5
t-44.5 -334t44.5 -334t136 -222.5t220.5 -80.5z" />
    <glyph glyph-name="onetablining" horiz-adv-x="1187" 
d="M610 0v1319h-338v74h422v-1393h-84z" />
    <glyph glyph-name="twotablining" horiz-adv-x="1187" 
d="M123 0v8l571 610q100 107 153.5 206t53.5 214q0 133 -79 214t-216 81q-130 0 -222 -76.5t-120 -222.5l-78 15q26 159 138 259.5t282 100.5t274.5 -102.5t104.5 -268.5q0 -126 -65 -240t-177 -235l-372 -397q-20 -22 -47.5 -47t-44.5 -39l-17 -14q76 8 133 8h604v-74h-876
z" />
    <glyph glyph-name="threetablining" horiz-adv-x="1187" 
d="M561 -16q-156 0 -274.5 71.5t-180.5 186.5l68 37q122 -220 385 -220q187 0 294.5 111.5t107.5 286.5q0 173 -107.5 279t-294.5 106q-87 0 -158 -27l-6 10l387 428q14 16 34 35t33 30l13 11q-64 -10 -117 -10h-538v74h788v-9l-364 -403q-17 -19 -36.5 -37.5t-30.5 -27.5
l-11 -9q223 7 357 -121.5t134 -328.5q0 -206 -133 -339.5t-350 -133.5z" />
    <glyph glyph-name="fourtablining" horiz-adv-x="1187" 
d="M905 358h156v-73h-156v-285h-84v285h-741v8l817 1134h8v-1069zM821 358v711l6 158q-41 -78 -82 -137l-448 -629q-16 -22 -39 -49t-38 -44l-15 -16q76 6 133 6h483z" />
    <glyph glyph-name="fivetablining" horiz-adv-x="1187" 
d="M569 -16q-147 0 -265.5 64t-180.5 177l70 39q114 -205 376 -205q173 0 277 116t104 290q0 175 -105.5 291t-285.5 116q-193 0 -315 -112l-8 6v627h700v-74h-625v-440q112 67 252 67q209 0 341 -137.5t132 -343.5q0 -207 -131 -344t-336 -137z" />
    <glyph glyph-name="sixtablining" horiz-adv-x="1187" 
d="M594 -16q-201 0 -332 132.5t-131 325.5q0 158 107 308l456 643h92l-342 -478l-84 -104q120 92 244 92q129 0 233.5 -62t162 -167.5t57.5 -231.5q0 -193 -131 -325.5t-332 -132.5zM594 59q169 0 274 111.5t105 271.5q0 105 -44.5 192.5t-132.5 141t-202 53.5
q-169 0 -274 -111.5t-105 -275.5q0 -160 105 -271.5t274 -111.5z" />
    <glyph glyph-name="seventablining" horiz-adv-x="1187" 
d="M283 0l649 1319h-791v74h910v-9l-680 -1384h-88z" />
    <glyph glyph-name="eighttablining" horiz-adv-x="1187" 
d="M442 780q-103 35 -162 112.5t-59 188.5q0 141 104.5 234.5t266.5 93.5q163 0 269 -94t106 -234q0 -111 -60 -188.5t-164 -112.5q152 -34 239 -133t87 -246q0 -183 -133.5 -300t-343.5 -117q-207 0 -341 117t-134 300q0 147 87 246t238 133zM592 813q135 0 214 73.5
t79 192.5q0 112 -80 185t-213 73q-132 0 -210.5 -73t-78.5 -185q0 -119 78 -192.5t211 -73.5zM592 59q179 0 285 95t106 247q0 153 -106 247.5t-285 94.5q-177 0 -284 -95t-107 -247t107 -247t284 -95z" />
    <glyph glyph-name="ninetablining" horiz-adv-x="1187" 
d="M436 0l326 479l67 86q-119 -92 -247 -92q-131 0 -237.5 63.5t-165 170.5t-58.5 235q0 196 133.5 331.5t337.5 135.5q206 0 339.5 -135t133.5 -332q0 -83 -28 -156.5t-83 -156.5l-426 -629h-92zM592 547q174 0 281.5 114t107.5 281q0 164 -106 277.5t-283 113.5
q-116 0 -205.5 -54t-135.5 -142.5t-46 -194.5q0 -107 44.5 -196t134 -144t208.5 -55z" />
    <glyph glyph-name="colontablining" horiz-adv-x="409" 
d="M205 438q-31 0 -56.5 24.5t-25.5 57.5q0 34 25 59t57 25q33 0 57.5 -24.5t24.5 -59.5q0 -33 -24.5 -57.5t-57.5 -24.5zM205 -14q-31 0 -56.5 24.5t-25.5 57.5q0 34 25 59t57 25q33 0 57.5 -24.5t24.5 -59.5q0 -33 -24.5 -57.5t-57.5 -24.5z" />
    </font>
</defs>
</svg>
