<?xml version="1.0" standalone="no"?>
<!DOCTYPE svg PUBLIC "-//W3C//DTD SVG 1.1//EN" "http://www.w3.org/Graphics/SVG/1.1/DTD/svg11.dtd" >
<svg xmlns="http://www.w3.org/2000/svg" xmlns:xlink="http://www.w3.org/1999/xlink" version="1.1">
<metadata>
Created by FontForge 20170731 at Wed Jul  6 11:10:17 2022
 By Aleksey,,,
(C)2004 House Industries/Brand Design Co., Inc. All Rights Reserved.
</metadata>
<defs>
<font id="NeutrafaceText-Book" horiz-adv-x="409" >
  <font-face 
    font-family="Neutraface Text Book"
    font-weight="400"
    font-stretch="normal"
    units-per-em="2048"
    panose-1="2 0 6 0 3 0 0 2 0 4"
    ascent="1597"
    descent="-451"
    x-height="848"
    cap-height="1393"
    bbox="-117 -526 2404 1978"
    underline-thickness="40"
    underline-position="-312"
    unicode-range="U+000D-FB04"
  />
<missing-glyph horiz-adv-x="485" 
 />
    <glyph glyph-name="ff" unicode="ff" horiz-adv-x="1171" 
d="M207 0v727h-137v121h137v344q0 137 62.5 204.5t170.5 67.5q139 0 209 -90l-92 -90q-41 51 -102 51q-50 0 -77.5 -32.5t-27.5 -110.5v-344h381v385q0 137 63.5 204.5t172.5 67.5q144 0 215 -104l-95 -84q-24 31 -46.5 45t-61.5 14q-105 0 -105 -143v-385h228v-121h-228
v-727h-143v727h-381v-727h-143z" />
    <glyph glyph-name="fi" unicode="fi" horiz-adv-x="1030" 
d="M803 1094q-41 0 -72 28.5t-31 71.5t31 72.5t72 29.5t71.5 -29.5t30.5 -72.5t-30.5 -71.5t-71.5 -28.5zM207 0v727h-137v121h137v385q0 137 63.5 204.5t173.5 67.5q132 0 205 -92l-90 -86q-24 25 -46.5 37t-57.5 12q-50 0 -77.5 -32.5t-27.5 -110.5v-385h524v-848h-143
v727h-381v-727h-143z" />
    <glyph glyph-name="fl" unicode="fl" horiz-adv-x="1038" 
d="M207 0v727h-137v121h137v311q0 110 48 190.5t123 118t165 37.5q141 0 236 -86.5t95 -251.5v-1167h-143v1157q0 112 -50 165.5t-138 53.5q-89 0 -141 -54t-52 -165v-309h217v-121h-217v-727h-143z" />
    <glyph glyph-name="ffi" unicode="ffi" horiz-adv-x="1554" 
d="M1327 1094q-41 0 -71.5 28.5t-30.5 71.5t30.5 72.5t71.5 29.5t72 -29.5t31 -72.5t-31 -71.5t-72 -28.5zM207 0v727h-137v121h137v344q0 137 62.5 204.5t170.5 67.5q139 0 209 -90l-92 -90q-41 51 -102 51q-50 0 -77.5 -32.5t-27.5 -110.5v-344h381v385q0 137 63.5 204.5
t174.5 67.5q132 0 205 -92l-91 -86q-24 25 -46.5 37t-57.5 12q-50 0 -77.5 -32.5t-27.5 -110.5v-385h525v-848h-144v727h-381v-727h-143v727h-381v-727h-143z" />
    <glyph glyph-name="ffl" unicode="ffl" horiz-adv-x="1562" 
d="M207 0v727h-137v121h137v344q0 137 62.5 204.5t170.5 67.5q139 0 209 -90l-92 -90q-41 51 -102 51q-50 0 -77.5 -32.5t-27.5 -110.5v-344h381v311q0 110 48 190.5t123 118t165 37.5q141 0 236.5 -86.5t95.5 -251.5v-1167h-144v1157q0 112 -50 165.5t-138 53.5
q-89 0 -141 -54t-52 -165v-309h218v-121h-218v-727h-143v727h-381v-727h-143z" />
    <glyph glyph-name="fj" unicode="fj" horiz-adv-x="1030" 
d="M803 1094q-41 0 -72 28.5t-31 71.5t31 72.5t72 29.5t71.5 -29.5t30.5 -72.5t-30.5 -71.5t-71.5 -28.5zM647 -455q-112 0 -188 84l80 86q18 -16 28 -24t29 -15.5t41 -7.5q94 0 94 129v930h-381v-727h-143v727h-137v121h137v385q0 137 63.5 204.5t173.5 67.5q132 0 205 -92
l-90 -86q-24 25 -46.5 37t-57.5 12q-50 0 -77.5 -32.5t-27.5 -110.5v-385h524v-1049q0 -123 -61.5 -188.5t-165.5 -65.5z" />
    <glyph glyph-name="ft" unicode="ft" horiz-adv-x="1218" 
d="M958 -18q-104 0 -165.5 65.5t-61.5 208.5v471h-381v-727h-143v727h-137v121h137v385q0 137 63.5 204.5t173.5 67.5q132 0 205 -92l-90 -86q-24 25 -46.5 37t-57.5 12q-50 0 -77.5 -32.5t-27.5 -110.5v-385h381v442h141v-442h236v-121h-236v-473q0 -81 26 -114.5t75 -33.5
q27 0 49.5 8t35 17t29.5 25l78 -90q-80 -84 -207 -84z" />
    <glyph glyph-name="fb" unicode="fb" horiz-adv-x="1708" 
d="M1202 -16q-113 0 -201.5 54t-130.5 144l4 -182h-143v1157q0 112 -50 165.5t-138 53.5q-89 0 -141 -54t-52 -165v-309h217v-121h-217v-727h-143v727h-137v121h137v311q0 110 48 190.5t123 118t165 37.5q141 0 236 -86.5t95 -251.5v-493q46 89 130 140.5t200 51.5
q172 0 289 -126t117 -314q0 -189 -117.5 -315.5t-290.5 -126.5zM1169 109q132 0 211.5 88.5t79.5 228.5q0 138 -79.5 225.5t-211.5 87.5q-135 0 -218 -87.5t-83 -225.5q0 -139 83 -228t218 -89z" />
    <glyph glyph-name="fh" unicode="fh" horiz-adv-x="1636" 
d="M207 0v727h-137v121h137v311q0 110 48 190.5t123 118t165 37.5q141 0 236 -86.5t95 -251.5v-485q42 86 121.5 135t182.5 49q142 0 228.5 -93.5t86.5 -256.5v-516h-141v500q0 114 -53 174.5t-158 60.5q-121 0 -194 -71.5t-73 -196.5v-467h-143v1157q0 112 -50 165.5
t-138 53.5q-89 0 -141 -54t-52 -165v-309h217v-121h-217v-727h-143z" />
    <glyph glyph-name="fk" unicode="fk" horiz-adv-x="1529" 
d="M874 258v-258h-143v1157q0 112 -50 165.5t-138 53.5q-89 0 -141 -54t-52 -165v-309h217v-121h-217v-727h-143v727h-137v121h137v311q0 110 48 190.5t123 118t165 37.5q141 0 236 -86.5t95 -251.5v-637q0 -52 -8 -118l402 436h166l-326 -356l377 -492h-170l-307 397z" />
    <glyph glyph-name="fff" unicode="fff" horiz-adv-x="1697" 
d="M1255 727h-381v-727h-143v727h-381v-727h-143v727h-137v121h137v344q0 137 62.5 204.5t170.5 67.5q139 0 209 -90l-92 -90q-41 51 -102 51q-50 0 -77.5 -32.5t-27.5 -110.5v-344h381v364q0 137 63 205t171 68q139 0 209 -90l-93 -90q-41 51 -102 51q-105 0 -105 -144
v-364h381v385q0 137 63.5 204.5t172.5 67.5q144 0 215 -104l-94 -84q-23 30 -46.5 44.5t-62.5 14.5q-104 0 -104 -143v-385h227v-121h-227v-727h-144v727z" />
    <glyph glyph-name="ffj" unicode="ffj" horiz-adv-x="1554" 
d="M1327 1094q-41 0 -71.5 28.5t-30.5 71.5t30.5 72.5t71.5 29.5t72 -29.5t31 -72.5t-31 -71.5t-72 -28.5zM1171 -455q-112 0 -188 84l80 86q18 -16 28 -24t29 -15.5t41 -7.5q94 0 94 129v930h-381v-727h-143v727h-381v-727h-143v727h-137v121h137v344q0 137 62.5 204.5
t170.5 67.5q139 0 209 -90l-92 -90q-41 51 -102 51q-50 0 -77.5 -32.5t-27.5 -110.5v-344h381v385q0 137 63.5 204.5t174.5 67.5q132 0 205 -92l-91 -86q-24 25 -46.5 37t-57.5 12q-50 0 -77.5 -32.5t-27.5 -110.5v-385h525v-1049q0 -123 -62 -188.5t-166 -65.5z" />
    <glyph glyph-name="fft" unicode="fft" horiz-adv-x="1742" 
d="M1483 -18q-104 0 -166 65.5t-62 208.5v471h-381v-727h-143v727h-381v-727h-143v727h-137v121h137v344q0 137 62.5 204.5t170.5 67.5q139 0 209 -90l-92 -90q-41 51 -102 51q-50 0 -77.5 -32.5t-27.5 -110.5v-344h381v385q0 137 63.5 204.5t174.5 67.5q132 0 205 -92
l-91 -86q-24 25 -46.5 37t-57.5 12q-50 0 -77.5 -32.5t-27.5 -110.5v-385h381v442h142v-442h237v-121h-237v-473q0 -81 25.5 -114.5t74.5 -33.5q61 0 115 50l78 -90q-80 -84 -207 -84z" />
    <glyph glyph-name="ffb" unicode="ffb" horiz-adv-x="2232" 
d="M874 848h218v-121h-218v-727h-143v727h-381v-727h-143v727h-137v121h137v344q0 137 62.5 204.5t170.5 67.5q139 0 209 -90l-92 -90q-41 51 -102 51q-50 0 -77.5 -32.5t-27.5 -110.5v-344h381v311q0 110 48 190.5t123 118t165 37.5q141 0 236.5 -86.5t95.5 -251.5v-493
q46 89 130 140.5t200 51.5q172 0 288.5 -126t116.5 -314q0 -190 -117 -316t-291 -126q-113 0 -201 54t-130 144l4 -182h-144v1157q0 112 -50 165.5t-138 53.5q-89 0 -141 -54t-52 -165v-309zM1694 109q132 0 211.5 88.5t79.5 228.5q0 138 -79.5 225.5t-211.5 87.5
q-135 0 -218 -87.5t-83 -225.5q0 -139 83 -228t218 -89z" />
    <glyph glyph-name="ffh" unicode="ffh" horiz-adv-x="2160" 
d="M731 848v311q0 110 48 190.5t123 118t165 37.5q141 0 236.5 -86.5t95.5 -251.5v-485q42 86 121 135t182 49q142 0 228.5 -93.5t86.5 -256.5v-516h-141v500q0 114 -53 174.5t-158 60.5q-120 0 -193 -72t-73 -196v-467h-144v1157q0 112 -50 165.5t-138 53.5q-89 0 -141 -54
t-52 -165v-309h218v-121h-218v-727h-143v727h-381v-727h-143v727h-137v121h137v344q0 137 62.5 204.5t170.5 67.5q139 0 209 -90l-92 -90q-41 51 -102 51q-50 0 -77.5 -32.5t-27.5 -110.5v-344h381z" />
    <glyph glyph-name="ffk" unicode="ffk" horiz-adv-x="2054" 
d="M731 848v311q0 110 48 190.5t123 118t165 37.5q141 0 236.5 -86.5t95.5 -251.5v-637q0 -52 -8 -118l401 436h166l-326 -356l377 -492h-170l-307 397l-133 -139v-258h-144v1157q0 112 -50 165.5t-138 53.5q-89 0 -141 -54t-52 -165v-309h218v-121h-218v-727h-143v727h-381
v-727h-143v727h-137v121h137v344q0 137 62.5 204.5t170.5 67.5q139 0 209 -90l-92 -90q-41 51 -102 51q-50 0 -77.5 -32.5t-27.5 -110.5v-344h381z" />
    <glyph glyph-name="fiacute" unicode="f&#xed;" horiz-adv-x="1030" 
d="M743 1020l138 395h166l-191 -395h-113zM207 0v727h-137v121h137v385q0 137 63.5 204.5t173.5 67.5q132 0 205 -92l-90 -86q-24 25 -46.5 37t-57.5 12q-50 0 -77.5 -32.5t-27.5 -110.5v-385h524v-848h-143v727h-381v-727h-143z" />
    <glyph glyph-name="ficircumflex" unicode="f&#xee;" horiz-adv-x="1030" 
d="M530 1016l261 395h20l262 -395h-121l-149 209l-154 -209h-119zM207 0v727h-137v121h137v385q0 137 63.5 204.5t173.5 67.5q132 0 205 -92l-90 -86q-24 25 -46.5 37t-57.5 12q-50 0 -77.5 -32.5t-27.5 -110.5v-385h524v-848h-143v727h-381v-727h-143z" />
    <glyph glyph-name="fidieresis" unicode="f&#xef;" horiz-adv-x="1030" 
d="M977 1040q-37 0 -64.5 27.5t-27.5 65.5t27.5 65t64.5 27t64.5 -27t27.5 -65t-27.5 -65.5t-64.5 -27.5zM645 1040q-36 0 -64 27.5t-28 65.5t28 65t64 27q37 0 65.5 -27t28.5 -65t-28.5 -65.5t-65.5 -27.5zM207 0v727h-137v121h137v385q0 137 63.5 204.5t173.5 67.5
q132 0 205 -92l-90 -86q-24 25 -46.5 37t-57.5 12q-50 0 -77.5 -32.5t-27.5 -110.5v-385h524v-848h-143v727h-381v-727h-143z" />
    <glyph glyph-name="ffiacute" unicode="ff&#xed;" horiz-adv-x="1554" 
d="M1268 1020l137 395h166l-191 -395h-112zM207 0v727h-137v121h137v344q0 137 62.5 204.5t170.5 67.5q139 0 209 -90l-92 -90q-41 51 -102 51q-50 0 -77.5 -32.5t-27.5 -110.5v-344h381v385q0 137 63.5 204.5t174.5 67.5q132 0 205 -92l-91 -86q-24 25 -46.5 37t-57.5 12
q-50 0 -77.5 -32.5t-27.5 -110.5v-385h525v-848h-144v727h-381v-727h-143v727h-381v-727h-143z" />
    <glyph glyph-name="fficircumflex" unicode="ff&#xee;" horiz-adv-x="1554" 
d="M1055 1016l260 395h20l262 -395h-120l-150 209l-153 -209h-119zM207 0v727h-137v121h137v344q0 137 62.5 204.5t170.5 67.5q139 0 209 -90l-92 -90q-41 51 -102 51q-50 0 -77.5 -32.5t-27.5 -110.5v-344h381v385q0 137 63.5 204.5t174.5 67.5q132 0 205 -92l-91 -86
q-24 25 -46.5 37t-57.5 12q-50 0 -77.5 -32.5t-27.5 -110.5v-385h525v-848h-144v727h-381v-727h-143v727h-381v-727h-143z" />
    <glyph glyph-name="ffidieresis" unicode="ff&#xef;" horiz-adv-x="1554" 
d="M1501 1040q-37 0 -64.5 27.5t-27.5 65.5t27.5 65t64.5 27t64.5 -27t27.5 -65t-27.5 -65.5t-64.5 -27.5zM1169 1040q-36 0 -64 27.5t-28 65.5t28 65t64 27q37 0 66 -27t29 -65t-29 -65.5t-66 -27.5zM207 0v727h-137v121h137v344q0 137 62.5 204.5t170.5 67.5
q139 0 209 -90l-92 -90q-41 51 -102 51q-50 0 -77.5 -32.5t-27.5 -110.5v-344h381v385q0 137 63.5 204.5t174.5 67.5q132 0 205 -92l-91 -86q-24 25 -46.5 37t-57.5 12q-50 0 -77.5 -32.5t-27.5 -110.5v-385h525v-848h-144v727h-381v-727h-143v727h-381v-727h-143z" />
    <glyph glyph-name="tt" unicode="tt" horiz-adv-x="1286" 
d="M428 -18q-104 0 -165.5 65.5t-61.5 208.5v471h-131v121h131v442h141v-442h457v442h141v-442h238v-121h-238v-473q0 -81 25.5 -114.5t74.5 -33.5q61 0 115 50l78 -90q-80 -84 -207 -84q-104 0 -165.5 65.5t-61.5 208.5v471h-457v-473q0 -81 25.5 -114.5t74.5 -33.5
q61 0 115 50l78 -90q-80 -84 -207 -84z" />
    <glyph glyph-name="fffi" unicode="fffi" horiz-adv-x="2078" 
d="M1851 1094q-41 0 -71.5 28.5t-30.5 71.5t30.5 72.5t71.5 29.5t72 -29.5t31 -72.5t-31 -71.5t-72 -28.5zM731 727h-381v-727h-143v727h-137v121h137v344q0 137 62.5 204.5t170.5 67.5q139 0 209 -90l-92 -90q-41 51 -102 51q-50 0 -77.5 -32.5t-27.5 -110.5v-344h381v364
q0 137 63 205t171 68q139 0 209 -90l-93 -90q-41 51 -102 51q-105 0 -105 -144v-364h381v385q0 137 63.5 204.5t174.5 67.5q132 0 205 -92l-90 -86q-46 49 -105 49q-50 0 -77 -32.5t-27 -110.5v-385h524v-848h-143v727h-381v-727h-144v727h-381v-727h-143v727z" />
    <glyph glyph-name="fffl" unicode="fffl" horiz-adv-x="2086" 
d="M731 727h-381v-727h-143v727h-137v121h137v344q0 137 62.5 204.5t170.5 67.5q139 0 209 -90l-92 -90q-41 51 -102 51q-50 0 -77.5 -32.5t-27.5 -110.5v-344h381v364q0 137 63 205t171 68q139 0 209 -90l-93 -90q-41 51 -102 51q-105 0 -105 -144v-364h381v311
q0 110 48 190.5t123 118t165 37.5q91 0 164.5 -35t120.5 -113t47 -190v-1167h-143v1157q0 111 -50 165t-139 54t-140.5 -54t-51.5 -165v-309h217v-121h-217v-727h-144v727h-381v-727h-143v727z" />
    <glyph glyph-name=".notdef" horiz-adv-x="485" 
 />
    <glyph glyph-name=".null" horiz-adv-x="0" 
 />
    <glyph glyph-name="nonmarkingreturn" horiz-adv-x="682" 
 />
    <glyph glyph-name="CR" unicode="&#xd;" horiz-adv-x="485" 
 />
    <glyph glyph-name="space" unicode=" " horiz-adv-x="485" 
 />
    <glyph glyph-name="exclam" unicode="!" horiz-adv-x="499" 
d="M195 389l-25 1004h160l-25 -1004h-110zM250 -14q-44 0 -76.5 31.5t-32.5 76.5q0 46 32.5 78.5t76.5 32.5t76 -32.5t32 -78.5q0 -45 -32.5 -76.5t-75.5 -31.5z" />
    <glyph glyph-name="quotedbl" unicode="&#x22;" horiz-adv-x="579" 
d="M365 963l-19 430h152l-17 -430h-116zM98 963l-16 430h151l-16 -430h-119z" />
    <glyph glyph-name="numbersign" unicode="#" horiz-adv-x="944" 
d="M139 360l58 222h-138v114h164l56 222h-148v114h176l55 223h119l-55 -223h203l57 223h119l-55 -223h135v-114h-164l-55 -222h145v-114h-176l-53 -222h-121l55 222h-203l-53 -222h-121zM342 696h205l55 222h-203z" />
    <glyph glyph-name="dollar" unicode="$" horiz-adv-x="892" 
d="M391 -12q-128 13 -221 77t-133 148l110 59q80 -146 244 -170v383q-153 42 -226 112t-73 183q0 109 82 183.5t217 83.5v217h105v-220q96 -14 167.5 -63.5t108.5 -114.5l-102 -65q-61 106 -174 129v-340l12 -4q164 -48 241.5 -122t77.5 -190q0 -127 -86 -203t-245 -85v-230
h-105v232zM391 934q-78 -8 -121 -45.5t-43 -102.5q0 -64 36.5 -99.5t127.5 -63.5v311zM496 100q96 7 145 50.5t49 113.5q0 74 -42.5 115.5t-151.5 73.5v-353z" />
    <glyph glyph-name="percent" unicode="%" horiz-adv-x="1568" 
d="M365 446q-126 0 -217 86.5t-91 215.5q0 128 91.5 214.5t216.5 86.5q124 0 214.5 -86.5t90.5 -214.5q0 -129 -90.5 -215.5t-214.5 -86.5zM391 0l645 1032h144l-645 -1032h-144zM1206 -16q-125 0 -215 85.5t-90 213.5t90 214.5t215 86.5t215 -86.5t90 -214.5t-90 -213.5
t-215 -85.5zM365 559q75 0 127.5 53t52.5 136q0 84 -52 136t-128 52t-129.5 -52t-53.5 -136q0 -83 53.5 -136t129.5 -53zM1206 94q75 0 127.5 53t52.5 136t-52.5 135.5t-127.5 52.5t-127.5 -52.5t-52.5 -135.5t52.5 -136t127.5 -53z" />
    <glyph glyph-name="ampersand" unicode="&#x26;" horiz-adv-x="1339" 
d="M647 788l307 -372q60 145 60 338h141q0 -261 -104 -455l245 -299h-178l-149 180q-85 -95 -197.5 -145.5t-241.5 -50.5q-202 0 -322 103t-120 275q0 67 18.5 125t48 101t79 85t96.5 72t116 68l-24 31q-113 140 -113 278q0 124 82.5 205.5t216.5 81.5q132 0 213.5 -81
t81.5 -204q0 -101 -66 -182.5t-190 -153.5zM571 881q97 57 147 114t50 129q0 73 -44 117.5t-114 44.5q-72 0 -115.5 -43.5t-43.5 -118.5q0 -99 81 -196zM881 287l-361 436q-68 -37 -114.5 -69.5t-86 -75t-58.5 -93.5t-19 -114q0 -120 76 -188t212 -68q220 0 351 172z" />
    <glyph glyph-name="quotesingle" unicode="'" horiz-adv-x="315" 
d="M98 963l-16 430h151l-16 -430h-119z" />
    <glyph glyph-name="parenleft" unicode="(" horiz-adv-x="589" 
d="M442 -279q-352 360 -352 875q0 514 352 874l90 -73q-135 -157 -213.5 -350.5t-78.5 -450.5t78.5 -450.5t213.5 -350.5z" />
    <glyph glyph-name="parenright" unicode=")" horiz-adv-x="589" 
d="M145 -279l-88 74q135 157 213 350.5t78 450.5t-78 450.5t-213 350.5l88 73q355 -363 355 -874q0 -512 -355 -875z" />
    <glyph glyph-name="asterisk" unicode="*" horiz-adv-x="806" 
d="M338 768l31 256l-201 -150l-64 111l240 96l-240 97l64 110l201 -147l-31 252h129l-31 -252l203 147l63 -110l-241 -97l239 -96l-61 -111l-203 150l31 -256h-129z" />
    <glyph glyph-name="plus" unicode="+" horiz-adv-x="763" 
d="M315 197v256h-235v127h235v256h131v-256h238v-127h-238v-256h-131z" />
    <glyph glyph-name="comma" unicode="," horiz-adv-x="413" 
d="M90 -229l80 227q-33 11 -53.5 37.5t-20.5 62.5q0 45 34 78t77 33q45 0 77.5 -32.5t32.5 -78.5q0 -36 -24 -82l-123 -245h-80z" />
    <glyph glyph-name="hyphen" unicode="-" horiz-adv-x="585" 
d="M94 410v129h395v-129h-395z" />
    <glyph glyph-name="hyphen" unicode="&#xad;" horiz-adv-x="585" 
d="M94 410v129h395v-129h-395z" />
    <glyph glyph-name="period" unicode="." horiz-adv-x="413" 
d="M207 -14q-44 0 -77.5 33t-33.5 79t33.5 78.5t77.5 32.5q45 0 77.5 -32t32.5 -79t-32.5 -79.5t-77.5 -32.5z" />
    <glyph glyph-name="slash" unicode="/" horiz-adv-x="876" 
d="M31 -262l614 1741h143l-614 -1741h-143z" />
    <glyph glyph-name="zero" unicode="0" horiz-adv-x="1251" 
d="M625 -16q-144 0 -267.5 68.5t-198.5 191.5t-75 272q0 151 75 274.5t198.5 191t267.5 67.5q108 0 207 -40t173 -109.5t118 -169.5t44 -214q0 -149 -74.5 -272t-199 -191.5t-268.5 -68.5zM625 113q166 0 279.5 115t113.5 288q0 177 -113 290.5t-280 113.5
q-166 0 -277.5 -113t-111.5 -291q0 -174 112 -288.5t277 -114.5z" />
    <glyph glyph-name="one" unicode="1" horiz-adv-x="581" 
d="M276 0v909h-227v123h373v-1032h-146z" />
    <glyph glyph-name="two" unicode="2" horiz-adv-x="964" 
d="M59 0v18l416 379q114 104 165.5 177t51.5 153q0 93 -54.5 142t-145.5 49q-186 0 -256 -209l-132 36q37 141 140.5 222.5t244.5 81.5q161 0 256 -87t95 -229q0 -99 -63.5 -193.5t-186.5 -207.5l-156 -142q-16 -16 -42.5 -33.5t-45.5 -27.5l-18 -10q75 6 114 6h424v-125
h-807z" />
    <glyph glyph-name="three" unicode="3" horiz-adv-x="1011" 
d="M487 -211q-155 0 -270 71t-172 195l127 60q92 -197 315 -197q124 0 207.5 79t83.5 216q0 136 -81 210.5t-222 74.5q-90 0 -166 -37l-14 20l305 369q13 16 29 33t25 26l10 9q-54 -9 -99 -9h-413v123h745v-14l-295 -354q-12 -14 -27 -28t-25 -21l-9 -7q166 -3 277.5 -112
t111.5 -285q0 -186 -125 -304t-318 -118z" />
    <glyph glyph-name="four" unicode="4" horiz-adv-x="1069" 
d="M846 164h153v-121h-153v-236h-144v236h-659v70l782 940h21v-889zM702 164v465l7 108q-33 -49 -62 -86l-340 -420q-14 -16 -32.5 -34.5t-30.5 -28.5l-11 -10q54 6 99 6h370z" />
    <glyph glyph-name="five" unicode="5" horiz-adv-x="993" 
d="M473 -211q-147 0 -253.5 62t-156.5 161l121 66q90 -160 289 -160q130 0 209.5 80.5t79.5 210.5q0 133 -76 210t-219 77q-95 0 -161.5 -29.5t-125.5 -79.5l-18 6v639h672v-123h-547v-342q84 54 207 54q186 0 302.5 -115.5t116.5 -296.5q0 -183 -122 -301.5t-318 -118.5z
" />
    <glyph glyph-name="six" unicode="6" horiz-adv-x="1040" 
d="M522 -16q-187 0 -311.5 115t-124.5 296q0 84 33.5 163.5t99.5 176.5l348 514h162l-280 -415q-15 -19 -39.5 -46t-41.5 -44l-18 -17q91 74 205 74q172 0 285.5 -113.5t113.5 -290.5q0 -179 -122.5 -296t-309.5 -117zM520 111q127 0 208 81t81 205q0 129 -78 208t-211 79
q-129 0 -209 -83.5t-80 -203.5q0 -125 79 -205.5t210 -80.5z" />
    <glyph glyph-name="seven" unicode="7" horiz-adv-x="923" 
d="M156 -193l516 1102h-604v123h798v-18l-563 -1207h-147z" />
    <glyph glyph-name="eight" unicode="8" horiz-adv-x="1067" 
d="M532 -16q-199 0 -324.5 108.5t-125.5 274.5q0 127 75 215.5t201 124.5q-82 32 -130 96.5t-48 154.5q0 129 100 218.5t252 89.5q154 0 254.5 -89t100.5 -219q0 -90 -48.5 -154.5t-129.5 -96.5q126 -36 201 -124.5t75 -215.5q0 -166 -126 -274.5t-327 -108.5zM532 762
q95 0 153 52t58 138q0 85 -59.5 139t-151.5 54q-93 0 -151.5 -54t-58.5 -139q0 -86 57.5 -138t152.5 -52zM532 113q136 0 219 72.5t83 189.5q0 119 -83.5 193.5t-218.5 74.5q-136 0 -218.5 -74.5t-82.5 -193.5t82.5 -190.5t218.5 -71.5z" />
    <glyph glyph-name="nine" unicode="9" horiz-adv-x="1052" 
d="M350 -193l262 392q15 22 38.5 47t39.5 39l17 14q-41 -35 -97 -55.5t-112 -20.5q-178 0 -295 114t-117 294q0 178 126 298t314 120q189 0 315 -116t126 -300q0 -86 -33.5 -163.5t-102.5 -182.5l-319 -480h-162zM524 338q131 0 213 85.5t82 207.5q0 125 -81.5 207
t-211.5 82t-212.5 -81.5t-82.5 -207.5q0 -130 80.5 -211.5t212.5 -81.5z" />
    <glyph glyph-name="colon" unicode=":" horiz-adv-x="434" 
d="M217 444q-44 0 -77.5 33.5t-33.5 79.5t33.5 78.5t77.5 32.5q45 0 78 -32t33 -79t-33 -80t-78 -33zM217 -14q-44 0 -77.5 33t-33.5 79t33.5 78.5t77.5 32.5q45 0 78 -32t33 -79t-33 -79.5t-78 -32.5z" />
    <glyph glyph-name="semicolon" unicode=";" horiz-adv-x="434" 
d="M217 444q-44 0 -77.5 33.5t-33.5 79.5t33.5 78.5t77.5 32.5q45 0 78 -32t33 -79t-33 -80t-78 -33zM100 -229l80 227q-33 11 -53.5 37.5t-20.5 62.5q0 45 34 78t77 33q45 0 78 -33t33 -78q0 -34 -25 -82l-123 -245h-80z" />
    <glyph glyph-name="semicolon" unicode="&#x37e;" horiz-adv-x="434" 
d="M217 444q-44 0 -77.5 33.5t-33.5 79.5t33.5 78.5t77.5 32.5q45 0 78 -32t33 -79t-33 -80t-78 -33zM100 -229l80 227q-33 11 -53.5 37.5t-20.5 62.5q0 45 34 78t77 33q45 0 78 -33t33 -78q0 -34 -25 -82l-123 -245h-80z" />
    <glyph glyph-name="less" unicode="&#x3c;" horiz-adv-x="729" 
d="M629 193l-555 296v21l555 293v-131l-344 -172l344 -174v-133z" />
    <glyph glyph-name="equal" unicode="=" horiz-adv-x="759" 
d="M86 578v124h588v-124h-588zM86 311v127h588v-127h-588z" />
    <glyph glyph-name="greater" unicode="&#x3e;" horiz-adv-x="729" 
d="M100 193v131l344 172l-344 174v133l555 -297v-21z" />
    <glyph glyph-name="question" unicode="?" horiz-adv-x="960" 
d="M356 383v360h68q132 0 209.5 78.5t77.5 196.5q0 120 -70.5 191t-185.5 71q-102 0 -168.5 -43.5t-112.5 -136.5l-119 61q51 120 155 184t245 64q181 0 292 -108t111 -283q0 -162 -101.5 -268.5t-264.5 -118.5v-248h-136zM422 -14q-44 0 -76.5 31.5t-32.5 76.5
q0 46 32.5 78.5t76.5 32.5t76 -32.5t32 -78.5q0 -45 -32.5 -76.5t-75.5 -31.5z" />
    <glyph glyph-name="at" unicode="@" horiz-adv-x="1814" 
d="M918 -422q-136 0 -260.5 37t-225.5 108t-175.5 168.5t-115.5 225t-41 270.5q0 173 65.5 325t176 258.5t260 168t313.5 61.5q228 0 411 -99t285.5 -271.5t102.5 -385.5q0 -227 -86.5 -341.5t-230.5 -114.5q-98 0 -159.5 48.5t-78.5 143.5q-87 -196 -295 -196
q-153 0 -255.5 111t-102.5 280q0 170 102.5 283.5t253.5 113.5q96 0 165 -47.5t108 -128.5l-5 156h142v-473q0 -91 29.5 -136t99.5 -45q85 0 135.5 84.5t50.5 259.5q0 138 -47 256.5t-133 204t-213 134t-279 48.5q-197 0 -353 -92.5t-241 -251.5t-85 -354q0 -198 83 -356
t239 -249t360 -91q183 0 335 82l54 -103q-168 -92 -389 -92zM893 102q102 0 172 79.5t70 193.5q0 115 -70 195.5t-172 80.5q-106 0 -174 -79.5t-68 -196.5t68 -195t174 -78z" />
    <glyph glyph-name="A" unicode="A" horiz-adv-x="1343" 
d="M76 0l577 1407h25l590 -1407h-156l-94 233h-705l-92 -233h-145zM365 360h600l-246 619q-12 29 -25.5 70.5t-20.5 68.5l-7 27q-29 -100 -56 -166z" />
    <glyph glyph-name="B" unicode="B" horiz-adv-x="1247" 
d="M190 0v1393h474q186 0 284.5 -96.5t98.5 -245.5q0 -104 -46.5 -176t-134.5 -101q135 -32 211 -129t76 -235q0 -182 -113 -296t-327 -114h-523zM338 823h336q116 0 170.5 59t54.5 160q0 102 -59.5 161t-186.5 59h-315v-439zM338 131h364q153 0 227.5 77t74.5 206
t-78 205.5t-232 76.5h-356v-565z" />
    <glyph glyph-name="C" unicode="C" horiz-adv-x="1486" 
d="M825 -16q-197 0 -359.5 89.5t-258.5 253.5t-96 369t96 369.5t259 254t359 89.5q372 0 553 -270l-112 -82q-70 103 -182 161t-259 58q-161 0 -289.5 -75.5t-200 -208t-71.5 -296.5q0 -123 42 -230.5t116 -184t178.5 -120.5t224.5 -44q149 0 265.5 61t193.5 172l115 -80
q-93 -137 -241 -211.5t-333 -74.5z" />
    <glyph glyph-name="D" unicode="D" horiz-adv-x="1392" 
d="M190 0v1393h338q347 0 550.5 -189.5t203.5 -507.5t-203 -507t-551 -189h-338zM338 133h180q151 0 268 41t191 116t111.5 177.5t37.5 228.5q0 258 -154.5 411t-453.5 153h-180v-1127z" />
    <glyph glyph-name="E" unicode="E" horiz-adv-x="1187" 
d="M190 0v1393h848v-131h-700v-654h625v-129h-625v-348h729v-131h-877z" />
    <glyph glyph-name="F" unicode="F" horiz-adv-x="1138" 
d="M190 0v1393h838v-131h-690v-654h627v-135h-627v-473h-148z" />
    <glyph glyph-name="G" unicode="G" horiz-adv-x="1521" 
d="M840 -16q-154 0 -289 52.5t-232 145.5t-152.5 226t-55.5 288q0 206 94 369.5t257.5 253.5t364.5 90q318 0 486 -180l-101 -101q-142 148 -385 148q-161 0 -290 -75.5t-201 -208t-72 -296.5q0 -250 162 -414.5t414 -164.5q255 0 411 127v286h-413v132h553v-486
q-85 -83 -226.5 -137.5t-324.5 -54.5z" />
    <glyph glyph-name="H" unicode="H" horiz-adv-x="1421" 
d="M190 0v1393h148v-785h745v785h148v-1393h-148v473h-745v-473h-148z" />
    <glyph glyph-name="I" unicode="I" horiz-adv-x="542" 
d="M197 0v1393h149v-1393h-149z" />
    <glyph glyph-name="J" unicode="J" horiz-adv-x="989" 
d="M428 -16q-247 0 -360 209l120 75q87 -151 234 -151q107 0 168 62.5t61 191.5v1022h150v-1026q0 -186 -102.5 -284.5t-270.5 -98.5z" />
    <glyph glyph-name="K" unicode="K" horiz-adv-x="1243" 
d="M326 543q70 133 100 172l526 678h166l-516 -672l572 -721h-183l-485 612l-168 -202v-410h-148v1393h148v-660q0 -55 -12 -190z" />
    <glyph glyph-name="L" unicode="L" horiz-adv-x="1079" 
d="M190 0v1393h148v-1262h657v-131h-805z" />
    <glyph glyph-name="M" unicode="M" horiz-adv-x="1714" 
d="M190 0v1409h21l647 -809l643 809h23v-1409h-144v920l6 159q-53 -90 -98 -145l-422 -533h-24l-416 533q-20 24 -45 60.5t-40 60.5l-15 24q8 -96 8 -159v-920h-144z" />
    <glyph glyph-name="N" unicode="N" horiz-adv-x="1460" 
d="M1245 -14l-831 983q-17 21 -41.5 53t-40.5 54l-15 22q13 -99 13 -158v-940h-140v1407h25l832 -983q17 -21 41 -53t40 -54l15 -22q-10 99 -10 158v940h137v-1407h-25z" />
    <glyph glyph-name="O" unicode="O" horiz-adv-x="1652" 
d="M825 -16q-197 0 -359.5 89.5t-258.5 253.5t-96 369t96 369.5t259 254t359 89.5q197 0 360.5 -89.5t260 -254t96.5 -369.5t-96.5 -369t-259.5 -253.5t-361 -89.5zM825 117q244 0 404 165t160 414q0 164 -72.5 296.5t-201.5 208t-290 75.5q-242 0 -401.5 -165t-159.5 -415
q0 -123 42.5 -230.5t116.5 -184t178 -120.5t224 -44z" />
    <glyph glyph-name="P" unicode="P" horiz-adv-x="1196" 
d="M190 0v1393h316q279 0 427 -142t148 -383q0 -238 -148.5 -380t-426.5 -142h-168v-346h-148zM338 475h160q224 0 327 105t103 288q0 89 -23.5 159t-73.5 123.5t-134.5 82.5t-198.5 29h-160v-787z" />
    <glyph glyph-name="Q" unicode="Q" horiz-adv-x="1652" 
d="M1333 182l211 -225l-102 -86l-213 229q-180 -116 -404 -116q-197 0 -359.5 89.5t-258.5 253.5t-96 369t96 369.5t259 254t359 89.5q197 0 360.5 -89.5t260 -254t96.5 -369.5q0 -153 -55 -284.5t-154 -229.5zM1135 203l-211 229l100 86l213 -231q152 161 152 409
q0 164 -72.5 296.5t-201.5 208t-290 75.5q-242 0 -401.5 -165t-159.5 -415q0 -123 42.5 -230.5t116.5 -184t178 -120.5t224 -44q176 0 310 86z" />
    <glyph glyph-name="R" unicode="R" horiz-adv-x="1220" 
d="M791 428l303 -428h-174l-269 381q-70 -12 -147 -12h-166v-369h-148v1393h314q278 0 427.5 -140.5t149.5 -373.5q0 -159 -73.5 -276t-216.5 -175zM338 498h158q115 0 200 28.5t135 80.5t73.5 119.5t23.5 152.5q0 176 -104.5 279.5t-327.5 103.5h-158v-764z" />
    <glyph glyph-name="S" unicode="S" horiz-adv-x="1087" 
d="M545 -16q-96 0 -177 23t-139 63.5t-99.5 88.5t-70.5 107l123 66q27 -48 57 -84t72.5 -67.5t100.5 -48.5t129 -17q125 0 206.5 64.5t81.5 172.5q0 101 -61.5 165t-200.5 126l-110 51q-106 48 -169.5 96t-100.5 119t-37 166q0 149 103.5 241.5t262.5 92.5q251 0 377 -209
l-119 -74q-44 72 -105 112t-153 40q-102 0 -161.5 -54.5t-59.5 -144.5q0 -89 49 -141t172 -109l111 -51q181 -80 265.5 -177.5t84.5 -248.5q0 -169 -120.5 -268.5t-311.5 -99.5z" />
    <glyph glyph-name="T" unicode="T" horiz-adv-x="1138" 
d="M496 0v1262h-428v131h1003v-131h-428v-1262h-147z" />
    <glyph glyph-name="U" unicode="U" horiz-adv-x="1355" 
d="M678 -16q-223 0 -361.5 127.5t-138.5 363.5v918h148v-908q0 -182 93 -276t259 -94q165 0 258.5 94t93.5 276v908h148v-918q0 -236 -139.5 -363.5t-360.5 -127.5z" />
    <glyph glyph-name="V" unicode="V" horiz-adv-x="1343" 
d="M664 -14l-588 1407h160l382 -944q13 -31 28 -78.5t24 -78.5l8 -32q30 119 59 189l381 944h150l-580 -1407h-24z" />
    <glyph glyph-name="W" unicode="W" horiz-adv-x="1951" 
d="M532 -14l-460 1407h157l293 -928l39 -152q22 93 45 152l363 942h24l363 -942q10 -26 21.5 -64t17.5 -63l6 -25q21 93 39 152l291 928h149l-459 -1407h-24l-375 991q-10 25 -20.5 59.5t-15.5 55.5l-5 22q-20 -80 -43 -137l-381 -991h-25z" />
    <glyph glyph-name="X" unicode="X" horiz-adv-x="1300" 
d="M88 0l477 758l-401 635h168l276 -435q10 -16 21.5 -40t17.5 -40l6 -16q20 61 43 96l275 435h162l-400 -635l481 -758h-167l-355 557q-10 16 -22 40.5t-18 40.5l-7 17q-20 -61 -43 -98l-352 -557h-162z" />
    <glyph glyph-name="Y" unicode="Y" horiz-adv-x="1343" 
d="M602 0v436l-526 957h166l379 -693q14 -24 28.5 -59t22.5 -59l8 -23q30 86 59 141l377 693h154l-516 -951v-442h-152z" />
    <glyph glyph-name="Z" unicode="Z" horiz-adv-x="1189" 
d="M80 0v23l778 1239h-668v131h897v-23l-776 -1239h781v-131h-1012z" />
    <glyph glyph-name="bracketleft" unicode="[" horiz-adv-x="624" 
d="M156 -262v1741h395v-123h-252v-1495h252v-123h-395z" />
    <glyph glyph-name="backslash" unicode="\" horiz-adv-x="878" 
d="M705 -262l-617 1741h143l617 -1741h-143z" />
    <glyph glyph-name="bracketright" unicode="]" horiz-adv-x="624" 
d="M74 -262v123h252v1495h-252v123h397v-1741h-397z" />
    <glyph glyph-name="asciicircum" unicode="^" horiz-adv-x="854" 
d="M139 948l279 461h18l279 -461h-119l-168 258l-170 -258h-119z" />
    <glyph glyph-name="underscore" unicode="_" horiz-adv-x="524" 
d="M-4 -262v127h532v-127h-532z" />
    <glyph glyph-name="grave" unicode="`" horiz-adv-x="1024" 
d="M459 1020l-191 395h164l139 -395h-112z" />
    <glyph glyph-name="a" unicode="a" horiz-adv-x="964" 
d="M678 498v20q0 119 -51 173t-148 54q-158 0 -248 -122l-88 79q121 164 346 164q148 0 240 -88t92 -258v-520h-143l6 127q-95 -143 -281 -143q-141 0 -226 65.5t-85 192.5q0 125 90.5 190.5t231.5 65.5h264zM678 389h-254q-88 0 -140.5 -34t-52.5 -107q0 -72 52.5 -110
t152.5 -38q101 0 171.5 51t70.5 132v106z" />
    <glyph glyph-name="b" unicode="b" horiz-adv-x="1128" 
d="M618 -16q-111 0 -197 54t-130 144l4 -182h-141v1479h141v-805q104 192 326 192q174 0 291.5 -126t117.5 -314q0 -189 -119 -315.5t-293 -126.5zM590 109q132 0 212.5 88.5t80.5 228.5q0 138 -80.5 225.5t-212.5 87.5q-134 0 -217.5 -88t-83.5 -225q0 -139 83.5 -228
t217.5 -89z" />
    <glyph glyph-name="c" unicode="c" horiz-adv-x="956" 
d="M539 -16q-187 0 -314 127t-127 313t127 314t314 128q208 0 333 -151l-102 -84q-81 108 -231 108q-133 0 -213 -89t-80 -226t80 -226t213 -89q150 0 243 110l99 -84q-126 -151 -342 -151z" />
    <glyph glyph-name="d" unicode="d" horiz-adv-x="1128" 
d="M510 -16q-174 0 -293 126.5t-119 315.5q0 188 118.5 314t291.5 126q222 0 326 -192v805h141v-1479h-141l4 182q-44 -90 -130.5 -144t-197.5 -54zM539 109q134 0 217.5 89t83.5 228q0 137 -83.5 225t-217.5 88q-132 0 -212.5 -87.5t-80.5 -225.5q0 -140 80.5 -228.5
t212.5 -88.5z" />
    <glyph glyph-name="e" unicode="e" horiz-adv-x="1056" 
d="M242 377q14 -125 96.5 -199t218.5 -74q166 0 268 113l88 -86q-130 -147 -356 -147q-206 0 -332.5 125.5t-126.5 314.5q0 186 126.5 314t312.5 128q201 0 317.5 -137.5t108.5 -351.5h-721zM244 485h575q-10 115 -82 187.5t-200 72.5q-120 0 -197.5 -70.5t-95.5 -189.5z
" />
    <glyph glyph-name="f" unicode="f" horiz-adv-x="651" 
d="M207 0v727h-137v121h137v385q0 137 63 204.5t172 67.5q144 0 215 -104l-94 -84q-24 31 -46.5 45t-61.5 14q-105 0 -105 -143v-385h228v-121h-228v-727h-143z" />
    <glyph glyph-name="g" unicode="g" horiz-adv-x="964" 
d="M602 848h307v-109h-166q68 -71 68 -174q0 -132 -92 -217.5t-238 -85.5q-103 0 -174 39q-33 -9 -51 -32t-18 -54q0 -80 110 -86l217 -16q181 -13 269 -80t88 -189q0 -139 -120.5 -220t-330.5 -81q-203 0 -318.5 75.5t-115.5 203.5q0 159 201 221q-119 40 -119 158
q0 53 31 93t86 62q-93 80 -93 209q0 132 95 216.5t243 84.5q65 0 121 -18zM479 373q94 0 148.5 52.5t54.5 139.5t-54.5 139t-148.5 52q-96 0 -150.5 -52t-54.5 -139t54.5 -139.5t150.5 -52.5zM328 0q-150 -45 -150 -166q0 -176 293 -176q143 0 224 47t81 133
q0 72 -51.5 105.5t-183.5 42.5z" />
    <glyph glyph-name="h" unicode="h" horiz-adv-x="1056" 
d="M152 0v1479h143v-797q40 86 119.5 135t181.5 49q143 0 230 -93.5t87 -256.5v-516h-143v500q0 114 -53 174.5t-158 60.5q-120 0 -192 -71.5t-72 -196.5v-467h-143z" />
    <glyph glyph-name="i" unicode="i" horiz-adv-x="454" 
d="M227 1094q-41 0 -71.5 28.5t-30.5 71.5t30.5 72.5t71.5 29.5t72 -29.5t31 -72.5t-31 -71.5t-72 -28.5zM156 0v848h143v-848h-143z" />
    <glyph glyph-name="j" unicode="j" horiz-adv-x="454" 
d="M227 1094q-41 0 -71.5 28.5t-30.5 71.5t30.5 72.5t71.5 29.5t72 -29.5t31 -72.5t-31 -71.5t-72 -28.5zM72 -455q-113 0 -189 84l80 86q18 -16 28 -24t29 -15.5t41 -7.5q95 0 95 129v1051h143v-1049q0 -123 -61.5 -188.5t-165.5 -65.5z" />
    <glyph glyph-name="k" unicode="k" horiz-adv-x="948" 
d="M295 258v-258h-143v1479h143v-949q0 -62 -10 -120l403 438h166l-326 -356l377 -492h-170l-307 397z" />
    <glyph glyph-name="l" unicode="l" horiz-adv-x="466" 
d="M162 0v1479h143v-1479h-143z" />
    <glyph glyph-name="m" unicode="m" horiz-adv-x="1550" 
d="M152 0v848h143l-4 -160q85 178 266 178q97 0 162 -47.5t94 -130.5q47 86 123.5 132t169.5 46q140 0 220.5 -86.5t80.5 -236.5v-543h-141v524q0 104 -45 157.5t-142 53.5q-103 0 -165 -68t-62 -192v-475h-143v524q0 211 -185 211q-104 0 -166.5 -68.5t-62.5 -191.5v-475
h-143z" />
    <glyph glyph-name="n" unicode="n" horiz-adv-x="1056" 
d="M152 0v848h143l-4 -174q41 91 121.5 141.5t183.5 50.5q143 0 230 -93.5t87 -256.5v-516h-143v500q0 114 -53 174.5t-158 60.5q-120 0 -192 -71.5t-72 -196.5v-467h-143z" />
    <glyph glyph-name="o" unicode="o" horiz-adv-x="1093" 
d="M549 -16q-191 0 -321 127t-130 313t130.5 314t320.5 128q189 0 317.5 -128t128.5 -314t-128.5 -313t-317.5 -127zM549 106q134 0 217.5 90t83.5 228t-83.5 227.5t-217.5 89.5q-135 0 -220 -89.5t-85 -227.5t85 -228t220 -90z" />
    <glyph glyph-name="p" unicode="p" horiz-adv-x="1128" 
d="M154 -434v1282h141l-4 -182q46 92 130.5 146t199.5 54q174 0 291.5 -126t117.5 -314q0 -189 -119 -315.5t-293 -126.5q-110 0 -195 53t-128 139v-610h-141zM590 109q132 0 212.5 88.5t80.5 228.5q0 138 -80.5 225.5t-212.5 87.5q-134 0 -217.5 -88t-83.5 -225
q0 -139 83.5 -228t217.5 -89z" />
    <glyph glyph-name="q" unicode="q" horiz-adv-x="1130" 
d="M834 -434v610q-43 -86 -128 -139t-196 -53q-174 0 -293 126.5t-119 315.5q0 188 118.5 314t291.5 126q117 0 200 -54t130 -146l-4 182h143v-1282h-143zM539 109q134 0 217.5 89t83.5 228q0 137 -83.5 225t-217.5 88q-132 0 -212.5 -87.5t-80.5 -225.5q0 -140 80.5 -228.5
t212.5 -88.5z" />
    <glyph glyph-name="r" unicode="r" horiz-adv-x="731" 
d="M152 0v848h143l-4 -166q38 93 103.5 137.5t144.5 44.5q88 0 147 -41l-55 -125q-50 33 -117 33q-97 0 -158 -71.5t-61 -213.5v-446h-143z" />
    <glyph glyph-name="s" unicode="s" horiz-adv-x="839" 
d="M436 -16q-132 0 -224.5 55t-137.5 141l110 64q86 -144 246 -144q85 0 132.5 34t47.5 93q0 23 -5 40.5t-20.5 32t-28.5 23.5t-45.5 21t-53 18.5t-68.5 20.5q-58 17 -97.5 34t-79 45.5t-59.5 72t-20 100.5q0 107 79 169t200 62q186 0 282 -137l-98 -76q-71 97 -184 97
q-69 0 -108.5 -29.5t-39.5 -79.5q0 -57 40.5 -84t160.5 -61q62 -17 105.5 -35t86.5 -47.5t65.5 -74t22.5 -103.5q0 -113 -78 -182.5t-231 -69.5z" />
    <glyph glyph-name="t" unicode="t" horiz-adv-x="688" 
d="M428 -18q-104 0 -165.5 65.5t-61.5 208.5v471h-131v121h131v442h141v-442h238v-121h-238v-473q0 -81 25.5 -114.5t74.5 -33.5q61 0 115 50l78 -90q-80 -84 -207 -84z" />
    <glyph glyph-name="u" unicode="u" horiz-adv-x="1054" 
d="M461 -18q-143 0 -230.5 92.5t-87.5 253.5v520h144v-506q0 -111 53 -170t156 -59q121 0 192.5 72t71.5 196v467h143v-848h-143l4 172q-41 -90 -121 -140t-182 -50z" />
    <glyph glyph-name="v" unicode="v" horiz-adv-x="946" 
d="M463 -16l-412 864h158l225 -490q12 -25 23.5 -61.5t17.5 -60.5l6 -23q18 88 45 145l222 490h147l-406 -864h-26z" />
    <glyph glyph-name="w" unicode="w" horiz-adv-x="1398" 
d="M399 -18l-348 866h156l182 -467q10 -24 20 -57t15 -54l4 -20q16 76 43 131l221 479h19l225 -477q12 -25 23 -58.5t17 -54.5l5 -20q16 78 39 133l182 465h146l-353 -866h-20l-234 510q-11 23 -21.5 54t-15.5 50l-4 20q-18 -75 -41 -124l-239 -510h-21z" />
    <glyph glyph-name="x" unicode="x" horiz-adv-x="962" 
d="M63 0l336 451l-290 397h170l159 -221q11 -15 23.5 -37t18.5 -36l7 -15q16 55 41 88l162 221h158l-287 -387l338 -461h-172l-201 279q-10 15 -23.5 38.5t-21.5 39.5l-8 16q-24 -61 -49 -94l-203 -279h-158z" />
    <glyph glyph-name="y" unicode="y" horiz-adv-x="946" 
d="M195 -434l217 506l-361 776h158l240 -526q10 -24 19.5 -60t13.5 -60l5 -24q14 91 39 144l222 526h147l-553 -1282h-147z" />
    <glyph glyph-name="z" unicode="z" horiz-adv-x="854" 
d="M66 0v20l489 709h-436v119h667v-23l-493 -706h483v-119h-710z" />
    <glyph glyph-name="braceleft" unicode="{" horiz-adv-x="751" 
d="M561 -262q-272 0 -272 295v309q0 78 -29.5 109.5t-89.5 31.5h-119v125h119q60 0 89.5 32t29.5 110v434q0 295 272 295h117v-123h-109q-68 0 -101.5 -38.5t-33.5 -135.5v-447q0 -89 -35 -132t-98 -56q133 -28 133 -191v-321q0 -97 33.5 -135.5t101.5 -38.5h109v-123h-117z
" />
    <glyph glyph-name="bar" unicode="|" horiz-adv-x="485" 
d="M174 -262v1741h137v-1741h-137z" />
    <glyph glyph-name="braceright" unicode="}" horiz-adv-x="749" 
d="M74 -262v123h108q68 0 101.5 38.5t33.5 135.5v321q0 164 134 189q-134 28 -134 190v447q0 97 -33.5 135.5t-101.5 38.5h-108v123h116q271 0 271 -295v-432q0 -78 30.5 -111t90.5 -33h116v-125h-116q-60 0 -90.5 -31.5t-30.5 -107.5v-311q0 -295 -271 -295h-116z" />
    <glyph glyph-name="asciitilde" unicode="~" horiz-adv-x="804" 
d="M211 459l-107 10q4 108 52 167.5t125 59.5q41 0 72 -16t69 -51q5 -4 14 -12t12.5 -11t10.5 -8.5t10 -7.5t8.5 -6t8.5 -5t7.5 -3.5t8.5 -3t8.5 -1t9.5 -0.5q33 0 50.5 28.5t23.5 92.5l106 -10q-4 -109 -50 -167t-124 -58q-41 0 -72 16t-69 51q-31 27 -42.5 35t-26 14.5
t-31.5 6.5q-62 0 -74 -121z" />
    <glyph glyph-name="nbspace" unicode="&#xa0;" horiz-adv-x="372" 
 />
    <glyph glyph-name="exclamdown" unicode="&#xa1;" horiz-adv-x="499" 
d="M250 1407q43 0 75.5 -32t32.5 -77q0 -46 -32 -78t-76 -32t-76.5 32t-32.5 78q0 45 33 77t76 32zM305 1004l25 -1004h-160l25 1004h110z" />
    <glyph glyph-name="cent" unicode="&#xa2;" horiz-adv-x="962" 
d="M477 -12q-165 22 -272 144t-107 292t107 293t272 145v221h105v-219q180 -11 292 -149l-100 -82q-73 92 -192 106v-630q124 13 204 110l99 -84q-116 -138 -303 -149v-224h-105v226zM477 735q-107 -20 -170 -105t-63 -206t62.5 -206t170.5 -105v622z" />
    <glyph glyph-name="sterling" unicode="&#xa3;" horiz-adv-x="1114" 
d="M338 532h-195v115h146q-64 161 -64 268q0 151 106.5 251t280.5 100q135 0 232.5 -63.5t144.5 -164.5l-119 -65q-44 84 -102.5 124t-155.5 40q-111 0 -174 -60.5t-63 -167.5q0 -105 59 -262h332v-115h-289q64 -182 64 -303v-10q52 -37 80.5 -54.5t75.5 -35.5t91 -18
q109 0 187 88l86 -88q-101 -127 -268 -127q-140 0 -291 122q-36 -55 -98 -88.5t-134 -33.5q-96 0 -154.5 52t-58.5 134q0 79 56.5 128.5t144.5 49.5q74 0 156 -45q-13 84 -76 229zM412 180q-92 70 -144 70q-44 0 -69 -23.5t-25 -60.5t25 -60.5t69 -23.5q47 0 88 27.5
t56 70.5z" />
    <glyph glyph-name="yen" unicode="&#xa5;" horiz-adv-x="1142" 
d="M340 598l-256 434h162l274 -477q15 -26 28.5 -60.5t19.5 -55.5l7 -21q25 78 58 137l274 477h152l-256 -434h219v-115h-287l-84 -141h371v-115h-377v-227h-147v227h-379v115h373l-84 141h-289v115h221z" />
    <glyph glyph-name="brokenbar" unicode="&#xa6;" 
d="M207 387q-44 0 -77.5 33.5t-33.5 79.5t33.5 78t77.5 32q45 0 77.5 -31.5t32.5 -78.5t-32.5 -80t-77.5 -33z" />
    <glyph glyph-name="section" unicode="&#xa7;" horiz-adv-x="1013" 
d="M231 829q-41 65 -41 152q0 125 91 205t229 80q235 0 328 -207l-117 -53q-33 67 -80.5 104t-126.5 37q-85 0 -134.5 -43.5t-49.5 -118.5q0 -66 33 -107t112 -73l201 -80q143 -56 207.5 -127.5t64.5 -169.5q0 -74 -44 -128t-120 -85q47 -65 47 -152q0 -124 -87.5 -199
t-245.5 -75q-132 0 -232 61.5t-145 159.5l115 58q81 -158 258 -158q91 0 142.5 41.5t51.5 111.5q0 59 -39 97t-129 73l-182 72q-143 55 -207.5 125.5t-64.5 177.5q0 75 44 131.5t121 89.5zM715 283q98 43 98 127q0 64 -38.5 104.5t-139.5 81.5l-201 80q-91 38 -147 86
q-84 -43 -84 -137q0 -69 37.5 -111t134.5 -80l186 -72q104 -40 154 -79z" />
    <glyph glyph-name="dieresis" unicode="&#xa8;" horiz-adv-x="1024" 
d="M690 1057q-37 0 -66.5 28t-29.5 66q0 39 29 66.5t67 27.5q37 0 65.5 -27.5t28.5 -66.5q0 -38 -28.5 -66t-65.5 -28zM334 1057q-37 0 -65.5 28t-28.5 66q0 39 28.5 66.5t65.5 27.5q39 0 67.5 -27.5t28.5 -66.5q0 -38 -29 -66t-67 -28z" />
    <glyph glyph-name="copyright" unicode="&#xa9;" horiz-adv-x="1224" 
d="M614 -14q-144 0 -266.5 68t-195 190.5t-72.5 271.5q0 150 72.5 273t195 191.5t266.5 68.5q143 0 264.5 -68.5t194 -191.5t72.5 -273q0 -112 -43 -211t-115 -168.5t-169.5 -110t-203.5 -40.5zM614 68q188 0 316.5 127t128.5 321q0 196 -128.5 323.5t-316.5 127.5
q-190 0 -319 -127.5t-129 -323.5q0 -194 129 -321t319 -127zM621 211q-129 0 -216.5 87.5t-87.5 217.5q0 131 86 219t213 88q139 0 236 -104l-84 -78q-54 70 -143 70q-78 0 -127 -55t-49 -140q0 -83 49.5 -137.5t126.5 -54.5q90 0 149 73l84 -78q-93 -108 -237 -108z" />
    <glyph glyph-name="ordfeminine" unicode="&#xaa;" horiz-adv-x="823" 
d="M582 743q0 108 -43 151.5t-125 43.5q-122 0 -207 -102l-82 71q100 142 299 142q130 0 210.5 -74t80.5 -227v-433h-133l2 95q-36 -52 -96.5 -81.5t-137.5 -29.5q-120 0 -195 57.5t-75 165.5q0 107 81 164t204 57h217zM582 643h-203q-166 0 -166 -117q0 -60 44 -90t124 -30
q86 0 143.5 42t57.5 113v82z" />
    <glyph glyph-name="guillemotleft" unicode="&#xab;" horiz-adv-x="813" 
d="M588 76l-193 325v17l193 321h147l-196 -329l196 -334h-147zM270 76l-192 325v17l192 321h148l-197 -329l197 -334h-148z" />
    <glyph glyph-name="logicalnot" unicode="&#xac;" 
d="M207 387q-44 0 -77.5 33.5t-33.5 79.5t33.5 78t77.5 32q45 0 77.5 -31.5t32.5 -78.5t-32.5 -80t-77.5 -33z" />
    <glyph glyph-name="registered" unicode="&#xae;" horiz-adv-x="1052" 
d="M522 543q-185 0 -314.5 125.5t-129.5 312.5q0 125 60 226.5t161.5 157.5t222.5 56q189 0 321 -125.5t132 -314.5q0 -187 -132.5 -312.5t-320.5 -125.5zM522 614q162 0 266.5 101.5t104.5 265.5q0 165 -104.5 267t-266.5 102q-158 0 -259 -101.5t-101 -267.5
q0 -164 101 -265.5t259 -101.5zM627 885l96 -144h-98l-80 121q-8 -2 -29 -2h-61v-119h-90v486h149q101 0 155 -53t54 -132q0 -51 -25 -92.5t-71 -64.5zM455 932h59q119 0 119 108q0 52 -29 81.5t-90 29.5h-59v-219z" />
    <glyph glyph-name="macron" unicode="&#xaf;" horiz-adv-x="1024" 
d="M297 1061v113h430v-113h-430z" />
    <glyph glyph-name="macron" unicode="&#x2c9;" horiz-adv-x="1024" 
d="M297 1061v113h430v-113h-430z" />
    <glyph glyph-name="degree" unicode="&#xb0;" horiz-adv-x="665" 
d="M334 586q-100 0 -170 67t-70 164q0 98 70 165t170 67q99 0 168 -67t69 -165q0 -97 -69.5 -164t-167.5 -67zM334 680q58 0 94.5 38.5t36.5 98.5t-36.5 98.5t-94.5 38.5q-60 0 -96.5 -38.5t-36.5 -98.5t36.5 -98.5t96.5 -38.5z" />
    <glyph glyph-name="twosuperior" unicode="&#xb2;" 
d="M207 387q-44 0 -77.5 33.5t-33.5 79.5t33.5 78t77.5 32q45 0 77.5 -31.5t32.5 -78.5t-32.5 -80t-77.5 -33z" />
    <glyph glyph-name="threesuperior" unicode="&#xb3;" 
d="M207 387q-44 0 -77.5 33.5t-33.5 79.5t33.5 78t77.5 32q45 0 77.5 -31.5t32.5 -78.5t-32.5 -80t-77.5 -33z" />
    <glyph glyph-name="acute" unicode="&#xb4;" horiz-adv-x="1024" 
d="M453 1020l139 395h164l-191 -395h-112z" />
    <glyph glyph-name="mu" unicode="&#xb5;" 
d="M207 387q-44 0 -77.5 33.5t-33.5 79.5t33.5 78t77.5 32q45 0 77.5 -31.5t32.5 -78.5t-32.5 -80t-77.5 -33z" />
    <glyph glyph-name="mu" unicode="&#x3bc;" 
d="M207 387q-44 0 -77.5 33.5t-33.5 79.5t33.5 78t77.5 32q45 0 77.5 -31.5t32.5 -78.5t-32.5 -80t-77.5 -33z" />
    <glyph glyph-name="paragraph" unicode="&#xb6;" horiz-adv-x="1280" 
d="M639 0v623h-131q-185 0 -294.5 109.5t-109.5 273.5q0 163 110 275t294 112h582v-1393h-142v1266h-164v-1266h-145zM510 748h129v518h-129q-116 0 -182 -70t-66 -188t66 -189t182 -71z" />
    <glyph glyph-name="periodcentered" unicode="&#xb7;" horiz-adv-x="413" 
d="M207 387q-44 0 -77.5 33.5t-33.5 79.5t33.5 78t77.5 32q45 0 77.5 -31.5t32.5 -78.5t-32.5 -80t-77.5 -33z" />
    <glyph glyph-name="periodcentered" unicode="&#x2219;" horiz-adv-x="413" 
d="M207 387q-44 0 -77.5 33.5t-33.5 79.5t33.5 78t77.5 32q45 0 77.5 -31.5t32.5 -78.5t-32.5 -80t-77.5 -33z" />
    <glyph glyph-name="cedilla" unicode="&#xb8;" horiz-adv-x="1024" 
d="M524 -475q-75 0 -127.5 33.5t-79.5 87.5l89 51q16 -26 26 -39t32 -25t52 -12q39 0 65.5 24t26.5 68q0 42 -27.5 69.5t-80.5 27.5h-45v190h98v-109q70 -10 119 -59.5t49 -126.5q0 -82 -58.5 -131t-138.5 -49z" />
    <glyph glyph-name="onesuperior" unicode="&#xb9;" 
d="M207 387q-44 0 -77.5 33.5t-33.5 79.5t33.5 78t77.5 32q45 0 77.5 -31.5t32.5 -78.5t-32.5 -80t-77.5 -33z" />
    <glyph glyph-name="ordmasculine" unicode="&#xba;" horiz-adv-x="929" 
d="M465 299q-158 0 -268.5 107.5t-110.5 267.5q0 159 110.5 267t268.5 108t268.5 -108t110.5 -267q0 -160 -110.5 -267.5t-268.5 -107.5zM465 412q108 0 176 73t68 189q0 114 -68 187t-176 73t-175 -72.5t-67 -187.5q0 -116 67 -189t175 -73z" />
    <glyph glyph-name="guillemotright" unicode="&#xbb;" horiz-adv-x="813" 
d="M395 76l197 332l-197 331h148l192 -323v-17l-192 -323h-148zM78 76l196 332l-196 331h147l193 -323v-17l-193 -323h-147z" />
    <glyph glyph-name="onequarter" unicode="&#xbc;" 
d="M207 387q-44 0 -77.5 33.5t-33.5 79.5t33.5 78t77.5 32q45 0 77.5 -31.5t32.5 -78.5t-32.5 -80t-77.5 -33z" />
    <glyph glyph-name="onehalf" unicode="&#xbd;" 
d="M207 387q-44 0 -77.5 33.5t-33.5 79.5t33.5 78t77.5 32q45 0 77.5 -31.5t32.5 -78.5t-32.5 -80t-77.5 -33z" />
    <glyph glyph-name="threequarters" unicode="&#xbe;" 
d="M207 387q-44 0 -77.5 33.5t-33.5 79.5t33.5 78t77.5 32q45 0 77.5 -31.5t32.5 -78.5t-32.5 -80t-77.5 -33z" />
    <glyph glyph-name="questiondown" unicode="&#xbf;" horiz-adv-x="960" 
d="M539 1407q43 0 75.5 -32t32.5 -77q0 -46 -32 -78t-76 -32t-76.5 32t-32.5 78q0 45 33 77t76 32zM604 1010v-361h-67q-133 0 -210 -78t-77 -196q0 -120 70.5 -191t185.5 -71q101 0 167.5 43.5t112.5 136.5l119 -62q-51 -120 -154.5 -183.5t-244.5 -63.5q-181 0 -292.5 108
t-111.5 283q0 162 101.5 268.5t265.5 118.5v248h135z" />
    <glyph glyph-name="Agrave" unicode="&#xc0;" horiz-adv-x="1343" 
d="M76 0l577 1407h25l590 -1407h-156l-94 233h-705l-92 -233h-145zM365 360h600l-246 619q-12 29 -25.5 70.5t-20.5 68.5l-7 27q-29 -100 -56 -166zM613 1542l-191 395h164l139 -395h-112z" />
    <glyph glyph-name="Aacute" unicode="&#xc1;" horiz-adv-x="1343" 
d="M76 0l577 1407h25l590 -1407h-156l-94 233h-705l-92 -233h-145zM365 360h600l-246 619q-12 29 -25.5 70.5t-20.5 68.5l-7 27q-29 -100 -56 -166zM613 1542l139 395h164l-191 -395h-112z" />
    <glyph glyph-name="Acircumflex" unicode="&#xc2;" horiz-adv-x="1343" 
d="M76 0l577 1407h25l590 -1407h-156l-94 233h-705l-92 -233h-145zM365 360h600l-246 619q-12 29 -25.5 70.5t-20.5 68.5l-7 27q-29 -100 -56 -166zM394 1538l262 395h18l262 -395h-125l-145 203l-147 -203h-125z" />
    <glyph glyph-name="Atilde" unicode="&#xc3;" horiz-adv-x="1343" 
d="M76 0l577 1407h25l590 -1407h-156l-94 233h-705l-92 -233h-145zM365 360h600l-246 619q-12 29 -25.5 70.5t-20.5 68.5l-7 27q-29 -100 -56 -166zM473 1532l-106 8q6 108 54 167.5t124 59.5q40 0 71.5 -16t69.5 -49q42 -37 59 -47.5t40 -10.5q62 0 74 119l106 -10
q-6 -108 -52.5 -166.5t-123.5 -58.5q-39 0 -70.5 16.5t-70.5 50.5q-41 36 -58 46.5t-41 10.5q-64 0 -76 -120z" />
    <glyph glyph-name="Adieresis" unicode="&#xc4;" horiz-adv-x="1343" 
d="M848 1579q-37 0 -66.5 28t-29.5 66q0 39 29 66.5t67 27.5q37 0 65.5 -27.5t28.5 -66.5q0 -38 -28.5 -66t-65.5 -28zM492 1579q-37 0 -66 28t-29 66q0 39 28.5 66.5t66.5 27.5q39 0 67.5 -27.5t28.5 -66.5q0 -38 -29 -66t-67 -28zM76 0l577 1407h25l590 -1407h-156
l-94 233h-705l-92 -233h-145zM365 360h600l-246 619q-12 29 -25.5 70.5t-20.5 68.5l-7 27q-29 -100 -56 -166z" />
    <glyph glyph-name="Aring" unicode="&#xc5;" horiz-adv-x="1343" 
d="M670 1489q-90 0 -152.5 60t-62.5 145q0 87 62.5 147t152.5 60t152.5 -60t62.5 -147q0 -85 -62.5 -145t-152.5 -60zM76 0l577 1407h25l590 -1407h-156l-94 233h-705l-92 -233h-145zM670 1581q47 0 76.5 31t29.5 82q0 52 -29 82t-77 30t-77.5 -30t-29.5 -82q0 -51 30 -82
t77 -31zM365 360h600l-246 619q-12 29 -25.5 70.5t-20.5 68.5l-7 27q-29 -100 -56 -166z" />
    <glyph glyph-name="AE" unicode="&#xc6;" horiz-adv-x="1951" 
d="M55 0l930 1393h817v-131h-698v-654h622v-129h-622v-348h727v-131h-877v233h-585l-156 -233h-158zM457 365h497v630q0 33 4 76t8 69l3 27q-41 -90 -84 -153z" />
    <glyph glyph-name="Ccedilla" unicode="&#xc7;" horiz-adv-x="1486" 
d="M825 -16v-93q70 -10 119 -59.5t49 -126.5q0 -82 -58 -131t-138 -49q-75 0 -127.5 33.5t-79.5 87.5l88 51q16 -26 26 -39t32 -25t52 -12q39 0 66 24t27 68q0 42 -28 69.5t-81 27.5h-45v180q-130 16 -243 75t-195.5 149.5t-130 215.5t-47.5 266q0 205 96 369.5t259 254
t359 89.5q372 0 553 -270l-112 -82q-70 103 -182 161t-259 58q-161 0 -289.5 -75.5t-200 -208t-71.5 -296.5q0 -123 42 -230.5t116 -184t178.5 -120.5t224.5 -44q149 0 265.5 61t193.5 172l115 -80q-93 -137 -241 -211.5t-333 -74.5z" />
    <glyph glyph-name="Egrave" unicode="&#xc8;" horiz-adv-x="1187" 
d="M190 0v1393h848v-131h-700v-654h625v-129h-625v-348h729v-131h-877zM576 1542l-191 395h164l139 -395h-112z" />
    <glyph glyph-name="Eacute" unicode="&#xc9;" horiz-adv-x="1187" 
d="M190 0v1393h848v-131h-700v-654h625v-129h-625v-348h729v-131h-877zM551 1542l139 395h164l-191 -395h-112z" />
    <glyph glyph-name="Ecircumflex" unicode="&#xca;" horiz-adv-x="1187" 
d="M190 0v1393h848v-131h-700v-654h625v-129h-625v-348h729v-131h-877zM353 1538l262 395h18l262 -395h-125l-145 203l-147 -203h-125z" />
    <glyph glyph-name="Edieresis" unicode="&#xcb;" horiz-adv-x="1187" 
d="M190 0v1393h848v-131h-700v-654h625v-129h-625v-348h729v-131h-877zM801 1579q-37 0 -66.5 28t-29.5 66q0 39 29 66.5t67 27.5q37 0 65.5 -27.5t28.5 -66.5q0 -38 -28.5 -66t-65.5 -28zM445 1579q-37 0 -65.5 28t-28.5 66q0 39 28.5 66.5t65.5 27.5q39 0 67.5 -27.5
t28.5 -66.5q0 -38 -29 -66t-67 -28z" />
    <glyph glyph-name="Igrave" unicode="&#xcc;" horiz-adv-x="542" 
d="M197 0v1393h149v-1393h-149zM211 1542l-191 395h164l139 -395h-112z" />
    <glyph glyph-name="Iacute" unicode="&#xcd;" horiz-adv-x="542" 
d="M197 0v1393h149v-1393h-149zM217 1542l139 395h164l-191 -395h-112z" />
    <glyph glyph-name="Icircumflex" unicode="&#xce;" horiz-adv-x="542" 
d="M197 0v1393h149v-1393h-149zM-2 1538l262 395h18l262 -395h-125l-145 203l-147 -203h-125z" />
    <glyph glyph-name="Idieresis" unicode="&#xcf;" horiz-adv-x="542" 
d="M197 0v1393h149v-1393h-149zM448 1579q-37 0 -66.5 28t-29.5 66q0 39 29 66.5t67 27.5q37 0 65.5 -27.5t28.5 -66.5q0 -38 -28.5 -66t-65.5 -28zM92 1579q-37 0 -65.5 28t-28.5 66q0 39 28.5 66.5t65.5 27.5q39 0 67.5 -27.5t28.5 -66.5q0 -38 -29 -66t-67 -28z" />
    <glyph glyph-name="Eth" unicode="&#xd0;" horiz-adv-x="1392" 
d="M190 0v496h-161v129h161v768h355q167 0 305.5 -51t233 -142.5t146.5 -221t52 -282.5q0 -312 -199.5 -504t-537.5 -192h-355zM338 133h197q289 0 440 152.5t151 410.5t-151 411t-440 153h-197v-635h375v-129h-375v-363z" />
    <glyph glyph-name="Ntilde" unicode="&#xd1;" horiz-adv-x="1460" 
d="M1245 -14l-831 983q-17 21 -41.5 53t-40.5 54l-15 22q13 -99 13 -158v-940h-140v1407h25l832 -983q17 -21 41 -53t40 -54l15 -22q-10 99 -10 158v940h137v-1407h-25zM536 1532l-106 8q6 108 54 167.5t124 59.5q40 0 71.5 -16t69.5 -49q42 -37 59 -47.5t40 -10.5
q62 0 74 119l106 -10q-6 -108 -52.5 -166.5t-123.5 -58.5q-39 0 -70.5 16.5t-70.5 50.5q-41 36 -58 46.5t-41 10.5q-64 0 -76 -120z" />
    <glyph glyph-name="Ograve" unicode="&#xd2;" horiz-adv-x="1652" 
d="M825 -16q-197 0 -359.5 89.5t-258.5 253.5t-96 369t96 369.5t259 254t359 89.5q197 0 360.5 -89.5t260 -254t96.5 -369.5t-96.5 -369t-259.5 -253.5t-361 -89.5zM825 117q244 0 404 165t160 414q0 164 -72.5 296.5t-201.5 208t-290 75.5q-242 0 -401.5 -165t-159.5 -415
q0 -123 42.5 -230.5t116.5 -184t178 -120.5t224 -44zM772 1542l-191 395h164l139 -395h-112z" />
    <glyph glyph-name="Oacute" unicode="&#xd3;" horiz-adv-x="1652" 
d="M825 -16q-197 0 -359.5 89.5t-258.5 253.5t-96 369t96 369.5t259 254t359 89.5q197 0 360.5 -89.5t260 -254t96.5 -369.5t-96.5 -369t-259.5 -253.5t-361 -89.5zM825 117q244 0 404 165t160 414q0 164 -72.5 296.5t-201.5 208t-290 75.5q-242 0 -401.5 -165t-159.5 -415
q0 -123 42.5 -230.5t116.5 -184t178 -120.5t224 -44zM766 1542l139 395h164l-191 -395h-112z" />
    <glyph glyph-name="Ocircumflex" unicode="&#xd4;" horiz-adv-x="1652" 
d="M825 -16q-197 0 -359.5 89.5t-258.5 253.5t-96 369t96 369.5t259 254t359 89.5q197 0 360.5 -89.5t260 -254t96.5 -369.5t-96.5 -369t-259.5 -253.5t-361 -89.5zM825 117q244 0 404 165t160 414q0 164 -72.5 296.5t-201.5 208t-290 75.5q-242 0 -401.5 -165t-159.5 -415
q0 -123 42.5 -230.5t116.5 -184t178 -120.5t224 -44zM553 1538l262 395h18l262 -395h-125l-145 203l-147 -203h-125z" />
    <glyph glyph-name="Otilde" unicode="&#xd5;" horiz-adv-x="1652" 
d="M825 -16q-197 0 -359.5 89.5t-258.5 253.5t-96 369t96 369.5t259 254t359 89.5q197 0 360.5 -89.5t260 -254t96.5 -369.5t-96.5 -369t-259.5 -253.5t-361 -89.5zM825 117q244 0 404 165t160 414q0 164 -72.5 296.5t-201.5 208t-290 75.5q-242 0 -401.5 -165t-159.5 -415
q0 -123 42.5 -230.5t116.5 -184t178 -120.5t224 -44zM632 1532l-106 8q6 108 54 167.5t124 59.5q40 0 71.5 -16t69.5 -49q42 -37 59 -47.5t40 -10.5q62 0 74 119l106 -10q-6 -108 -52.5 -166.5t-123.5 -58.5q-39 0 -70.5 16.5t-70.5 50.5q-41 36 -58 46.5t-41 10.5
q-64 0 -76 -120z" />
    <glyph glyph-name="Odieresis" unicode="&#xd6;" horiz-adv-x="1652" 
d="M1004 1579q-37 0 -67 28t-30 66q0 39 29.5 66.5t67.5 27.5q37 0 65.5 -27.5t28.5 -66.5q0 -38 -28.5 -66t-65.5 -28zM647 1579q-37 0 -65.5 28t-28.5 66q0 39 28.5 66.5t65.5 27.5q39 0 67.5 -27.5t28.5 -66.5q0 -38 -29 -66t-67 -28zM825 -16q-197 0 -359.5 89.5
t-258.5 253.5t-96 369t96 369.5t259 254t359 89.5q197 0 360.5 -89.5t260 -254t96.5 -369.5t-96.5 -369t-259.5 -253.5t-361 -89.5zM825 117q244 0 404 165t160 414q0 164 -72.5 296.5t-201.5 208t-290 75.5q-242 0 -401.5 -165t-159.5 -415q0 -123 42.5 -230.5t116.5 -184
t178 -120.5t224 -44z" />
    <glyph glyph-name="multiply" unicode="&#xd7;" 
d="M207 387q-44 0 -77.5 33.5t-33.5 79.5t33.5 78t77.5 32q45 0 77.5 -31.5t32.5 -78.5t-32.5 -80t-77.5 -33z" />
    <glyph glyph-name="Oslash" unicode="&#xd8;" horiz-adv-x="1652" 
d="M1380 1159q162 -196 162 -463q0 -205 -96.5 -369t-259.5 -253.5t-361 -89.5q-268 0 -463 159l-163 -163l-93 90l166 163q-161 195 -161 463q0 205 96 369.5t259 254t359 89.5q266 0 465 -162l164 164l90 -90zM377 338q51 51 135.5 135t262.5 261t296 295t117 118
q-148 129 -363 129q-242 0 -401.5 -165t-159.5 -415q0 -204 113 -358zM1276 1055l-811 -811q152 -127 360 -127q244 0 404 165t160 414q0 205 -113 359z" />
    <glyph glyph-name="Ugrave" unicode="&#xd9;" horiz-adv-x="1355" 
d="M678 -16q-223 0 -361.5 127.5t-138.5 363.5v918h148v-908q0 -182 93 -276t259 -94q165 0 258.5 94t93.5 276v908h148v-918q0 -236 -139.5 -363.5t-360.5 -127.5zM625 1542l-191 395h164l139 -395h-112z" />
    <glyph glyph-name="Uacute" unicode="&#xda;" horiz-adv-x="1355" 
d="M678 -16q-223 0 -361.5 127.5t-138.5 363.5v918h148v-908q0 -182 93 -276t259 -94q165 0 258.5 94t93.5 276v908h148v-918q0 -236 -139.5 -363.5t-360.5 -127.5zM619 1542l139 395h164l-191 -395h-112z" />
    <glyph glyph-name="Ucircumflex" unicode="&#xdb;" horiz-adv-x="1355" 
d="M678 -16q-223 0 -361.5 127.5t-138.5 363.5v918h148v-908q0 -182 93 -276t259 -94q165 0 258.5 94t93.5 276v908h148v-918q0 -236 -139.5 -363.5t-360.5 -127.5zM406 1538l262 395h18l262 -395h-125l-145 203l-147 -203h-125z" />
    <glyph glyph-name="Udieresis" unicode="&#xdc;" horiz-adv-x="1355" 
d="M856 1579q-37 0 -66.5 28t-29.5 66q0 39 29 66.5t67 27.5q37 0 65.5 -27.5t28.5 -66.5q0 -38 -28.5 -66t-65.5 -28zM500 1579q-37 0 -65.5 28t-28.5 66q0 39 28.5 66.5t65.5 27.5q39 0 67.5 -27.5t28.5 -66.5q0 -38 -29 -66t-67 -28zM678 -16q-223 0 -361.5 127.5
t-138.5 363.5v918h148v-908q0 -182 93 -276t259 -94q165 0 258.5 94t93.5 276v908h148v-918q0 -236 -139.5 -363.5t-360.5 -127.5z" />
    <glyph glyph-name="Yacute" unicode="&#xdd;" horiz-adv-x="1343" 
d="M602 0v436l-526 957h166l379 -693q14 -24 28.5 -59t22.5 -59l8 -23q30 86 59 141l377 693h154l-516 -951v-442h-152zM613 1542l139 395h164l-191 -395h-112z" />
    <glyph glyph-name="Thorn" unicode="&#xde;" horiz-adv-x="1196" 
d="M190 0v1393h148v-162h180q271 0 417 -144t146 -380q0 -115 -36 -210.5t-105 -166t-177 -109.5t-245 -39h-180v-182h-148zM338 313h172q218 0 318 105.5t100 288.5t-100 288t-318 105h-172v-787z" />
    <glyph glyph-name="germandbls" unicode="&#xdf;" horiz-adv-x="1105" 
d="M580 -10q-91 0 -156 26l31 117q43 -18 110 -18q144 0 219.5 85t75.5 230q0 154 -96.5 239.5t-271.5 82.5v118q111 12 175 84t64 189q0 121 -60.5 181t-154.5 60q-98 0 -159.5 -64.5t-61.5 -203.5v-1116h-143v1118q0 97 29.5 173t80.5 121.5t115.5 69t138.5 23.5
q152 0 251 -94t99 -264q0 -109 -49.5 -191.5t-146.5 -124.5q154 -30 246 -136t92 -267q0 -194 -113.5 -316t-314.5 -122z" />
    <glyph glyph-name="agrave" unicode="&#xe0;" horiz-adv-x="964" 
d="M678 498v20q0 119 -51 173t-148 54q-158 0 -248 -122l-88 79q121 164 346 164q148 0 240 -88t92 -258v-520h-143l6 127q-95 -143 -281 -143q-141 0 -226 65.5t-85 192.5q0 125 90.5 190.5t231.5 65.5h264zM678 389h-254q-88 0 -140.5 -34t-52.5 -107q0 -72 52.5 -110
t152.5 -38q101 0 171.5 51t70.5 132v106zM436 1020l-191 395h164l139 -395h-112z" />
    <glyph glyph-name="aacute" unicode="&#xe1;" horiz-adv-x="964" 
d="M678 498v20q0 119 -51 173t-148 54q-158 0 -248 -122l-88 79q121 164 346 164q148 0 240 -88t92 -258v-520h-143l6 127q-95 -143 -281 -143q-141 0 -226 65.5t-85 192.5q0 125 90.5 190.5t231.5 65.5h264zM678 389h-254q-88 0 -140.5 -34t-52.5 -107q0 -72 52.5 -110
t152.5 -38q101 0 171.5 51t70.5 132v106zM416 1020l139 395h164l-191 -395h-112z" />
    <glyph glyph-name="acircumflex" unicode="&#xe2;" horiz-adv-x="964" 
d="M678 498v20q0 119 -51 173t-148 54q-158 0 -248 -122l-88 79q121 164 346 164q148 0 240 -88t92 -258v-520h-143l6 127q-95 -143 -281 -143q-141 0 -226 65.5t-85 192.5q0 125 90.5 190.5t231.5 65.5h264zM678 389h-254q-88 0 -140.5 -34t-52.5 -107q0 -72 52.5 -110
t152.5 -38q101 0 171.5 51t70.5 132v106zM213 1016l262 395h18l262 -395h-125l-145 203l-147 -203h-125z" />
    <glyph glyph-name="atilde" unicode="&#xe3;" horiz-adv-x="964" 
d="M678 498v20q0 119 -51 173t-148 54q-158 0 -248 -122l-88 79q121 164 346 164q148 0 240 -88t92 -258v-520h-143l6 127q-95 -143 -281 -143q-141 0 -226 65.5t-85 192.5q0 125 90.5 190.5t231.5 65.5h264zM678 389h-254q-88 0 -140.5 -34t-52.5 -107q0 -72 52.5 -110
t152.5 -38q101 0 171.5 51t70.5 132v106zM280 1010l-106 8q6 108 54 167.5t124 59.5q40 0 71.5 -16t69.5 -49q42 -37 59 -47.5t40 -10.5q62 0 74 119l106 -10q-6 -108 -52.5 -166.5t-123.5 -58.5q-39 0 -70.5 16.5t-70.5 50.5q-41 36 -58 46.5t-41 10.5q-64 0 -76 -120z" />
    <glyph glyph-name="adieresis" unicode="&#xe4;" horiz-adv-x="964" 
d="M678 498v20q0 119 -51 173t-148 54q-158 0 -248 -122l-88 79q121 164 346 164q148 0 240 -88t92 -258v-520h-143l6 127q-95 -143 -281 -143q-141 0 -226 65.5t-85 192.5q0 125 90.5 190.5t231.5 65.5h264zM678 389h-254q-88 0 -140.5 -34t-52.5 -107q0 -72 52.5 -110
t152.5 -38q101 0 171.5 51t70.5 132v106zM663 1057q-37 0 -66.5 28t-29.5 66q0 39 29 66.5t67 27.5q37 0 65.5 -27.5t28.5 -66.5q0 -38 -28.5 -66t-65.5 -28zM307 1057q-37 0 -65.5 28t-28.5 66q0 39 28.5 66.5t65.5 27.5q39 0 67.5 -27.5t28.5 -66.5q0 -38 -29 -66t-67 -28
z" />
    <glyph glyph-name="aring" unicode="&#xe5;" horiz-adv-x="964" 
d="M678 498v20q0 119 -51 173t-148 54q-158 0 -248 -122l-88 79q121 164 346 164q148 0 240 -88t92 -258v-520h-143l6 127q-95 -143 -281 -143q-141 0 -226 65.5t-85 192.5q0 125 90.5 190.5t231.5 65.5h264zM678 389h-254q-88 0 -140.5 -34t-52.5 -107q0 -72 52.5 -110
t152.5 -38q101 0 171.5 51t70.5 132v106zM481 991q-90 0 -152.5 60t-62.5 145q0 87 62.5 147t152.5 60t152.5 -60t62.5 -147q0 -85 -62.5 -145t-152.5 -60zM481 1083q47 0 76.5 31t29.5 82q0 52 -29 82.5t-77 30.5t-77 -30.5t-29 -82.5q0 -51 29.5 -82t76.5 -31z" />
    <glyph glyph-name="ae" unicode="&#xe6;" horiz-adv-x="1636" 
d="M678 492v24q0 120 -50.5 174.5t-148.5 54.5q-158 0 -248 -122l-88 79q121 164 346 164q104 0 176.5 -49.5t104.5 -142.5q55 86 145 139t199 53q201 0 317.5 -136t110.5 -345h-723q12 -125 95.5 -203t220.5 -78q164 0 270 113l86 -86q-130 -147 -354 -147
q-128 0 -223.5 52.5t-149.5 145.5q-32 -96 -128 -147t-214 -51q-151 0 -240.5 65t-89.5 191q0 125 91 188.5t231 63.5h264zM823 492h574q-10 108 -82.5 180.5t-198.5 72.5q-117 0 -195.5 -70t-97.5 -183zM678 385h-254q-87 0 -140 -33t-53 -106q0 -146 205 -146
q101 0 171.5 51t70.5 132v102z" />
    <glyph glyph-name="ccedilla" unicode="&#xe7;" horiz-adv-x="956" 
d="M444 -6q-153 31 -249.5 150t-96.5 280q0 186 127 314t314 128q208 0 333 -151l-102 -84q-81 108 -231 108q-133 0 -213 -89t-80 -226t80 -226t213 -89q150 0 243 110l99 -84q-126 -151 -338 -151v-93q70 -10 119 -59.5t49 -126.5q0 -82 -58.5 -131t-138.5 -49
q-75 0 -127.5 33.5t-79.5 87.5l88 51q16 -26 26.5 -39t32.5 -25t52 -12q39 0 65.5 24t26.5 68q0 42 -28 69.5t-81 27.5h-45v184z" />
    <glyph glyph-name="egrave" unicode="&#xe8;" horiz-adv-x="1056" 
d="M242 377q14 -125 96.5 -199t218.5 -74q166 0 268 113l88 -86q-130 -147 -356 -147q-206 0 -332.5 125.5t-126.5 314.5q0 186 126.5 314t312.5 128q201 0 317.5 -137.5t108.5 -351.5h-721zM244 485h575q-10 115 -82 187.5t-200 72.5q-120 0 -197.5 -70.5t-95.5 -189.5z
M482 1020l-191 395h164l139 -395h-112z" />
    <glyph glyph-name="eacute" unicode="&#xe9;" horiz-adv-x="1056" 
d="M242 377q14 -125 96.5 -199t218.5 -74q166 0 268 113l88 -86q-130 -147 -356 -147q-206 0 -332.5 125.5t-126.5 314.5q0 186 126.5 314t312.5 128q201 0 317.5 -137.5t108.5 -351.5h-721zM244 485h575q-10 115 -82 187.5t-200 72.5q-120 0 -197.5 -70.5t-95.5 -189.5z
M469 1020l139 395h164l-191 -395h-112z" />
    <glyph glyph-name="ecircumflex" unicode="&#xea;" horiz-adv-x="1056" 
d="M242 377q14 -125 96.5 -199t218.5 -74q166 0 268 113l88 -86q-130 -147 -356 -147q-206 0 -332.5 125.5t-126.5 314.5q0 186 126.5 314t312.5 128q201 0 317.5 -137.5t108.5 -351.5h-721zM244 485h575q-10 115 -82 187.5t-200 72.5q-120 0 -197.5 -70.5t-95.5 -189.5z
M256 1016l262 395h18l262 -395h-125l-145 203l-147 -203h-125z" />
    <glyph glyph-name="edieresis" unicode="&#xeb;" horiz-adv-x="1056" 
d="M242 377q14 -125 96.5 -199t218.5 -74q166 0 268 113l88 -86q-130 -147 -356 -147q-206 0 -332.5 125.5t-126.5 314.5q0 186 126.5 314t312.5 128q201 0 317.5 -137.5t108.5 -351.5h-721zM244 485h575q-10 115 -82 187.5t-200 72.5q-120 0 -197.5 -70.5t-95.5 -189.5z
M706 1057q-37 0 -66.5 28t-29.5 66q0 39 29 66.5t67 27.5q37 0 65.5 -27.5t28.5 -66.5q0 -38 -28.5 -66t-65.5 -28zM350 1057q-37 0 -65.5 28t-28.5 66q0 39 28.5 66.5t65.5 27.5q39 0 67.5 -27.5t28.5 -66.5q0 -38 -29 -66t-67 -28z" />
    <glyph glyph-name="igrave" unicode="&#xec;" horiz-adv-x="454" 
d="M156 0v848h143v-848h-143zM170 1020l-191 395h164l139 -395h-112z" />
    <glyph glyph-name="iacute" unicode="&#xed;" horiz-adv-x="454" 
d="M156 0v848h143v-848h-143zM166 1020l139 395h164l-191 -395h-112z" />
    <glyph glyph-name="icircumflex" unicode="&#xee;" horiz-adv-x="454" 
d="M156 0v848h143v-848h-143zM-45 1016l262 395h18l262 -395h-125l-145 203l-147 -203h-125z" />
    <glyph glyph-name="idieresis" unicode="&#xef;" horiz-adv-x="454" 
d="M156 0v848h143v-848h-143zM405 1057q-37 0 -66.5 28t-29.5 66q0 39 29 66.5t67 27.5q37 0 65.5 -27.5t28.5 -66.5q0 -38 -28.5 -66t-65.5 -28zM49 1057q-37 0 -65.5 28t-28.5 66q0 39 28.5 66.5t65.5 27.5q39 0 67.5 -27.5t28.5 -66.5q0 -38 -29 -66t-67 -28z" />
    <glyph glyph-name="eth" unicode="&#xf0;" horiz-adv-x="1093" 
d="M565 1178l-137 -134l-72 72l144 139q-82 93 -172 168l80 88q99 -78 182 -165l137 135l76 -74l-144 -137q336 -391 336 -824q0 -199 -128 -330.5t-318 -131.5q-191 0 -321 127t-130 313q0 122 59 224t158.5 160t216.5 58q177 0 277 -133q-60 224 -244 445zM549 106
q134 0 217.5 92.5t83.5 233.5q0 135 -83.5 222t-217.5 87q-135 0 -220 -89.5t-85 -227.5t85 -228t220 -90z" />
    <glyph glyph-name="ntilde" unicode="&#xf1;" horiz-adv-x="1056" 
d="M152 0v848h143l-4 -174q41 91 121.5 141.5t183.5 50.5q143 0 230 -93.5t87 -256.5v-516h-143v500q0 114 -53 174.5t-158 60.5q-120 0 -192 -71.5t-72 -196.5v-467h-143zM329 1010l-106 8q6 108 54 167.5t124 59.5q40 0 71.5 -16t69.5 -49q42 -37 59 -47.5t40 -10.5
q62 0 74 119l106 -10q-6 -108 -52.5 -166.5t-123.5 -58.5q-39 0 -70.5 16.5t-70.5 50.5q-41 36 -58 46.5t-41 10.5q-64 0 -76 -120z" />
    <glyph glyph-name="ograve" unicode="&#xf2;" horiz-adv-x="1093" 
d="M549 -16q-191 0 -321 127t-130 313t130.5 314t320.5 128q189 0 317.5 -128t128.5 -314t-128.5 -313t-317.5 -127zM549 106q134 0 217.5 90t83.5 228t-83.5 227.5t-217.5 89.5q-135 0 -220 -89.5t-85 -227.5t85 -228t220 -90zM492 1020l-191 395h164l139 -395h-112z" />
    <glyph glyph-name="oacute" unicode="&#xf3;" horiz-adv-x="1093" 
d="M549 -16q-191 0 -321 127t-130 313t130.5 314t320.5 128q189 0 317.5 -128t128.5 -314t-128.5 -313t-317.5 -127zM549 106q134 0 217.5 90t83.5 228t-83.5 227.5t-217.5 89.5q-135 0 -220 -89.5t-85 -227.5t85 -228t220 -90zM490 1020l139 395h164l-191 -395h-112z" />
    <glyph glyph-name="ocircumflex" unicode="&#xf4;" horiz-adv-x="1093" 
d="M549 -16q-191 0 -321 127t-130 313t130.5 314t320.5 128q189 0 317.5 -128t128.5 -314t-128.5 -313t-317.5 -127zM549 106q134 0 217.5 90t83.5 228t-83.5 227.5t-217.5 89.5q-135 0 -220 -89.5t-85 -227.5t85 -228t220 -90zM275 1016l262 395h18l262 -395h-125l-145 203
l-147 -203h-125z" />
    <glyph glyph-name="otilde" unicode="&#xf5;" horiz-adv-x="1093" 
d="M549 -16q-191 0 -321 127t-130 313t130.5 314t320.5 128q189 0 317.5 -128t128.5 -314t-128.5 -313t-317.5 -127zM549 106q134 0 217.5 90t83.5 228t-83.5 227.5t-217.5 89.5q-135 0 -220 -89.5t-85 -227.5t85 -228t220 -90zM354 1010l-106 8q6 108 54 167.5t124 59.5
q40 0 71.5 -16t69.5 -49q42 -37 59 -47.5t40 -10.5q62 0 74 119l106 -10q-6 -108 -52.5 -166.5t-123.5 -58.5q-39 0 -70.5 16.5t-70.5 50.5q-41 36 -58 46.5t-41 10.5q-64 0 -76 -120z" />
    <glyph glyph-name="odieresis" unicode="&#xf6;" horiz-adv-x="1093" 
d="M549 -16q-191 0 -321 127t-130 313t130.5 314t320.5 128q189 0 317.5 -128t128.5 -314t-128.5 -313t-317.5 -127zM549 106q134 0 217.5 90t83.5 228t-83.5 227.5t-217.5 89.5q-135 0 -220 -89.5t-85 -227.5t85 -228t220 -90zM725 1057q-37 0 -66.5 28t-29.5 66
q0 39 29 66.5t67 27.5q37 0 65.5 -27.5t28.5 -66.5q0 -38 -28.5 -66t-65.5 -28zM369 1057q-37 0 -65.5 28t-28.5 66q0 39 28.5 66.5t65.5 27.5q39 0 67.5 -27.5t28.5 -66.5q0 -38 -29 -66t-67 -28z" />
    <glyph glyph-name="divide" unicode="&#xf7;" 
d="M207 387q-44 0 -77.5 33.5t-33.5 79.5t33.5 78t77.5 32q45 0 77.5 -31.5t32.5 -78.5t-32.5 -80t-77.5 -33z" />
    <glyph glyph-name="oslash" unicode="&#xf8;" horiz-adv-x="1093" 
d="M909 688q86 -120 86 -264q0 -186 -128.5 -313t-317.5 -127q-165 0 -291 102l-119 -111l-71 76l118 109q-88 118 -88 264q0 186 130.5 314t320.5 128q164 0 287 -102l116 106l72 -75zM283 250l460 426q-79 67 -194 67q-137 0 -223 -90t-86 -229q0 -93 43 -174zM811 596
l-461 -424q84 -68 199 -68q135 0 220 90.5t85 229.5q0 102 -43 172z" />
    <glyph glyph-name="ugrave" unicode="&#xf9;" horiz-adv-x="1054" 
d="M461 -18q-143 0 -230.5 92.5t-87.5 253.5v520h144v-506q0 -111 53 -170t156 -59q121 0 192.5 72t71.5 196v467h143v-848h-143l4 172q-41 -90 -121 -140t-182 -50zM473 1020l-191 395h164l139 -395h-112z" />
    <glyph glyph-name="uacute" unicode="&#xfa;" horiz-adv-x="1054" 
d="M461 -18q-143 0 -230.5 92.5t-87.5 253.5v520h144v-506q0 -111 53 -170t156 -59q121 0 192.5 72t71.5 196v467h143v-848h-143l4 172q-41 -90 -121 -140t-182 -50zM467 1020l139 395h164l-191 -395h-112z" />
    <glyph glyph-name="ucircumflex" unicode="&#xfb;" horiz-adv-x="1054" 
d="M461 -18q-143 0 -230.5 92.5t-87.5 253.5v520h144v-506q0 -111 53 -170t156 -59q121 0 192.5 72t71.5 196v467h143v-848h-143l4 172q-41 -90 -121 -140t-182 -50zM254 1016l262 395h18l262 -395h-125l-145 203l-147 -203h-125z" />
    <glyph glyph-name="udieresis" unicode="&#xfc;" horiz-adv-x="1054" 
d="M461 -18q-143 0 -230.5 92.5t-87.5 253.5v520h144v-506q0 -111 53 -170t156 -59q121 0 192.5 72t71.5 196v467h143v-848h-143l4 172q-41 -90 -121 -140t-182 -50zM704 1057q-37 0 -66.5 28t-29.5 66q0 39 29 66.5t67 27.5q37 0 65.5 -27.5t28.5 -66.5q0 -38 -28.5 -66
t-65.5 -28zM348 1057q-37 0 -65.5 28t-28.5 66q0 39 28.5 66.5t65.5 27.5q39 0 67.5 -27.5t28.5 -66.5q0 -38 -29 -66t-67 -28z" />
    <glyph glyph-name="yacute" unicode="&#xfd;" horiz-adv-x="946" 
d="M195 -434l217 506l-361 776h158l240 -526q10 -24 19.5 -60t13.5 -60l5 -24q14 91 39 144l222 526h147l-553 -1282h-147zM420 1020l139 395h164l-191 -395h-112z" />
    <glyph glyph-name="thorn" unicode="&#xfe;" horiz-adv-x="1130" 
d="M156 -434v1913h143v-805q46 89 130 140.5t198 51.5q173 0 289 -125.5t116 -314.5q0 -190 -116.5 -316t-290.5 -126q-111 0 -197 53t-129 139v-610h-143zM592 109q132 0 212.5 88.5t80.5 228.5q0 138 -80.5 225.5t-212.5 87.5q-134 0 -217.5 -88t-83.5 -225
q0 -139 83.5 -228t217.5 -89z" />
    <glyph glyph-name="ydieresis" unicode="&#xff;" horiz-adv-x="946" 
d="M195 -434l217 506l-361 776h158l240 -526q10 -24 19.5 -60t13.5 -60l5 -24q14 91 39 144l222 526h147l-553 -1282h-147zM649 1057q-37 0 -66.5 28t-29.5 66q0 39 29 66.5t67 27.5q37 0 65.5 -27.5t28.5 -66.5q0 -38 -28.5 -66t-65.5 -28zM293 1057q-37 0 -65.5 28
t-28.5 66q0 39 28.5 66.5t65.5 27.5q39 0 67.5 -27.5t28.5 -66.5q0 -38 -29 -66t-67 -28z" />
    <glyph glyph-name="Amacron" unicode="&#x100;" horiz-adv-x="1341" 
d="M453 1583v113h430v-113h-430zM76 0l577 1407h25l590 -1407h-156l-94 233h-705l-92 -233h-145zM365 360h600l-246 619q-12 29 -25.5 70.5t-20.5 68.5l-7 27q-29 -100 -56 -166z" />
    <glyph glyph-name="amacron" unicode="&#x101;" horiz-adv-x="964" 
d="M276 1061v113h431v-113h-431zM678 498v20q0 119 -51 173t-148 54q-158 0 -248 -122l-88 79q121 164 346 164q148 0 240 -88t92 -258v-520h-143l6 127q-95 -143 -281 -143q-141 0 -226 65.5t-85 192.5q0 125 90.5 190.5t231.5 65.5h264zM678 389h-254q-88 0 -140.5 -34
t-52.5 -107q0 -72 52.5 -110t152.5 -38q101 0 171.5 51t70.5 132v106z" />
    <glyph glyph-name="Abreve" unicode="&#x102;" horiz-adv-x="1341" 
d="M664 1524q-114 0 -183.5 65.5t-85.5 171.5l115 21q32 -146 154 -146q121 0 153 146l115 -21q-16 -106 -85 -171.5t-183 -65.5zM76 0l577 1407h25l590 -1407h-156l-94 233h-705l-92 -233h-145zM365 360h600l-246 619q-12 29 -25.5 70.5t-20.5 68.5l-7 27
q-29 -100 -56 -166z" />
    <glyph glyph-name="abreve" unicode="&#x103;" horiz-adv-x="964" 
d="M481 1001q-114 0 -183 66t-85 172l115 21q32 -146 153 -146q122 0 154 146l115 -21q-16 -106 -85.5 -172t-183.5 -66zM678 498v20q0 119 -51 173t-148 54q-158 0 -248 -122l-88 79q121 164 346 164q148 0 240 -88t92 -258v-520h-143l6 127q-95 -143 -281 -143
q-141 0 -226 65.5t-85 192.5q0 125 90.5 190.5t231.5 65.5h264zM678 389h-254q-88 0 -140.5 -34t-52.5 -107q0 -72 52.5 -110t152.5 -38q101 0 171.5 51t70.5 132v106z" />
    <glyph glyph-name="Aogonek" unicode="&#x104;" horiz-adv-x="1341" 
d="M1257 25l-90 -146q-36 -58 -49.5 -92.5t-13.5 -77.5q0 -41 23 -62.5t57 -21.5q36 0 59.5 19t44.5 53l90 -51q-62 -121 -200 -121q-80 0 -135.5 47t-55.5 133q0 96 84 207l49 65l-102 256h-705l-92 -233h-145l577 1407h25zM365 360h600l-246 619q-12 29 -25.5 70.5
t-20.5 68.5l-7 27q-29 -100 -56 -166z" />
    <glyph glyph-name="aogonek" unicode="&#x105;" horiz-adv-x="964" 
d="M821 31l-92 -152q-35 -58 -49 -92.5t-14 -77.5q0 -41 22.5 -62.5t56.5 -21.5q60 0 105 72l90 -51q-62 -121 -201 -121q-80 0 -135 47t-55 133q0 96 84 207l43 57l8 158q-95 -143 -281 -143q-141 0 -226 65.5t-85 192.5q0 125 90.5 190.5t231.5 65.5h264v20q0 119 -51 173
t-148 54q-158 0 -248 -122l-88 79q121 164 346 164q148 0 240 -88t92 -258v-489zM678 389h-254q-88 0 -140.5 -34t-52.5 -107q0 -72 52.5 -110t152.5 -38q101 0 171.5 51t70.5 132v106z" />
    <glyph glyph-name="Cacute" unicode="&#x106;" horiz-adv-x="1486" 
d="M737 1542l140 395h163l-190 -395h-113zM825 -16q-197 0 -359.5 89.5t-258.5 253.5t-96 369t96 369.5t259 254t359 89.5q372 0 553 -270l-112 -82q-70 103 -182 161t-259 58q-161 0 -289.5 -75.5t-200 -208t-71.5 -296.5q0 -123 42 -230.5t116 -184t178.5 -120.5
t224.5 -44q149 0 265.5 61t193.5 172l115 -80q-93 -137 -241 -211.5t-333 -74.5z" />
    <glyph glyph-name="cacute" unicode="&#x107;" horiz-adv-x="958" 
d="M459 1020l139 395h164l-191 -395h-112zM539 -16q-187 0 -314 127t-127 313t127 314t314 128q208 0 333 -151l-102 -84q-81 108 -231 108q-133 0 -213 -89t-80 -226t80 -226t213 -89q150 0 243 110l99 -84q-126 -151 -342 -151z" />
    <glyph glyph-name="Ccircumflex" unicode="&#x108;" horiz-adv-x="1486" 
d="M535 1538l262 395h18l262 -395h-125l-145 203l-148 -203h-124zM825 -16q-197 0 -359.5 89.5t-258.5 253.5t-96 369t96 369.5t259 254t359 89.5q372 0 553 -270l-112 -82q-70 103 -182 161t-259 58q-161 0 -289.5 -75.5t-200 -208t-71.5 -296.5q0 -123 42 -230.5t116 -184
t178.5 -120.5t224.5 -44q149 0 265.5 61t193.5 172l115 -80q-93 -137 -241 -211.5t-333 -74.5z" />
    <glyph glyph-name="ccircumflex" unicode="&#x109;" horiz-adv-x="958" 
d="M252 1016l262 395h18l263 -395h-125l-146 203l-147 -203h-125zM539 -16q-187 0 -314 127t-127 313t127 314t314 128q208 0 333 -151l-102 -84q-81 108 -231 108q-133 0 -213 -89t-80 -226t80 -226t213 -89q150 0 243 110l99 -84q-126 -151 -342 -151z" />
    <glyph glyph-name="Ccaron" unicode="&#x10c;" horiz-adv-x="1486" 
d="M801 1522l-262 395h125l145 -203l147 203h125l-262 -395h-18zM825 -16q-197 0 -359.5 89.5t-258.5 253.5t-96 369t96 369.5t259 254t359 89.5q372 0 553 -270l-112 -82q-70 103 -182 161t-259 58q-161 0 -289.5 -75.5t-200 -208t-71.5 -296.5q0 -123 42 -230.5t116 -184
t178.5 -120.5t224.5 -44q149 0 265.5 61t193.5 172l115 -80q-93 -137 -241 -211.5t-333 -74.5z" />
    <glyph glyph-name="ccaron" unicode="&#x10d;" horiz-adv-x="958" 
d="M512 999l-262 396h125l145 -203l148 203h125l-263 -396h-18zM539 -16q-187 0 -314 127t-127 313t127 314t314 128q208 0 333 -151l-102 -84q-81 108 -231 108q-133 0 -213 -89t-80 -226t80 -226t213 -89q150 0 243 110l99 -84q-126 -151 -342 -151z" />
    <glyph glyph-name="Dcaron" unicode="&#x10e;" horiz-adv-x="1392" 
d="M612 1522l-262 395h125l146 -203l147 203h125l-262 -395h-19zM190 0v1393h338q347 0 550.5 -189.5t203.5 -507.5t-203 -507t-551 -189h-338zM338 133h180q151 0 268 41t191 116t111.5 177.5t37.5 228.5q0 258 -154.5 411t-453.5 153h-180v-1127z" />
    <glyph glyph-name="dcaron" unicode="&#x10f;" horiz-adv-x="1310" 
d="M1124 987l70 213q-29 9 -48.5 36.5t-19.5 61.5q0 45 32.5 77t74.5 32q43 0 75.5 -31.5t32.5 -75.5q0 -25 -26 -83l-115 -230h-76zM510 -16q-174 0 -293 126.5t-119 315.5q0 188 118.5 314t291.5 126q222 0 326 -192v805h141v-1479h-141l4 182q-44 -90 -130.5 -144
t-197.5 -54zM539 109q134 0 217.5 89t83.5 228q0 137 -83.5 225t-217.5 88q-132 0 -212.5 -87.5t-80.5 -225.5q0 -140 80.5 -228.5t212.5 -88.5z" />
    <glyph glyph-name="Dcroat" unicode="&#x110;" horiz-adv-x="1392" 
d="M190 0v496h-161v129h161v768h355q167 0 305.5 -51t233 -142.5t146.5 -221t52 -282.5q0 -312 -199.5 -504t-537.5 -192h-355zM338 133h197q289 0 440 152.5t151 410.5t-151 411t-440 153h-197v-635h375v-129h-375v-363z" />
    <glyph glyph-name="dcroat" unicode="&#x111;" horiz-adv-x="1128" 
d="M834 1079h-295v121h295v279h141v-279h158v-121h-158v-1079h-141l4 182q-44 -90 -132 -144t-200 -54q-174 0 -291 126t-117 316q0 188 117 314t289 126q226 0 330 -192v405zM539 109q134 0 217.5 89t83.5 228q0 137 -83.5 225t-217.5 88q-132 0 -212.5 -87.5t-80.5 -225.5
q0 -140 80.5 -228.5t212.5 -88.5z" />
    <glyph glyph-name="Emacron" unicode="&#x112;" horiz-adv-x="1187" 
d="M406 1583v113h430v-113h-430zM190 0v1393h848v-131h-700v-654h625v-129h-625v-348h729v-131h-877z" />
    <glyph glyph-name="emacron" unicode="&#x113;" horiz-adv-x="1056" 
d="M322 1061v113h430v-113h-430zM242 377q14 -125 96.5 -199t218.5 -74q166 0 268 113l88 -86q-130 -147 -356 -147q-206 0 -332.5 125.5t-126.5 314.5q0 186 126.5 314t312.5 128q201 0 317.5 -137.5t108.5 -351.5h-721zM244 485h575q-10 115 -82 187.5t-200 72.5
q-120 0 -197.5 -70.5t-95.5 -189.5z" />
    <glyph glyph-name="Edotaccent" unicode="&#x116;" horiz-adv-x="1187" 
d="M621 1579q-38 0 -67.5 27t-29.5 67t29.5 68t67.5 28t67 -28t29 -68t-29 -67t-67 -27zM190 0v1393h848v-131h-700v-654h625v-129h-625v-348h729v-131h-877z" />
    <glyph glyph-name="edotaccent" unicode="&#x117;" horiz-adv-x="1056" 
d="M541 1057q-38 0 -67.5 27t-29.5 67t29.5 68t67.5 28t67 -28t29 -68t-29 -67t-67 -27zM242 377q14 -125 96.5 -199t218.5 -74q166 0 268 113l88 -86q-130 -147 -356 -147q-206 0 -332.5 125.5t-126.5 314.5q0 186 126.5 314t312.5 128q201 0 317.5 -137.5t108.5 -351.5
h-721zM244 485h575q-10 115 -82 187.5t-200 72.5q-120 0 -197.5 -70.5t-95.5 -189.5z" />
    <glyph glyph-name="Eogonek" unicode="&#x118;" horiz-adv-x="1187" 
d="M844 0h-654v1393h848v-131h-700v-654h625v-129h-625v-348h729v-131h-119l-74 -121q-35 -58 -49 -92.5t-14 -77.5q0 -41 23 -62.5t57 -21.5q36 0 59.5 19t44.5 53l90 -51q-62 -121 -200 -121q-80 0 -135.5 47t-55.5 133q0 96 84 207z" />
    <glyph glyph-name="eogonek" unicode="&#x119;" horiz-adv-x="1056" 
d="M592 -16l-64 -105q-35 -58 -49 -92.5t-14 -77.5q0 -41 23 -62.5t57 -21.5q36 0 59.5 19t44.5 53l90 -51q-62 -121 -200 -121q-80 0 -135.5 47t-55.5 133q0 96 84 207l55 76q-177 22 -283 143t-106 293q0 186 126.5 314t312.5 128q201 0 317.5 -137.5t108.5 -351.5h-721
q14 -125 96.5 -199t218.5 -74q166 0 268 113l88 -86q-119 -136 -321 -147zM244 485h575q-10 115 -82 187.5t-200 72.5q-120 0 -197.5 -70.5t-95.5 -189.5z" />
    <glyph glyph-name="Ecaron" unicode="&#x11a;" horiz-adv-x="1187" 
d="M610 1522l-262 395h125l145 -203l148 203h125l-262 -395h-19zM190 0v1393h848v-131h-700v-654h625v-129h-625v-348h729v-131h-877z" />
    <glyph glyph-name="ecaron" unicode="&#x11b;" horiz-adv-x="1056" 
d="M524 999l-262 396h125l145 -203l148 203h125l-262 -396h-19zM242 377q14 -125 96.5 -199t218.5 -74q166 0 268 113l88 -86q-130 -147 -356 -147q-206 0 -332.5 125.5t-126.5 314.5q0 186 126.5 314t312.5 128q201 0 317.5 -137.5t108.5 -351.5h-721zM244 485h575
q-10 115 -82 187.5t-200 72.5q-120 0 -197.5 -70.5t-95.5 -189.5z" />
    <glyph glyph-name="Gcircumflex" unicode="&#x11c;" horiz-adv-x="1521" 
d="M530 1538l263 395h18l262 -395h-125l-145 203l-148 -203h-125zM840 -16q-154 0 -289 52.5t-232 145.5t-152.5 226t-55.5 288q0 206 94 369.5t257.5 253.5t364.5 90q318 0 486 -180l-101 -101q-142 148 -385 148q-161 0 -290 -75.5t-201 -208t-72 -296.5
q0 -250 162 -414.5t414 -164.5q255 0 411 127v286h-413v132h553v-486q-85 -83 -226.5 -137.5t-324.5 -54.5z" />
    <glyph glyph-name="gcircumflex" unicode="&#x11d;" horiz-adv-x="966" 
d="M227 1016l262 395h19l262 -395h-125l-145 203l-148 -203h-125zM602 848h307v-109h-166q68 -71 68 -174q0 -132 -92 -217.5t-238 -85.5q-103 0 -174 39q-33 -9 -51 -32t-18 -54q0 -80 110 -86l217 -16q181 -13 269 -80t88 -189q0 -139 -120.5 -220t-330.5 -81
q-203 0 -318.5 75.5t-115.5 203.5q0 159 201 221q-119 40 -119 158q0 53 31 93t86 62q-93 80 -93 209q0 132 95 216.5t243 84.5q65 0 121 -18zM479 373q94 0 148.5 52.5t54.5 139.5t-54.5 139t-148.5 52q-96 0 -150.5 -52t-54.5 -139t54.5 -139.5t150.5 -52.5zM328 0
q-150 -45 -150 -166q0 -176 293 -176q143 0 224 47t81 133q0 72 -51.5 105.5t-183.5 42.5z" />
    <glyph glyph-name="Gbreve" unicode="&#x11e;" horiz-adv-x="1521" 
d="M799 1524q-114 0 -183.5 65.5t-85.5 171.5l115 21q32 -146 154 -146q121 0 153 146l115 -21q-16 -106 -85 -171.5t-183 -65.5zM840 -16q-154 0 -289 52.5t-232 145.5t-152.5 226t-55.5 288q0 206 94 369.5t257.5 253.5t364.5 90q318 0 486 -180l-101 -101
q-142 148 -385 148q-161 0 -290 -75.5t-201 -208t-72 -296.5q0 -250 162 -414.5t414 -164.5q255 0 411 127v286h-413v132h553v-486q-85 -83 -226.5 -137.5t-324.5 -54.5z" />
    <glyph glyph-name="gbreve" unicode="&#x11f;" horiz-adv-x="966" 
d="M504 1001q-114 0 -183 66t-85 172l114 21q32 -146 154 -146q121 0 153 146l115 -21q-16 -106 -85 -172t-183 -66zM602 848h307v-109h-166q68 -71 68 -174q0 -132 -92 -217.5t-238 -85.5q-103 0 -174 39q-33 -9 -51 -32t-18 -54q0 -80 110 -86l217 -16q181 -13 269 -80
t88 -189q0 -139 -120.5 -220t-330.5 -81q-203 0 -318.5 75.5t-115.5 203.5q0 159 201 221q-119 40 -119 158q0 53 31 93t86 62q-93 80 -93 209q0 132 95 216.5t243 84.5q65 0 121 -18zM479 373q94 0 148.5 52.5t54.5 139.5t-54.5 139t-148.5 52q-96 0 -150.5 -52t-54.5 -139
t54.5 -139.5t150.5 -52.5zM328 0q-150 -45 -150 -166q0 -176 293 -176q143 0 224 47t81 133q0 72 -51.5 105.5t-183.5 42.5z" />
    <glyph glyph-name="Gcommaaccent" unicode="&#x122;" horiz-adv-x="1521" 
d="M840 -16q-154 0 -289 52.5t-232 145.5t-152.5 226t-55.5 288q0 206 94 369.5t257.5 253.5t364.5 90q318 0 486 -180l-101 -101q-142 148 -385 148q-161 0 -290 -75.5t-201 -208t-72 -296.5q0 -250 162 -414.5t414 -164.5q255 0 411 127v286h-413v132h553v-486
q-85 -83 -226.5 -137.5t-324.5 -54.5zM711 -524l63 202q-26 9 -44.5 36t-18.5 61q0 44 31 74t73 30q41 0 73 -30.5t32 -73.5q0 -38 -25 -80l-107 -219h-77z" />
    <glyph glyph-name="gcommaaccent" unicode="&#x123;" horiz-adv-x="966" 
d="M584 1434l-64 -203q26 -10 45 -36t19 -60q0 -44 -31.5 -74.5t-73.5 -30.5q-41 0 -72.5 31t-31.5 74q0 39 24 79l107 220h78zM602 848h307v-109h-166q68 -71 68 -174q0 -132 -92 -217.5t-238 -85.5q-103 0 -174 39q-33 -9 -51 -32t-18 -54q0 -80 110 -86l217 -16
q181 -13 269 -80t88 -189q0 -139 -120.5 -220t-330.5 -81q-203 0 -318.5 75.5t-115.5 203.5q0 159 201 221q-119 40 -119 158q0 53 31 93t86 62q-93 80 -93 209q0 132 95 216.5t243 84.5q65 0 121 -18zM479 373q94 0 148.5 52.5t54.5 139.5t-54.5 139t-148.5 52
q-96 0 -150.5 -52t-54.5 -139t54.5 -139.5t150.5 -52.5zM328 0q-150 -45 -150 -166q0 -176 293 -176q143 0 224 47t81 133q0 72 -51.5 105.5t-183.5 42.5z" />
    <glyph glyph-name="Hcircumflex" unicode="&#x124;" horiz-adv-x="1419" 
d="M436 1538l262 395h19l262 -395h-125l-145 203l-148 -203h-125zM190 0v1393h148v-785h745v785h148v-1393h-148v473h-745v-473h-148z" />
    <glyph glyph-name="hcircumflex" unicode="&#x125;" horiz-adv-x="1056" 
d="M242 1550l262 396h18l262 -396h-125l-145 203l-147 -203h-125zM152 0v1479h143v-797q40 86 119.5 135t181.5 49q143 0 230 -93.5t87 -256.5v-516h-143v500q0 114 -53 174.5t-158 60.5q-120 0 -192 -71.5t-72 -196.5v-467h-143z" />
    <glyph glyph-name="Imacron" unicode="&#x12a;" horiz-adv-x="542" 
d="M55 1583v113h430v-113h-430zM197 0v1393h149v-1393h-149z" />
    <glyph glyph-name="imacron" unicode="&#x12b;" horiz-adv-x="454" 
d="M12 1061v113h430v-113h-430zM156 0v848h143v-848h-143z" />
    <glyph glyph-name="Iogonek" unicode="&#x12e;" horiz-adv-x="542" 
d="M197 -45v1438h149v-1373l-86 -141q-35 -58 -49 -92.5t-14 -77.5q0 -41 22.5 -62.5t56.5 -21.5q60 0 105 72l90 -51q-62 -121 -201 -121q-80 0 -135 47t-55 133q0 96 84 207z" />
    <glyph glyph-name="iogonek" unicode="&#x12f;" horiz-adv-x="454" 
d="M227 1094q-41 0 -71.5 28.5t-30.5 71.5t30.5 72.5t71.5 29.5t72 -29.5t31 -72.5t-31 -71.5t-72 -28.5zM156 -33v881h143v-823l-88 -146q-36 -59 -50 -93t-14 -77q0 -41 23 -62.5t57 -21.5q60 0 105 72l90 -51q-62 -121 -201 -121q-80 0 -135 47t-55 133q0 96 84 207z" />
    <glyph glyph-name="Idotaccent" unicode="&#x130;" horiz-adv-x="542" 
d="M270 1579q-38 0 -67 27t-29 67t29 68t67 28t67.5 -28t29.5 -68t-29.5 -67t-67.5 -27zM197 0v1393h149v-1393h-149z" />
    <glyph glyph-name="dotlessi" unicode="&#x131;" horiz-adv-x="454" 
d="M156 0v848h143v-848h-143z" />
    <glyph glyph-name="Jcircumflex" unicode="&#x134;" horiz-adv-x="987" 
d="M444 1538l263 395h18l262 -395h-125l-145 203l-148 -203h-125zM428 -16q-247 0 -360 209l120 75q87 -151 234 -151q107 0 168 62.5t61 191.5v1022h150v-1026q0 -186 -102.5 -284.5t-270.5 -98.5z" />
    <glyph glyph-name="jcircumflex" unicode="&#x135;" horiz-adv-x="452" 
d="M-43 1016l260 395h21l262 -395h-121l-150 209l-153 -209h-119zM72 -455q-113 0 -189 84l80 86q18 -16 28 -24t29 -15.5t41 -7.5q95 0 95 129v1051h143v-1049q0 -123 -61.5 -188.5t-165.5 -65.5z" />
    <glyph glyph-name="Kcommaaccent" unicode="&#x136;" horiz-adv-x="1243" 
d="M326 543q70 133 100 172l526 678h166l-516 -672l572 -721h-183l-485 612l-168 -202v-410h-148v1393h148v-660q0 -55 -12 -190zM532 -524l64 202q-26 10 -45 36.5t-19 60.5q0 43 31.5 73.5t73.5 30.5q41 0 72.5 -30.5t31.5 -73.5q0 -39 -24 -80l-107 -219h-78z" />
    <glyph glyph-name="kcommaaccent" unicode="&#x137;" horiz-adv-x="948" 
d="M295 258v-258h-143v1479h143v-949q0 -62 -10 -120l403 438h166l-326 -356l377 -492h-170l-307 397zM389 -524l64 202q-26 10 -45 36.5t-19 60.5q0 43 31.5 73.5t73.5 30.5q41 0 72.5 -30.5t31.5 -73.5q0 -38 -25 -80l-106 -219h-78z" />
    <glyph glyph-name="Lacute" unicode="&#x139;" horiz-adv-x="1081" 
d="M207 1542l139 395h164l-191 -395h-112zM190 0v1393h148v-1262h657v-131h-805z" />
    <glyph glyph-name="lacute" unicode="&#x13a;" horiz-adv-x="466" 
d="M174 1583l139 395h164l-190 -395h-113zM162 0v1479h143v-1479h-143z" />
    <glyph glyph-name="Lcommaaccent" unicode="&#x13b;" horiz-adv-x="1081" 
d="M190 0v1393h148v-1262h657v-131h-805zM473 -524l64 202q-26 10 -45 36.5t-19 60.5q0 43 31.5 73.5t73.5 30.5q41 0 72.5 -30.5t31.5 -73.5q0 -38 -25 -80l-106 -219h-78z" />
    <glyph glyph-name="lcommaaccent" unicode="&#x13c;" horiz-adv-x="466" 
d="M162 0v1479h143v-1479h-143zM135 -524l64 202q-26 10 -45 36.5t-19 60.5q0 43 31.5 73.5t73.5 30.5q41 0 72.5 -30.5t31.5 -73.5q0 -38 -25 -80l-106 -219h-78z" />
    <glyph glyph-name="Lcaron" unicode="&#x13d;" horiz-adv-x="1081" 
d="M633 987l69 213q-29 9 -48 36.5t-19 61.5q0 45 32 77t74 32q43 0 76 -31.5t33 -75.5q0 -23 -27 -83l-114 -230h-76zM190 0v1393h148v-1262h657v-131h-805z" />
    <glyph glyph-name="lcaron" unicode="&#x13e;" horiz-adv-x="647" 
d="M459 987l69 213q-29 9 -48 36.5t-19 61.5q0 45 32 77t74 32q43 0 76 -31.5t33 -75.5q0 -23 -27 -83l-114 -230h-76zM162 0v1479h143v-1479h-143z" />
    <glyph glyph-name="Lslash" unicode="&#x141;" horiz-adv-x="1087" 
d="M197 0v408l-154 -60v133l154 60v852h149v-797l408 160v-133l-408 -162v-330h658v-131h-807z" />
    <glyph glyph-name="lslash" unicode="&#x142;" horiz-adv-x="546" 
d="M203 0v494l-174 -105v141l174 107v842h143v-760l180 110v-141l-180 -110v-578h-143z" />
    <glyph glyph-name="Nacute" unicode="&#x143;" horiz-adv-x="1460" 
d="M670 1542l139 395h164l-191 -395h-112zM1245 -14l-831 983q-17 21 -41.5 53t-40.5 54l-15 22q13 -99 13 -158v-940h-140v1407h25l832 -983q17 -21 41 -53t40 -54l15 -22q-10 99 -10 158v940h137v-1407h-25z" />
    <glyph glyph-name="nacute" unicode="&#x144;" horiz-adv-x="1056" 
d="M469 1020l139 395h164l-190 -395h-113zM152 0v848h143l-4 -174q41 91 121.5 141.5t183.5 50.5q143 0 230 -93.5t87 -256.5v-516h-143v500q0 114 -53 174.5t-158 60.5q-120 0 -192 -71.5t-72 -196.5v-467h-143z" />
    <glyph glyph-name="Ncommaaccent" unicode="&#x145;" horiz-adv-x="1460" 
d="M1245 -14l-831 983q-17 21 -41.5 53t-40.5 54l-15 22q13 -99 13 -158v-940h-140v1407h25l832 -983q17 -21 41 -53t40 -54l15 -22q-10 99 -10 158v940h137v-1407h-25zM633 -524l63 202q-26 9 -44.5 36t-18.5 61q0 44 31 74t73 30q41 0 73 -30.5t32 -73.5q0 -38 -25 -80
l-106 -219h-78z" />
    <glyph glyph-name="ncommaaccent" unicode="&#x146;" horiz-adv-x="1056" 
d="M152 0v848h143l-4 -174q41 91 121.5 141.5t183.5 50.5q143 0 230 -93.5t87 -256.5v-516h-143v500q0 114 -53 174.5t-158 60.5q-120 0 -192 -71.5t-72 -196.5v-467h-143zM424 -524l63 202q-26 9 -44.5 36t-18.5 61q0 44 31 74t73 30q41 0 73 -30.5t32 -73.5q0 -38 -25 -80
l-106 -219h-78z" />
    <glyph glyph-name="Ncaron" unicode="&#x147;" horiz-adv-x="1460" 
d="M733 1522l-262 395h125l145 -203l148 203h125l-262 -395h-19zM1245 -14l-831 983q-17 21 -41.5 53t-40.5 54l-15 22q13 -99 13 -158v-940h-140v1407h25l832 -983q17 -21 41 -53t40 -54l15 -22q-10 99 -10 158v940h137v-1407h-25z" />
    <glyph glyph-name="ncaron" unicode="&#x148;" horiz-adv-x="1056" 
d="M524 999l-262 396h125l145 -203l148 203h125l-262 -396h-19zM152 0v848h143l-4 -174q41 91 121.5 141.5t183.5 50.5q143 0 230 -93.5t87 -256.5v-516h-143v500q0 114 -53 174.5t-158 60.5q-120 0 -192 -71.5t-72 -196.5v-467h-143z" />
    <glyph glyph-name="Omacron" unicode="&#x14c;" horiz-adv-x="1652" 
d="M610 1583v113h430v-113h-430zM825 -16q-197 0 -359.5 89.5t-258.5 253.5t-96 369t96 369.5t259 254t359 89.5q197 0 360.5 -89.5t260 -254t96.5 -369.5t-96.5 -369t-259.5 -253.5t-361 -89.5zM825 117q244 0 404 165t160 414q0 164 -72.5 296.5t-201.5 208t-290 75.5
q-242 0 -401.5 -165t-159.5 -415q0 -123 42.5 -230.5t116.5 -184t178 -120.5t224 -44z" />
    <glyph glyph-name="omacron" unicode="&#x14d;" horiz-adv-x="1091" 
d="M332 1061v113h430v-113h-430zM549 -16q-191 0 -321 127t-130 313t130.5 314t320.5 128q189 0 317.5 -128t128.5 -314t-128.5 -313t-317.5 -127zM549 106q134 0 217.5 90t83.5 228t-83.5 227.5t-217.5 89.5q-135 0 -220 -89.5t-85 -227.5t85 -228t220 -90z" />
    <glyph glyph-name="Ohungarumlaut" unicode="&#x150;" horiz-adv-x="1652" 
d="M924 1542l139 395h156l-183 -395h-112zM641 1542l137 395h156l-180 -395h-113zM825 -16q-197 0 -359.5 89.5t-258.5 253.5t-96 369t96 369.5t259 254t359 89.5q197 0 360.5 -89.5t260 -254t96.5 -369.5t-96.5 -369t-259.5 -253.5t-361 -89.5zM825 117q244 0 404 165
t160 414q0 164 -72.5 296.5t-201.5 208t-290 75.5q-242 0 -401.5 -165t-159.5 -415q0 -123 42.5 -230.5t116.5 -184t178 -120.5t224 -44z" />
    <glyph glyph-name="ohungarumlaut" unicode="&#x151;" horiz-adv-x="1091" 
d="M643 1020l139 395h156l-182 -395h-113zM360 1020l138 395h155l-180 -395h-113zM549 -16q-191 0 -321 127t-130 313t130.5 314t320.5 128q189 0 317.5 -128t128.5 -314t-128.5 -313t-317.5 -127zM549 106q134 0 217.5 90t83.5 228t-83.5 227.5t-217.5 89.5
q-135 0 -220 -89.5t-85 -227.5t85 -228t220 -90z" />
    <glyph glyph-name="OE" unicode="&#x152;" horiz-adv-x="2021" 
d="M844 0q-336 0 -534.5 192t-198.5 504q0 313 198 505t535 192h1028v-131h-698v-654h622v-129h-622v-348h727v-131h-1057zM856 133h170v1127h-170q-289 0 -440.5 -153t-151.5 -411t151.5 -410.5t440.5 -152.5z" />
    <glyph glyph-name="oe" unicode="&#x153;" horiz-adv-x="1804" 
d="M987 377q14 -125 96 -199t220 -74q166 0 268 113l88 -86q-130 -147 -354 -147q-140 0 -238.5 63.5t-146.5 171.5q-47 -107 -145 -171t-226 -64q-191 0 -321 127t-130 313t130.5 314t320.5 128q129 0 226.5 -64.5t144.5 -172.5q46 107 141 172t221 65q201 0 317.5 -137.5
t108.5 -351.5h-721zM989 485h576q-10 115 -82.5 187.5t-200.5 72.5q-120 0 -197.5 -70.5t-95.5 -189.5zM549 106q134 0 217.5 90t83.5 228t-83.5 227.5t-217.5 89.5q-135 0 -220 -89.5t-85 -227.5t85 -228t220 -90z" />
    <glyph glyph-name="Racute" unicode="&#x154;" horiz-adv-x="1220" 
d="M524 1542l140 395h163l-190 -395h-113zM791 428l303 -428h-174l-269 381q-70 -12 -147 -12h-166v-369h-148v1393h314q278 0 427.5 -140.5t149.5 -373.5q0 -159 -73.5 -276t-216.5 -175zM338 498h158q115 0 200 28.5t135 80.5t73.5 119.5t23.5 152.5q0 176 -104.5 279.5
t-327.5 103.5h-158v-764z" />
    <glyph glyph-name="racute" unicode="&#x155;" horiz-adv-x="731" 
d="M350 1020l139 395h164l-190 -395h-113zM152 0v848h143l-4 -166q38 93 103.5 137.5t144.5 44.5q88 0 147 -41l-55 -125q-50 33 -117 33q-97 0 -158 -71.5t-61 -213.5v-446h-143z" />
    <glyph glyph-name="Rcommaaccent" unicode="&#x156;" horiz-adv-x="1220" 
d="M791 428l303 -428h-174l-269 381q-70 -12 -147 -12h-166v-369h-148v1393h314q278 0 427.5 -140.5t149.5 -373.5q0 -159 -73.5 -276t-216.5 -175zM494 -524l63 202q-26 9 -44.5 36t-18.5 61q0 44 31 74t73 30q41 0 72.5 -30.5t31.5 -73.5q0 -39 -24 -80l-107 -219h-77z
M338 498h158q115 0 200 28.5t135 80.5t73.5 119.5t23.5 152.5q0 176 -104.5 279.5t-327.5 103.5h-158v-764z" />
    <glyph glyph-name="rcommaaccent" unicode="&#x157;" horiz-adv-x="731" 
d="M152 0v848h143l-4 -166q38 93 103.5 137.5t144.5 44.5q88 0 147 -41l-55 -125q-50 33 -117 33q-97 0 -158 -71.5t-61 -213.5v-446h-143zM119 -524l63 202q-26 9 -44.5 36t-18.5 61q0 44 31 74t73 30q41 0 73 -30.5t32 -73.5q0 -38 -25 -80l-106 -219h-78z" />
    <glyph glyph-name="Rcaron" unicode="&#x158;" horiz-adv-x="1220" 
d="M573 1522l-262 395h125l146 -203l147 203h125l-262 -395h-19zM791 428l303 -428h-174l-269 381q-70 -12 -147 -12h-166v-369h-148v1393h314q278 0 427.5 -140.5t149.5 -373.5q0 -159 -73.5 -276t-216.5 -175zM338 498h158q115 0 200 28.5t135 80.5t73.5 119.5t23.5 152.5
q0 176 -104.5 279.5t-327.5 103.5h-158v-764z" />
    <glyph glyph-name="rcaron" unicode="&#x159;" horiz-adv-x="731" 
d="M406 999l-263 396h125l146 -203l147 203h125l-262 -396h-18zM152 0v848h143l-4 -166q38 93 103.5 137.5t144.5 44.5q88 0 147 -41l-55 -125q-50 33 -117 33q-97 0 -158 -71.5t-61 -213.5v-446h-143z" />
    <glyph glyph-name="Sacute" unicode="&#x15a;" horiz-adv-x="1085" 
d="M467 1542l139 395h164l-190 -395h-113zM545 -16q-96 0 -177 23t-139 63.5t-99.5 88.5t-70.5 107l123 66q27 -48 57 -84t72.5 -67.5t100.5 -48.5t129 -17q125 0 206.5 64.5t81.5 172.5q0 101 -61.5 165t-200.5 126l-110 51q-106 48 -169.5 96t-100.5 119t-37 166
q0 149 103.5 241.5t262.5 92.5q251 0 377 -209l-119 -74q-44 72 -105 112t-153 40q-102 0 -161.5 -54.5t-59.5 -144.5q0 -89 49 -141t172 -109l111 -51q181 -80 265.5 -177.5t84.5 -248.5q0 -169 -120.5 -268.5t-311.5 -99.5z" />
    <glyph glyph-name="sacute" unicode="&#x15b;" horiz-adv-x="839" 
d="M346 1020l139 395h164l-190 -395h-113zM436 -16q-132 0 -224.5 55t-137.5 141l110 64q86 -144 246 -144q85 0 132.5 34t47.5 93q0 23 -5 40.5t-20.5 32t-28.5 23.5t-45.5 21t-53 18.5t-68.5 20.5q-58 17 -97.5 34t-79 45.5t-59.5 72t-20 100.5q0 107 79 169t200 62
q186 0 282 -137l-98 -76q-71 97 -184 97q-69 0 -108.5 -29.5t-39.5 -79.5q0 -57 40.5 -84t160.5 -61q62 -17 105.5 -35t86.5 -47.5t65.5 -74t22.5 -103.5q0 -113 -78 -182.5t-231 -69.5z" />
    <glyph glyph-name="Scircumflex" unicode="&#x15c;" horiz-adv-x="1085" 
d="M256 1538l262 395h19l262 -395h-125l-146 203l-147 -203h-125zM545 -16q-96 0 -177 23t-139 63.5t-99.5 88.5t-70.5 107l123 66q27 -48 57 -84t72.5 -67.5t100.5 -48.5t129 -17q125 0 206.5 64.5t81.5 172.5q0 101 -61.5 165t-200.5 126l-110 51q-106 48 -169.5 96
t-100.5 119t-37 166q0 149 103.5 241.5t262.5 92.5q251 0 377 -209l-119 -74q-44 72 -105 112t-153 40q-102 0 -161.5 -54.5t-59.5 -144.5q0 -89 49 -141t172 -109l111 -51q181 -80 265.5 -177.5t84.5 -248.5q0 -169 -120.5 -268.5t-311.5 -99.5z" />
    <glyph glyph-name="scircumflex" unicode="&#x15d;" horiz-adv-x="839" 
d="M150 1016l262 395h18l262 -395h-125l-145 203l-148 -203h-124zM436 -16q-132 0 -224.5 55t-137.5 141l110 64q86 -144 246 -144q85 0 132.5 34t47.5 93q0 23 -5 40.5t-20.5 32t-28.5 23.5t-45.5 21t-53 18.5t-68.5 20.5q-58 17 -97.5 34t-79 45.5t-59.5 72t-20 100.5
q0 107 79 169t200 62q186 0 282 -137l-98 -76q-71 97 -184 97q-69 0 -108.5 -29.5t-39.5 -79.5q0 -57 40.5 -84t160.5 -61q62 -17 105.5 -35t86.5 -47.5t65.5 -74t22.5 -103.5q0 -113 -78 -182.5t-231 -69.5z" />
    <glyph glyph-name="Scaron" unicode="&#x160;" horiz-adv-x="1087" 
d="M545 -16q-96 0 -177 23t-139 63.5t-99.5 88.5t-70.5 107l123 66q27 -48 57 -84t72.5 -67.5t100.5 -48.5t129 -17q125 0 206.5 64.5t81.5 172.5q0 101 -61.5 165t-200.5 126l-110 51q-106 48 -169.5 96t-100.5 119t-37 166q0 149 103.5 241.5t262.5 92.5q251 0 377 -209
l-119 -74q-44 72 -105 112t-153 40q-102 0 -161.5 -54.5t-59.5 -144.5q0 -89 49 -141t172 -109l111 -51q181 -80 265.5 -177.5t84.5 -248.5q0 -169 -120.5 -268.5t-311.5 -99.5zM504 1521l-262 396h125l145 -203l147 203h125l-262 -396h-18z" />
    <glyph glyph-name="scaron" unicode="&#x161;" horiz-adv-x="839" 
d="M436 -16q-132 0 -224.5 55t-137.5 141l110 64q86 -144 246 -144q85 0 132.5 34t47.5 93q0 23 -5 40.5t-20.5 32t-28.5 23.5t-45.5 21t-53 18.5t-68.5 20.5q-58 17 -97.5 34t-79 45.5t-59.5 72t-20 100.5q0 107 79 169t200 62q186 0 282 -137l-98 -76q-71 97 -184 97
q-69 0 -108.5 -29.5t-39.5 -79.5q0 -57 40.5 -84t160.5 -61q62 -17 105.5 -35t86.5 -47.5t65.5 -74t22.5 -103.5q0 -113 -78 -182.5t-231 -69.5zM395 999l-262 396h125l145 -203l148 203h125l-262 -396h-19z" />
    <glyph glyph-name="Tcommaaccent" unicode="&#x162;" horiz-adv-x="1138" 
d="M496 0v1262h-428v131h1003v-131h-428v-1262h-147zM471 -524l64 202q-26 10 -45 36.5t-19 60.5q0 44 31 74t73 30q41 0 73 -30.5t32 -73.5q0 -38 -25 -80l-106 -219h-78z" />
    <glyph glyph-name="Tcommaaccent" unicode="&#x21a;" horiz-adv-x="1138" 
d="M496 0v1262h-428v131h1003v-131h-428v-1262h-147zM471 -524l64 202q-26 10 -45 36.5t-19 60.5q0 44 31 74t73 30q41 0 73 -30.5t32 -73.5q0 -38 -25 -80l-106 -219h-78z" />
    <glyph glyph-name="tcommaaccent" unicode="&#x163;" horiz-adv-x="686" 
d="M428 -18q-104 0 -165.5 65.5t-61.5 208.5v471h-131v121h131v442h141v-442h238v-121h-238v-473q0 -81 25.5 -114.5t74.5 -33.5q61 0 115 50l78 -90q-80 -84 -207 -84zM270 -524l64 202q-26 10 -45 36.5t-19 60.5q0 43 31.5 73.5t73.5 30.5q41 0 72.5 -30.5t31.5 -73.5
q0 -39 -24 -80l-107 -219h-78z" />
    <glyph glyph-name="tcommaaccent" unicode="&#x21b;" horiz-adv-x="686" 
d="M428 -18q-104 0 -165.5 65.5t-61.5 208.5v471h-131v121h131v442h141v-442h238v-121h-238v-473q0 -81 25.5 -114.5t74.5 -33.5q61 0 115 50l78 -90q-80 -84 -207 -84zM270 -524l64 202q-26 10 -45 36.5t-19 60.5q0 43 31.5 73.5t73.5 30.5q41 0 72.5 -30.5t31.5 -73.5
q0 -39 -24 -80l-107 -219h-78z" />
    <glyph glyph-name="Tcaron" unicode="&#x164;" horiz-adv-x="1138" 
d="M561 1522l-262 395h125l145 -203l148 203h125l-262 -395h-19zM496 0v1262h-428v131h1003v-131h-428v-1262h-147z" />
    <glyph glyph-name="tcaron" unicode="&#x165;" horiz-adv-x="800" 
d="M612 987l70 213q-29 9 -48.5 36.5t-19.5 61.5q0 45 32.5 77t74.5 32q43 0 75.5 -31.5t32.5 -75.5q0 -25 -26 -83l-115 -230h-76zM428 -18q-104 0 -165.5 65.5t-61.5 208.5v471h-131v121h131v442h141v-442h238v-121h-238v-473q0 -81 25.5 -114.5t74.5 -33.5q61 0 115 50
l78 -90q-80 -84 -207 -84z" />
    <glyph glyph-name="Umacron" unicode="&#x16a;" horiz-adv-x="1355" 
d="M463 1583v113h430v-113h-430zM678 -16q-223 0 -361.5 127.5t-138.5 363.5v918h148v-908q0 -182 93 -276t259 -94q165 0 258.5 94t93.5 276v908h148v-918q0 -236 -139.5 -363.5t-360.5 -127.5z" />
    <glyph glyph-name="umacron" unicode="&#x16b;" horiz-adv-x="1054" 
d="M311 1061v113h430v-113h-430zM461 -18q-143 0 -230.5 92.5t-87.5 253.5v520h144v-506q0 -111 53 -170t156 -59q121 0 192.5 72t71.5 196v467h143v-848h-143l4 172q-41 -90 -121 -140t-182 -50z" />
    <glyph glyph-name="Ubreve" unicode="&#x16c;" horiz-adv-x="1355" 
d="M678 1524q-114 0 -183 65.5t-85 171.5l114 21q32 -146 154 -146q121 0 153 146l115 -21q-16 -106 -85 -171.5t-183 -65.5zM678 -16q-223 0 -361.5 127.5t-138.5 363.5v918h148v-908q0 -182 93 -276t259 -94q165 0 258.5 94t93.5 276v908h148v-918q0 -236 -139.5 -363.5
t-360.5 -127.5z" />
    <glyph glyph-name="ubreve" unicode="&#x16d;" horiz-adv-x="1054" 
d="M528 1001q-114 0 -183 66t-85 172l115 21q32 -146 153 -146q122 0 154 146l115 -21q-16 -106 -85.5 -172t-183.5 -66zM461 -18q-143 0 -230.5 92.5t-87.5 253.5v520h144v-506q0 -111 53 -170t156 -59q121 0 192.5 72t71.5 196v467h143v-848h-143l4 172q-41 -90 -121 -140
t-182 -50z" />
    <glyph glyph-name="Uring" unicode="&#x16e;" horiz-adv-x="1355" 
d="M678 1513q-90 0 -152.5 60t-62.5 145q0 87 62.5 147t152.5 60t152.5 -60t62.5 -147q0 -85 -62.5 -145t-152.5 -60zM678 -16q-223 0 -361.5 127.5t-138.5 363.5v918h148v-908q0 -182 93 -276t259 -94q165 0 258.5 94t93.5 276v908h148v-918q0 -236 -139.5 -363.5
t-360.5 -127.5zM678 1606q47 0 76.5 30.5t29.5 81.5q0 52 -29 82.5t-77 30.5t-77.5 -30.5t-29.5 -82.5q0 -51 29.5 -81.5t77.5 -30.5z" />
    <glyph glyph-name="uring" unicode="&#x16f;" horiz-adv-x="1054" 
d="M526 991q-90 0 -152.5 60t-62.5 145q0 87 62.5 147t152.5 60t152.5 -60t62.5 -147q0 -85 -62.5 -145t-152.5 -60zM461 -18q-143 0 -230.5 92.5t-87.5 253.5v520h144v-506q0 -111 53 -170t156 -59q121 0 192.5 72t71.5 196v467h143v-848h-143l4 172q-41 -90 -121 -140
t-182 -50zM526 1083q47 0 77 31t30 82q0 52 -29.5 82.5t-77.5 30.5t-77 -30.5t-29 -82.5q0 -51 29.5 -82t76.5 -31z" />
    <glyph glyph-name="Uhungarumlaut" unicode="&#x170;" horiz-adv-x="1355" 
d="M764 1542l139 395h156l-182 -395h-113zM481 1542l137 395h156l-180 -395h-113zM678 -16q-223 0 -361.5 127.5t-138.5 363.5v918h148v-908q0 -182 93 -276t259 -94q165 0 258.5 94t93.5 276v908h148v-918q0 -236 -139.5 -363.5t-360.5 -127.5z" />
    <glyph glyph-name="uhungarumlaut" unicode="&#x171;" horiz-adv-x="1054" 
d="M616 1020l140 395h155l-182 -395h-113zM334 1020l137 395h156l-181 -395h-112zM461 -18q-143 0 -230.5 92.5t-87.5 253.5v520h144v-506q0 -111 53 -170t156 -59q121 0 192.5 72t71.5 196v467h143v-848h-143l4 172q-41 -90 -121 -140t-182 -50z" />
    <glyph glyph-name="Uogonek" unicode="&#x172;" horiz-adv-x="1355" 
d="M631 -14q-204 14 -328.5 140t-124.5 349v918h148v-908q0 -182 93 -276t259 -94q165 0 258.5 94t93.5 276v908h148v-918q0 -219 -121.5 -345t-319.5 -144l-65 -107q-36 -59 -50 -93t-14 -77q0 -41 23 -62.5t57 -21.5q60 0 105 72l90 -51q-62 -121 -201 -121q-80 0 -135 47
t-55 133q0 97 83 207z" />
    <glyph glyph-name="uogonek" unicode="&#x173;" horiz-adv-x="1054" 
d="M758 -31l6 203q-41 -90 -121 -140t-182 -50q-143 0 -230.5 92.5t-87.5 253.5v520h144v-506q0 -111 53 -170t156 -59q121 0 192.5 72t71.5 196v467h143v-817l-92 -152q-35 -58 -49 -92.5t-14 -77.5q0 -41 22.5 -62.5t56.5 -21.5q60 0 105 72l90 -51q-62 -121 -201 -121
q-80 0 -135 47t-55 133q0 96 84 207z" />
    <glyph glyph-name="Ydieresis" unicode="&#x178;" horiz-adv-x="1343" 
d="M848 1579q-37 0 -66.5 28t-29.5 66q0 39 29 66.5t67 27.5q37 0 65.5 -27.5t28.5 -66.5q0 -38 -28.5 -66t-65.5 -28zM492 1579q-37 0 -66 28t-29 66q0 39 28.5 66.5t66.5 27.5q39 0 67.5 -27.5t28.5 -66.5q0 -38 -29 -66t-67 -28zM602 0v436l-526 957h166l379 -693
q14 -24 28.5 -59t22.5 -59l8 -23q30 86 59 141l377 693h154l-516 -951v-442h-152z" />
    <glyph glyph-name="Zacute" unicode="&#x179;" horiz-adv-x="1193" 
d="M565 1542l140 395h163l-190 -395h-113zM80 0v23l778 1239h-668v131h897v-23l-776 -1239h781v-131h-1012z" />
    <glyph glyph-name="zacute" unicode="&#x17a;" horiz-adv-x="856" 
d="M387 1020l139 395h164l-190 -395h-113zM66 0v20l489 709h-436v119h667v-23l-493 -706h483v-119h-710z" />
    <glyph glyph-name="Zdotaccent" unicode="&#x17b;" horiz-adv-x="1193" 
d="M629 1579q-38 0 -67.5 27t-29.5 67t29.5 68t67.5 28t67 -28t29 -68t-29 -67t-67 -27zM80 0v23l778 1239h-668v131h897v-23l-776 -1239h781v-131h-1012z" />
    <glyph glyph-name="zdotaccent" unicode="&#x17c;" horiz-adv-x="856" 
d="M451 1057q-38 0 -67.5 27t-29.5 67t29.5 68t67.5 28t67 -28t29 -68t-29 -67t-67 -27zM66 0v20l489 709h-436v119h667v-23l-493 -706h483v-119h-710z" />
    <glyph glyph-name="Zcaron" unicode="&#x17d;" horiz-adv-x="1189" 
d="M80 0v23l778 1239h-668v131h897v-23l-776 -1239h781v-131h-1012zM618 1522l-262 395h125l146 -203l147 203h125l-262 -395h-19z" />
    <glyph glyph-name="zcaron" unicode="&#x17e;" horiz-adv-x="854" 
d="M66 0v20l489 709h-436v119h667v-23l-493 -706h483v-119h-710zM451 999l-263 396h125l146 -203l147 203h125l-262 -396h-18z" />
    <glyph glyph-name="florin" unicode="&#x192;" horiz-adv-x="733" 
d="M356 416l-96 -850h-139l96 850h-139v116h151l54 459q15 140 81 207.5t171 67.5q79 0 128 -28t82 -83l-98 -80q-24 35 -46 51.5t-60 16.5q-50 0 -80 -33.5t-39 -112.5l-53 -465h192v-116h-205z" />
    <glyph glyph-name="Scommaaccent" unicode="&#x218;" horiz-adv-x="1085" 
d="M545 -16q-96 0 -177 23t-139 63.5t-99.5 88.5t-70.5 107l123 66q27 -48 57 -84t72.5 -67.5t100.5 -48.5t129 -17q125 0 206.5 64.5t81.5 172.5q0 101 -61.5 165t-200.5 126l-110 51q-106 48 -169.5 96t-100.5 119t-37 166q0 149 103.5 241.5t262.5 92.5q251 0 377 -209
l-119 -74q-44 72 -105 112t-153 40q-102 0 -161.5 -54.5t-59.5 -144.5q0 -89 49 -141t172 -109l111 -51q181 -80 265.5 -177.5t84.5 -248.5q0 -169 -120.5 -268.5t-311.5 -99.5zM442 -524l64 202q-26 10 -45 36.5t-19 60.5q0 43 31.5 73.5t73.5 30.5q41 0 72.5 -30.5
t31.5 -73.5q0 -39 -24 -80l-107 -219h-78z" />
    <glyph glyph-name="scommaaccent" unicode="&#x219;" horiz-adv-x="839" 
d="M436 -16q-132 0 -224.5 55t-137.5 141l110 64q86 -144 246 -144q85 0 132.5 34t47.5 93q0 23 -5 40.5t-20.5 32t-28.5 23.5t-45.5 21t-53 18.5t-68.5 20.5q-58 17 -97.5 34t-79 45.5t-59.5 72t-20 100.5q0 107 79 169t200 62q186 0 282 -137l-98 -76q-71 97 -184 97
q-69 0 -108.5 -29.5t-39.5 -79.5q0 -57 40.5 -84t160.5 -61q62 -17 105.5 -35t86.5 -47.5t65.5 -74t22.5 -103.5q0 -113 -78 -182.5t-231 -69.5zM322 -524l63 202q-26 9 -44.5 36t-18.5 61q0 44 31 74t73 30q41 0 72.5 -30.5t31.5 -73.5q0 -39 -24 -80l-107 -219h-77z" />
    <glyph glyph-name="circumflex" unicode="&#x2c6;" horiz-adv-x="1024" 
d="M240 1016l262 395h18l262 -395h-125l-145 203l-147 -203h-125z" />
    <glyph glyph-name="caron" unicode="&#x2c7;" horiz-adv-x="1024" 
d="M504 999l-262 396h125l145 -203l147 203h125l-262 -396h-18z" />
    <glyph glyph-name="breve" unicode="&#x2d8;" horiz-adv-x="1024" 
d="M512 1001q-114 0 -183 66t-85 172l114 21q32 -146 154 -146t154 146l114 -21q-16 -106 -85 -172t-183 -66z" />
    <glyph glyph-name="dotaccent" unicode="&#x2d9;" horiz-adv-x="1024" 
d="M512 1057q-38 0 -67 27t-29 67t29 68t67 28t67 -28t29 -68t-29 -67t-67 -27z" />
    <glyph glyph-name="ring" unicode="&#x2da;" horiz-adv-x="1024" 
d="M512 991q-90 0 -152.5 60t-62.5 145q0 87 62.5 147t152.5 60t152.5 -60t62.5 -147q0 -85 -62.5 -145t-152.5 -60zM512 1083q47 0 76.5 31t29.5 82q0 52 -29 82.5t-77 30.5t-77 -30.5t-29 -82.5q0 -51 29.5 -82t76.5 -31z" />
    <glyph glyph-name="ogonek" unicode="&#x2db;" horiz-adv-x="1024" 
d="M487 -475q-80 0 -135 47t-55 133q0 96 84 207l65 88h105l-74 -121q-35 -58 -49 -92.5t-14 -77.5q0 -41 23 -62.5t57 -21.5q36 0 59.5 19t44.5 53l90 -51q-62 -121 -201 -121z" />
    <glyph glyph-name="tilde" unicode="&#x2dc;" horiz-adv-x="1024" 
d="M319 1010l-106 8q6 108 54 167.5t124 59.5q40 0 71.5 -16t69.5 -49q42 -37 59 -47.5t40 -10.5q62 0 74 119l106 -10q-6 -108 -52.5 -166.5t-123.5 -58.5q-39 0 -70.5 16.5t-70.5 50.5q-41 36 -58 46.5t-41 10.5q-64 0 -76 -120z" />
    <glyph glyph-name="hungarumlaut" unicode="&#x2dd;" horiz-adv-x="1024" 
d="M592 1020l139 395h156l-182 -395h-113zM309 1020l137 395h156l-180 -395h-113z" />
    <glyph glyph-name="Delta" unicode="&#x394;" 
d="M207 387q-44 0 -77.5 33.5t-33.5 79.5t33.5 78t77.5 32q45 0 77.5 -31.5t32.5 -78.5t-32.5 -80t-77.5 -33z" />
    <glyph glyph-name="Delta" unicode="&#x2206;" 
d="M207 387q-44 0 -77.5 33.5t-33.5 79.5t33.5 78t77.5 32q45 0 77.5 -31.5t32.5 -78.5t-32.5 -80t-77.5 -33z" />
    <glyph glyph-name="Omega" unicode="&#x3a9;" 
d="M207 387q-44 0 -77.5 33.5t-33.5 79.5t33.5 78t77.5 32q45 0 77.5 -31.5t32.5 -78.5t-32.5 -80t-77.5 -33z" />
    <glyph glyph-name="Omega" unicode="&#x2126;" 
d="M207 387q-44 0 -77.5 33.5t-33.5 79.5t33.5 78t77.5 32q45 0 77.5 -31.5t32.5 -78.5t-32.5 -80t-77.5 -33z" />
    <glyph glyph-name="pi" unicode="&#x3c0;" 
d="M207 387q-44 0 -77.5 33.5t-33.5 79.5t33.5 78t77.5 32q45 0 77.5 -31.5t32.5 -78.5t-32.5 -80t-77.5 -33z" />
    <glyph glyph-name="endash" unicode="&#x2013;" horiz-adv-x="806" 
d="M72 334v125h661v-125h-661z" />
    <glyph glyph-name="emdash" unicode="&#x2014;" horiz-adv-x="1275" 
d="M72 334v125h1132v-125h-1132z" />
    <glyph glyph-name="quoteleft" unicode="&#x2018;" horiz-adv-x="407" 
d="M205 973q-43 0 -76 31t-33 75q0 32 27 84l113 230h77l-69 -213q27 -9 47 -37t20 -62q0 -45 -32 -76.5t-74 -31.5z" />
    <glyph glyph-name="quoteright" unicode="&#x2019;" horiz-adv-x="407" 
d="M94 987l70 213q-29 9 -48.5 36.5t-19.5 61.5q0 45 32.5 77t74.5 32q43 0 75.5 -31.5t32.5 -75.5q0 -25 -26 -83l-115 -230h-76z" />
    <glyph glyph-name="quotesinglbase" unicode="&#x201a;" horiz-adv-x="407" 
d="M94 -211l70 215q-29 8 -48.5 35t-19.5 63q0 44 32.5 75.5t74.5 31.5q43 0 75.5 -31.5t32.5 -75.5q0 -28 -26 -82l-115 -231h-76z" />
    <glyph glyph-name="quotedblleft" unicode="&#x201c;" horiz-adv-x="731" 
d="M528 973q-43 0 -75.5 31t-32.5 75q0 26 26 84l115 230h76l-70 -213q29 -9 48.5 -37t19.5 -62q0 -45 -32.5 -76.5t-74.5 -31.5zM205 973q-43 0 -76 31t-33 75q0 32 27 84l113 230h77l-69 -213q27 -9 47 -37t20 -62q0 -45 -32 -76.5t-74 -31.5z" />
    <glyph glyph-name="quotedblright" unicode="&#x201d;" horiz-adv-x="731" 
d="M418 987l69 213q-28 9 -47.5 36.5t-19.5 61.5q0 45 32 77t74 32q43 0 76 -31.5t33 -75.5q0 -31 -27 -83l-112 -230h-78zM94 987l70 213q-29 9 -48.5 36.5t-19.5 61.5q0 45 32.5 77t74.5 32q43 0 75.5 -31.5t32.5 -75.5q0 -25 -26 -83l-115 -230h-76z" />
    <glyph glyph-name="quotedblbase" unicode="&#x201e;" horiz-adv-x="731" 
d="M418 -211l69 215q-27 8 -47 35.5t-20 62.5q0 44 32 75.5t74 31.5q43 0 76 -31.5t33 -75.5q0 -33 -27 -82l-112 -231h-78zM94 -211l70 215q-29 8 -48.5 35t-19.5 63q0 44 32.5 75.5t74.5 31.5q43 0 75.5 -31.5t32.5 -75.5q0 -28 -26 -82l-115 -231h-76z" />
    <glyph glyph-name="dagger" unicode="&#x2020;" horiz-adv-x="690" 
d="M279 573v488h-191v119h191v213h133v-213h190v-119h-190v-488h-133z" />
    <glyph glyph-name="daggerdbl" unicode="&#x2021;" horiz-adv-x="690" 
d="M279 573v215h-191v111h191v168h-191v113h191v213h133v-213h190v-113h-190v-168h190v-111h-190v-215h-133z" />
    <glyph glyph-name="bullet" unicode="&#x2022;" horiz-adv-x="571" 
d="M285 344q-78 0 -135.5 57t-57.5 136q0 82 57 138t136 56t136.5 -56t57.5 -138q0 -79 -58 -136t-136 -57z" />
    <glyph glyph-name="ellipsis" unicode="&#x2026;" horiz-adv-x="1261" 
d="M1055 -14q-44 0 -77.5 33t-33.5 79t33.5 78.5t77.5 32.5q45 0 77.5 -32t32.5 -79t-32.5 -79.5t-77.5 -32.5zM631 -14q-44 0 -77.5 33t-33.5 79t33.5 78.5t77.5 32.5q45 0 77.5 -32t32.5 -79t-32.5 -79.5t-77.5 -32.5zM207 -14q-44 0 -77.5 33t-33.5 79t33.5 78.5
t77.5 32.5q45 0 77.5 -32t32.5 -79t-32.5 -79.5t-77.5 -32.5z" />
    <glyph glyph-name="perthousand" unicode="&#x2030;" horiz-adv-x="2275" 
d="M365 446q-126 0 -217 86.5t-91 215.5q0 128 91.5 214.5t216.5 86.5q124 0 214.5 -86.5t90.5 -214.5q0 -129 -90.5 -215.5t-214.5 -86.5zM391 0l645 1032h144l-645 -1032h-144zM1913 -16q-124 0 -214.5 85.5t-90.5 213.5t90.5 214.5t214.5 86.5q125 0 215 -86.5t90 -214.5
t-90 -213.5t-215 -85.5zM1206 -16q-125 0 -215 85.5t-90 213.5t90 214.5t215 86.5t215 -86.5t90 -214.5t-90 -213.5t-215 -85.5zM365 559q75 0 127.5 53t52.5 136q0 84 -52 136t-128 52t-129.5 -52t-53.5 -136q0 -83 53.5 -136t129.5 -53zM1913 94q75 0 127.5 53t52.5 136
t-52.5 135.5t-127.5 52.5q-74 0 -127 -52.5t-53 -135.5t53 -136t127 -53zM1206 94q75 0 127.5 53t52.5 136t-52.5 135.5t-127.5 52.5t-127.5 -52.5t-52.5 -135.5t52.5 -136t127.5 -53z" />
    <glyph glyph-name="guilsinglleft" unicode="&#x2039;" horiz-adv-x="495" 
d="M270 76l-192 325v17l192 321h148l-197 -329l197 -334h-148z" />
    <glyph glyph-name="guilsinglright" unicode="&#x203a;" horiz-adv-x="495" 
d="M78 76l196 332l-196 331h147l193 -323v-17l-193 -323h-147z" />
    <glyph glyph-name="fraction" unicode="&#x2044;" horiz-adv-x="868" 
d="M-70 0l863 1393h145l-860 -1393h-148z" />
    <glyph glyph-name="fraction" unicode="&#x2215;" horiz-adv-x="868" 
d="M-70 0l863 1393h145l-860 -1393h-148z" />
    <glyph glyph-name="Euro" unicode="&#x20ac;" horiz-adv-x="1271" 
d="M231 580h-149v114h174q53 160 189.5 257.5t310.5 97.5q262 0 407 -193l-106 -82q-57 76 -127.5 113t-173.5 37q-122 0 -214.5 -61.5t-135.5 -168.5h444v-114h-473q-4 -40 -4 -64q0 -25 4 -65h473v-115h-442q43 -106 135.5 -166.5t212.5 -60.5q111 0 184 39t131 116
l105 -74q-134 -206 -420 -206q-173 0 -309.5 96.5t-190.5 255.5h-174v115h149q-4 40 -4 65q0 24 4 64z" />
    <glyph glyph-name="trademark" unicode="&#x2122;" horiz-adv-x="1484" 
d="M709 784v619h18l295 -330l293 330h18v-619h-110v383l-191 -227h-20l-193 227v-383h-110zM283 784v514h-185v95h480v-95h-185v-514h-110z" />
    <glyph glyph-name="partialdiff" unicode="&#x2202;" 
d="M207 387q-44 0 -77.5 33.5t-33.5 79.5t33.5 78t77.5 32q45 0 77.5 -31.5t32.5 -78.5t-32.5 -80t-77.5 -33z" />
    <glyph glyph-name="product" unicode="&#x220f;" 
d="M207 387q-44 0 -77.5 33.5t-33.5 79.5t33.5 78t77.5 32q45 0 77.5 -31.5t32.5 -78.5t-32.5 -80t-77.5 -33z" />
    <glyph glyph-name="summation" unicode="&#x2211;" horiz-adv-x="1206" 
d="M104 0v23l527 589l-537 758v23h971v-131h-623l-108 4q41 -45 74 -90l391 -560v-18l-342 -379q-17 -19 -41 -42.5t-39 -37.5l-15 -14q72 6 138 6h594v-131h-990z" />
    <glyph glyph-name="minus" unicode="&#x2212;" 
d="M207 387q-44 0 -77.5 33.5t-33.5 79.5t33.5 78t77.5 32q45 0 77.5 -31.5t32.5 -78.5t-32.5 -80t-77.5 -33z" />
    <glyph glyph-name="radical" unicode="&#x221a;" 
d="M207 387q-44 0 -77.5 33.5t-33.5 79.5t33.5 78t77.5 32q45 0 77.5 -31.5t32.5 -78.5t-32.5 -80t-77.5 -33z" />
    <glyph glyph-name="integral" unicode="&#x222b;" 
d="M207 387q-44 0 -77.5 33.5t-33.5 79.5t33.5 78t77.5 32q45 0 77.5 -31.5t32.5 -78.5t-32.5 -80t-77.5 -33z" />
    <glyph glyph-name="approxequal" unicode="&#x2248;" 
d="M207 387q-44 0 -77.5 33.5t-33.5 79.5t33.5 78t77.5 32q45 0 77.5 -31.5t32.5 -78.5t-32.5 -80t-77.5 -33z" />
    <glyph glyph-name="lessequal" unicode="&#x2264;" 
d="M207 387q-44 0 -77.5 33.5t-33.5 79.5t33.5 78t77.5 32q45 0 77.5 -31.5t32.5 -78.5t-32.5 -80t-77.5 -33z" />
    <glyph glyph-name="greaterequal" unicode="&#x2265;" 
d="M207 387q-44 0 -77.5 33.5t-33.5 79.5t33.5 78t77.5 32q45 0 77.5 -31.5t32.5 -78.5t-32.5 -80t-77.5 -33z" />
    <glyph glyph-name="lozenge" unicode="&#x25ca;" 
d="M207 387q-44 0 -77.5 33.5t-33.5 79.5t33.5 78t77.5 32q45 0 77.5 -31.5t32.5 -78.5t-32.5 -80t-77.5 -33z" />
    <glyph glyph-name="Lslashsmall" unicode="&#xf6f9;" horiz-adv-x="872" 
d="M307 350v-223h479v-127h-624v291l-113 -47v125l113 45v618h145v-559l289 119v-123z" />
    <glyph glyph-name="OEsmall" unicode="&#xf6fa;" horiz-adv-x="1556" 
d="M653 0q-250 0 -400.5 141.5t-150.5 372.5q0 233 150 375.5t401 142.5h774v-127h-507v-422h446v-121h-446v-237h530v-125h-797zM664 127h110v778h-110q-206 0 -310 -105t-104 -286q0 -178 104 -282.5t310 -104.5z" />
    <glyph glyph-name="Scaronsmall" unicode="&#xf6fd;" horiz-adv-x="872" 
d="M440 -16q-137 0 -236 62.5t-145 158.5l117 65q82 -164 262 -164q88 0 144.5 43t56.5 113t-42 113.5t-144 87.5l-82 37q-117 49 -177.5 117t-60.5 174q0 117 82 187.5t207 70.5q195 0 297 -156l-109 -74q-74 109 -184 109q-70 0 -112 -35.5t-42 -99.5q0 -58 34 -94.5
t112 -71.5l84 -37q142 -62 211 -135.5t69 -190.5q0 -128 -93.5 -204t-248.5 -76zM418 1151l-262 395h125l145 -203l147 203h125l-262 -395h-18z" />
    <glyph glyph-name="Zcaronsmall" unicode="&#xf6ff;" horiz-adv-x="950" 
d="M84 0v18l547 887h-473v127h698v-18l-547 -889h537v-125h-762zM477 1151l-262 395h125l145 -203l148 203h125l-262 -395h-19z" />
    <glyph glyph-name="Asmall" unicode="&#xf761;" horiz-adv-x="1050" 
d="M72 0l442 1044h21l444 -1044h-152l-61 154h-492l-61 -154h-141zM322 264h399l-148 373q-12 28 -25 68t-20 66l-6 26q-24 -97 -49 -160z" />
    <glyph glyph-name="Bsmall" unicode="&#xf762;" horiz-adv-x="993" 
d="M154 0v1032h374q143 0 218 -71.5t75 -182.5q0 -159 -133 -207q100 -23 157.5 -95t57.5 -177q0 -135 -87.5 -217t-248.5 -82h-413zM295 618h235q76 0 113 39t37 107t-40 106.5t-124 38.5h-221v-291zM295 123h260q104 0 153.5 50t49.5 138q0 89 -51.5 141t-153.5 52h-258
v-381z" />
    <glyph glyph-name="Csmall" unicode="&#xf763;" horiz-adv-x="1163" 
d="M629 -16q-225 0 -376 151t-151 381t152.5 381.5t376.5 151.5q144 0 245.5 -52.5t174.5 -156.5l-113 -78q-113 160 -307 160q-166 0 -273.5 -116.5t-107.5 -289.5t107 -289t272 -116q217 0 329 170l115 -72q-67 -108 -179.5 -166.5t-264.5 -58.5z" />
    <glyph glyph-name="Dsmall" unicode="&#xf764;" horiz-adv-x="1087" 
d="M154 0v1032h280q251 0 401 -141.5t150 -374.5t-150 -374.5t-401 -141.5h-280zM299 127h125q206 0 310 104.5t104 284.5q0 179 -104.5 284t-309.5 105h-125v-778z" />
    <glyph glyph-name="Esmall" unicode="&#xf765;" horiz-adv-x="933" 
d="M154 0v1032h653v-127h-508v-422h446v-121h-446v-237h528v-125h-673z" />
    <glyph glyph-name="Fsmall" unicode="&#xf766;" horiz-adv-x="901" 
d="M154 0v1032h645v-127h-500v-430h453v-127h-453v-348h-145z" />
    <glyph glyph-name="Gsmall" unicode="&#xf767;" horiz-adv-x="1171" 
d="M649 -16q-238 0 -392.5 151t-154.5 381t154.5 381.5t378.5 151.5q236 0 375 -146l-95 -96q-103 115 -280 115q-169 0 -277 -116.5t-108 -289.5q0 -177 108 -293.5t291 -116.5q163 0 273 82v197h-281v121h416v-389q-161 -133 -408 -133z" />
    <glyph glyph-name="Hsmall" unicode="&#xf768;" horiz-adv-x="1110" 
d="M154 0v1032h145v-557h512v557h145v-1032h-145v348h-512v-348h-145z" />
    <glyph glyph-name="Ismall" unicode="&#xf769;" horiz-adv-x="462" 
d="M160 0v1032h143v-1032h-143z" />
    <glyph glyph-name="Jsmall" unicode="&#xf76a;" horiz-adv-x="796" 
d="M350 -16q-106 0 -178 49t-111 127l117 69q32 -58 70.5 -88t97.5 -30q74 0 115 42.5t41 131.5v747h143v-753q0 -145 -81.5 -220t-213.5 -75z" />
    <glyph glyph-name="Ksmall" unicode="&#xf76b;" horiz-adv-x="1013" 
d="M283 397q87 151 114 187l344 448h166l-372 -479l430 -553h-177l-352 451l-137 -168v-283h-145v1032h145v-432q0 -88 -16 -203z" />
    <glyph glyph-name="Lsmall" unicode="&#xf76c;" horiz-adv-x="864" 
d="M154 0v1032h145v-905h481v-127h-626z" />
    <glyph glyph-name="Msmall" unicode="&#xf76d;" horiz-adv-x="1314" 
d="M152 0v1044h18l489 -589l484 589h18v-1044h-141v565q0 34 3 79t6 73l3 28q-51 -98 -102 -161l-264 -322h-17l-264 322q-22 26 -48 66.5t-41 67.5l-15 27q12 -106 12 -180v-565h-141z" />
    <glyph glyph-name="Nsmall" unicode="&#xf76e;" horiz-adv-x="1128" 
d="M954 -14l-569 626q-24 25 -51.5 61t-43.5 59l-16 24q15 -94 15 -174v-582h-135v1044h20l563 -620q25 -27 53.5 -63.5t43.5 -58.5l16 -23q-10 94 -10 172v581h135v-1046h-21z" />
    <glyph glyph-name="Osmall" unicode="&#xf76f;" horiz-adv-x="1286" 
d="M643 -16q-147 0 -271 67.5t-198 190t-74 274.5q0 115 43.5 215t117 169.5t173 109t209.5 39.5t210 -39.5t173.5 -109t116.5 -169.5t43 -215q0 -152 -73.5 -274.5t-197.5 -190t-272 -67.5zM643 111q173 0 284 115t111 290q0 174 -111.5 290t-283.5 116q-171 0 -283 -116
t-112 -290q0 -175 112 -290t283 -115z" />
    <glyph glyph-name="Psmall" unicode="&#xf770;" horiz-adv-x="972" 
d="M154 0v1032h280q208 0 322 -107t114 -286q0 -177 -114 -284t-322 -107h-135v-248h-145zM299 373h129q152 0 223.5 70.5t71.5 195.5q0 127 -72 196.5t-223 69.5h-129v-532z" />
    <glyph glyph-name="Qsmall" unicode="&#xf771;" horiz-adv-x="1286" 
d="M1081 -109l-155 172q-127 -79 -283 -79q-147 0 -271 67.5t-198 190t-74 274.5q0 115 43.5 215t117 169.5t173 109t209.5 39.5t210 -39.5t173.5 -109t116.5 -169.5t43 -215q0 -112 -42.5 -209.5t-117.5 -169.5l154 -164zM643 109q112 0 195 53l-152 162l98 82l156 -170
q98 109 98 280q0 174 -111.5 290t-283.5 116q-171 0 -283 -116t-112 -290q0 -175 112 -291t283 -116z" />
    <glyph glyph-name="Rsmall" unicode="&#xf772;" horiz-adv-x="978" 
d="M664 317l219 -317h-164l-189 274q-39 -8 -94 -8h-137v-266h-145v1032h282q204 0 319 -104.5t115 -278.5q0 -117 -53 -202.5t-153 -129.5zM299 391h131q153 0 223 68.5t70 189.5q0 120 -70.5 188t-222.5 68h-131v-514z" />
    <glyph glyph-name="Ssmall" unicode="&#xf773;" horiz-adv-x="872" 
d="M440 -16q-137 0 -236 62.5t-145 158.5l117 65q82 -164 262 -164q88 0 144.5 43t56.5 113t-42 113.5t-144 87.5l-82 37q-117 49 -177.5 117t-60.5 174q0 117 82 187.5t207 70.5q195 0 297 -156l-109 -74q-74 109 -184 109q-70 0 -112 -35.5t-42 -99.5q0 -58 34 -94.5
t112 -71.5l84 -37q142 -62 211 -135.5t69 -190.5q0 -128 -93.5 -204t-248.5 -76z" />
    <glyph glyph-name="Tsmall" unicode="&#xf774;" horiz-adv-x="935" 
d="M395 0v905h-319v127h784v-127h-319v-905h-146z" />
    <glyph glyph-name="Usmall" unicode="&#xf775;" horiz-adv-x="1064" 
d="M535 -16q-176 0 -283 99.5t-107 283.5v665h146v-659q0 -132 62 -197t179 -65t180.5 65t63.5 197v659h144v-665q0 -184 -106 -283.5t-279 -99.5z" />
    <glyph glyph-name="Vsmall" unicode="&#xf776;" horiz-adv-x="1050" 
d="M516 -12l-446 1044h157l246 -588q14 -32 28.5 -79t22.5 -78l8 -31q27 116 58 188l244 588h147l-442 -1044h-23z" />
    <glyph glyph-name="Wsmall" unicode="&#xf777;" horiz-adv-x="1490" 
d="M422 -12l-354 1044h155l189 -569q10 -30 21 -72.5t17 -70.5l5 -27q20 102 49 170l235 581h19l237 -579q15 -35 28.5 -77.5t19.5 -67.5l6 -25q16 94 41 170l188 567h145l-352 -1044h-18l-256 620q-12 29 -23.5 66t-17.5 60l-6 22q-21 -85 -48 -148l-260 -620h-20z" />
    <glyph glyph-name="Xsmall" unicode="&#xf778;" horiz-adv-x="1044" 
d="M78 0l356 563l-297 469h162l166 -264q16 -26 30 -58.5t21 -51.5l6 -19q25 72 58 129l161 264h160l-295 -469l361 -563h-164l-217 344q-16 25 -33.5 59t-26.5 55l-10 21q-26 -80 -61 -135l-215 -344h-162z" />
    <glyph glyph-name="Ysmall" unicode="&#xf779;" horiz-adv-x="1050" 
d="M457 0v324l-389 708h161l232 -428q17 -32 34.5 -76t26.5 -72l8 -28q35 106 70 176l227 428h156l-381 -704v-328h-145z" />
    <glyph glyph-name="Zsmall" unicode="&#xf77a;" horiz-adv-x="950" 
d="M84 0v18l547 887h-473v127h698v-18l-547 -889h537v-125h-762z" />
    <glyph glyph-name="Agravesmall" unicode="&#xf7e0;" horiz-adv-x="1050" 
d="M72 0l442 1044h21l444 -1044h-152l-61 154h-492l-61 -154h-141zM322 264h399l-148 373q-12 28 -25 68t-20 66l-6 26q-24 -97 -49 -160zM471 1171l-190 396h163l140 -396h-113z" />
    <glyph glyph-name="Aacutesmall" unicode="&#xf7e1;" horiz-adv-x="1050" 
d="M72 0l442 1044h21l444 -1044h-152l-61 154h-492l-61 -154h-141zM322 264h399l-148 373q-12 28 -25 68t-20 66l-6 26q-24 -97 -49 -160zM465 1171l139 396h164l-190 -396h-113z" />
    <glyph glyph-name="Acircumflexsmall" unicode="&#xf7e2;" horiz-adv-x="1050" 
d="M72 0l442 1044h21l444 -1044h-152l-61 154h-492l-61 -154h-141zM322 264h399l-148 373q-12 28 -25 68t-20 66l-6 26q-24 -97 -49 -160zM252 1167l262 396h18l263 -396h-125l-146 203l-147 -203h-125z" />
    <glyph glyph-name="Atildesmall" unicode="&#xf7e3;" horiz-adv-x="1050" 
d="M72 0l442 1044h21l444 -1044h-152l-61 154h-492l-61 -154h-141zM322 264h399l-148 373q-12 28 -25 68t-20 66l-6 26q-24 -97 -49 -160zM328 1161l-107 8q6 109 54 168.5t124 59.5q40 0 72 -16.5t70 -49.5q41 -37 58 -47t40 -10q62 0 74 119l106 -11q-6 -108 -52.5 -166.5
t-123.5 -58.5q-39 0 -70 16.5t-71 51.5q-41 36 -58 46.5t-41 10.5q-63 0 -75 -121z" />
    <glyph glyph-name="Adieresissmall" unicode="&#xf7e4;" horiz-adv-x="1050" 
d="M72 0l442 1044h21l444 -1044h-152l-61 154h-492l-61 -154h-141zM322 264h399l-148 373q-12 28 -25 68t-20 66l-6 26q-24 -97 -49 -160zM702 1208q-37 0 -66.5 28.5t-29.5 66.5q0 39 29 66.5t67 27.5t66.5 -27.5t28.5 -66.5q0 -38 -29 -66.5t-66 -28.5zM346 1208
q-37 0 -65.5 28.5t-28.5 66.5q0 39 28.5 66.5t65.5 27.5q39 0 67.5 -27.5t28.5 -66.5q0 -38 -29 -66.5t-67 -28.5z" />
    <glyph glyph-name="Aringsmall" unicode="&#xf7e5;" horiz-adv-x="1050" 
d="M72 0l442 1044h21l444 -1044h-152l-61 154h-492l-61 -154h-141zM322 264h399l-148 373q-12 28 -25 68t-20 66l-6 26q-24 -97 -49 -160zM524 1143q-90 0 -152.5 60t-62.5 145q0 86 62 146t153 60t153 -60t62 -146q0 -85 -62.5 -145t-152.5 -60zM524 1235q47 0 77 31t30 82
q0 52 -29.5 82t-77.5 30t-77 -30t-29 -82q0 -51 29.5 -82t76.5 -31z" />
    <glyph glyph-name="AEsmall" unicode="&#xf7e6;" horiz-adv-x="1517" 
d="M57 0l701 1032h633v-127h-510v-422h446v-121h-446v-237h530v-125h-676v160h-420l-106 -160h-152zM393 274h342v377q0 35 3.5 81t7.5 75l4 29q-48 -101 -91 -164z" />
    <glyph glyph-name="Ccedillasmall" unicode="&#xf7e7;" horiz-adv-x="1163" 
d="M526 -8q-188 34 -306 178t-118 346q0 230 152.5 381.5t376.5 151.5q144 0 245.5 -52.5t174.5 -156.5l-113 -78q-113 160 -307 160q-166 0 -273.5 -116.5t-107.5 -289.5t107 -289t272 -116q217 0 329 170l115 -72q-67 -108 -179.5 -166.5t-264.5 -58.5h-4v-93
q70 -10 119 -59.5t49 -126.5q0 -82 -58.5 -131t-138.5 -49q-75 0 -127.5 33.5t-79.5 87.5l88 51q16 -26 26.5 -39t32.5 -25t52 -12q39 0 65.5 24t26.5 68q0 42 -28 69.5t-81 27.5h-45v182z" />
    <glyph glyph-name="Egravesmall" unicode="&#xf7e8;" horiz-adv-x="933" 
d="M154 0v1032h653v-127h-508v-422h446v-121h-446v-237h528v-125h-673zM436 1171l-190 396h164l139 -396h-113z" />
    <glyph glyph-name="Eacutesmall" unicode="&#xf7e9;" horiz-adv-x="933" 
d="M154 0v1032h653v-127h-508v-422h446v-121h-446v-237h528v-125h-673zM430 1171l139 396h164l-190 -396h-113z" />
    <glyph glyph-name="Ecircumflexsmall" unicode="&#xf7ea;" horiz-adv-x="933" 
d="M154 0v1032h653v-127h-508v-422h446v-121h-446v-237h528v-125h-673zM213 1167l262 396h19l262 -396h-125l-146 203l-147 -203h-125z" />
    <glyph glyph-name="Edieresissmall" unicode="&#xf7eb;" horiz-adv-x="933" 
d="M154 0v1032h653v-127h-508v-422h446v-121h-446v-237h528v-125h-673zM664 1208q-37 0 -67 28.5t-30 66.5q0 39 29.5 66.5t67.5 27.5q37 0 65.5 -27.5t28.5 -66.5q0 -38 -28.5 -66.5t-65.5 -28.5zM307 1208q-37 0 -65.5 28.5t-28.5 66.5q0 39 28.5 66.5t65.5 27.5
q39 0 67.5 -27.5t28.5 -66.5q0 -38 -29 -66.5t-67 -28.5z" />
    <glyph glyph-name="Igravesmall" unicode="&#xf7ec;" horiz-adv-x="462" 
d="M160 0v1032h143v-1032h-143zM176 1171l-190 396h164l139 -396h-113z" />
    <glyph glyph-name="Iacutesmall" unicode="&#xf7ed;" horiz-adv-x="462" 
d="M160 0v1032h143v-1032h-143zM164 1171l139 396h164l-191 -396h-112z" />
    <glyph glyph-name="Icircumflexsmall" unicode="&#xf7ee;" horiz-adv-x="462" 
d="M160 0v1032h143v-1032h-143zM-45 1167l262 396h19l262 -396h-125l-146 203l-147 -203h-125z" />
    <glyph glyph-name="Idieresissmall" unicode="&#xf7ef;" horiz-adv-x="462" 
d="M160 0v1032h143v-1032h-143zM406 1208q-37 0 -67 28.5t-30 66.5q0 39 29.5 66.5t67.5 27.5q37 0 65.5 -27.5t28.5 -66.5q0 -38 -28.5 -66.5t-65.5 -28.5zM49 1208q-37 0 -65.5 28.5t-28.5 66.5q0 39 28.5 66.5t65.5 27.5q39 0 67.5 -27.5t28.5 -66.5q0 -38 -29 -66.5
t-67 -28.5z" />
    <glyph glyph-name="Ethsmall" unicode="&#xf7f0;" horiz-adv-x="1087" 
d="M154 0v369h-111v120h111v543h290q244 0 393.5 -142t149.5 -374t-149 -374t-394 -142h-290zM299 127h135q198 0 301 105t103 284q0 178 -103 283.5t-301 105.5h-135v-416h260v-120h-260v-242z" />
    <glyph glyph-name="Ntildesmall" unicode="&#xf7f1;" horiz-adv-x="1128" 
d="M954 -14l-569 626q-24 25 -51.5 61t-43.5 59l-16 24q15 -94 15 -174v-582h-135v1044h20l563 -620q25 -27 53.5 -63.5t43.5 -58.5l16 -23q-10 94 -10 172v581h135v-1046h-21zM369 1161l-107 8q6 109 54 168.5t124 59.5q40 0 72 -16.5t70 -49.5q41 -37 58 -47t40 -10
q62 0 74 119l106 -11q-6 -108 -52.5 -166.5t-123.5 -58.5q-39 0 -70 16.5t-71 51.5q-41 36 -58 46.5t-41 10.5q-63 0 -75 -121z" />
    <glyph glyph-name="Ogravesmall" unicode="&#xf7f2;" horiz-adv-x="1286" 
d="M643 -16q-147 0 -271 67.5t-198 190t-74 274.5q0 115 43.5 215t117 169.5t173 109t209.5 39.5t210 -39.5t173.5 -109t116.5 -169.5t43 -215q0 -152 -73.5 -274.5t-197.5 -190t-272 -67.5zM643 111q173 0 284 115t111 290q0 174 -111.5 290t-283.5 116q-171 0 -283 -116
t-112 -290q0 -175 112 -290t283 -115zM590 1171l-191 396h164l139 -396h-112z" />
    <glyph glyph-name="Oacutesmall" unicode="&#xf7f3;" horiz-adv-x="1286" 
d="M643 -16q-147 0 -271 67.5t-198 190t-74 274.5q0 115 43.5 215t117 169.5t173 109t209.5 39.5t210 -39.5t173.5 -109t116.5 -169.5t43 -215q0 -152 -73.5 -274.5t-197.5 -190t-272 -67.5zM643 111q173 0 284 115t111 290q0 174 -111.5 290t-283.5 116q-171 0 -283 -116
t-112 -290q0 -175 112 -290t283 -115zM584 1171l139 396h164l-191 -396h-112z" />
    <glyph glyph-name="Ocircumflexsmall" unicode="&#xf7f4;" horiz-adv-x="1286" 
d="M643 -16q-147 0 -271 67.5t-198 190t-74 274.5q0 115 43.5 215t117 169.5t173 109t209.5 39.5t210 -39.5t173.5 -109t116.5 -169.5t43 -215q0 -152 -73.5 -274.5t-197.5 -190t-272 -67.5zM643 111q173 0 284 115t111 290q0 174 -111.5 290t-283.5 116q-171 0 -283 -116
t-112 -290q0 -175 112 -290t283 -115zM371 1167l262 396h18l262 -396h-125l-145 203l-147 -203h-125z" />
    <glyph glyph-name="Otildesmall" unicode="&#xf7f5;" horiz-adv-x="1286" 
d="M643 -16q-147 0 -271 67.5t-198 190t-74 274.5q0 115 43.5 215t117 169.5t173 109t209.5 39.5t210 -39.5t173.5 -109t116.5 -169.5t43 -215q0 -152 -73.5 -274.5t-197.5 -190t-272 -67.5zM643 111q173 0 284 115t111 290q0 174 -111.5 290t-283.5 116q-171 0 -283 -116
t-112 -290q0 -175 112 -290t283 -115zM451 1161l-107 8q6 109 54 168.5t124 59.5q40 0 72 -16.5t70 -49.5q41 -37 58 -47t40 -10q62 0 74 119l106 -11q-6 -108 -52.5 -166.5t-123.5 -58.5q-39 0 -70 16.5t-71 51.5q-41 36 -58 46.5t-41 10.5q-63 0 -75 -121z" />
    <glyph glyph-name="Odieresissmall" unicode="&#xf7f6;" horiz-adv-x="1286" 
d="M643 -16q-147 0 -271 67.5t-198 190t-74 274.5q0 115 43.5 215t117 169.5t173 109t209.5 39.5t210 -39.5t173.5 -109t116.5 -169.5t43 -215q0 -152 -73.5 -274.5t-197.5 -190t-272 -67.5zM643 111q173 0 284 115t111 290q0 174 -111.5 290t-283.5 116q-171 0 -283 -116
t-112 -290q0 -175 112 -290t283 -115zM821 1208q-37 0 -66.5 28.5t-29.5 66.5q0 39 29 66.5t67 27.5q37 0 65.5 -27.5t28.5 -66.5q0 -38 -28.5 -66.5t-65.5 -28.5zM465 1208q-37 0 -65.5 28.5t-28.5 66.5q0 39 28.5 66.5t65.5 27.5q39 0 67.5 -27.5t28.5 -66.5
q0 -38 -29 -66.5t-67 -28.5z" />
    <glyph glyph-name="Oslashsmall" unicode="&#xf7f8;" horiz-adv-x="1286" 
d="M1069 852q117 -139 117 -336q0 -152 -73.5 -274.5t-197.5 -190t-272 -67.5q-197 0 -344 116l-121 -116l-78 79l119 115q-119 145 -119 338q0 115 43.5 215t117 169.5t173 109t209.5 39.5q201 0 348 -119l119 117l78 -80q-117 -115 -119 -115zM315 272l582 566
q-106 86 -254 86q-173 0 -285 -116t-112 -292q0 -140 69 -244zM971 756l-580 -566q108 -81 252 -81q174 0 285.5 114.5t111.5 292.5q0 139 -69 240z" />
    <glyph glyph-name="Ugravesmall" unicode="&#xf7f9;" horiz-adv-x="1064" 
d="M535 -16q-176 0 -283 99.5t-107 283.5v665h146v-659q0 -132 62 -197t179 -65t180.5 65t63.5 197v659h144v-665q0 -184 -106 -283.5t-279 -99.5zM481 1171l-190 396h164l139 -396h-113z" />
    <glyph glyph-name="Uacutesmall" unicode="&#xf7fa;" horiz-adv-x="1064" 
d="M535 -16q-176 0 -283 99.5t-107 283.5v665h146v-659q0 -132 62 -197t179 -65t180.5 65t63.5 197v659h144v-665q0 -184 -106 -283.5t-279 -99.5zM477 1171l139 396h164l-190 -396h-113z" />
    <glyph glyph-name="Ucircumflexsmall" unicode="&#xf7fb;" horiz-adv-x="1064" 
d="M535 -16q-176 0 -283 99.5t-107 283.5v665h146v-659q0 -132 62 -197t179 -65t180.5 65t63.5 197v659h144v-665q0 -184 -106 -283.5t-279 -99.5zM260 1167l262 396h19l262 -396h-125l-146 203l-147 -203h-125z" />
    <glyph glyph-name="Udieresissmall" unicode="&#xf7fc;" horiz-adv-x="1064" 
d="M535 -16q-176 0 -283 99.5t-107 283.5v665h146v-659q0 -132 62 -197t179 -65t180.5 65t63.5 197v659h144v-665q0 -184 -106 -283.5t-279 -99.5zM711 1208q-37 0 -67 28.5t-30 66.5q0 39 29.5 66.5t67.5 27.5q37 0 65.5 -27.5t28.5 -66.5q0 -38 -28.5 -66.5t-65.5 -28.5z
M354 1208q-37 0 -65.5 28.5t-28.5 66.5q0 39 28.5 66.5t65.5 27.5q39 0 68 -27.5t29 -66.5q0 -38 -29.5 -66.5t-67.5 -28.5z" />
    <glyph glyph-name="Yacutesmall" unicode="&#xf7fd;" horiz-adv-x="1050" 
d="M457 0v324l-389 708h161l232 -428q17 -32 34.5 -76t26.5 -72l8 -28q35 106 70 176l227 428h156l-381 -704v-328h-145zM475 1171l139 396h164l-190 -396h-113z" />
    <glyph glyph-name="Thornsmall" unicode="&#xf7fe;" horiz-adv-x="972" 
d="M154 0v1032h145v-117h143q205 0 316.5 -106t111.5 -287q0 -177 -111.5 -283t-316.5 -106h-143v-133h-145zM299 256h137q149 0 218 70.5t69 195.5q0 127 -69.5 198t-217.5 71h-137v-535z" />
    <glyph glyph-name="Ydieresissmall" unicode="&#xf7ff;" horiz-adv-x="1050" 
d="M457 0v324l-389 708h161l232 -428q17 -32 34.5 -76t26.5 -72l8 -28q35 106 70 176l227 428h156l-381 -704v-328h-145zM707 1208q-37 0 -67 28.5t-30 66.5q0 39 29.5 66.5t67.5 27.5q37 0 65.5 -27.5t28.5 -66.5q0 -38 -28.5 -66.5t-65.5 -28.5zM350 1208
q-37 0 -65.5 28.5t-28.5 66.5q0 39 28.5 66.5t65.5 27.5q39 0 67.5 -27.5t28.5 -66.5q0 -38 -29 -66.5t-67 -28.5z" />
    <glyph glyph-name="Q.alt1" horiz-adv-x="1650" 
d="M901 2q56 -46 90 -69.5t90 -44.5t117 -21q122 0 205 92l100 -90q-114 -135 -303 -135q-61 0 -117 14.5t-111 46.5t-85 53.5t-84 63.5q-57 43 -94 67t-94.5 46t-112.5 22q-152 0 -248 -149l-100 82q79 123 219 165q-124 93 -194 235t-70 316q0 205 96 369.5t259 254
t359 89.5q197 0 360.5 -89.5t260 -254t96.5 -369.5q0 -143 -49.5 -268t-135.5 -214t-203 -144.5t-251 -67.5zM823 121q244 0 403.5 163.5t159.5 411.5q0 164 -72 296.5t-201 208t-290 75.5q-242 0 -401.5 -165t-159.5 -415q0 -163 72 -294.5t200.5 -206t288.5 -74.5z" />
    <glyph glyph-name="apple" horiz-adv-x="413" 
d="M207 387q-44 0 -77.5 33.5t-33.5 79.5t33.5 78t77.5 32q45 0 77.5 -31.5t32.5 -78.5t-32.5 -80t-77.5 -33z" />
    <glyph glyph-name="G.alt" horiz-adv-x="1560" 
d="M811 -16q-199 0 -363 90t-260 253.5t-96 368.5q0 154 56.5 287.5t153 226.5t228.5 146t279 53q184 0 329.5 -70t235.5 -211l-117 -84q-147 232 -448 232q-161 0 -290 -75.5t-201 -208t-72 -296.5q0 -249 160.5 -414t404.5 -165q114 0 209 33t159 89.5t103.5 129
t52.5 155.5h-497v131h657q-5 -305 -188.5 -488t-495.5 -183z" />
    <glyph glyph-name="M.alt" horiz-adv-x="1705" 
d="M133 0l154 1409h20l477 -805q16 -25 33.5 -61t26.5 -59l10 -23q35 86 70 143l477 805h18l154 -1409h-150l-96 850q-4 38 -7 90.5t-4 85.5l-1 33q-41 -119 -88 -199l-369 -627h-16l-367 627q-20 34 -42.5 84t-34.5 84l-13 33q-2 -125 -12 -211l-97 -850h-143z" />
    <glyph glyph-name="Q.alt" horiz-adv-x="1652" 
d="M897 -12v-318h-141v316q-135 12 -253.5 69.5t-205 149t-136.5 219t-50 272.5q0 205 96 369.5t259 254t359 89.5q197 0 360.5 -89.5t260 -254t96.5 -369.5q0 -145 -50 -272t-136.5 -218t-205 -148.5t-253.5 -69.5zM756 115v295h141v-295q218 25 355 185.5t137 395.5
q0 164 -72.5 296.5t-201.5 208t-290 75.5q-242 0 -401.5 -165t-159.5 -415q0 -235 137.5 -395.5t354.5 -185.5z" />
    <glyph glyph-name="a.alt" horiz-adv-x="1122" 
d="M504 -16q-171 0 -288.5 126.5t-117.5 315.5q0 188 117 314t291 126q114 0 195.5 -53t127.5 -147l-4 182h144v-848h-144l4 182q-45 -89 -129.5 -143.5t-195.5 -54.5zM535 109q132 0 213 88.5t81 226.5q0 137 -81 226t-213 89t-209.5 -87t-77.5 -226q0 -140 78 -228.5
t209 -88.5z" />
    <glyph glyph-name="g.alt" horiz-adv-x="1130" 
d="M549 -457q-150 0 -258 63.5t-172 172.5l106 74q113 -187 320 -187q289 0 289 318v192q-43 -86 -128 -139t-196 -53q-174 0 -293 126.5t-119 315.5q0 188 118.5 314t291.5 126q117 0 200 -54t130 -146l-4 182h143v-875q0 -216 -115 -323t-313 -107zM539 109
q134 0 217.5 89t83.5 228q0 137 -83.5 225t-217.5 88q-132 0 -212.5 -87.5t-80.5 -225.5q0 -140 80.5 -228.5t212.5 -88.5z" />
    <glyph glyph-name="u.alt" horiz-adv-x="1036" 
d="M516 -18q-175 0 -274 103.5t-99 289.5v473h144v-467q0 -135 56 -203.5t175 -68.5q121 0 177.5 68.5t56.5 203.5v467h141v-473q0 -185 -101 -289t-276 -104z" />
    <glyph glyph-name="aacute.alt" horiz-adv-x="1122" 
d="M504 -16q-171 0 -288.5 126.5t-117.5 315.5q0 188 117 314t291 126q114 0 195.5 -53t127.5 -147l-4 182h144v-848h-144l4 182q-45 -89 -129.5 -143.5t-195.5 -54.5zM535 109q132 0 213 88.5t81 226.5q0 137 -81 226t-213 89t-209.5 -87t-77.5 -226q0 -140 78 -228.5
t209 -88.5zM457 1020l139 395h164l-191 -395h-112z" />
    <glyph glyph-name="agrave.alt" horiz-adv-x="1122" 
d="M504 -16q-171 0 -288.5 126.5t-117.5 315.5q0 188 117 314t291 126q114 0 195.5 -53t127.5 -147l-4 182h144v-848h-144l4 182q-45 -89 -129.5 -143.5t-195.5 -54.5zM535 109q132 0 213 88.5t81 226.5q0 137 -81 226t-213 89t-209.5 -87t-77.5 -226q0 -140 78 -228.5
t209 -88.5zM455 1020l-191 395h164l139 -395h-112z" />
    <glyph glyph-name="acircumflex.alt" horiz-adv-x="1122" 
d="M504 -16q-171 0 -288.5 126.5t-117.5 315.5q0 188 117 314t291 126q114 0 195.5 -53t127.5 -147l-4 182h144v-848h-144l4 182q-45 -89 -129.5 -143.5t-195.5 -54.5zM535 109q132 0 213 88.5t81 226.5q0 137 -81 226t-213 89t-209.5 -87t-77.5 -226q0 -140 78 -228.5
t209 -88.5zM270 1016l262 395h19l262 -395h-125l-145 203l-148 -203h-125z" />
    <glyph glyph-name="adieresis.alt" horiz-adv-x="1122" 
d="M504 -16q-171 0 -288.5 126.5t-117.5 315.5q0 188 117 314t291 126q114 0 195.5 -53t127.5 -147l-4 182h144v-848h-144l4 182q-45 -89 -129.5 -143.5t-195.5 -54.5zM535 109q132 0 213 88.5t81 226.5q0 137 -81 226t-213 89t-209.5 -87t-77.5 -226q0 -140 78 -228.5
t209 -88.5zM713 1057q-37 0 -67 28t-30 66q0 39 29.5 66.5t67.5 27.5q37 0 65.5 -27.5t28.5 -66.5q0 -38 -28.5 -66t-65.5 -28zM356 1057q-37 0 -65.5 28t-28.5 66q0 39 28.5 66.5t65.5 27.5q39 0 68 -27.5t29 -66.5q0 -38 -29 -66t-68 -28z" />
    <glyph glyph-name="atilde.alt" horiz-adv-x="1122" 
d="M504 -16q-171 0 -288.5 126.5t-117.5 315.5q0 188 117 314t291 126q114 0 195.5 -53t127.5 -147l-4 182h144v-848h-144l4 182q-45 -89 -129.5 -143.5t-195.5 -54.5zM535 109q132 0 213 88.5t81 226.5q0 137 -81 226t-213 89t-209.5 -87t-77.5 -226q0 -140 78 -228.5
t209 -88.5zM342 1010l-106 8q6 108 54 167.5t124 59.5q40 0 71.5 -16t69.5 -49q42 -37 58.5 -47.5t39.5 -10.5q62 0 74 119l107 -10q-6 -108 -53 -166.5t-124 -58.5q-39 0 -70.5 16.5t-70.5 50.5q-41 37 -58 47t-40 10q-64 0 -76 -120z" />
    <glyph glyph-name="aring.alt" horiz-adv-x="1122" 
d="M504 -16q-171 0 -288.5 126.5t-117.5 315.5q0 188 117 314t291 126q114 0 195.5 -53t127.5 -147l-4 182h144v-848h-144l4 182q-45 -89 -129.5 -143.5t-195.5 -54.5zM535 109q132 0 213 88.5t81 226.5q0 137 -81 226t-213 89t-209.5 -87t-77.5 -226q0 -140 78 -228.5
t209 -88.5zM524 991q-90 0 -152.5 60t-62.5 145q0 87 62.5 147t152.5 60t152.5 -60t62.5 -147q0 -85 -62.5 -145t-152.5 -60zM524 1083q47 0 77 31t30 82q0 52 -29.5 82.5t-77.5 30.5t-77 -30.5t-29 -82.5q0 -51 29.5 -82t76.5 -31z" />
    <glyph glyph-name="uacute.alt" horiz-adv-x="1036" 
d="M516 -18q-175 0 -274 103.5t-99 289.5v473h144v-467q0 -135 56 -203.5t175 -68.5q121 0 177.5 68.5t56.5 203.5v467h141v-473q0 -185 -101 -289t-276 -104zM459 1020l139 395h164l-191 -395h-112z" />
    <glyph glyph-name="ugrave.alt" horiz-adv-x="1036" 
d="M516 -18q-175 0 -274 103.5t-99 289.5v473h144v-467q0 -135 56 -203.5t175 -68.5q121 0 177.5 68.5t56.5 203.5v467h141v-473q0 -185 -101 -289t-276 -104zM467 1020l-191 395h164l140 -395h-113z" />
    <glyph glyph-name="ucircumflex.alt" horiz-adv-x="1036" 
d="M516 -18q-175 0 -274 103.5t-99 289.5v473h144v-467q0 -135 56 -203.5t175 -68.5q121 0 177.5 68.5t56.5 203.5v467h141v-473q0 -185 -101 -289t-276 -104zM248 1016l262 395h18l263 -395h-125l-146 203l-147 -203h-125z" />
    <glyph glyph-name="udieresis.alt" horiz-adv-x="1036" 
d="M516 -18q-175 0 -274 103.5t-99 289.5v473h144v-467q0 -135 56 -203.5t175 -68.5q121 0 177.5 68.5t56.5 203.5v467h141v-473q0 -185 -101 -289t-276 -104zM698 1057q-37 0 -66.5 28t-29.5 66q0 39 29 66.5t67 27.5t66.5 -27.5t28.5 -66.5q0 -38 -29 -66t-66 -28z
M342 1057q-37 0 -65.5 28t-28.5 66q0 39 28.5 66.5t65.5 27.5q39 0 67.5 -27.5t28.5 -66.5q0 -38 -29 -66t-67 -28z" />
    <glyph glyph-name="zerolining" horiz-adv-x="1503" 
d="M752 -16q-183 0 -332.5 89t-236.5 252.5t-87 370.5t87 370.5t236.5 253t332.5 89.5t332.5 -89.5t236 -253t86.5 -370.5q0 -155 -50.5 -288.5t-138 -226t-208.5 -145t-258 -52.5zM752 117q226 0 362.5 162t136.5 417t-136.5 417.5t-362.5 162.5t-363 -162.5t-137 -417.5
t137 -417t363 -162z" />
    <glyph glyph-name="onelining" horiz-adv-x="653" 
d="M301 0v1262h-227v131h377v-1393h-150z" />
    <glyph glyph-name="twolining" horiz-adv-x="1091" 
d="M57 0v14l572 607q101 106 151.5 199t50.5 194q0 117 -69 188.5t-191 71.5q-118 0 -200.5 -72t-112.5 -207l-141 31q37 171 154 277t300 106q186 0 298 -109.5t112 -285.5q0 -121 -62 -234t-176 -235l-309 -328q-19 -21 -45 -44.5t-43 -36.5l-16 -13q72 8 127 8h532v-131
h-932z" />
    <glyph glyph-name="threelining" horiz-adv-x="1122" 
d="M535 -16q-168 0 -300 78t-194 202l123 66q55 -97 146 -155t218 -58q166 0 263.5 97t97.5 249t-99 246t-270 94q-93 0 -170 -29l-10 14l340 406l76 78q-62 -10 -115 -10h-483v131h837v-15l-319 -381q-18 -22 -38.5 -42.5t-31.5 -30.5l-12 -9q197 -7 320.5 -135t123.5 -321
q0 -213 -140.5 -344t-362.5 -131z" />
    <glyph glyph-name="fourlining" horiz-adv-x="1208" 
d="M823 0v258h-766v76l904 1091h12v-1042h155v-125h-155v-258h-150zM242 373q90 10 151 10h430v573q0 27 2.5 63.5t5.5 59.5l3 23q-46 -72 -91 -127l-395 -502q-19 -22 -45.5 -47t-43.5 -39z" />
    <glyph glyph-name="fivelining" horiz-adv-x="1124" 
d="M535 -16q-163 0 -292 71t-196 193l127 69q53 -91 144.5 -145.5t216.5 -54.5q158 0 253 99t95 253q0 153 -97.5 251.5t-259.5 98.5q-106 0 -185 -33.5t-148 -95.5l-13 8v695h756v-131h-625v-373q96 57 236 57q217 0 354 -134.5t137 -342.5q0 -221 -139.5 -353t-363.5 -132
z" />
    <glyph glyph-name="sixlining" horiz-adv-x="1163" 
d="M582 -16q-212 0 -350 135.5t-138 331.5q0 163 117 331l428 611h166l-297 -422q-16 -23 -43 -54t-45 -51l-19 -20q99 72 211 72q196 0 326.5 -133t130.5 -330q0 -198 -137 -334.5t-350 -136.5zM582 117q151 0 243.5 98.5t92.5 239.5q0 142 -91.5 242t-244.5 100
q-151 0 -243.5 -99t-92.5 -243q0 -141 92.5 -239.5t243.5 -98.5z" />
    <glyph glyph-name="sevenlining" horiz-adv-x="1124" 
d="M221 0l631 1262h-782v131h999v-15l-690 -1378h-158z" />
    <glyph glyph-name="eightlining" horiz-adv-x="1165" 
d="M584 -16q-222 0 -363 121.5t-141 310.5q0 141 85.5 239t229.5 136q-92 36 -145 109.5t-53 176.5q0 142 111 237t276 95t277 -95t112 -237q0 -103 -54.5 -177t-146.5 -109q144 -39 228.5 -136.5t84.5 -238.5q0 -190 -139.5 -311t-361.5 -121zM584 850q109 0 175 60.5
t66 156.5q0 92 -66.5 152.5t-174.5 60.5q-109 0 -175.5 -60.5t-66.5 -152.5q0 -96 66.5 -156.5t175.5 -60.5zM584 117q158 0 254 84.5t96 218.5q0 133 -96 217t-254 84q-157 0 -255 -84t-98 -217q0 -134 97.5 -218.5t255.5 -84.5z" />
    <glyph glyph-name="ninelining" horiz-adv-x="1163" 
d="M385 0l289 426q15 22 36.5 49t35.5 43l14 17q-98 -70 -211 -70q-199 0 -330 134.5t-131 334.5q0 130 61.5 238.5t175 172.5t255.5 64q215 0 355 -137t140 -336q0 -156 -121 -334l-405 -602h-164zM580 586q154 0 249 100.5t95 247.5q0 142 -94 242t-250 100
q-154 0 -247 -100t-93 -242q0 -147 91 -247.5t249 -100.5z" />
    <glyph glyph-name="minuslining" 
d="M207 387q-44 0 -77.5 33.5t-33.5 79.5t33.5 78t77.5 32q45 0 77.5 -31.5t32.5 -78.5t-32.5 -80t-77.5 -33z" />
    <glyph glyph-name="multiplylining" 
d="M207 387q-44 0 -77.5 33.5t-33.5 79.5t33.5 78t77.5 32q45 0 77.5 -31.5t32.5 -78.5t-32.5 -80t-77.5 -33z" />
    <glyph glyph-name="spacelining" horiz-adv-x="485" 
 />
    <glyph glyph-name="numbersignlining" horiz-adv-x="944" 
d="M139 498l58 221h-138v115h164l56 221h-148v114h176l55 224h119l-55 -224h203l57 224h119l-55 -224h135v-114h-164l-55 -221h145v-115h-176l-53 -221h-121l55 221h-203l-53 -221h-121zM342 834h205l55 221h-203z" />
    <glyph glyph-name="dollarlining" horiz-adv-x="1093" 
d="M487 -14q-294 24 -424 278l123 68q53 -98 121 -153t180 -66v569l-14 6q-171 72 -252.5 162t-81.5 235q0 138 98.5 227t249.5 97v174h105v-178q188 -26 307 -201l-115 -78q-75 123 -192 148v-481l26 -13q190 -78 278.5 -176t88.5 -252q0 -164 -105.5 -259.5t-287.5 -106.5
v-224h-105v224zM487 1282q-95 -7 -149.5 -58.5t-54.5 -133.5q0 -91 45.5 -145t158.5 -105v442zM592 113q117 10 182.5 73.5t65.5 163.5t-59.5 164t-188.5 123v-524z" />
    <glyph glyph-name="percentlining" horiz-adv-x="1660" 
d="M410 723q-140 0 -243.5 99t-103.5 245t103.5 244t243.5 98t244 -98t104 -244t-104 -245t-244 -99zM319 0l877 1393h145l-876 -1393h-146zM1249 -16q-140 0 -243 98t-103 244t103 244t243 98t243 -98t103 -244t-103 -244t-243 -98zM410 842q91 0 153 63.5t62 161.5
t-62 160.5t-153 62.5t-152 -62.5t-61 -160.5t61.5 -161.5t151.5 -63.5zM1249 100q90 0 152.5 64.5t62.5 161.5q0 99 -62 162t-153 63t-153 -63t-62 -162q0 -97 62.5 -161.5t152.5 -64.5z" />
    <glyph glyph-name="parenleftlining" horiz-adv-x="589" 
d="M442 -279q-352 360 -352 875q0 514 352 874l90 -73q-135 -157 -213.5 -350.5t-78.5 -450.5t78.5 -450.5t213.5 -350.5z" />
    <glyph glyph-name="parenrightlining" horiz-adv-x="589" 
d="M145 -279l-88 74q135 157 213 350.5t78 450.5t-78 450.5t-213 350.5l88 73q355 -363 355 -874q0 -512 -355 -875z" />
    <glyph glyph-name="pluslining" horiz-adv-x="845" 
d="M356 299v297h-276v127h276v297h131v-297h279v-127h-279v-297h-131z" />
    <glyph glyph-name="commalining" horiz-adv-x="413" 
d="M90 -229l80 227q-33 11 -53.5 37.5t-20.5 62.5q0 45 34 78t77 33q45 0 77.5 -32.5t32.5 -78.5q0 -36 -24 -82l-123 -245h-80z" />
    <glyph glyph-name="periodlining" horiz-adv-x="413" 
d="M207 -14q-44 0 -77.5 33t-33.5 79t33.5 78.5t77.5 32.5q45 0 77.5 -32t32.5 -79t-32.5 -79.5t-77.5 -32.5z" />
    <glyph glyph-name="colonlining" horiz-adv-x="434" 
d="M217 444q-44 0 -77.5 33.5t-33.5 79.5t33.5 78.5t77.5 32.5q45 0 78 -32t33 -79t-33 -80t-78 -33zM217 -14q-44 0 -77.5 33t-33.5 79t33.5 78.5t77.5 32.5q45 0 78 -32t33 -79t-33 -79.5t-78 -32.5z" />
    <glyph glyph-name="semicolonlining" horiz-adv-x="434" 
d="M217 444q-44 0 -77.5 33.5t-33.5 79.5t33.5 78.5t77.5 32.5q45 0 78 -32t33 -79t-33 -80t-78 -33zM100 -229l80 227q-33 11 -53.5 37.5t-20.5 62.5q0 45 34 78t77 33q45 0 78 -33t33 -78q0 -34 -25 -82l-123 -245h-80z" />
    <glyph glyph-name="lesslining" horiz-adv-x="800" 
d="M700 305l-626 342v21l626 336v-134l-411 -215l411 -217v-133z" />
    <glyph glyph-name="equallining" horiz-adv-x="841" 
d="M86 721v127h670v-127h-670zM86 422v125h670v-125h-670z" />
    <glyph glyph-name="greaterlining" horiz-adv-x="800" 
d="M100 305v133l414 215l-414 217v134l627 -342v-21z" />
    <glyph glyph-name="bracketleftlining" horiz-adv-x="624" 
d="M156 -262v1741h395v-123h-252v-1495h252v-123h-395z" />
    <glyph glyph-name="bracketrightlining" horiz-adv-x="624" 
d="M74 -262v123h252v1495h-252v123h397v-1741h-397z" />
    <glyph glyph-name="braceleftlining" horiz-adv-x="751" 
d="M561 -262q-272 0 -272 295v309q0 78 -29.5 109.5t-89.5 31.5h-119v125h119q60 0 89.5 32t29.5 110v434q0 295 272 295h117v-123h-109q-68 0 -101.5 -38.5t-33.5 -135.5v-447q0 -89 -35 -132t-98 -56q133 -28 133 -191v-321q0 -97 33.5 -135.5t101.5 -38.5h109v-123h-117z
" />
    <glyph glyph-name="bracerightlining" horiz-adv-x="749" 
d="M74 -262v123h108q68 0 101.5 38.5t33.5 135.5v321q0 164 134 189q-134 28 -134 190v447q0 97 -33.5 135.5t-101.5 38.5h-108v123h116q271 0 271 -295v-432q0 -78 30.5 -111t90.5 -33h116v-125h-116q-60 0 -90.5 -31.5t-30.5 -107.5v-311q0 -295 -271 -295h-116z" />
    <glyph glyph-name="degreelining" horiz-adv-x="751" 
d="M377 866q-117 0 -199 78.5t-82 192.5q0 115 81.5 193.5t199.5 78.5q117 0 197.5 -78.5t80.5 -193.5q0 -114 -80.5 -192.5t-197.5 -78.5zM377 969q73 0 118.5 47.5t45.5 120.5q0 74 -45.5 122t-118.5 48t-118.5 -48t-45.5 -122q0 -73 45.5 -120.5t118.5 -47.5z" />
    <glyph glyph-name="centlining" horiz-adv-x="962" 
d="M477 -12q-165 22 -272 144t-107 292t107 293t272 145v221h105v-219q180 -11 292 -149l-100 -82q-73 92 -192 106v-630q124 13 204 110l99 -84q-116 -138 -303 -149v-224h-105v226zM477 735q-107 -20 -170 -105t-63 -206t62.5 -206t170.5 -105v622z" />
    <glyph glyph-name="sterlinglining" horiz-adv-x="1234" 
d="M375 565h-209v115h158q-80 191 -80 321q0 176 120.5 292t313.5 116q291 0 412 -252l-123 -63q-44 93 -113 139.5t-176 46.5q-129 0 -206 -76.5t-77 -202.5q0 -131 78 -321h401v-115h-356q53 -150 53 -270q0 -32 -6 -62q42 -30 65.5 -46t63 -37t78.5 -30t82 -9
q72 0 118 26.5t89 83.5l100 -84q-65 -82 -133 -117.5t-174 -35.5q-96 0 -173.5 37.5t-156.5 101.5q-41 -64 -107.5 -101.5t-148.5 -37.5q-92 0 -155.5 52t-63.5 140q0 87 62 140t155 53q85 0 174 -47q-7 107 -65 243zM426 201q-83 63 -154 63q-46 0 -75 -23.5t-29 -62.5
q0 -41 29 -65.5t77 -24.5q53 0 93.5 29t58.5 84z" />
    <glyph glyph-name="sectionlining" horiz-adv-x="1132" 
d="M549 -369q-139 0 -249 63t-169 161l119 75q109 -168 295 -168q121 0 178 52.5t57 140.5q0 75 -50 123.5t-155 95.5l-217 98q-148 65 -215 144t-67 194q0 177 180 262q-57 82 -57 195q0 148 105.5 245t270.5 97q132 0 226 -59t145 -154l-119 -74q-86 156 -252 156
q-102 0 -162.5 -57.5t-60.5 -147.5q0 -88 44.5 -138t144.5 -95l221 -101q158 -70 226.5 -150.5t68.5 -193.5q0 -87 -50 -150.5t-139 -99.5q66 -84 66 -192q0 -144 -99 -233t-286 -89zM786 219q59 22 93 65t34 99q0 73 -48.5 122.5t-162.5 100.5l-223 101q-93 41 -149 94
q-52 -25 -81.5 -70t-29.5 -100q0 -79 45.5 -127t153.5 -96l219 -99q95 -42 149 -90z" />
    <glyph glyph-name="yenlining" horiz-adv-x="1267" 
d="M440 670l-368 723h161l347 -697q13 -27 27.5 -65t22.5 -62l9 -24q28 90 59 151l346 697h152l-369 -723h312v-115h-369l-61 -121v-61h430v-113h-430v-260h-150v260h-428v113h428v65l-59 117h-369v115h309z" />
    <glyph glyph-name="florinlining" horiz-adv-x="751" 
d="M371 526l-109 -960h-139l108 960h-143v115h156l55 494q32 274 254 274q138 0 207 -111l-92 -77q-20 32 -44 48.5t-63 16.5q-53 0 -82.5 -31.5t-38.5 -113.5l-57 -500h205v-115h-217z" />
    <glyph glyph-name="dividelining" 
d="M207 387q-44 0 -77.5 33.5t-33.5 79.5t33.5 78t77.5 32q45 0 77.5 -31.5t32.5 -78.5t-32.5 -80t-77.5 -33z" />
    <glyph glyph-name="perthousandlining" horiz-adv-x="2467" 
d="M410 723q-140 0 -243.5 99t-103.5 245t103.5 244t243.5 98t244 -98t104 -244t-104 -245t-244 -99zM319 0l877 1393h145l-876 -1393h-146zM2060 -16q-140 0 -243 98t-103 244t103 244t243 98t242 -98t102 -244t-102 -244t-242 -98zM1249 -16q-140 0 -243 98t-103 244
t103 244t243 98t243 -98t103 -244t-103 -244t-243 -98zM410 842q91 0 153 63.5t62 161.5t-62 160.5t-153 62.5t-152 -62.5t-61 -160.5t61.5 -161.5t151.5 -63.5zM2060 100q89 0 151 64.5t62 161.5q0 99 -61.5 162t-151.5 63q-92 0 -153.5 -62.5t-61.5 -162.5q0 -98 62 -162
t153 -64zM1249 100q90 0 152.5 64.5t62.5 161.5q0 99 -62 162t-153 63t-153 -63t-62 -162q0 -97 62.5 -161.5t152.5 -64.5z" />
    <glyph glyph-name="fl.alt" horiz-adv-x="1038" 
d="M207 0v727h-137v121h137v385q0 137 62.5 204.5t168.5 67.5q120 0 197 -84l-90 -90q-38 45 -94 45q-49 0 -75 -32t-26 -111v-385h217v-121h-217v-727h-143zM731 0v1479h143v-1479h-143z" />
    <glyph glyph-name="ffl.alt" horiz-adv-x="1562" 
d="M207 0v727h-137v121h137v344q0 137 62.5 204.5t170.5 67.5q139 0 209 -90l-92 -90q-41 51 -102 51q-50 0 -77.5 -32.5t-27.5 -110.5v-344h381v385q0 137 63 204.5t169 67.5q119 0 196 -84l-90 -90q-38 45 -94 45q-49 0 -75 -32t-26 -111v-385h220v-121h-220v-727h-143
v727h-381v-727h-143zM1255 0v1479h144v-1479h-144z" />
    <glyph glyph-name="Eurolining" horiz-adv-x="1546" 
d="M256 752h-174v114h188q51 243 225.5 393t409.5 150q177 0 298.5 -64.5t203.5 -191.5l-113 -80q-68 103 -158 153t-231 50q-181 0 -307 -111t-168 -299h660v-114h-676q-2 -18 -2 -56q0 -43 8 -121h670v-114h-641q54 -160 175.5 -253t288.5 -93q83 0 152 19.5t119.5 55.5
t85.5 75.5t67 90.5l117 -71q-38 -65 -84 -116t-110.5 -94.5t-152.5 -67t-194 -23.5q-223 0 -392 130t-234 347h-205v114h180q-8 52 -8 121q0 38 2 56z" />
    <glyph glyph-name="minussmall" 
d="M207 387q-44 0 -77.5 33.5t-33.5 79.5t33.5 78t77.5 32q45 0 77.5 -31.5t32.5 -78.5t-32.5 -80t-77.5 -33z" />
    <glyph glyph-name="multiplysmall" 
d="M207 387q-44 0 -77.5 33.5t-33.5 79.5t33.5 78t77.5 32q45 0 77.5 -31.5t32.5 -78.5t-32.5 -80t-77.5 -33z" />
    <glyph glyph-name="spacesmall" horiz-adv-x="466" 
 />
    <glyph glyph-name="numbersignsmall" horiz-adv-x="944" 
d="M139 360l58 222h-138v114h164l56 222h-148v114h176l55 223h119l-55 -223h203l57 223h119l-55 -223h135v-114h-164l-55 -222h145v-114h-176l-53 -222h-121l55 222h-203l-53 -222h-121zM342 696h205l55 222h-203z" />
    <glyph glyph-name="dollarsmall" horiz-adv-x="892" 
d="M391 -12q-128 13 -221 77t-133 148l110 59q80 -146 244 -170v383q-153 42 -226 112t-73 183q0 109 82 183.5t217 83.5v217h105v-220q96 -14 167.5 -63.5t108.5 -114.5l-102 -65q-61 106 -174 129v-340l12 -4q164 -48 241.5 -122t77.5 -190q0 -127 -86 -203t-245 -85v-230
h-105v232zM391 934q-78 -8 -121 -45.5t-43 -102.5q0 -64 36.5 -99.5t127.5 -63.5v311zM496 100q96 7 145 50.5t49 113.5q0 74 -42.5 115.5t-151.5 73.5v-353z" />
    <glyph glyph-name="percentsmall" horiz-adv-x="1568" 
d="M365 446q-126 0 -217 86.5t-91 215.5q0 128 91.5 214.5t216.5 86.5q124 0 214.5 -86.5t90.5 -214.5q0 -129 -90.5 -215.5t-214.5 -86.5zM391 0l645 1032h144l-645 -1032h-144zM1206 -16q-125 0 -215 85.5t-90 213.5t90 214.5t215 86.5t215 -86.5t90 -214.5t-90 -213.5
t-215 -85.5zM365 559q75 0 127.5 53t52.5 136q0 84 -52 136t-128 52t-129.5 -52t-53.5 -136q0 -83 53.5 -136t129.5 -53zM1206 94q75 0 127.5 53t52.5 136t-52.5 135.5t-127.5 52.5t-127.5 -52.5t-52.5 -135.5t52.5 -136t127.5 -53z" />
    <glyph glyph-name="parenleftsmall" horiz-adv-x="589" 
d="M442 -123q-352 356 -352 817t352 817l90 -75q-137 -156 -214.5 -333.5t-77.5 -408.5q0 -159 41 -300.5t101.5 -241.5t149.5 -201z" />
    <glyph glyph-name="parenrightsmall" horiz-adv-x="589" 
d="M145 -123l-88 74q138 156 215.5 333.5t77.5 409.5q0 121 -22.5 229.5t-65 199.5t-91.5 164.5t-114 148.5l88 75q355 -355 355 -817t-355 -817z" />
    <glyph glyph-name="plussmall" horiz-adv-x="763" 
d="M315 197v256h-235v127h235v256h131v-256h238v-127h-238v-256h-131z" />
    <glyph glyph-name="commasmall" horiz-adv-x="413" 
d="M90 -229l80 227q-33 11 -53.5 37.5t-20.5 62.5q0 45 34 78t77 33q45 0 77.5 -32.5t32.5 -78.5q0 -36 -24 -82l-123 -245h-80z" />
    <glyph glyph-name="periodsmall" horiz-adv-x="413" 
d="M207 -14q-44 0 -77.5 33t-33.5 79t33.5 78.5t77.5 32.5q45 0 77.5 -32t32.5 -79t-32.5 -79.5t-77.5 -32.5z" />
    <glyph glyph-name="slashsmall" horiz-adv-x="876" 
d="M31 -262l614 1741h143l-614 -1741h-143z" />
    <glyph glyph-name="zerosmall" horiz-adv-x="1171" 
d="M586 -16q-209 0 -350.5 149t-141.5 383t141.5 383.5t350.5 149.5q136 0 247.5 -66.5t177.5 -189t66 -277.5q0 -116 -38.5 -216.5t-105 -169t-156.5 -107.5t-191 -39zM586 111q156 0 249 112t93 293q0 180 -93.5 293t-248.5 113q-156 0 -251 -113t-95 -293q0 -181 95 -293
t251 -112z" />
    <glyph glyph-name="onesmall" horiz-adv-x="569" 
d="M272 0v905h-202v127h346v-1032h-144z" />
    <glyph glyph-name="twosmall" horiz-adv-x="892" 
d="M63 0v16l431 443q147 147 147 280q0 81 -46 131t-134 50q-164 0 -223 -195l-129 33q27 130 122.5 210.5t233.5 80.5q147 0 235 -85.5t88 -220.5q0 -165 -176 -348l-186 -188q-16 -16 -42.5 -38.5t-45.5 -36.5l-19 -15q75 8 130 8h350v-125h-736z" />
    <glyph glyph-name="threesmall" horiz-adv-x="903" 
d="M436 -16q-136 0 -236.5 61.5t-148.5 159.5l123 61q85 -155 256 -155q112 0 177 66.5t65 166.5q0 102 -68 164.5t-186 62.5q-67 0 -131 -22l-8 10l215 270q15 18 37 40.5t37 35.5l14 13q-84 -13 -131 -13h-312v127h654v-18l-215 -266q-16 -20 -35 -38.5t-30 -27.5l-11 -8
q142 -7 229.5 -100.5t87.5 -235.5q0 -157 -109.5 -255.5t-273.5 -98.5z" />
    <glyph glyph-name="foursmall" horiz-adv-x="968" 
d="M625 0v178h-557v101l680 763h18v-747h121v-117h-121v-178h-141zM219 283q74 10 123 10h285v323l10 164q-49 -80 -102 -139l-230 -276q-16 -16 -37.5 -36.5t-35.5 -32.5z" />
    <glyph glyph-name="fivesmall" horiz-adv-x="894" 
d="M430 -16q-127 0 -226 60t-147 149l119 67q93 -149 250 -149q113 0 176.5 64t63.5 169q0 106 -67.5 170t-184.5 64q-74 0 -141 -22.5t-113 -59.5l-10 4v532h583v-125h-459v-245q76 32 164 32q168 0 270.5 -99t102.5 -253q0 -159 -102.5 -258.5t-278.5 -99.5z" />
    <glyph glyph-name="sixsmall" horiz-adv-x="946" 
d="M473 -16q-165 0 -272 102t-107 258q0 122 90 258l308 430h161l-182 -254q-17 -24 -46 -56t-49 -52l-20 -21q75 47 152 47q147 0 246.5 -100t99.5 -250q0 -153 -107.5 -257.5t-273.5 -104.5zM473 111q109 0 172.5 66.5t63.5 168.5t-63 170t-173 68q-106 0 -171.5 -68.5
t-65.5 -169.5t65 -168t172 -67z" />
    <glyph glyph-name="sevensmall" horiz-adv-x="894" 
d="M176 0l449 907h-545v125h751v-12l-501 -1020h-154z" />
    <glyph glyph-name="eightsmall" horiz-adv-x="925" 
d="M463 -16q-168 0 -277.5 90.5t-109.5 226.5q0 111 64.5 184.5t172.5 102.5q-69 26 -110 80t-41 133q0 106 87 177t214 71t214 -71t87 -177q0 -151 -152 -213q108 -29 173 -102.5t65 -184.5q0 -136 -109.5 -226.5t-277.5 -90.5zM463 637q74 0 120 40.5t46 108.5
q0 63 -46.5 104.5t-119.5 41.5t-119.5 -41.5t-46.5 -104.5q0 -68 46 -108.5t120 -40.5zM463 109q107 0 173 57.5t66 148.5q0 94 -66 152.5t-173 58.5t-173.5 -58.5t-66.5 -152.5q0 -92 66.5 -149t173.5 -57z" />
    <glyph glyph-name="ninesmall" horiz-adv-x="940" 
d="M291 0l203 281q16 22 39.5 47t38.5 39l16 14q-64 -47 -154 -47q-147 0 -247.5 100.5t-100.5 253.5q0 152 108.5 256.5t276.5 104.5q166 0 272.5 -103t106.5 -258q0 -131 -94 -266l-305 -422h-160zM471 446q107 0 171.5 69t64.5 171q0 99 -63.5 168.5t-172.5 69.5
q-110 0 -175 -69t-65 -169q0 -103 63.5 -171.5t176.5 -68.5z" />
    <glyph glyph-name="colonsmall" horiz-adv-x="434" 
d="M217 444q-44 0 -77.5 33.5t-33.5 79.5t33.5 78.5t77.5 32.5q45 0 78 -32t33 -79t-33 -80t-78 -33zM217 -14q-44 0 -77.5 33t-33.5 79t33.5 78.5t77.5 32.5q45 0 78 -32t33 -79t-33 -79.5t-78 -32.5z" />
    <glyph glyph-name="semicolonsmall" horiz-adv-x="434" 
d="M217 444q-44 0 -77.5 33.5t-33.5 79.5t33.5 78.5t77.5 32.5q45 0 78 -32t33 -79t-33 -80t-78 -33zM100 -229l80 227q-33 11 -53.5 37.5t-20.5 62.5q0 45 34 78t77 33q45 0 78 -33t33 -78q0 -34 -25 -82l-123 -245h-80z" />
    <glyph glyph-name="lesssmall" horiz-adv-x="729" 
d="M629 193l-555 296v21l555 293v-131l-344 -172l344 -174v-133z" />
    <glyph glyph-name="equalsmall" horiz-adv-x="759" 
d="M86 578v124h588v-124h-588zM86 311v127h588v-127h-588z" />
    <glyph glyph-name="greatersmall" horiz-adv-x="729" 
d="M100 193v131l344 172l-344 174v133l555 -297v-21z" />
    <glyph glyph-name="bracketleftsmall" horiz-adv-x="624" 
d="M156 -113v1612h395v-123h-252v-1366h252v-123h-395z" />
    <glyph glyph-name="bracketrightsmall" horiz-adv-x="624" 
d="M74 -113v123h252v1366h-252v123h395v-1612h-395z" />
    <glyph glyph-name="Q.alt1small" horiz-adv-x="1286" 
d="M711 -12q57 -50 105 -74.5t116 -24.5q83 0 153 70l89 -90q-96 -107 -240 -107q-69 0 -135.5 25.5t-110 56.5t-98.5 80q-43 38 -68 56.5t-62.5 34.5t-76.5 16q-106 0 -182 -111l-92 80q61 93 161 125q-170 154 -170 391q0 115 43.5 215t117 169.5t173 109t209.5 39.5
t210 -39.5t173.5 -109t116.5 -169.5t43 -215q0 -211 -135.5 -357.5t-339.5 -170.5zM643 111q173 0 284 115t111 290q0 174 -111.5 290t-283.5 116q-171 0 -283 -116t-112 -290q0 -175 112 -290t283 -115z" />
    <glyph glyph-name="braceleftsmall" horiz-adv-x="751" 
d="M561 -113q-272 0 -272 295v174q0 78 -29.5 110t-89.5 32h-119v125h119q60 0 89.5 31.5t29.5 109.5v440q0 295 272 295h117v-123h-109q-68 0 -101.5 -38.5t-33.5 -135.5v-452q0 -89 -35 -132.5t-98 -56.5q133 -28 133 -190v-187q0 -97 33.5 -135.5t101.5 -38.5h109v-123
h-117z" />
    <glyph glyph-name="bracerightsmall" horiz-adv-x="751" 
d="M74 -113v123h108q68 0 101.5 38.5t33.5 135.5v187q0 89 35.5 132t98.5 56q-134 28 -134 191v452q0 97 -33.5 135.5t-101.5 38.5h-108v123h116q273 0 273 -295v-440q0 -78 29.5 -109.5t89.5 -31.5h118v-125h-118q-60 0 -89.5 -32t-29.5 -110v-174q0 -295 -273 -295h-116z
" />
    <glyph glyph-name="degreesmall" horiz-adv-x="665" 
d="M334 586q-100 0 -170 67t-70 164q0 98 70 165t170 67q99 0 168 -67t69 -165q0 -97 -69.5 -164t-167.5 -67zM334 680q58 0 94.5 38.5t36.5 98.5t-36.5 98.5t-94.5 38.5q-60 0 -96.5 -38.5t-36.5 -98.5t36.5 -98.5t96.5 -38.5z" />
    <glyph glyph-name="centsmall" horiz-adv-x="778" 
d="M381 711v202h104v-198q151 -18 238 -119l-96 -80q-54 63 -142 78v-492q98 14 158 84l94 -82q-95 -106 -252 -118v-209h-104v211q-135 21 -223 121t-88 241q0 140 88 240.5t223 120.5zM381 111v477q-76 -17 -122 -82.5t-46 -155.5q0 -92 45.5 -157t122.5 -82z" />
    <glyph glyph-name="sterlingsmall" horiz-adv-x="987" 
d="M307 436h-166v115h117q-45 110 -45 194q0 134 89.5 219t242.5 85q121 0 205.5 -54t128.5 -143l-117 -68q-67 140 -211 140q-89 0 -140 -49.5t-51 -135.5q0 -76 46 -188h305v-115h-260q41 -109 41 -200q0 -13 -5 -48q55 -37 102 -57t101 -20q97 0 160 82l92 -89
q-50 -64 -107 -92t-141 -28q-69 0 -127.5 27.5t-120.5 76.5q-35 -48 -89.5 -76t-120.5 -28q-78 0 -130.5 45t-52.5 116t50.5 114.5t125.5 43.5q59 0 131 -35q-11 78 -53 168zM354 162q-66 49 -116 49q-37 0 -58.5 -19t-21.5 -47q0 -30 22.5 -49.5t59.5 -19.5q38 0 68.5 22
t45.5 64z" />
    <glyph glyph-name="sectionsmall" horiz-adv-x="907" 
d="M209 627q-49 64 -49 161q0 114 82.5 187.5t210.5 73.5q205 0 288 -158l-110 -68q-56 105 -176 105q-71 0 -111.5 -38.5t-40.5 -98.5q0 -57 30 -93.5t91 -62.5l192 -80q113 -48 164 -106t51 -144q0 -62 -36 -109.5t-97 -74.5q54 -67 54 -148q0 -115 -83 -184.5t-231 -69.5
q-117 0 -212 51t-138 134l113 69q35 -61 94.5 -97t136.5 -36q86 0 129 35.5t43 93.5q0 50 -32.5 84t-98.5 62l-188 75q-110 47 -159.5 103t-49.5 139q0 67 36.5 117t96.5 78zM618 186q78 32 78 107q0 48 -31.5 81t-105.5 64l-201 82q-42 15 -86 47q-63 -41 -63 -108
q0 -54 29 -87.5t102 -64.5l192 -78q39 -15 86 -43z" />
    <glyph glyph-name="yensmall" horiz-adv-x="1011" 
d="M618 401l-38 -77v-39h313v-111h-313v-174h-144v174h-315v111h315v37l-41 79h-274v111h217l-270 520h159l228 -459q13 -26 26 -63.5t20 -61.5l7 -24q28 92 57 149l230 459h149l-268 -520h217v-111h-275z" />
    <glyph glyph-name="florinsmall" horiz-adv-x="739" 
d="M147 -193l72 642h-141v114h155l23 211q17 142 83 208.5t169 66.5q76 0 124.5 -28.5t82.5 -80.5l-90 -80q-42 66 -111 66q-50 0 -79.5 -32.5t-37.5 -113.5l-24 -217h182v-114h-197l-71 -642h-140z" />
    <glyph glyph-name="Eurosmall" horiz-adv-x="1177" 
d="M209 563h-131v111h147q42 169 167 272t298 103q255 0 385 -201l-112 -70q-89 142 -273 142q-120 0 -201 -66t-116 -180h428v-111h-447q-2 -14 -2 -47q0 -28 4 -78h445v-110h-418q38 -102 116.5 -160.5t188.5 -58.5q203 0 305 165l117 -65q-134 -225 -424 -225
q-164 0 -284.5 93.5t-168.5 250.5h-155v110h133q-4 50 -4 78q0 31 2 47z" />
    <glyph glyph-name="perthousandsmall" horiz-adv-x="2275" 
d="M365 446q-126 0 -217 86.5t-91 215.5q0 128 91.5 214.5t216.5 86.5q124 0 214.5 -86.5t90.5 -214.5q0 -129 -90.5 -215.5t-214.5 -86.5zM391 0l645 1032h144l-645 -1032h-144zM1913 -16q-124 0 -214.5 85.5t-90.5 213.5t90.5 214.5t214.5 86.5q125 0 215 -86.5t90 -214.5
t-90 -213.5t-215 -85.5zM1206 -16q-125 0 -215 85.5t-90 213.5t90 214.5t215 86.5t215 -86.5t90 -214.5t-90 -213.5t-215 -85.5zM365 559q75 0 127.5 53t52.5 136q0 84 -52 136t-128 52t-129.5 -52t-53.5 -136q0 -83 53.5 -136t129.5 -53zM1913 94q75 0 127.5 53t52.5 136
t-52.5 135.5t-127.5 52.5q-74 0 -127 -52.5t-53 -135.5t53 -136t127 -53zM1206 94q75 0 127.5 53t52.5 136t-52.5 135.5t-127.5 52.5t-127.5 -52.5t-52.5 -135.5t52.5 -136t127.5 -53z" />
    <glyph glyph-name="dotlessi.001" horiz-adv-x="462" 
d="M160 0v1032h143v-1032h-143z" />
    <glyph glyph-name="G.altsmall" horiz-adv-x="1232" 
d="M639 -16q-147 0 -269.5 67t-195 189.5t-72.5 275.5q0 152 72.5 275t194.5 190.5t268 67.5q279 0 426 -209l-113 -78q-106 158 -313 158q-168 0 -277.5 -115.5t-109.5 -288.5q0 -174 110 -290.5t279 -116.5q150 0 244.5 77.5t117.5 198.5h-321v119h469q3 -230 -136 -375
t-374 -145z" />
    <glyph glyph-name="M.altsmall" horiz-adv-x="1339" 
d="M123 0l115 1044h18l352 -555q14 -22 29 -51.5t23 -47.5l8 -19q32 71 61 118l352 555h19l114 -1044h-141l-59 530q-4 42 -6.5 90t-3.5 76v27q-35 -94 -84 -172l-244 -381h-17l-243 383q-23 36 -45 78.5t-33 66.5l-10 25q1 -93 -9 -191l-59 -532h-137z" />
    <glyph glyph-name="Q.altsmall" horiz-adv-x="1286" 
d="M711 -12v-226h-136v226q-202 24 -338.5 170.5t-136.5 357.5q0 115 43.5 215t117 169.5t173 109t209.5 39.5t210 -39.5t173.5 -109t116.5 -169.5t43 -215q0 -211 -135.5 -357.5t-339.5 -170.5zM575 111v213h136v-213q148 23 237.5 134t89.5 271q0 174 -111.5 290
t-283.5 116q-171 0 -283 -116t-112 -290q0 -159 90 -270.5t237 -134.5z" />
    <glyph glyph-name="minustab" horiz-adv-x="1064" 
d="M176 453v127h713v-127h-713z" />
    <glyph glyph-name="multiplytab" horiz-adv-x="1064" 
d="M535 424l-250 -248l-90 90l247 248l-247 248l90 90l247 -248l250 248l90 -90l-249 -248l249 -248l-90 -90z" />
    <glyph glyph-name="spacetab" 
 />
    <glyph glyph-name="numbersigntab" horiz-adv-x="1064" 
d="M332 915h-162v117h190l56 223h121l-56 -223h213l56 223h120l-55 -223h150v-117h-179l-55 -217h160v-116h-189l-55 -222h-121l56 222h-213l-56 -222h-120l55 222h-150v116h178zM666 915h-213l-56 -217h213z" />
    <glyph glyph-name="dollartab" horiz-adv-x="1064" 
d="M477 -12q-129 13 -220.5 74.5t-137.5 156.5l112 60q72 -150 246 -177v383q-159 46 -231 113.5t-72 185.5q0 110 84.5 181t218.5 82v217h105v-220q94 -13 167 -62.5t113 -119.5l-100 -67q-65 116 -180 135v-338l12 -4q163 -47 243.5 -122.5t80.5 -195.5q0 -134 -86.5 -206
t-249.5 -80v-228h-105v232zM477 934q-80 -6 -125 -42t-45 -101q0 -71 37.5 -104.5t132.5 -61.5v309zM582 98q200 12 200 168q0 75 -44.5 116.5t-155.5 72.5v-357z" />
    <glyph glyph-name="percenttab" horiz-adv-x="1536" 
d="M365 446q-122 0 -208.5 86t-86.5 216q0 129 86.5 215t208.5 86q119 0 205.5 -86.5t86.5 -214.5q0 -130 -86.5 -216t-205.5 -86zM373 0l645 1032h143l-645 -1032h-143zM1174 -16q-122 0 -208.5 85.5t-86.5 213.5q0 129 86.5 215t208.5 86q120 0 206 -86t86 -215
q0 -128 -85.5 -213.5t-206.5 -85.5zM365 557q73 0 122.5 53t49.5 138t-49.5 137.5t-122.5 52.5q-75 0 -125 -52.5t-50 -137.5t50 -138t125 -53zM1174 92q73 0 122.5 53t49.5 138t-49.5 137.5t-122.5 52.5q-75 0 -125 -52.5t-50 -137.5t50 -138t125 -53z" />
    <glyph glyph-name="parenlefttab" horiz-adv-x="614" 
d="M444 -276q-338 362 -338 872t338 872l93 -69q-85 -104 -143.5 -211t-98 -261.5t-39.5 -330.5t39.5 -330.5t98 -261.5t143.5 -211z" />
    <glyph glyph-name="parenrighttab" horiz-adv-x="614" 
d="M168 -276l-90 69q130 160 204 353t74 450q0 177 -39 331.5t-97 261t-142 210.5l90 69q340 -364 340 -872t-340 -872z" />
    <glyph glyph-name="plustab" horiz-adv-x="1064" 
d="M598 453v-312h-131v312h-291v127h291v311h131v-311h291v-127h-291z" />
    <glyph glyph-name="commatab" 
d="M88 -229l80 227q-33 11 -53.5 37.5t-20.5 62.5q0 45 34 78t77 33q45 0 77.5 -32.5t32.5 -78.5q0 -36 -24 -82l-123 -245h-80z" />
    <glyph glyph-name="periodtab" 
d="M205 -14q-44 0 -77.5 33t-33.5 79t33.5 78.5t77.5 32.5q45 0 77.5 -32t32.5 -79t-32.5 -79.5t-77.5 -32.5z" />
    <glyph glyph-name="zerotab" horiz-adv-x="1064" 
d="M530 -16q-199 0 -323.5 148.5t-124.5 383.5q0 238 125 385.5t323 147.5q200 0 326.5 -147.5t126.5 -385.5q0 -235 -125.5 -383.5t-327.5 -148.5zM530 113q140 0 220.5 108t80.5 295q0 190 -80.5 297t-220.5 107q-139 0 -219 -107t-80 -297q0 -187 80.5 -295t218.5 -108z
" />
    <glyph glyph-name="onetab" horiz-adv-x="1064" 
d="M467 123v786h-262v123h407v-909h262v-123h-696v123h289z" />
    <glyph glyph-name="twotab" horiz-adv-x="1064" 
d="M102 0v18l416 379q114 104 165.5 177t51.5 153q0 93 -54.5 142t-145.5 49q-186 0 -256 -209l-132 36q37 141 140.5 222.5t244.5 81.5q161 0 256 -87t95 -229q0 -99 -63.5 -193.5t-186.5 -207.5l-156 -142q-16 -16 -42.5 -33.5t-44.5 -27.5l-19 -10q75 6 114 6h424v-125
h-807z" />
    <glyph glyph-name="threetab" horiz-adv-x="1064" 
d="M506 -211q-155 0 -268 71t-170 195l127 60q92 -197 311 -197q123 0 204 78.5t81 216.5q0 137 -76.5 211t-216.5 74q-90 0 -166 -37l-15 20l306 369q13 16 28.5 33t24.5 26l10 9q-53 -9 -98 -9h-414v123h746v-14l-295 -354q-12 -14 -27.5 -28t-25.5 -21l-9 -7
q165 -3 272 -111.5t107 -285.5q0 -187 -122 -304.5t-314 -117.5z" />
    <glyph glyph-name="fourtab" horiz-adv-x="1064" 
d="M829 164h152v-121h-152v-236h-143v236h-627v70l750 940h20v-889zM686 164v452l8 115q-34 -57 -65 -96l-314 -399q-15 -18 -33 -37t-29 -29l-11 -10q53 4 98 4h346z" />
    <glyph glyph-name="fivetab" horiz-adv-x="1064" 
d="M506 -211q-147 0 -251.5 61.5t-154.5 161.5l121 66q90 -160 285 -160q130 0 207.5 80.5t77.5 210.5q0 134 -72.5 210.5t-214.5 76.5q-95 0 -161.5 -29.5t-125.5 -79.5l-18 6v639h671v-123h-546v-342q84 54 206 54q186 0 299 -115t113 -297q0 -184 -120 -302t-316 -118z
" />
    <glyph glyph-name="sixtab" horiz-adv-x="1064" 
d="M535 -16q-180 0 -302 114t-122 291q0 84 32.5 164t96.5 172l352 524h162l-287 -426q-14 -20 -39 -47t-43 -44l-18 -17q90 76 196 76q169 0 283.5 -113.5t114.5 -286.5q0 -174 -121.5 -290.5t-304.5 -116.5zM532 111q128 0 206.5 78.5t78.5 201.5q0 128 -75 205.5
t-205 77.5q-127 0 -205 -82t-78 -201q0 -124 75.5 -202t202.5 -78z" />
    <glyph glyph-name="seventab" horiz-adv-x="1064" 
d="M223 -193l522 1102h-626v123h823v-18l-569 -1207h-150z" />
    <glyph glyph-name="eighttab" horiz-adv-x="1064" 
d="M350 709q-72 36 -114.5 100t-42.5 152q0 126 96.5 215.5t242.5 89.5t244 -89.5t98 -215.5q0 -88 -43.5 -152t-115.5 -100q115 -41 181.5 -130t66.5 -212q0 -167 -124 -275t-309 -108q-182 0 -306 108t-124 275q0 124 68 212.5t182 129.5zM532 762q91 0 147 53t56 139
q0 84 -56.5 137.5t-146.5 53.5q-91 0 -146.5 -53.5t-55.5 -137.5q0 -87 55 -139.5t147 -52.5zM530 113q129 0 207 72.5t78 189.5q0 119 -78.5 193.5t-206.5 74.5t-204 -74t-76 -194q0 -119 76 -190.5t204 -71.5z" />
    <glyph glyph-name="ninetab" horiz-adv-x="1064" 
d="M324 -193l274 404q14 19 39 45.5t43 43.5l18 17q-92 -75 -196 -75q-169 0 -283.5 113t-114.5 286q0 175 121.5 291.5t304.5 116.5q179 0 302.5 -115t123.5 -291q0 -84 -33 -163.5t-98 -172.5l-340 -500h-161zM528 360q127 0 206 81t79 200q0 123 -77 201t-204 78
q-128 0 -206 -78t-78 -201q0 -128 75 -204.5t205 -76.5z" />
    <glyph glyph-name="colontab" 
d="M205 444q-44 0 -77.5 33.5t-33.5 79.5t33.5 78.5t77.5 32.5q45 0 77.5 -32t32.5 -79t-32.5 -80t-77.5 -33zM205 -14q-44 0 -77.5 33t-33.5 79t33.5 78.5t77.5 32.5q45 0 77.5 -32t32.5 -79t-32.5 -79.5t-77.5 -32.5z" />
    <glyph glyph-name="semicolontab" 
d="M205 444q-44 0 -77.5 33.5t-33.5 79.5t33.5 78.5t77.5 32.5q45 0 77.5 -32t32.5 -79t-32.5 -80t-77.5 -33zM88 -229l80 227q-33 11 -53.5 37.5t-20.5 62.5q0 45 34 78t77 33q45 0 77.5 -32.5t32.5 -78.5q0 -36 -24 -82l-123 -245h-80z" />
    <glyph glyph-name="lesstab" horiz-adv-x="1064" 
d="M829 152l-655 337v21l655 334v-131l-434 -215l434 -215v-131z" />
    <glyph glyph-name="equaltab" horiz-adv-x="1064" 
d="M174 578v124h717v-124h-717zM174 311v127h717v-127h-717z" />
    <glyph glyph-name="greatertab" horiz-adv-x="1064" 
d="M236 152v131l434 215l-434 215v131l655 -338v-21z" />
    <glyph glyph-name="bracketlefttab" horiz-adv-x="614" 
d="M150 -262v1741h389v-123h-246v-1495h246v-123h-389z" />
    <glyph glyph-name="bracketrighttab" horiz-adv-x="614" 
d="M76 -262v123h243v1495h-243v123h391v-1741h-391z" />
    <glyph glyph-name="bracelefttab" horiz-adv-x="614" 
d="M461 -262q-273 0 -273 295v309q0 79 -28.5 110t-89.5 31h-68v125h68q61 0 89.5 31.5t28.5 110.5v434q0 295 273 295h78v-123h-68q-70 0 -103.5 -38.5t-33.5 -135.5v-447q0 -89 -35 -132t-98 -56q133 -28 133 -191v-321q0 -97 33.5 -135.5t103.5 -38.5h68v-123h-78z" />
    <glyph glyph-name="bracerighttab" horiz-adv-x="614" 
d="M74 -262v123h69q68 0 102 38.5t34 135.5v321q0 163 133 191q-63 13 -98 56t-35 132v447q0 97 -34 135.5t-102 38.5h-69v123h78q272 0 272 -295v-434q0 -78 29.5 -110t89.5 -32h67v-125h-67q-60 0 -89.5 -31.5t-29.5 -109.5v-309q0 -295 -272 -295h-78z" />
    <glyph glyph-name="degreetab" horiz-adv-x="716" 
d="M358 586q-99 0 -169 67.5t-70 163.5q0 98 70 165t169 67t169.5 -67.5t70.5 -164.5q0 -96 -70.5 -163.5t-169.5 -67.5zM358 680q59 0 95 38t36 99t-36 99t-95 38q-60 0 -96.5 -38.5t-36.5 -98.5t36.5 -98.5t96.5 -38.5z" />
    <glyph glyph-name="centtab" horiz-adv-x="1064" 
d="M526 -12q-165 22 -272 144t-107 292t107 293t272 145v221h105v-219q181 -11 293 -149l-101 -82q-73 92 -192 106v-630q125 13 205 110l98 -84q-116 -138 -303 -149v-224h-105v226zM526 735q-107 -20 -170 -105t-63 -206t62.5 -206t170.5 -105v622z" />
    <glyph glyph-name="sterlingtab" horiz-adv-x="1064" 
d="M317 532h-194v115h145q-63 158 -63 271q0 151 101.5 249.5t268.5 98.5q133 0 223 -61t138 -163l-117 -63q-44 83 -98 120.5t-146 37.5q-103 0 -164 -60.5t-61 -167.5q0 -97 62 -262h315v-115h-272q63 -179 63 -303v-16q44 -33 72 -51.5t71 -34.5t84 -16q64 0 102 19
t79 65l86 -89q-52 -64 -111 -93t-151 -29q-78 0 -142 30t-131 84q-35 -52 -93.5 -83t-129.5 -31q-97 0 -155 51.5t-58 134.5q0 79 56 128.5t143 49.5q76 0 151 -45q-12 76 -74 229zM389 176q-84 74 -141 74q-42 0 -68 -22.5t-26 -61.5q0 -38 26 -61t68 -23q49 0 87.5 26
t53.5 68z" />
    <glyph glyph-name="sectiontab" horiz-adv-x="1064" 
d="M524 -211q-135 0 -233.5 59.5t-143.5 161.5l115 56q40 -77 101.5 -116.5t156.5 -39.5q91 0 143 41.5t52 111.5q0 59 -39 97t-129 73l-182 72q-145 56 -209 126t-64 177q0 75 44.5 132.5t121.5 90.5q-41 65 -41 150q0 125 91 205t229 80q236 0 327 -207l-116 -53
q-32 68 -78 104.5t-129 36.5q-85 0 -135 -43.5t-50 -118.5q0 -66 33 -107t113 -73l200 -80q143 -56 208 -127.5t65 -169.5q0 -73 -44 -128t-120 -85q47 -62 47 -152q0 -124 -88 -199t-246 -75zM737 283q48 18 75.5 51t27.5 76q0 64 -38.5 104.5t-139.5 81.5l-201 80
q-92 37 -142 90q-90 -43 -90 -141q0 -69 37 -111t135 -80l185 -72q84 -29 151 -79z" />
    <glyph glyph-name="yentab" horiz-adv-x="1064" 
d="M455 342l-78 141h-281v115h217l-239 434h162l253 -469q15 -27 27 -61t16 -54l5 -20q16 74 49 135l254 469h149l-239 -434h217v-115h-281l-78 -141h359v-115h-363v-227h-145v227h-363v115h359z" />
    <glyph glyph-name="florintab" horiz-adv-x="1064" 
d="M375 416h-201v116h213l47 416q17 158 95 238t196 80q176 0 258 -150l-100 -69q-27 48 -60 72t-92 24q-136 0 -158 -193l-47 -418h277v-116h-289l-96 -850h-139z" />
    <glyph glyph-name="dividetab" horiz-adv-x="1064" 
d="M530 731q-42 0 -73 30.5t-31 74.5q0 45 31 75.5t73 30.5q44 0 75.5 -30.5t31.5 -75.5q0 -44 -32 -74.5t-75 -30.5zM174 453v127h715v-127h-715zM530 90q-42 0 -73 30.5t-31 74.5q0 45 31 75.5t73 30.5q44 0 75.5 -30.5t31.5 -75.5q0 -44 -32 -74.5t-75 -30.5z" />
    <glyph glyph-name="Eurotab" horiz-adv-x="1064" 
d="M164 580h-125v114h147q48 161 170 258t279 97q131 0 224 -49.5t159 -149.5l-107 -76q-53 81 -114 115.5t-162 34.5q-103 0 -181.5 -61.5t-117.5 -168.5h393v-114h-418q0 -10 -1 -31t-1 -33q0 -25 4 -65h416v-115h-391q37 -106 116 -166.5t181 -60.5q106 0 168.5 39.5
t111.5 119.5l113 -69q-129 -215 -393 -215q-153 0 -275 96.5t-172 255.5h-149v115h127q-4 40 -4 65q0 44 2 64z" />
    <glyph glyph-name="perthousandtab" horiz-adv-x="2252" 
d="M379 446q-121 0 -208 86t-87 216q0 128 87 214.5t208 86.5t207 -86.5t86 -214.5q0 -130 -86 -216t-207 -86zM391 0l645 1032h144l-645 -1032h-144zM1874 -16q-122 0 -207.5 85t-85.5 214t85.5 215t207.5 86q120 0 206.5 -86t86.5 -215q0 -128 -86 -213.5t-207 -85.5z
M1194 -16q-122 0 -207.5 85t-85.5 214t85.5 215t207.5 86q120 0 206.5 -86t86.5 -215q0 -128 -86 -213.5t-207 -85.5zM379 557q75 0 124.5 53t49.5 138t-49.5 137.5t-124.5 52.5q-74 0 -124 -53t-50 -137q0 -85 50 -138t124 -53zM1874 92q74 0 123 53t49 138t-48.5 137.5
t-123.5 52.5t-123.5 -52.5t-48.5 -137.5t49 -138t123 -53zM1194 92q74 0 123 53t49 138t-48.5 137.5t-123.5 52.5t-123.5 -52.5t-48.5 -137.5t49 -138t123 -53z" />
    <glyph glyph-name="minustablining" horiz-adv-x="1187" 
d="M209 596v127h768v-127h-768z" />
    <glyph glyph-name="multiplytablining" horiz-adv-x="1187" 
d="M594 565l-254 -254l-86 88l252 252l-254 256l88 86l254 -254l254 254l88 -86l-254 -254l254 -254l-88 -88z" />
    <glyph glyph-name="spacetablining" 
 />
    <glyph glyph-name="numbersigntablining" horiz-adv-x="1187" 
d="M389 1053h-180v116v0v0h1v0v0h1v0h1v0h1h1h1h1h1h1h1h1h1h1h1h1h1h1h1h1h1h1h1h1h1h1h1h1h1h1h1h1h1h1h1h1h2h1h1h1h1h1h1h1h1h1h2h1h1h1h1h1h2h1h1h1h2h1h1h1h2h1h1h2h1h1h1h2h1h2h1h1h2h1h1h2h1h2h1h2h1h1h2h1h2h1h2h1h2h1h2h1h2h1h2h2h1h2h1h2h1h2h2h1h2h1h2h2h1h2h2
h1h2h2h1h2h2h1h2h2h2h1h2h2h2h1h2h2h2h2h1h2h2h2h2h1h2h2h2h2h2h2h1h2h2h10l57 224h123q-26 -105 -55 -224v0v0v0h1v0h1v0h1v0h1h1v0h1h1h1h1h1h1h1h1h1h1h1h1h1h1h1h1h1h1h1h1h1h1h1h1h1h1h1h1h1h1h1h1h1h1h1h1h1h2h1h1h1h1h1h1h2h1h1h1h1h2h1h1h1h2h1h1h1h2h1h1h2h1h1h2h1
h1h2h1h1h2h1h2h1h1h2h1h2h1h2h1h2h1h2h1h2h1h2h1h2h1h2h1h2h1h2h2h1h2h1h2h2h1h2h1h2h2h1h2h2h1h2h2h1h2h2h2h1h2h2h1h2h2h2h2h1h2h2h2h1h2h2h2h2h2h1h2h2h2h2h2h2h2h1h9l57 224h121l-55 -224h170v-116h-199l-59 -232h180v-116h-209l-55 -222h-123l55 222h-215
q1 0 -13 -55.5t-28 -111.5l-14 -55h-121l55 222h-170v116h199zM727 1053h-215q-58 -232 -59 -232v0v0v0h1v0h1v0h1v0h1v0h1h1h1h1h1h1h1h1h1h1h1h1h1h1h1h1h1h1h1h1h1h1h1h1h1h1h1h1h1h1h1h1h1h1h1h1h1h1h1h1h1h2h1h1h1h1h1h2h1h1h1h1h2h1h1h1h2h1h1h2h1h1h1h2h1h1h2h1h2h1
h1h2h1h1h2h1h2h1h2h1h2h1h1h2h1h2h1h2h1h2h1h2h2h1h2h1h2h1h2h2h1h2h1h2h2h1h2h2h1h2h2h1h2h2h1h2h2h1h2h2h2h1h2h2h2h1h2h2h2h1h2h2h2h2h2h1h2h2h2h2h2h2h1h2h2h10z" />
    <glyph glyph-name="dollartablining" horiz-adv-x="1187" 
d="M526 -14q-157 13 -263 88t-165 190l121 68q56 -98 125.5 -153t181.5 -66v573l-6 2q-176 76 -261 165t-85 230q0 135 98.5 225t253.5 101v174h105v-178q206 -23 319 -203l-116 -76q-35 60 -82.5 99t-120.5 51v-483l31 -15q191 -83 281.5 -179.5t90.5 -246.5
q0 -162 -106.5 -259t-296.5 -107v-224h-105v224zM526 1280q-97 -7 -153 -60t-56 -133q0 -83 47 -136.5t162 -108.5v438zM631 113q127 10 192.5 73.5t65.5 163.5q0 95 -59.5 158t-198.5 129v-524z" />
    <glyph glyph-name="percenttablining" horiz-adv-x="1638" 
d="M416 723q-135 0 -232.5 98t-97.5 246t97.5 245t232.5 97t232 -97t97 -245t-97 -246t-232 -98zM309 0l877 1393h145l-878 -1393h-144zM1225 -16q-135 0 -232.5 97t-97.5 245t97.5 245t232.5 97t231 -97t96 -245t-96 -245t-231 -97zM416 840q87 0 143.5 64t56.5 163
t-56.5 163t-143.5 64q-88 0 -145.5 -64t-57.5 -163t57.5 -163t145.5 -64zM1225 98q87 0 143.5 64.5t56.5 163.5q0 100 -56.5 163.5t-143.5 63.5q-88 0 -145.5 -63t-57.5 -164q0 -99 57.5 -163.5t145.5 -64.5z" />
    <glyph glyph-name="parenlefttablining" horiz-adv-x="614" 
d="M444 -276q-338 362 -338 872t338 872l93 -69q-85 -104 -143.5 -211t-98 -261.5t-39.5 -330.5t39.5 -330.5t98 -261.5t143.5 -211z" />
    <glyph glyph-name="parenrighttablining" horiz-adv-x="614" 
d="M168 -276l-90 69q130 160 204 353t74 450q0 177 -39 331.5t-97 261t-142 210.5l90 69q340 -364 340 -872t-340 -872z" />
    <glyph glyph-name="plustablining" horiz-adv-x="1187" 
d="M659 596v-338h-131v338h-319v127h319v338h131v-338h320v-127h-320z" />
    <glyph glyph-name="commatablining" 
d="M88 -229l80 227q-33 11 -53.5 37.5t-20.5 62.5q0 45 34 78t77 33q45 0 77.5 -32.5t32.5 -78.5q0 -36 -24 -82l-123 -245h-80z" />
    <glyph glyph-name="periodtablining" 
d="M205 -14q-44 0 -77.5 33t-33.5 79t33.5 78.5t77.5 32.5q45 0 77.5 -32t32.5 -79t-32.5 -79.5t-77.5 -32.5z" />
    <glyph glyph-name="zerotablining" horiz-adv-x="1187" 
d="M594 -16q-229 0 -365.5 192t-136.5 520t136.5 520.5t365.5 192.5t365.5 -192.5t136.5 -520.5t-136.5 -520t-365.5 -192zM594 117q169 0 257.5 155.5t88.5 423.5t-88.5 424t-257.5 156t-257.5 -156t-88.5 -424t88.5 -423.5t257.5 -155.5z" />
    <glyph glyph-name="onetablining" horiz-adv-x="1187" 
d="M586 0v1262h-336v131h485v-1393h-149z" />
    <glyph glyph-name="twotablining" horiz-adv-x="1187" 
d="M88 0v14l571 607q101 106 151 199t50 194q0 117 -68 188.5t-190 71.5q-118 0 -200.5 -72t-112.5 -207l-142 31q37 171 154.5 277t300.5 106q186 0 297 -109.5t111 -285.5q0 -122 -61.5 -235t-174.5 -234l-309 -328q-19 -21 -45.5 -44.5t-43.5 -36.5l-16 -13q72 8 127 8
h533v-131h-932z" />
    <glyph glyph-name="threetablining" horiz-adv-x="1187" 
d="M567 -16q-168 0 -297.5 77.5t-191.5 202.5l123 66q120 -213 360 -213q164 0 255 96t91 250q0 153 -92.5 246.5t-261.5 93.5q-93 0 -170 -29l-10 14l340 406l75 78q-61 -10 -114 -10h-484v131h838v-15l-319 -381q-18 -22 -38.5 -42.5t-32.5 -30.5l-11 -9q130 -5 228 -65
t150 -161.5t52 -229.5q0 -214 -134.5 -344.5t-355.5 -130.5z" />
    <glyph glyph-name="fourtablining" horiz-adv-x="1187" 
d="M928 383h159v-125h-159v-258h-148v258h-706v76l839 1091h15v-1042zM780 383v543q0 29 3 70t5 68l3 26q-43 -81 -86 -138l-357 -473q-17 -23 -41.5 -49t-40.5 -40l-16 -15q78 8 139 8h391z" />
    <glyph glyph-name="fivetablining" horiz-adv-x="1187" 
d="M565 -16q-158 0 -282 69.5t-191 190.5l127 69q114 -196 346 -196q152 0 245 99t93 253q0 153 -95 251.5t-251 98.5q-181 0 -324 -129l-12 8v695h725v-131h-594v-373q96 57 226 57q209 0 345 -135t136 -342q0 -219 -139 -352t-355 -133z" />
    <glyph glyph-name="sixtablining" horiz-adv-x="1187" 
d="M594 -16q-209 0 -344 133.5t-135 328.5q0 169 114 332l430 615h166l-307 -439q-16 -22 -41 -51t-42 -47l-17 -18q97 71 203 71q195 0 323.5 -131.5t128.5 -326.5q0 -197 -134.5 -332t-344.5 -135zM594 117q148 0 238 97t90 237q0 141 -89.5 239t-238.5 98
q-148 0 -238 -97.5t-90 -239.5q0 -140 90 -237t238 -97z" />
    <glyph glyph-name="seventablining" horiz-adv-x="1187" 
d="M262 0l600 1262h-735v131h946v-15l-653 -1378h-158z" />
    <glyph glyph-name="eighttablining" horiz-adv-x="1187" 
d="M391 793q-83 41 -132.5 113t-49.5 171q0 142 110.5 237t274.5 95t274.5 -95t110.5 -237q0 -99 -49.5 -171t-132.5 -113q130 -44 207 -142t77 -235q0 -190 -135 -311t-352 -121t-353.5 121t-136.5 311q0 137 77.5 235t209.5 142zM594 850q109 0 173 60t64 157
q0 93 -64.5 153t-172.5 60t-173 -60t-65 -153q0 -97 64.5 -157t173.5 -60zM594 117q153 0 244.5 84.5t91.5 218.5t-91.5 217.5t-244.5 83.5q-154 0 -246 -83.5t-92 -217.5q0 -136 92 -219.5t246 -83.5z" />
    <glyph glyph-name="ninetablining" horiz-adv-x="1187" 
d="M385 0l301 438q15 21 36.5 47t35.5 42l14 16q-98 -70 -205 -70q-198 0 -328 133t-130 330q0 131 60 238.5t171.5 171t251.5 63.5q212 0 348.5 -135.5t136.5 -333.5q0 -161 -114 -334l-414 -606h-164zM592 594q151 0 243.5 98.5t92.5 243.5q0 143 -91.5 241.5t-244.5 98.5
q-151 0 -242.5 -98.5t-91.5 -241.5t90.5 -242.5t243.5 -99.5z" />
    <glyph glyph-name="colontablining" 
d="M205 444q-44 0 -77.5 33.5t-33.5 79.5t33.5 78.5t77.5 32.5q45 0 77.5 -32t32.5 -79t-32.5 -80t-77.5 -33zM205 -14q-44 0 -77.5 33t-33.5 79t33.5 78.5t77.5 32.5q45 0 77.5 -32t32.5 -79t-32.5 -79.5t-77.5 -32.5z" />
    <glyph glyph-name="semicolontablining" 
d="M205 444q-44 0 -77.5 33.5t-33.5 79.5t33.5 78.5t77.5 32.5q45 0 77.5 -32t32.5 -79t-32.5 -80t-77.5 -33zM88 -229l80 227q-33 11 -53.5 37.5t-20.5 62.5q0 45 34 78t77 33q45 0 77.5 -32.5t32.5 -78.5q0 -36 -24 -82l-123 -245h-80z" />
    <glyph glyph-name="lesstablining" horiz-adv-x="1187" 
d="M934 268l-729 379v21l729 372v-131l-504 -254l504 -256v-131z" />
    <glyph glyph-name="equaltablining" horiz-adv-x="1187" 
d="M209 721v127h770v-127h-770zM209 422v125h770v-125h-770z" />
    <glyph glyph-name="greatertablining" horiz-adv-x="1187" 
d="M254 268v131l504 256l-504 254v131l729 -372v-21z" />
    <glyph glyph-name="bracketlefttablining" horiz-adv-x="614" 
d="M150 -262v1741h389v-123h-246v-1495h246v-123h-389z" />
    <glyph glyph-name="bracketrighttablining" horiz-adv-x="614" 
d="M76 -262v123h243v1495h-243v123h389v-1741h-389z" />
    <glyph glyph-name="bracelefttablining" horiz-adv-x="614" 
d="M461 -262q-273 0 -273 295v309q0 79 -28.5 110t-89.5 31h-68v125h68q61 0 89.5 31.5t28.5 110.5v434q0 295 273 295h78v-123h-68q-70 0 -103.5 -38.5t-33.5 -135.5v-447q0 -89 -35 -132t-98 -56q133 -28 133 -191v-321q0 -97 33.5 -135.5t103.5 -38.5h68v-123h-78z" />
    <glyph glyph-name="bracerighttablining" horiz-adv-x="614" 
d="M74 -262v123h69q68 0 102 38.5t34 135.5v321q0 163 133 191q-63 13 -98 56t-35 132v447q0 97 -34 135.5t-102 38.5h-69v123h78q272 0 272 -295v-434q0 -78 29.5 -110t89.5 -32h67v-125h-67q-60 0 -89.5 -31.5t-29.5 -109.5v-309q0 -295 -272 -295h-78z" />
    <glyph glyph-name="degreetablining" horiz-adv-x="770" 
d="M385 866q-116 0 -198.5 79t-82.5 192q0 115 82.5 193.5t198.5 78.5q117 0 198 -78.5t81 -193.5q0 -114 -81 -192.5t-198 -78.5zM385 969q73 0 119.5 47.5t46.5 120.5q0 74 -46.5 122t-119.5 48t-118.5 -48t-45.5 -122q0 -73 45.5 -120.5t118.5 -47.5z" />
    <glyph glyph-name="centtablining" horiz-adv-x="1187" 
d="M586 -12q-165 22 -272 144t-107 292t107 293t272 145v221h104v-219q181 -11 293 -149l-100 -82q-73 92 -193 106v-630q125 13 205 110l98 -84q-116 -138 -303 -149v-224h-104v226zM586 735q-107 -20 -170.5 -105t-63.5 -206t63 -206t171 -105v622z" />
    <glyph glyph-name="sterlingtablining" horiz-adv-x="1187" 
d="M365 565h-209v115h159q-77 184 -77 321q0 177 112.5 292.5t300.5 115.5q279 0 393 -244l-120 -63q-43 90 -107 134t-166 44q-122 0 -192 -75.5t-70 -203.5q0 -131 74 -321h385v-115h-342q51 -148 51 -270q0 -34 -6 -64q51 -40 81.5 -60.5t81.5 -40t103 -19.5
q72 0 117.5 26.5t87.5 81.5l100 -84q-61 -78 -130.5 -114.5t-170.5 -36.5q-91 0 -162.5 36.5t-148.5 102.5q-39 -64 -103 -101.5t-141 -37.5q-90 0 -154.5 52.5t-64.5 139.5t61 140t154 53q87 0 166 -47q-7 102 -63 243zM416 203q-82 61 -146 61q-45 0 -75.5 -23.5
t-30.5 -62.5q0 -42 30 -66t76 -24q53 0 91 29t55 86z" />
    <glyph glyph-name="sectiontablining" horiz-adv-x="1187" 
d="M281 872q-58 83 -58 195q0 148 106.5 245t272.5 97q137 0 229 -58t140 -155l-119 -74q-41 78 -101 117t-149 39q-104 0 -164.5 -57.5t-60.5 -147.5q0 -89 44 -138.5t144 -94.5l223 -101q156 -70 224.5 -150.5t68.5 -193.5q0 -87 -49.5 -150.5t-138.5 -99.5
q68 -87 68 -192q0 -145 -99.5 -233.5t-286.5 -88.5q-140 0 -249.5 62t-169.5 162l116 77q95 -170 299 -170q121 0 178.5 52.5t57.5 140.5q0 75 -50 123.5t-155 95.5l-219 98q-148 66 -215.5 144.5t-67.5 193.5q0 177 181 262zM811 219q59 22 93 65t34 99q0 74 -48 123
t-163 100l-223 101q-98 45 -150 94q-51 -25 -79.5 -69.5t-28.5 -100.5q0 -79 45 -127t153 -96l218 -99q95 -42 149 -90z" />
    <glyph glyph-name="yentablining" horiz-adv-x="1187" 
d="M721 555l-53 -111v-69h393v-115h-393v-260h-146v260h-397v115h397v67l-53 113h-344v115h289l-342 723h159l316 -672q12 -27 25.5 -67t20.5 -66l7 -27q24 101 51 160l314 672h149l-340 -723h287v-115h-340z" />
    <glyph glyph-name="florintablining" horiz-adv-x="1187" 
d="M449 526h-203v115h215l51 451q18 158 95.5 237.5t197.5 79.5q178 0 256 -149l-100 -70q-27 48 -59.5 72t-90.5 24q-139 0 -158 -192l-51 -453h272v-115h-284l-111 -960h-139z" />
    <glyph glyph-name="dividetablining" horiz-adv-x="1187" 
d="M592 870q-42 0 -75.5 32.5t-33.5 78.5q0 45 33.5 77t75.5 32q44 0 77 -32t33 -77q0 -46 -33 -78.5t-77 -32.5zM209 596v127h768v-127h-768zM592 229q-42 0 -75.5 32.5t-33.5 78.5q0 45 33.5 77t75.5 32q44 0 77 -32t33 -77q0 -46 -33 -78.5t-77 -32.5z" />
    <glyph glyph-name="Eurotablining" horiz-adv-x="1187" 
d="M172 752h-137v114h147q35 252 169 397.5t331 145.5q152 0 252.5 -72.5t165.5 -210.5l-125 -59q-38 75 -73 118t-89.5 68t-130.5 25q-143 0 -232 -109.5t-116 -302.5h446v-114h-456q-2 -18 -2 -56q0 -62 6 -121h452v-114h-434q37 -165 127.5 -255.5t218.5 -90.5
q119 0 187.5 61.5t121.5 183.5l129 -57q-129 -319 -436 -319q-186 0 -319 127t-180 350h-160v114h141q-6 59 -6 121q0 38 2 56z" />
    <glyph glyph-name="perthousandtablining" horiz-adv-x="2375" 
d="M416 723q-135 0 -232.5 98t-97.5 246t97.5 245t232.5 97t232 -97t97 -245t-97 -246t-232 -98zM295 0l879 1393h145l-879 -1393h-145zM1962 -16q-135 0 -232.5 97t-97.5 245t97.5 245t232.5 97t231.5 -97t96.5 -245t-96.5 -245t-231.5 -97zM1200 -16q-135 0 -232.5 97
t-97.5 245t97.5 245t232.5 97t231.5 -97t96.5 -245t-96.5 -245t-231.5 -97zM416 840q87 0 143.5 64t56.5 163t-56.5 163t-143.5 64q-88 0 -145.5 -64t-57.5 -163t57.5 -163t145.5 -64zM1962 98q87 0 144 64.5t57 163.5q0 100 -57 163.5t-144 63.5q-88 0 -145.5 -63
t-57.5 -164q0 -99 57.5 -163.5t145.5 -64.5zM1200 98q86 0 143.5 64.5t57.5 163.5q0 100 -57.5 163.5t-143.5 63.5q-88 0 -145.5 -63t-57.5 -164q0 -99 57.5 -163.5t145.5 -64.5z" />
    <glyph glyph-name="minustabsmall" horiz-adv-x="1024" 
d="M156 453v127h712v-127h-712z" />
    <glyph glyph-name="multiplytabsmall" horiz-adv-x="1024" 
d="M514 424l-250 -248l-90 90l248 248l-248 248l90 90l248 -248l250 248l90 -90l-250 -248l250 -248l-90 -90z" />
    <glyph glyph-name="spacetabsmall" 
 />
    <glyph glyph-name="numbersigntabsmall" horiz-adv-x="1024" 
d="M322 918h-162v114h190l56 223h116l-55 -223h201l55 223h117l-56 -223h150v-114h-178l-56 -222h160v-114h-188l-56 -222h-116l55 222h-201l-55 -222h-117l56 222h-150v114h178zM639 918h-201l-55 -222h201z" />
    <glyph glyph-name="dollartabsmall" horiz-adv-x="1024" 
d="M457 -12q-128 13 -221.5 77t-133.5 148l111 59q80 -146 244 -170v383q-153 42 -226 112t-73 183q0 109 82 183.5t217 83.5v217h104v-220q96 -14 168 -64t109 -114l-103 -65q-61 106 -174 129v-340l12 -4q165 -48 242.5 -122t77.5 -190q0 -127 -86.5 -203t-245.5 -85v-230
h-104v232zM457 934q-78 -8 -121 -45.5t-43 -102.5q0 -64 36.5 -99.5t127.5 -63.5v311zM561 100q96 7 145.5 51t49.5 113q0 73 -43 115t-152 74v-353z" />
    <glyph glyph-name="percenttabsmall" horiz-adv-x="1536" 
d="M365 446q-122 0 -208.5 86t-86.5 216q0 129 86.5 215t208.5 86q119 0 205.5 -86.5t86.5 -214.5q0 -130 -86.5 -216t-205.5 -86zM373 0l645 1032h143l-645 -1032h-143zM1174 -16q-122 0 -208.5 85.5t-86.5 213.5q0 129 86.5 215t208.5 86q120 0 206 -86t86 -215
q0 -128 -85.5 -213.5t-206.5 -85.5zM365 557q73 0 122.5 53t49.5 138t-49.5 137.5t-122.5 52.5q-75 0 -125 -52.5t-50 -137.5t50 -138t125 -53zM1174 92q73 0 122.5 53t49.5 138t-49.5 137.5t-122.5 52.5q-75 0 -125 -52.5t-50 -137.5t50 -138t125 -53z" />
    <glyph glyph-name="parenlefttabsmall" horiz-adv-x="614" 
d="M442 -123q-342 350 -342 817q0 465 342 815l90 -71q-133 -154 -206.5 -332.5t-73.5 -411.5t73.5 -410t206.5 -333z" />
    <glyph glyph-name="parenrighttabsmall" horiz-adv-x="614" 
d="M172 -123l-92 74q134 156 208 333t74 410t-74 410.5t-208 333.5l92 71q340 -352 340 -815q0 -469 -340 -817z" />
    <glyph glyph-name="plustabsmall" horiz-adv-x="1024" 
d="M578 453v-312h-132v312h-290v127h290v311h132v-311h290v-127h-290z" />
    <glyph glyph-name="commatabsmall" 
d="M88 -229l80 227q-33 11 -53.5 37.5t-20.5 62.5q0 45 34 78t77 33q45 0 77.5 -32.5t32.5 -78.5q0 -36 -24 -82l-123 -245h-80z" />
    <glyph glyph-name="periodtabsmall" 
d="M205 -14q-44 0 -77.5 33t-33.5 79t33.5 78.5t77.5 32.5q45 0 77.5 -32t32.5 -79t-32.5 -79.5t-77.5 -32.5z" />
    <glyph glyph-name="zerotabsmall" horiz-adv-x="1024" 
d="M510 -16q-197 0 -314.5 148.5t-117.5 383.5q0 238 118.5 385.5t313.5 147.5q198 0 317 -147.5t119 -385.5q0 -235 -118 -383.5t-318 -148.5zM510 113q133 0 209 107.5t76 295.5q0 190 -75.5 297t-209.5 107q-132 0 -207.5 -107t-75.5 -297q0 -188 75.5 -295.5
t207.5 -107.5z" />
    <glyph glyph-name="onetabsmall" horiz-adv-x="1024" 
d="M446 123v786h-256v123h402v-909h250v-123h-666v123h270z" />
    <glyph glyph-name="twotabsmall" horiz-adv-x="1024" 
d="M123 0v16l430 443q147 147 147 280q0 81 -46 131t-134 50q-164 0 -223 -195l-129 33q27 130 122.5 210.5t233.5 80.5q147 0 235.5 -85.5t88.5 -220.5q0 -165 -176 -348l-187 -188q-16 -16 -42.5 -38.5t-44.5 -36.5l-19 -15q74 8 129 8h350v-125h-735z" />
    <glyph glyph-name="threetabsmall" horiz-adv-x="1024" 
d="M498 -16q-136 0 -236.5 61.5t-148.5 159.5l123 61q85 -155 256 -155q112 0 176.5 66.5t64.5 166.5q0 102 -68 164.5t-186 62.5q-67 0 -131 -22l-8 10l215 270q15 18 37 40.5t36 35.5l15 13q-84 -13 -131 -13h-311v127h653v-18l-215 -266q-16 -20 -35 -38.5t-30 -27.5
l-11 -8q142 -7 230 -101t88 -235q0 -157 -109.5 -255.5t-273.5 -98.5z" />
    <glyph glyph-name="fourtabsmall" horiz-adv-x="1024" 
d="M793 295h120v-117h-120v-178h-142v178h-557v101l680 763h19v-747zM653 293v323q0 24 2.5 65t5.5 70l3 29q-50 -80 -103 -139l-229 -276q-16 -16 -37.5 -36.5t-34.5 -32.5l-14 -13q74 10 123 10h284z" />
    <glyph glyph-name="fivetabsmall" horiz-adv-x="1024" 
d="M498 -16q-127 0 -226 60t-147 149l119 67q93 -149 250 -149q113 0 176 64t63 169q0 106 -67.5 170t-184.5 64q-74 0 -141 -22.5t-113 -59.5l-10 4v532h584v-125h-459v-245q76 32 164 32q168 0 270.5 -99t102.5 -253q0 -159 -102.5 -258.5t-278.5 -99.5z" />
    <glyph glyph-name="sixtabsmall" horiz-adv-x="1024" 
d="M512 -16q-165 0 -272 102t-107 258q0 122 90 258l307 430h162l-182 -254q-17 -24 -46 -56t-49 -52l-20 -21q75 47 152 47q147 0 246.5 -100t99.5 -250q0 -153 -107.5 -257.5t-273.5 -104.5zM512 111q109 0 172.5 66.5t63.5 168.5t-63 170t-173 68q-106 0 -172 -68.5
t-66 -169.5q0 -100 65.5 -167.5t172.5 -67.5z" />
    <glyph glyph-name="seventabsmall" horiz-adv-x="1024" 
d="M240 0l446 907h-545v125h752v-12l-500 -1020h-153z" />
    <glyph glyph-name="eighttabsmall" horiz-adv-x="1024" 
d="M358 590q-145 60 -145 207q0 107 86.5 179.5t212.5 72.5t211.5 -72.5t85.5 -179.5q0 -144 -145 -207q105 -31 168 -102t63 -179q0 -140 -107.5 -232.5t-275.5 -92.5t-274.5 92t-106.5 233q0 108 61.5 179t165.5 102zM512 637q73 0 117.5 40.5t44.5 108.5q0 63 -45 104.5
t-117 41.5t-117 -41.5t-45 -104.5q0 -68 44.5 -108.5t117.5 -40.5zM512 109q105 0 170.5 57.5t65.5 148.5q0 94 -65 152.5t-171 58.5t-171 -58.5t-65 -152.5q0 -92 65 -149t171 -57z" />
    <glyph glyph-name="ninetabsmall" horiz-adv-x="1024" 
d="M334 0l203 281q16 22 39.5 47t39.5 39l15 14q-64 -47 -154 -47q-147 0 -247.5 100.5t-100.5 253.5q0 152 108.5 256.5t276.5 104.5q166 0 272.5 -103t106.5 -258q0 -131 -94 -266l-305 -422h-160zM514 446q107 0 171.5 69t64.5 171q0 99 -63.5 168.5t-172.5 69.5
q-110 0 -175 -69t-65 -169q0 -103 63.5 -171.5t176.5 -68.5z" />
    <glyph glyph-name="colontabsmall" 
d="M205 444q-44 0 -77.5 33.5t-33.5 79.5t33.5 78.5t77.5 32.5q45 0 77.5 -32t32.5 -79t-32.5 -80t-77.5 -33zM205 -14q-44 0 -77.5 33t-33.5 79t33.5 78.5t77.5 32.5q45 0 77.5 -32t32.5 -79t-32.5 -79.5t-77.5 -32.5z" />
    <glyph glyph-name="semicolontabsmall" 
d="M205 444q-44 0 -77.5 33.5t-33.5 79.5t33.5 78.5t77.5 32.5q45 0 77.5 -32t32.5 -79t-32.5 -80t-77.5 -33zM88 -229l80 227q-33 11 -53.5 37.5t-20.5 62.5q0 45 34 78t77 33q45 0 77.5 -32.5t32.5 -78.5q0 -36 -24 -82l-123 -245h-80z" />
    <glyph glyph-name="lesstabsmall" horiz-adv-x="1024" 
d="M809 152l-655 337v21l655 334v-131l-434 -215l434 -215v-131z" />
    <glyph glyph-name="equaltabsmall" horiz-adv-x="1024" 
d="M154 578v124h716v-124h-716zM154 311v127h716v-127h-716z" />
    <glyph glyph-name="greatertabsmall" horiz-adv-x="1024" 
d="M215 152v131l434 215l-434 215v131l655 -338v-21z" />
    <glyph glyph-name="bracketlefttabsmall" horiz-adv-x="614" 
d="M150 -113v1612h389v-123h-246v-1366h246v-123h-389z" />
    <glyph glyph-name="bracketrighttabsmall" horiz-adv-x="614" 
d="M76 -113v123h243v1366h-243v123h389v-1612h-389z" />
    <glyph glyph-name="bracelefttabsmall" horiz-adv-x="614" 
d="M461 -113q-273 0 -273 295v174q0 79 -28.5 110.5t-89.5 31.5h-68v125h68q61 0 89.5 31t28.5 110v440q0 295 273 295h78v-123h-68q-70 0 -103.5 -38.5t-33.5 -135.5v-452q0 -89 -35 -132.5t-98 -56.5q133 -28 133 -190v-187q0 -97 33.5 -135.5t103.5 -38.5h68v-123h-78z
" />
    <glyph glyph-name="bracerighttabsmall" horiz-adv-x="614" 
d="M74 -113v123h69q68 0 102 38.5t34 135.5v187q0 89 35 132t98 56q-133 28 -133 191v452q0 97 -34 135.5t-102 38.5h-69v123h78q272 0 272 -295v-440q0 -78 29.5 -109.5t89.5 -31.5h67v-125h-67q-60 0 -89.5 -32t-29.5 -110v-174q0 -295 -272 -295h-78z" />
    <glyph glyph-name="degreetabsmall" horiz-adv-x="665" 
d="M334 586q-100 0 -170 67t-70 164q0 98 70 165t170 67q99 0 168 -67t69 -165q0 -97 -69.5 -164t-167.5 -67zM334 680q58 0 94.5 38.5t36.5 98.5t-36.5 98.5t-94.5 38.5q-60 0 -96.5 -38.5t-36.5 -98.5t36.5 -98.5t96.5 -38.5z" />
    <glyph glyph-name="centtabsmall" horiz-adv-x="1024" 
d="M504 711v202h104v-198q151 -18 238 -119l-96 -80q-54 63 -142 78v-492q98 14 158 84l94 -82q-95 -106 -252 -118v-209h-104v211q-135 21 -223 121t-88 241q0 140 88 240.5t223 120.5zM504 111v477q-76 -17 -122 -82.5t-46 -155.5q0 -92 45.5 -157t122.5 -82z" />
    <glyph glyph-name="sterlingtabsmall" horiz-adv-x="1024" 
d="M328 436h-166v115h114q-45 110 -45 197q0 133 90 217t244 84q122 0 206.5 -54t125.5 -143l-117 -66q-67 138 -211 138q-89 0 -137.5 -49t-48.5 -136q0 -83 43 -188h295v-115h-252q39 -103 39 -200q0 -20 -4 -48q111 -77 201 -77q50 0 84 18t65 57l92 -88
q-46 -59 -102 -86.5t-133 -27.5q-69 0 -127.5 27.5t-120.5 76.5q-33 -48 -86 -76t-115 -28q-79 0 -131.5 45t-52.5 116q0 70 50 114t122 44q61 0 129 -35q-10 73 -51 168zM373 162q-66 49 -117 49q-34 0 -55 -19t-21 -47q0 -31 21 -51t57 -20q37 0 69 23t46 65z" />
    <glyph glyph-name="sectiontabsmall" horiz-adv-x="1024" 
d="M279 627q-48 67 -48 161q0 114 78.5 187.5t206.5 73.5q200 0 279 -158l-111 -66q-53 101 -166 101q-66 0 -104.5 -37.5t-38.5 -95.5t31.5 -94.5t91.5 -61.5l172 -76q113 -51 164 -107.5t51 -138.5q0 -67 -38.5 -117t-105.5 -79q52 -65 52 -150q0 -112 -79.5 -181
t-226.5 -69q-109 0 -201.5 51t-135.5 136l112 67q30 -59 89 -96t128 -37q84 0 125 35t41 92q0 51 -32.5 84t-96.5 62l-174 73q-108 48 -156.5 103.5t-48.5 138.5q0 69 40 120.5t102 78.5zM668 186q82 32 82 105q0 50 -32.5 82t-105.5 63l-178 78q-51 22 -96 53
q-66 -40 -66 -108q0 -53 27.5 -85.5t95.5 -62.5l180 -75q49 -21 93 -50z" />
    <glyph glyph-name="yentabsmall" horiz-adv-x="1024" 
d="M440 0v174h-331v111h331v47l-37 69h-294v111h235l-272 520h161l236 -465q14 -26 25.5 -60t16.5 -55l5 -20q16 78 45 135l240 465h149l-272 -520h240v-111h-295l-37 -69v-47h332v-111h-332v-174h-146z" />
    <glyph glyph-name="florintabsmall" horiz-adv-x="1024" 
d="M356 440h-182v115h195l20 176q17 158 95 238t196 80q176 0 258 -150l-100 -70q-27 48 -60 72.5t-92 24.5q-136 0 -158 -193l-20 -178h254v-115h-266l-72 -633h-139z" />
    <glyph glyph-name="dividetabsmall" horiz-adv-x="1024" 
d="M510 731q-42 0 -73 30.5t-31 74.5q0 45 31 75.5t73 30.5q43 0 74.5 -30.5t31.5 -75.5q0 -44 -31.5 -74.5t-74.5 -30.5zM154 453v127h714v-127h-714zM510 90q-42 0 -73 30.5t-31 74.5q0 45 31 75.5t73 30.5q43 0 74.5 -30.5t31.5 -75.5q0 -44 -31.5 -74.5t-74.5 -30.5z
" />
    <glyph glyph-name="Eurotabsmall" horiz-adv-x="1024" 
d="M172 563h-127v111h141q37 172 147 273.5t267 101.5q121 0 204 -49.5t144 -147.5l-106 -74q-48 77 -100 111.5t-140 34.5q-104 0 -173 -66t-97 -184h348v-111h-363q-2 -14 -2 -47q0 -28 4 -78h361v-110h-340q30 -105 96.5 -162t167.5 -57q88 0 146.5 41t103.5 116l115 -65
q-60 -104 -147 -160.5t-218 -56.5q-151 0 -259 92.5t-150 251.5h-150v110h129q-4 50 -4 78q0 33 2 47z" />
    <glyph glyph-name="perthousandtabsmall" horiz-adv-x="2252" 
d="M379 446q-121 0 -208 86t-87 216q0 128 87 214.5t208 86.5t207 -86.5t86 -214.5q0 -130 -86 -216t-207 -86zM391 0l645 1032h144l-645 -1032h-144zM1874 -16q-122 0 -207.5 85t-85.5 214t85.5 215t207.5 86q120 0 206.5 -86t86.5 -215q0 -128 -86 -213.5t-207 -85.5z
M1194 -16q-122 0 -207.5 85t-85.5 214t85.5 215t207.5 86q120 0 206.5 -86t86.5 -215q0 -128 -86 -213.5t-207 -85.5zM379 557q75 0 124.5 53t49.5 138t-49.5 137.5t-124.5 52.5q-74 0 -124 -53t-50 -137q0 -85 50 -138t124 -53zM1874 92q74 0 123 53t49 138t-48.5 137.5
t-123.5 52.5t-123.5 -52.5t-48.5 -137.5t49 -138t123 -53zM1194 92q74 0 123 53t49 138t-48.5 137.5t-123.5 52.5t-123.5 -52.5t-48.5 -137.5t49 -138t123 -53z" />
    <glyph glyph-name="at.up" horiz-adv-x="1814" 
d="M918 -215q-170 0 -320.5 59t-260.5 163.5t-173.5 257t-63.5 331.5q0 173 65.5 325t176 258.5t260 168t313.5 61.5q228 0 411 -99t285.5 -271.5t102.5 -385.5q0 -227 -87 -342.5t-230 -115.5q-204 0 -238 190q-89 -197 -295 -197q-153 0 -255.5 111.5t-102.5 280.5
q0 170 102.5 283.5t253.5 113.5q96 0 165.5 -47t107.5 -129l-5 157h142v-475q0 -90 29.5 -134t99.5 -44q85 0 135.5 85t50.5 261q0 138 -47 256.5t-133 204t-213 134t-279 48.5q-197 0 -353 -92.5t-241 -251.5t-85 -354q0 -199 83 -356.5t239 -248.5t360 -91q183 0 335 82
l54 -105q-173 -92 -389 -92zM893 307q102 0 172 80t70 193q0 115 -70 195.5t-172 80.5q-106 0 -174 -79t-68 -197q0 -116 68 -194.5t174 -78.5z" />
    <glyph glyph-name="fb.alt" horiz-adv-x="1708" 
d="M207 0v727h-137v121h137v385q0 137 62.5 204.5t168.5 67.5q120 0 197 -84l-90 -90q-38 45 -94 45q-49 0 -75 -32t-26 -111v-385h217v-121h-217v-727h-143zM1202 -16q-113 0 -201.5 54t-130.5 144l4 -182h-143v1479h143v-805q46 89 130 140.5t200 51.5q172 0 289 -126
t117 -314q0 -189 -117.5 -315.5t-290.5 -126.5zM1169 109q132 0 211.5 88.5t79.5 228.5q0 138 -79.5 225.5t-211.5 87.5q-135 0 -218 -87.5t-83 -225.5q0 -139 83 -228t218 -89z" />
    <glyph glyph-name="fh.alt" horiz-adv-x="1636" 
d="M207 0v727h-137v121h137v385q0 137 62.5 204.5t168.5 67.5q120 0 197 -84l-90 -90q-38 45 -94 45q-49 0 -75 -32t-26 -111v-385h217v-121h-217v-727h-143zM731 0v1479h143v-797q42 86 121.5 135t182.5 49q142 0 228.5 -93.5t86.5 -256.5v-516h-141v500q0 114 -53 174.5
t-158 60.5q-121 0 -194 -71.5t-73 -196.5v-467h-143z" />
    <glyph glyph-name="fk.alt" horiz-adv-x="1529" 
d="M207 0v727h-137v121h137v385q0 137 62.5 204.5t168.5 67.5q120 0 197 -84l-90 -90q-38 45 -94 45q-49 0 -75 -32t-26 -111v-385h217v-121h-217v-727h-143zM874 258v-258h-143v1479h143v-949q0 -52 -8 -118l402 436h166l-326 -356l377 -492h-170l-307 397z" />
    <glyph glyph-name="ffb.alt" horiz-adv-x="2232" 
d="M207 0v727h-137v121h137v344q0 137 62.5 204.5t170.5 67.5q139 0 209 -90l-92 -90q-41 51 -102 51q-50 0 -77.5 -32.5t-27.5 -110.5v-344h381v385q0 137 63 204.5t169 67.5q119 0 196 -84l-90 -90q-38 45 -94 45q-49 0 -75 -32t-26 -111v-385h220v-121h-220v-727h-143
v727h-381v-727h-143zM1726 -16q-113 0 -201 54t-130 144l4 -182h-144v1479h144v-805q46 89 130 140.5t200 51.5q172 0 288.5 -126t116.5 -314q0 -190 -117 -316t-291 -126zM1694 109q132 0 211.5 88.5t79.5 228.5q0 138 -79.5 225.5t-211.5 87.5q-135 0 -218 -87.5
t-83 -225.5q0 -139 83 -228t218 -89z" />
    <glyph glyph-name="ffh.alt" horiz-adv-x="2160" 
d="M207 0v727h-137v121h137v344q0 137 62.5 204.5t170.5 67.5q139 0 209 -90l-92 -90q-41 51 -102 51q-50 0 -77.5 -32.5t-27.5 -110.5v-344h381v385q0 137 63 204.5t169 67.5q119 0 196 -84l-90 -90q-38 45 -94 45q-49 0 -75 -32t-26 -111v-385h220v-121h-220v-727h-143
v727h-381v-727h-143zM1255 0v1479h144v-797q42 86 121 135t182 49q142 0 228.5 -93.5t86.5 -256.5v-516h-141v500q0 114 -53 174.5t-158 60.5q-120 0 -193 -72t-73 -196v-467h-144z" />
    <glyph glyph-name="ffk.alt" horiz-adv-x="2054" 
d="M207 0v727h-137v121h137v344q0 137 62.5 204.5t170.5 67.5q139 0 209 -90l-92 -90q-41 51 -102 51q-50 0 -77.5 -32.5t-27.5 -110.5v-344h381v385q0 137 63 204.5t169 67.5q119 0 196 -84l-90 -90q-38 45 -94 45q-49 0 -75 -32t-26 -111v-385h220v-121h-220v-727h-143
v727h-381v-727h-143zM1399 258v-258h-144v1479h144v-949q0 -52 -8 -118l401 436h166l-326 -356l377 -492h-170l-307 397z" />
    <glyph glyph-name="fffl.alt" horiz-adv-x="2086" 
d="M731 727h-381v-727h-143v727h-137v121h137v344q0 137 62.5 204.5t170.5 67.5q139 0 209 -90l-92 -90q-41 51 -102 51q-50 0 -77.5 -32.5t-27.5 -110.5v-344h381v364q0 137 63 205t171 68q139 0 209 -90l-93 -90q-41 51 -102 51q-105 0 -105 -144v-364h381v385
q0 137 63 204.5t169 67.5q119 0 196 -84l-90 -90q-38 45 -94 45q-49 0 -74.5 -32t-25.5 -111v-385h219v-121h-219v-727h-144v727h-381v-727h-143v727zM1780 0v1479h143v-1479h-143z" />
    <glyph glyph-name="space.up" horiz-adv-x="485" 
 />
    <glyph glyph-name="nbspace.up" horiz-adv-x="372" 
 />
    <glyph glyph-name="hyphen.up" horiz-adv-x="624" 
d="M94 479v129h436v-129h-436z" />
    <glyph glyph-name="guillemotleft.up" horiz-adv-x="813" 
d="M588 172l-193 324v16l193 324h147l-196 -332l196 -332h-147zM270 172l-192 324v16l192 324h148l-197 -332l197 -332h-148z" />
    <glyph glyph-name="guillemotright.up" horiz-adv-x="813" 
d="M395 172l197 330l-197 334h148l192 -326v-16l-192 -322h-148zM78 172l196 330l-196 334h147l193 -326v-16l-193 -322h-147z" />
    <glyph glyph-name="endash.up" horiz-adv-x="927" 
d="M88 481v127h750v-127h-750z" />
    <glyph glyph-name="emdash.up" horiz-adv-x="1443" 
d="M88 481v127h1268v-127h-1268z" />
    <glyph glyph-name="guilsinglleft.up" horiz-adv-x="495" 
d="M270 172l-192 324v16l192 324h148l-197 -332l197 -332h-148z" />
    <glyph glyph-name="guilsinglright.up" horiz-adv-x="495" 
d="M78 172l196 330l-196 334h147l193 -326v-16l-193 -322h-147z" />
    <glyph glyph-name="amacron.alt" horiz-adv-x="1120" 
d="M342 1061v113h430v-113h-430zM504 -16q-171 0 -288.5 126.5t-117.5 315.5q0 188 117 314t291 126q114 0 195.5 -53t127.5 -147l-4 182h144v-848h-144l4 182q-45 -89 -129.5 -143.5t-195.5 -54.5zM535 109q132 0 213 88.5t81 226.5q0 137 -81 226t-213 89t-209.5 -87
t-77.5 -226q0 -140 78 -228.5t209 -88.5z" />
    <glyph glyph-name="aogonek.alt" horiz-adv-x="1122" 
d="M877 -121q-36 -59 -50 -93t-14 -77q0 -41 23 -62.5t57 -21.5q36 0 59.5 19t44.5 53l90 -51q-62 -121 -200 -121q-80 0 -135.5 47t-55.5 133q0 96 84 207l43 59q0 -1 1.5 52t3.5 106l1 53q-45 -89 -129.5 -143.5t-195.5 -54.5q-171 0 -288.5 126.5t-117.5 315.5
q0 188 117 314t291 126q114 0 195.5 -53t127.5 -147l-4 182h144v-817zM535 109q132 0 213 88.5t81 226.5q0 137 -81 226t-213 89t-209.5 -87t-77.5 -226q0 -140 78 -228.5t209 -88.5z" />
    <glyph glyph-name="gcommaaccent.alt" horiz-adv-x="1128" 
d="M653 1434l-63 -203q26 -10 44.5 -36t18.5 -60q0 -44 -31 -74.5t-73 -30.5q-41 0 -73 31t-32 74q0 37 25 79l106 220h78zM549 -457q-150 0 -258 63.5t-172 172.5l106 74q113 -187 320 -187q289 0 289 318v192q-43 -86 -128 -139t-196 -53q-174 0 -293 126.5t-119 315.5
q0 188 118.5 314t291.5 126q117 0 200 -54t130 -146l-4 182h143v-875q0 -216 -115 -323t-313 -107zM539 109q134 0 217.5 89t83.5 228q0 137 -83.5 225t-217.5 88q-132 0 -212.5 -87.5t-80.5 -225.5q0 -140 80.5 -228.5t212.5 -88.5z" />
    <glyph glyph-name="abreve.alt" horiz-adv-x="1120" 
d="M565 1001q-114 0 -183 66t-85 172l115 21q32 -146 153 -146q122 0 154 146l115 -21q-16 -106 -85.5 -172t-183.5 -66zM504 -16q-171 0 -288.5 126.5t-117.5 315.5q0 188 117 314t291 126q114 0 195.5 -53t127.5 -147l-4 182h144v-848h-144l4 182q-45 -89 -129.5 -143.5
t-195.5 -54.5zM535 109q132 0 213 88.5t81 226.5q0 137 -81 226t-213 89t-209.5 -87t-77.5 -226q0 -140 78 -228.5t209 -88.5z" />
    <glyph glyph-name="umacron.alt" horiz-adv-x="1038" 
d="M303 1061v113h430v-113h-430zM516 -18q-175 0 -274 103.5t-99 289.5v473h144v-467q0 -135 56 -203.5t175 -68.5q121 0 177.5 68.5t56.5 203.5v467h141v-473q0 -185 -101 -289t-276 -104z" />
    <glyph glyph-name="uring.alt" horiz-adv-x="1038" 
d="M518 991q-90 0 -152.5 60t-62.5 145q0 87 62.5 147t152.5 60t152.5 -60t62.5 -147q0 -85 -62.5 -145t-152.5 -60zM516 -18q-175 0 -274 103.5t-99 289.5v473h144v-467q0 -135 56 -203.5t175 -68.5q121 0 177.5 68.5t56.5 203.5v467h141v-473q0 -185 -101 -289t-276 -104z
M518 1083q47 0 77 31t30 82q0 52 -29.5 82.5t-77.5 30.5t-77 -30.5t-29 -82.5q0 -51 29.5 -82t76.5 -31z" />
    <glyph glyph-name="uhungarumlaut.alt" horiz-adv-x="1038" 
d="M598 1020l139 395h156l-182 -395h-113zM315 1020l138 395h155l-180 -395h-113zM516 -18q-175 0 -274 103.5t-99 289.5v473h144v-467q0 -135 56 -203.5t175 -68.5q121 0 177.5 68.5t56.5 203.5v467h141v-473q0 -185 -101 -289t-276 -104z" />
    <glyph glyph-name="uogonek.alt" horiz-adv-x="1038" 
d="M483 -18q-160 11 -250 114t-90 279v473h144v-467q0 -135 56 -203.5t175 -68.5q121 0 177.5 68.5t56.5 203.5v467h141v-473q0 -163 -80 -264t-221 -123l-66 -109q-35 -58 -49 -92.5t-14 -77.5q0 -41 23 -62.5t57 -21.5q36 0 59.5 19t44.5 53l90 -51q-62 -121 -200 -121
q-80 0 -135.5 47t-55.5 133q0 96 84 207z" />
    <glyph glyph-name="Gcommaaccent.alt" horiz-adv-x="1560" 
d="M811 -16q-199 0 -363 90t-260 253.5t-96 368.5q0 154 56.5 287.5t153 226.5t228.5 146t279 53q184 0 329.5 -70t235.5 -211l-117 -84q-147 232 -448 232q-161 0 -290 -75.5t-201 -208t-72 -296.5q0 -249 160.5 -414t404.5 -165q114 0 209 33t159 89.5t103.5 129
t52.5 155.5h-497v131h657q-5 -305 -188.5 -488t-495.5 -183zM698 -524l64 202q-26 10 -45 36.5t-19 60.5q0 43 31.5 73.5t73.5 30.5q41 0 72.5 -30.5t31.5 -73.5q0 -39 -24 -80l-107 -219h-78z" />
    <glyph glyph-name="Gbreve.alt" horiz-adv-x="1560" 
d="M793 1524q-114 0 -183.5 65.5t-85.5 171.5l115 21q32 -146 154 -146q121 0 153 146l115 -21q-16 -106 -85 -171.5t-183 -65.5zM811 -16q-199 0 -363 90t-260 253.5t-96 368.5q0 154 56.5 287.5t153 226.5t228.5 146t279 53q184 0 329.5 -70t235.5 -211l-117 -84
q-147 232 -448 232q-161 0 -290 -75.5t-201 -208t-72 -296.5q0 -249 160.5 -414t404.5 -165q114 0 209 33t159 89.5t103.5 129t52.5 155.5h-497v131h657q-5 -305 -188.5 -488t-495.5 -183z" />
    <glyph glyph-name="gbreve.alt" horiz-adv-x="1128" 
d="M571 1001q-114 0 -183 66t-85 172l115 21q32 -146 153 -146q122 0 154 146l115 -21q-16 -106 -85.5 -172t-183.5 -66zM549 -457q-150 0 -258 63.5t-172 172.5l106 74q113 -187 320 -187q289 0 289 318v192q-43 -86 -128 -139t-196 -53q-174 0 -293 126.5t-119 315.5
q0 188 118.5 314t291.5 126q117 0 200 -54t130 -146l-4 182h143v-875q0 -216 -115 -323t-313 -107zM539 109q134 0 217.5 89t83.5 228q0 137 -83.5 225t-217.5 88q-132 0 -212.5 -87.5t-80.5 -225.5q0 -140 80.5 -228.5t212.5 -88.5z" />
    <glyph glyph-name="Gcircumflex.alt" horiz-adv-x="1560" 
d="M526 1538l262 395h19l262 -395h-125l-145 203l-148 -203h-125zM811 -16q-199 0 -363 90t-260 253.5t-96 368.5q0 154 56.5 287.5t153 226.5t228.5 146t279 53q184 0 329.5 -70t235.5 -211l-117 -84q-147 232 -448 232q-161 0 -290 -75.5t-201 -208t-72 -296.5
q0 -249 160.5 -414t404.5 -165q114 0 209 33t159 89.5t103.5 129t52.5 155.5h-497v131h657q-5 -305 -188.5 -488t-495.5 -183z" />
    <glyph glyph-name="gcircumflex.alt" horiz-adv-x="1128" 
d="M303 1016l262 395h19l262 -395h-125l-146 203l-147 -203h-125zM561 -457q-150 0 -258 63.5t-172 172.5l107 74q113 -187 319 -187q289 0 289 318v192q-43 -86 -128 -139t-196 -53q-174 0 -292.5 126t-118.5 316q0 188 118 314t291 126q117 0 200 -54t130 -146l-4 182h143
v-875q0 -216 -115 -323t-313 -107zM551 109q134 0 217.5 89t83.5 228q0 137 -83.5 225t-217.5 88q-132 0 -212.5 -87.5t-80.5 -225.5q0 -140 80.5 -228.5t212.5 -88.5z" />
    <glyph glyph-name="ubreve.alt" horiz-adv-x="1038" 
d="M518 1001q-114 0 -183 66t-85 172l115 21q32 -146 153 -146q122 0 154 146l114 -21q-16 -106 -85 -172t-183 -66zM516 -18q-175 0 -274 103.5t-99 289.5v473h144v-467q0 -135 56 -203.5t175 -68.5q121 0 177.5 68.5t56.5 203.5v467h141v-473q0 -185 -101 -289t-276 -104z
" />
    <glyph glyph-name="Amacronsmall" horiz-adv-x="1050" 
d="M309 1212v113h430v-113h-430zM72 0l442 1044h21l444 -1044h-152l-61 154h-492l-61 -154h-141zM322 264h399l-148 373q-12 28 -25 68t-20 66l-6 26q-24 -97 -49 -160z" />
    <glyph glyph-name="Aogoneksmall" horiz-adv-x="1050" 
d="M969 23l-86 -144q-36 -59 -50 -93t-14 -77q0 -41 23 -62.5t57 -21.5q60 0 105 72l90 -51q-62 -121 -201 -121q-80 0 -135.5 47t-55.5 133q0 96 84 207l50 68l-70 174h-492l-61 -154h-141l442 1044h21zM322 264h399l-148 373q-12 28 -25 68t-20 66l-6 26q-24 -97 -49 -160
z" />
    </font>
</defs>
</svg>
